<svg xmlns="http://www.w3.org/2000/svg" version="1.1" xmlns:xlink="http://www.w3.org/1999/xlink" xmlns:svgjs="http://svgjs.com/svgjs" viewBox="0 0 48 48" width="48" height="48"><title>Exported from Streamline App (https://app.streamlineicons.com)</title><g transform="matrix(0.12972972972972974,0,0,0.12972972972972974,0,0)"><path d="M113.11,238.26a.24.24,0,0,1,.1.21.28.28,0,0,1-.1.21L13.35,317.22a2.16,2.16,0,0,1-2.06.3,1.65,1.65,0,0,1-1.14-1.5c0-3.36,0-6.53.06-9.7,0-.48.78-1,1.34-1.4,8.07-5.31,16.19-10.58,24.26-15.89,7.36-4.84,14.67-9.75,22-14.6q27.38-18,54.77-36A3.75,3.75,0,0,1,113.11,238.26Z"></path><path d="M10.16,78a1.64,1.64,0,0,1,1.06-1.47,2.15,2.15,0,0,1,2,.16l109.7,71.43a.38.38,0,0,1,.12.56c-1.82-1-3.66-1.91-5.47-2.91Q93,132.19,68.47,118.62c-9.64-5.31-19.33-10.55-29-15.82L11.67,87.63a2.54,2.54,0,0,1-1.56-2.57C10.19,82.75,10.17,80.43,10.16,78Z"></path><path d="M348.6,35.92a1.93,1.93,0,0,1,1.78,1,1.46,1.46,0,0,1-.39,1.78L243.78,132.12a.51.51,0,0,1-.63,0c2.57-2.58,5.14-5.17,7.72-7.74l22.32-22.21,39.72-39.53c7.89-7.84,16-15.52,23.57-23.58a9.26,9.26,0,0,1,8.4-3.26C346.1,35.92,347.32,35.93,348.6,35.92Z"></path><path d="M270.21,140.23a.41.41,0,0,1-.13-.34.44.44,0,0,1,.22-.31l86.58-52.24a2.17,2.17,0,0,1,2-.12,1.64,1.64,0,0,1,1,1.45c0,2.35,0,4.57-.08,6.8,0,.46-.81,1-1.4,1.32-16.06,7.91-32.16,15.76-48.22,23.68-12.82,6.31-25.6,12.69-38.4,19C271.28,139.77,270.74,140,270.21,140.23Z"></path><path d="M35.19,38.58a1.46,1.46,0,0,1-.33-1.75,1.93,1.93,0,0,1,1.74-1c2.33,0,4.48,0,6.64,0a2.92,2.92,0,0,1,1.82.84q19.19,21,38.29,42.05Q97.17,94,111,109.2c.23.26.44.54.65.81a.43.43,0,0,1-.12.64Z"></path><path d="M359.89,292.53a1.63,1.63,0,0,1-1.07,1.47,2.19,2.19,0,0,1-2-.18l-77.44-51.54a.32.32,0,0,1-.1-.47c1.89,1,3.8,1.9,5.66,2.9Q308,257,331,269.35q14,7.5,27.9,15.06a1.92,1.92,0,0,1,.94,1.36C359.9,288,359.9,290.19,359.89,292.53Z"></path><path d="M27.3,334.4a1.94,1.94,0,0,1-1.75-1,1.46,1.46,0,0,1,.37-1.77l101.47-91.2a.57.57,0,0,1,.7,0l-6,5.83c-7.77,7.55-15.57,15.08-23.32,22.65q-18.47,18-36.88,36.11c-7.26,7.09-14.59,14.13-21.87,21.2-2.38,2.32-4.64,4.73-7.09,7a5,5,0,0,1-2.75,1.12C29.26,334.38,28.31,334.4,27.3,334.4Z"></path><path d="M10.19,48.25a1.67,1.67,0,0,1,1.17-1.49,2.16,2.16,0,0,1,2.06.33l102.89,84.16a.38.38,0,0,1,0,.57q-3.54-2.62-7.07-5.26-16.05-12.11-32.11-24.22C64.86,93.11,52.48,84,40.17,74.73c-9.4-7-18.73-14.16-28.14-21.2-1.33-1-2.09-2-1.92-3.58C10.16,49.39,10.19,48.83,10.19,48.25Z"></path><path d="M203.18,36a2.06,2.06,0,0,1,1.43.56,1.48,1.48,0,0,1,.46,1.28q-6.31,42.87-12.6,85.48a.45.45,0,0,1-.5.34q2.42-43,4.82-86.1A1.81,1.81,0,0,1,198.7,36Z"></path><path d="M238.56,255.72a.51.51,0,0,1,.32-.07.49.49,0,0,1,.29.16l60.16,76a1.46,1.46,0,0,1,.11,1.68,2,2,0,0,1-1.68.88c-1.7,0-3.28,0-4.86-.08a2.86,2.86,0,0,1-1.67-1.29c-5.18-7.57-10.29-15.18-15.46-22.75q-10.47-15.35-21-30.66l-16-23.25A2.72,2.72,0,0,1,238.56,255.72Z"></path><path d="M127.81,333.15a1.9,1.9,0,0,1-1.82,1.14h-4.67a2,2,0,0,1-1.59-.72,1.44,1.44,0,0,1-.17-1.54l32.78-67.58a.61.61,0,0,1,.73-.28Z"></path><path d="M332.71,331.67a1.46,1.46,0,0,1,.3,1.75,1.91,1.91,0,0,1-1.74,1c-.94,0-1.85,0-2.75-.08a3.7,3.7,0,0,1-2.08-1.19c-4.79-5.07-9.49-10.19-14.25-15.28q-15-16.05-30.06-32.09-11-11.78-21.93-23.62a.23.23,0,0,1,0-.34.33.33,0,0,1,.4,0Z"></path><path d="M217,113.1a.28.28,0,0,1-.23-.35c.72-2.12,1.38-4.26,2.17-6.36,2.15-5.7,4.35-11.39,6.54-17.08,2.29-5.93,4.62-11.84,6.9-17.77q5.2-13.61,10.36-27.22c.88-2.31,1.72-4.64,2.63-6.94a2,2,0,0,1,2.43-1.56,21.31,21.31,0,0,0,2.42.09,2,2,0,0,1,1.6.7,1.43,1.43,0,0,1,.2,1.54Z"></path><path d="M95.32,334.33a2,2,0,0,1-1.66-.81,1.45,1.45,0,0,1,0-1.63l40.6-61.2a.44.44,0,0,1,.55-.14q-3.83,7-7.66,13.92-8.51,15.38-17,30.75c-3.28,5.93-6.59,11.85-9.85,17.78a2.32,2.32,0,0,1-2.48,1.39C97,334.34,96.18,334.33,95.32,334.33Z"></path><path d="M10.2,152a1.56,1.56,0,0,1,.74-1.29,2.13,2.13,0,0,1,1.64-.29l76.06,16.42a.47.47,0,0,1,.39.51l-6.52-1c-5.63-.86-11.26-1.71-16.89-2.59-5.36-.84-10.71-1.72-16.06-2.55-6.77-1-13.54-2-20.3-3.1-5.23-.83-10.44-1.74-15.66-2.61-1.06-.17-2.14-.29-3.2-.45-.08,0-.19-.19-.19-.28C10.2,153.91,10.2,153,10.2,152Z"></path><path d="M359.91,263.5a1.56,1.56,0,0,1-1,1.09,2,2,0,0,1-1.61,0l-82-38.43a.46.46,0,0,1-.24-.65c1.95.79,3.91,1.56,5.85,2.38q22.29,9.39,44.56,18.81,15.92,6.71,31.87,13.3C359.18,260.73,360.34,261.6,359.91,263.5Z"></path><path d="M89.21,142.72a.6.6,0,0,1-.71.24c-.69-.22-1.38-.44-2-.71L40.08,122.7c-9.62-4-19.25-8.07-28.85-12.15a1.79,1.79,0,0,1-1-1.14c0-.38-.06-.77-.07-1.17a1.6,1.6,0,0,1,.92-1.43,2.21,2.21,0,0,1,1.91,0Z"></path><path d="M282.64,193.73a.33.33,0,0,1,.35-.26l74.94,3.22a1.78,1.78,0,0,1,1.81,1.63v1.38a1.53,1.53,0,0,1-.64,1.22,2.1,2.1,0,0,1-1.49.4Z"></path><path d="M12.94,283.85a2,2,0,0,1-1.84.12,1.51,1.51,0,0,1-.95-1.35c0-3.93,0-3.9,4-5.85q18.63-9.12,37.25-18.26a1,1,0,0,1,1.17.25.68.68,0,0,1-.23,1Z"></path><path d="M12.5,214a2.14,2.14,0,0,1-1.59-.34,1.55,1.55,0,0,1-.7-1.26v-.19a1.73,1.73,0,0,1,1.62-1.61l81.94-10.79a.45.45,0,0,1,.51.32Z"></path><path d="M218.13,332.39a1.47,1.47,0,0,1-.36,1.33,2.06,2.06,0,0,1-1.4.63l-.3,0c-1.33.13-1.65-.36-1.84-1.47-.94-5.37-2.07-10.71-3.08-16.07-.9-4.78-1.72-9.57-2.57-14.36l-3-17c-1-5.32-1.91-10.64-2.89-16-.23-1.31-.52-2.62-.79-3.92a.54.54,0,0,1,.49-.62C207.6,287.36,212.83,309.75,218.13,332.39Z"></path><path d="M11.09,258.42a.71.71,0,0,1-.62,0,.56.56,0,0,1-.32-.46c-.1-3.1-.07-3,3.36-4.3,9.2-3.37,18.36-6.8,27.56-10.18q17.77-6.53,35.58-13a.3.3,0,0,1,.36.12.22.22,0,0,1-.13.31Z"></path><path d="M350.76,331.69a.93.93,0,0,1,0,1.46,1.34,1.34,0,0,1-1.7,0l-.2-.18c-5.51-5.2-11.12-10.33-16.76-15.43-9.42-8.52-18.92-17-28.36-25.51q-13-11.7-25.84-23.46a.26.26,0,0,1,0-.4.38.38,0,0,1,.46,0Z"></path><path d="M357.07,115.61a2.21,2.21,0,0,1,2,.16,1.52,1.52,0,0,1,.73,1.6c-.24,1.15-1.12,1.47-3.48,2.33q-11.93,4.33-23.8,8.79-16.49,6.15-32.94,12.33a.29.29,0,0,1-.36-.12.21.21,0,0,1,.13-.3Z"></path><path d="M147.21,80.65a.45.45,0,0,1-.52-.24l-18-42.27a1.43,1.43,0,0,1,.23-1.49,2,2,0,0,1,1.56-.7h1.14a1.88,1.88,0,0,1,1.85,1.21Q140.32,58.84,147.21,80.65Z"></path><path d="M195.22,332.55a1.51,1.51,0,0,1-.51,1.23,2.06,2.06,0,0,1-1.39.52,1.47,1.47,0,0,1-1.56-1.31q-.69-28.49-1.38-56.91a.32.32,0,0,1,.33-.3C192.21,294.64,193.71,313.51,195.22,332.55Z"></path><path d="M357.63,158.38a2.07,2.07,0,0,1,1.56.33,1.54,1.54,0,0,1,.69,1.25c0,1.12-.58,1.23-2.58,1.51-6.19.84-12.41,1.58-18.61,2.4-4.17.55-8.34,1.18-12.51,1.72-4.86.63-9.74,1.18-14.6,1.8-4.53.59-9.05,1.23-13.57,1.84a.27.27,0,0,1-.31-.19.23.23,0,0,1,.21-.26Z"></path><path d="M307.31,35.9a2,2,0,0,1,1.91.78,1.45,1.45,0,0,1-.11,1.82L281.47,69.85a.38.38,0,0,1-.43.1,2.86,2.86,0,0,1,.29-.82q12-16.15,24.08-32.29A3.08,3.08,0,0,1,307.31,35.9Z"></path><path d="M107,93.82a.57.57,0,0,1-.38.09.54.54,0,0,1-.35-.16q-24.9-28.52-49.79-57a.85.85,0,0,1,0-1.13c.89.43,2.07.68,2.62,1.32Q73,53.32,86.85,69.8l18.94,22.43C106.21,92.73,106.56,93.29,107,93.82Z"></path><path d="M281.9,334a1.08,1.08,0,0,1-1.17.17,2.94,2.94,0,0,1-1.26-.85c-3.57-5.66-7-11.39-10.54-17.06-4.69-7.47-9.47-14.91-14.2-22.36-1-1.54-1.92-3.1-2.88-4.66a.46.46,0,0,1,0-.38.55.55,0,0,1,.29-.29Z"></path><path d="M241,332.9a.76.76,0,0,1-.58,1,1,1,0,0,1-1.16-.5l-.06-.15c-2.33-6.88-4.76-13.73-7.22-20.57-2.69-7.52-5.45-15-8.17-22.54a.28.28,0,0,1,.22-.36.36.36,0,0,1,.42.19Z"></path><path d="M180.53,82.15a.33.33,0,0,1-.35-.29q-1.49-22.41-3-44.85a.8.8,0,0,1,.81-.78.83.83,0,0,1,.91.7v.12c.38,9.91.81,19.81,1.2,29.72.17,4.51.28,9,.41,13.54C180.55,80.92,180.53,81.53,180.53,82.15Z"></path><path d="M46.57,191a.41.41,0,0,1,.46.37.42.42,0,0,1-.42.4l-35.38,1.72a.82.82,0,0,1-.89-.65c-.1-.77.12-.78,1.28-.81C23.27,191.66,34.92,191.26,46.57,191Z"></path><path d="M303.37,175.22a.32.32,0,0,1,.07-.3.43.43,0,0,1,.3-.16c2.74-.32,5.48-.67,8.22-.94,5.78-.56,11.56-1,17.33-1.6s11.4-1.25,17.1-1.86c4-.43,8-.86,12-1.23a.89.89,0,0,1,.32,0,.56.56,0,0,1,.48.57.59.59,0,0,1-.57.51c-4.62.48-9.24.91-13.87,1.33l-30.2,2.68Z"></path><path d="M62.27,155a.4.4,0,0,1-.21.28.52.52,0,0,1-.39.06L55,153.81l-27.16-6.49c-5.18-1.24-10.38-2.42-15.54-3.73a10.71,10.71,0,0,1-1.46-.32.6.6,0,0,1-.39-.8.77.77,0,0,1,.91-.39Z"></path><path d="M61.33,212.17a.33.33,0,0,1-.29.37L11.16,223.46A1.17,1.17,0,0,1,10,223.1c.42-.33.79-.88,1.27-1,6.31-1.28,12.64-2.46,18.94-3.74s12.29-2.58,18.44-3.87c3.7-.78,7.39-1.57,11.1-2.32A7.56,7.56,0,0,1,61.33,212.17Z"></path><path d="M173.06,332.71a1.8,1.8,0,0,1-1.91,1.56,1.31,1.31,0,0,1-.92-.36.93.93,0,0,1-.29-.84c1.36-8,2.7-15.87,4.05-23.76a.31.31,0,0,1,.34-.24C173.91,316.9,173.49,324.72,173.06,332.71Z"></path><path d="M359.56,127.38a.84.84,0,0,1-.13,1.17,1.68,1.68,0,0,1-.59.37q-16.84,5.6-33.73,11.13c-2.28.75-4.57,1.49-6.87,2.2a.34.34,0,0,1-.42-.16.27.27,0,0,1,.19-.36Z"></path><path d="M88.24,99.07a.27.27,0,0,1,.36,0l10.81,9.23a.25.25,0,0,1,.08.17.21.21,0,0,1-.08.17c-2.28-1.83-4.6-3.63-6.81-5.51C91.07,101.83,89.69,100.42,88.24,99.07Z"></path><path d="M225.12,68.73a18.41,18.41,0,0,1-.34,2.88c-.14.5-.29,1-.47,1.48a.27.27,0,0,1-.33.15.22.22,0,0,1-.18-.28c.44-1.39.89-2.78,1.33-4.17C225.14,68.77,225.14,68.74,225.12,68.73Z"></path><path d="M71.51,196.75h0l6.21-.54a.73.73,0,0,1,.5.13.56.56,0,0,1,.23.41H71.51Z"></path><path d="M272.66,114.91a.15.15,0,0,0,.19,0q2-2,3.95-3.94a.63.63,0,0,1,.42-.16.57.57,0,0,1,.42.15Z"></path><path d="M273.26,190.32a90.67,90.67,0,0,1-48.38,80.21L237.73,333h-110l12.5-62.47a90.7,90.7,0,1,1,133-80.21Z" fill="#ffffff"></path><path d="M235,241a90.46,90.46,0,0,1-52.39,16.68h0a90.74,90.74,0,0,1-90-79.07,91.75,91.75,0,0,0-.74,11.67,90.72,90.72,0,0,0,90.7,90.7h0a90.74,90.74,0,0,0,90.7-90.7,91.75,91.75,0,0,0-.75-11.67A90.6,90.6,0,0,1,235,241Z" fill="#f0f0f0"></path><path d="M127.73,333l12.5-62.47A90.7,90.7,0,1,1,235,264.35a91.4,91.4,0,0,1-10.07,6.18L237.73,333" fill="none" stroke="#45413c" stroke-linecap="round" stroke-linejoin="round" stroke-width="4"></path><path d="M235,264.34a90.22,90.22,0,0,1-34,14.79" fill="none" stroke="#45413c" stroke-linecap="round" stroke-linejoin="round" stroke-width="4"></path><path d="M163.66,279a90.16,90.16,0,0,1-33.77-14.88" fill="none" stroke="#45413c" stroke-linecap="round" stroke-linejoin="round" stroke-width="4"></path><path d="M308.79,173.73c0-3.73-3-6.75-6.12-6.67l-32.53,0c-10.56-38.92-45.77-67.66-87.7-67.71A90,90,0,0,0,92.76,180.2l85.36.11,83.06.11,40.85.06A6.76,6.76,0,0,0,308.79,173.73Z" fill="#ff6242"></path><path d="M164.85,169a13.5,13.5,0,0,1,13.52-13.48c9.12,0,13.5,6.29,13.49,13.52Z" fill="#ffffff"></path><path d="M173.430 99.310 A9.000 9.000 0 1 0 191.430 99.310 A9.000 9.000 0 1 0 173.430 99.310 Z" fill="#ff6242" stroke="#45413c" stroke-linecap="round" stroke-linejoin="round" stroke-width="4"></path><path d="M182.89,114.7a105.56,105.56,0,0,1,82.36,39.59,90,90,0,0,0-166.82,2.33A105.63,105.63,0,0,1,182.89,114.7Z" fill="#ff866e"></path><path d="M308.79,173.73c0-3.73-3-6.75-6.12-6.67l-32.53,0c-10.56-38.92-45.77-67.66-87.7-67.71A90,90,0,0,0,92.76,180.2l85.36.11,83.06.11,40.85.06A6.76,6.76,0,0,0,308.79,173.73ZM164.85,169a13.5,13.5,0,0,1,13.52-13.48c9.12,0,13.5,6.29,13.49,13.52Z" fill="none" stroke="#45413c" stroke-linecap="round" stroke-linejoin="round" stroke-width="4"></path><path d="M191.86,169.05h5.62a4.5,4.5,0,0,1,4.5,4.5v6.75" fill="none" stroke="#45413c" stroke-linecap="round" stroke-linejoin="round" stroke-width="4"></path><path d="M271.23,173.17c-.37-2-.58-4.15-1.09-6.15" fill="#ffffff" stroke="#45413c" stroke-linecap="round" stroke-linejoin="round" stroke-width="4"></path><path d="M195,234.15c0,16.43-5.88,22.59-13.14,22.59s-13.14-6.16-13.14-22.59v-21.9q13.14,15.19,26.28,0Z" fill="#ffa694" stroke="#45413c" stroke-linecap="round" stroke-linejoin="round" stroke-width="4"></path><path d="M132.7,160.28A31.83,31.83,0,1,0,162,173.93,62.5,62.5,0,0,1,132.7,160.28Z" fill="#ffffff" stroke="#45413c" stroke-linecap="round" stroke-linejoin="round" stroke-width="4"></path><path d="M172.89,174.87a62.53,62.53,0,0,1-48.62-23.14" fill="none" stroke="#45413c" stroke-linecap="round" stroke-linejoin="round" stroke-width="4"></path><path d="M132.190 187.770 A4.550 4.550 0 1 0 141.290 187.770 A4.550 4.550 0 1 0 132.190 187.770 Z" fill="#45413c"></path><path d="M232.41,160.28a31.83,31.83,0,1,1-29.29,13.65A62.45,62.45,0,0,0,232.41,160.28Z" fill="#ffffff" stroke="#45413c" stroke-linecap="round" stroke-linejoin="round" stroke-width="4"></path><path d="M192.22,174.87a62.53,62.53,0,0,0,48.62-23.14" fill="none" stroke="#45413c" stroke-linecap="round" stroke-linejoin="round" stroke-width="4"></path><path d="M223.820 187.770 A4.550 4.550 0 1 0 232.920 187.770 A4.550 4.550 0 1 0 223.820 187.770 Z" fill="#45413c"></path><path d="M151.91,277.45a24.54,24.54,0,0,1-23.79,25.25c-13.54.4-22.28-8.55-27.55-21-6.11-14.47-15.43-53.59-16.16-57-4.56-21.08,29.08-16.52,31.71,22.26C119.2,243.71,150.67,236,151.91,277.45Z" fill="#ffffff"></path><path d="M121.3,289.93a50.91,50.91,0,0,1-18.41-3.44c5.39,9.89,13.51,16.56,25.23,16.21a24.53,24.53,0,0,0,23.74-22.92A50.87,50.87,0,0,1,121.3,289.93Z" fill="#f0f0f0"></path><path d="M151.91,277.45a24.54,24.54,0,0,1-23.79,25.25c-13.54.4-22.28-8.55-27.55-21-6.11-14.47-15.43-53.59-16.16-57-4.56-21.08,29.08-16.52,31.71,22.26C119.2,243.71,150.67,236,151.91,277.45Z" fill="none" stroke="#45413c" stroke-linecap="round" stroke-linejoin="round" stroke-width="4"></path><path d="M149.51,261.93s-11.41,4.07-21.78,1.61" fill="#ffffff" stroke="#45413c" stroke-linecap="round" stroke-linejoin="round" stroke-width="4"></path><path d="M151.91,277.4s-11.3,5.22-19.58,2.52" fill="#ffffff" stroke="#45413c" stroke-linecap="round" stroke-linejoin="round" stroke-width="4"></path><path d="M213.2,277.45A24.54,24.54,0,0,0,237,302.7c13.54.4,22.28-8.55,27.55-21,6.11-14.47,15.43-53.59,16.16-57,4.56-21.08-29.08-16.52-31.71,22.26C245.91,243.71,214.44,236,213.2,277.45Z" fill="#ffffff"></path><path d="M243.81,289.93a50.91,50.91,0,0,0,18.41-3.44c-5.39,9.89-13.51,16.56-25.23,16.21a24.53,24.53,0,0,1-23.74-22.92A50.87,50.87,0,0,0,243.81,289.93Z" fill="#f0f0f0"></path><path d="M213.2,277.45A24.54,24.54,0,0,0,237,302.7c13.54.4,22.28-8.55,27.55-21,6.11-14.47,15.43-53.59,16.16-57,4.56-21.08-29.08-16.52-31.71,22.26C245.91,243.71,214.44,236,213.2,277.45Z" fill="none" stroke="#45413c" stroke-linecap="round" stroke-linejoin="round" stroke-width="4"></path><path d="M215.6,261.93S227,266,237.38,263.54" fill="#ffffff" stroke="#45413c" stroke-linecap="round" stroke-linejoin="round" stroke-width="4"></path><path d="M213.2,277.4s11.3,5.22,19.58,2.52" fill="#ffffff" stroke="#45413c" stroke-linecap="round" stroke-linejoin="round" stroke-width="4"></path><path d="M37.07,137.71a6.69,6.69,0,0,1-2.41-.45,10.66,10.66,0,0,1-5.1-4.42l-.87-1.31c-1.75-2.64-3.61-5.59-5.57-8.71s-4-6.3-5.89-9.21c-5.52-8.34-6.53-15.38,5.5-24.68,3.46-2.67,4.61-3.45,5.73-4.2,3.93-2.66,8.46-5.33,12.67-5.33a8.13,8.13,0,0,1,7.5,4.75C52,90.8,46.52,94.5,44.47,95.89l-.63.4c-3.19,1.94-4.71,2.9-7.78,4.92A8.42,8.42,0,0,0,34,103.07a2.43,2.43,0,0,0,.38,1.16c.13.2.25.4.37.6.85-.61,1.68-1.21,2.37-1.68,2.39-1.64,5-3.15,7.53-3.15a6.17,6.17,0,0,1,5.63,3.65c3,5.57-.27,8.58-3.55,11l-1,.74c-1,.72-2.64,1.89-3.61,2.71.36.63.88,1.44,1.27,2,1.51,2.36,3.22,5,3.68,7.57.25,1.6.09,4.61-3.77,7.51A10.54,10.54,0,0,1,37.07,137.71Z" fill="#45413c"></path><path d="M41.13,82.4A5.09,5.09,0,0,1,46,85.5c1.71,3.4.33,5.54-3.17,7.9l-.55.36c-3.15,1.92-4.72,2.91-7.82,4.95a10.71,10.71,0,0,0-2.95,2.74c-.88,1.28-.42,3.07.33,4.32A30.27,30.27,0,0,0,34,109.09c1.48-1.06,3.47-2.52,4.84-3.46C41.12,104,43.06,103,44.63,103a3.3,3.3,0,0,1,3,2.07c1.64,3.07.83,4.57-2.67,7.11-2.43,1.76-6.09,4.25-6.25,5.26-.26,1.71,4.7,7.07,5.37,10.78.31,1.94-1.28,3.57-2.62,4.58a7.76,7.76,0,0,1-4.38,1.91,3.74,3.74,0,0,1-1.37-.26,7.81,7.81,0,0,1-3.64-3.27l-.87-1.31c-3.51-5.28-7.6-12.1-11.46-17.92C15,104.78,13.81,99.61,24.57,91.3c3.44-2.66,4.54-3.39,5.63-4.13,3.48-2.35,7.6-4.77,10.93-4.77m0-6h0c-5,0-10,2.93-14.29,5.8l-.05,0c-1.16.78-2.35,1.58-5.89,4.32C6.26,97.87,9.28,107,14.73,115.27c1.91,2.87,3.91,6.06,5.85,9.14s3.84,6.11,5.61,8.78l.62.93.25.38a13.63,13.63,0,0,0,6.57,5.58,9.62,9.62,0,0,0,3.44.63,13.45,13.45,0,0,0,8-3.12c5.12-3.84,5.29-8.12,4.94-10.33v-.11c-.54-3-2.31-5.85-3.92-8.37.5-.37,1-.72,1.38-1l1-.75c2.44-1.77,8.91-6.46,4.44-14.8a9.68,9.68,0,0,0-5.48-4.8c6.64-5.18,5.83-10.77,3.88-14.64a11.12,11.12,0,0,0-10.18-6.4Z" fill="#45413c"></path><path d="M63.91,119.61c-5.14,0-8.91-5.15-10.33-8.2A134.7,134.7,0,0,1,47.25,93.2c-1.28-4.42-5.2-17.88,8.93-25.12a18.21,18.21,0,0,1,8.32-2.15c10.89,0,17.9,11,21.87,20.25.27.61.71,1.47,1.18,2.37a52.77,52.77,0,0,1,2.71,5.86c2.56,7,.81,12.52-4.8,15.18a7.59,7.59,0,0,1-3.27.76c-5.52,0-8.55-6.26-10.37-10l-.37-.75-.56.26a7.39,7.39,0,0,0-.75.45c0,.22.11.45.17.68.14.56.28,1.14.4,1.78s.22,1.09.35,1.69c.9,4.06,2.39,10.85-3.16,14.06A7.93,7.93,0,0,1,63.91,119.61Zm0-35.95a9.1,9.1,0,0,0,.54,2.71l.38-.2c.2-.11.36-.19.48-.27s0,0,0-.06A9.17,9.17,0,0,0,63.86,83.66Z" fill="#45413c"></path><path d="M64.5,68.93c9.11,0,15.45,9.92,19.11,18.43.88,2,2.75,5.14,3.83,8.08,1.54,4.2,1.75,9.06-3.26,11.44a4.61,4.61,0,0,1-2,.47c-5.07,0-7.8-9.75-9.17-11a1.35,1.35,0,0,0-.57-.11,7.4,7.4,0,0,0-3,.91c-1.39.74-2.6,1.74-2.54,2.36.16,1.36.55,2.38.8,3.75.72,3.88,2.89,10.15-1.36,12.61a4.94,4.94,0,0,1-2.49.7c-3.46,0-6.41-3.89-7.61-6.47a134.07,134.07,0,0,1-6.17-17.78c-2.51-8.64-2.24-16.66,7.42-21.61a15.11,15.11,0,0,1,7-1.82m-.75,20.78a5,5,0,0,0,2.1-.71l.31-.17c2.07-1.08,2.76-2,1.84-4.16-.83-2-3.08-5-5-5a1.77,1.77,0,0,0-.8.19c-1.75.92-1.64,5.26-.36,8.1.56,1.24,1.15,1.74,1.93,1.74m.75-26.78h0a21.17,21.17,0,0,0-9.69,2.48C44,71,40.46,80.6,44.37,94a136.18,136.18,0,0,0,6.49,18.64c2.13,4.59,6.83,9.94,13,9.94a10.86,10.86,0,0,0,5.49-1.5c4.51-2.61,5.58-6.85,5.52-10.74a10.37,10.37,0,0,0,11.82,1.93c7-3.3,9.4-10.55,6.34-18.92a54.75,54.75,0,0,0-2.87-6.2c-.44-.85-.85-1.66-1.1-2.22-6.2-14.42-14.71-22-24.61-22Z" fill="#45413c"></path><path d="M97.59,103.87c-5.11,0-9.46-5.83-14.1-18.9l-.9-2.53a96.24,96.24,0,0,1-3.67-13.67,10.9,10.9,0,0,1,6.32-12.59,13.88,13.88,0,0,1,5-1A15.65,15.65,0,0,1,98.94,58a92.81,92.81,0,0,1,8,6.6c-1.38-6.73-1.85-15.33,6.52-17.59a7.25,7.25,0,0,1,1.93-.25,7,7,0,0,1,5.58,2.62c2,2.21,3.26,6.93,4.89,14.75l.25,1.18c1.92,9.22,2.3,17.75,1.08,24.11l0,.14,0,.14a9.65,9.65,0,0,1-6.5,6.27,7.66,7.66,0,0,1-2,.27h0c-4.85,0-10-4.45-14.71-9.08a72.73,72.73,0,0,1,1.52,7.5c.45,3.61-2.51,7.62-5.47,8.78a3.55,3.55,0,0,1-.78.21A6.28,6.28,0,0,1,97.59,103.87Z" fill="#45413c"></path><path d="M115.34,49.8a3.92,3.92,0,0,1,3.26,1.52c1.79,1.8,3.25,8.48,4.28,13.46.11.5.16.75.27,1.26,1.72,8.26,2.26,16.54,1,22.85a6.64,6.64,0,0,1-4.43,4.23,4.61,4.61,0,0,1-1.23.16c-6.25,0-15-11.39-20.34-15.58.28,1,.43,1.52.71,2.54a137.9,137.9,0,0,1,3.45,14.83c.27,2.15-1.75,4.9-3.59,5.62-.12,0-.26,0-.38.08a3.13,3.13,0,0,1-.8.1c-4.89,0-9.2-11.07-11.27-16.9l-.9-2.54a93.68,93.68,0,0,1-3.56-13.26A7.94,7.94,0,0,1,86.33,59a10.79,10.79,0,0,1,3.93-.75,12.72,12.72,0,0,1,7,2.31c3.17,2.09,12,10.37,15.17,13-.08-.3-.11-.45-.19-.74-.43-1.42-1-2.92-1.44-4.6C109,60.87,106.94,51.91,114.21,50a4.28,4.28,0,0,1,1.13-.15m0-6a10.58,10.58,0,0,0-2.7.35c-5.74,1.56-9.22,6.15-9.54,12.61,0,.21,0,.43,0,.64-1-.78-1.8-1.41-2.49-1.87a18.62,18.62,0,0,0-10.33-3.3,16.78,16.78,0,0,0-6.11,1.16,13.88,13.88,0,0,0-8.17,16,101,101,0,0,0,3.78,14.06l.45,1.27L80.66,86c3.67,10.34,8.55,20.9,16.93,20.9a9.18,9.18,0,0,0,2.09-.24,6.86,6.86,0,0,0,1.29-.35c3.83-1.52,7.53-6.2,7.41-11,3.25,2.41,6.61,4,10.16,4a10.35,10.35,0,0,0,2.84-.38A12.58,12.58,0,0,0,130,90.59l.08-.28.05-.29c1.3-6.73.92-15.68-1.07-25.21l-.08-.38-.18-.87c-1.75-8.38-3.11-13.29-5.5-16a9.88,9.88,0,0,0-7.92-3.72Z" fill="#45413c"></path><path d="M144.39,90.94c-1.29,0-5.65-.23-7.28-3.18-1-1.81-1.42-4.69-1.86-7.74-.11-.75-.22-1.49-.33-2.19-.48-2.9-.85-5.79-1.12-8-.32-2.67-.61-5.34-.86-7.65-1.08.15-2.25.31-3.19.4a13.76,13.76,0,0,1-1.55.08,12.36,12.36,0,0,1-3.68-.53c-2-.61-4.52-3-5.54-8.06-1.1-5.39,1.56-9.76,6.61-10.88,3.63-.81,5.52-1.19,9.17-1.87,6-1.12,11.22-1.76,13.71-2.06l1-.13a26.46,26.46,0,0,1,3.52-.25c9,0,10.82,5.83,11.09,9.31.51,6.83-6.6,8.72-11.8,10.1l-.46.12c.45,3.38,1.11,7.57,1.76,11.64.5,3.14,1,6.45,1.39,9.61.06.54.11,1.09.16,1.65s.08,1,.14,1.5l.1.9-.41.81a11.75,11.75,0,0,1-8.68,6.25A10.77,10.77,0,0,1,144.39,90.94Z" fill="#45413c"></path><path d="M153,41.89c4.41,0,7.72,1.59,8.09,6.53.4,5.29-7.22,6.15-12.55,7.82,0,.36.06.54.11.9.43,3.65,1.23,8.69,2,13.41.5,3.13,1,6.38,1.37,9.46.12,1,.18,2.13.3,3.16a8.82,8.82,0,0,1-6.51,4.66,9.13,9.13,0,0,1-1.43.11c-1.91,0-4-.54-4.65-1.63-1-1.73-1.35-5.85-1.86-9-.43-2.61-.78-5.25-1.1-7.86-.47-4-.88-7.91-1.19-10.68-.76.08-4.08.6-6.15.81-.44,0-.86.06-1.24.06a9.62,9.62,0,0,1-2.81-.4c-.93-.28-2.69-1.94-3.47-5.79-.82-4,1.18-6.66,4.31-7.35,3.62-.8,5.44-1.17,9.08-1.85C142.25,43,148,42.35,149.9,42.11a24.5,24.5,0,0,1,3.13-.22m0-6h0a30.74,30.74,0,0,0-3.91.27l-1,.13c-2.53.31-7.78,1-13.9,2.09-3.69.69-5.59,1.08-9.27,1.89-6.67,1.48-10.33,7.4-8.9,14.41,1.62,7.93,6.23,9.91,7.6,10.33a15.34,15.34,0,0,0,4.56.66c.6,0,1.23,0,1.86-.09l.23,0c.17,1.5.34,3.07.54,4.65.27,2.23.64,5.17,1.13,8.12.11.68.21,1.4.32,2.13.48,3.33.94,6.47,2.21,8.77,2.36,4.26,7.71,4.72,9.9,4.72a14.49,14.49,0,0,0,2.43-.2,14.78,14.78,0,0,0,10.86-7.86l.82-1.61-.21-1.8c0-.45-.09-.93-.14-1.4s-.1-1.18-.16-1.74c-.37-3.19-.9-6.55-1.4-9.72s-1-6.2-1.39-9a27.25,27.25,0,0,0,6-2.35c5.56-3.15,6.07-7.81,5.89-10.31-.57-7.56-5.83-12.08-14.08-12.08Z" fill="#45413c"></path><path d="M169.25,87.41c-4.32,0-9.13-4-9.48-12.73a140.78,140.78,0,0,1,1.06-19.4c.48-4.67,2-18.87,17.48-19h.16c12.64,0,19.74,10.6,20,29.85,0,.68.09,1.67.18,2.71a57.86,57.86,0,0,1,.26,6.53c-.3,7.41-4,11.84-10,11.84h-.23c-7.88-.14-8.41-9.72-8.66-14.32,0-.34,0-.73-.06-1.1l-.53,0h-.14l-.56,0c0,.17-.05.35-.07.54-.08.58-.17,1.16-.3,1.8s-.2,1.09-.31,1.69c-.71,4.17-1.9,11.14-8.27,11.56Zm9.89-33.18a8.54,8.54,0,0,0-.35,2.43l.72,0A10.18,10.18,0,0,0,179.14,54.23Z" fill="#45413c"></path><path d="M178.47,39.29c14.07,0,16.85,15.47,17,26.89.05,2.2.56,5.91.44,9.08-.18,4.48-1.77,9-7,9h-.17c-6.8-.12-5.22-12.65-6.09-14.58-.44-.55-1.84-.86-3.22-.86h-.21c-1.51,0-2.95.4-3.13,1-.36,1.31-.39,2.41-.67,3.78-.78,3.85-1.16,10.55-5.84,10.85h-.34c-4.66,0-6.34-6.37-6.49-9.85a141.84,141.84,0,0,1,1.05-19c.94-9,4.17-16.22,14.52-16.3h.14m.22,20.37h.65c2.24,0,3.19-.56,3.17-2.95s-1.16-7-3.38-7h0c-1.89,0-3.39,4-3.3,7.21.07,2.28.94,2.76,2.9,2.76m-.21-26.37v0h-.19c-8.4.07-13.09,4-15.54,7.19C160.1,44,158.49,48.73,157.84,55a144.92,144.92,0,0,0-1.07,19.84A22.35,22.35,0,0,0,159,83.49c2.22,4.4,6,6.92,10.3,6.92l.73,0c2.33-.15,6.6-1.22,9.08-6.68a10.54,10.54,0,0,0,9.58,6.5h.28c6,0,12.55-3.87,13-14.72a57.93,57.93,0,0,0-.26-6.89c-.08-1-.15-1.91-.17-2.55-.11-8.14-1.41-14.92-3.84-20.14-3.81-8.14-10.61-12.63-19.15-12.63Z" fill="#45413c"></path><path d="M214.52,89.37c-.88,0-1.79,0-2.72-.11l-1-.12c-2.5-.29-10.88-1.6-14-6.3A10.17,10.17,0,0,1,195,76.72a9.11,9.11,0,0,1,4-7.53A7.2,7.2,0,0,1,202.87,68l.45,0a20,20,0,0,1,4.86,1.34,46.51,46.51,0,0,1-4.36-3.58,16.46,16.46,0,0,1-4.89-12.72c.47-8.36,7.91-14.67,17.31-14.67a21.1,21.1,0,0,1,2.63.16c5.62.72,10.36,3.13,13,6.61a9.84,9.84,0,0,1,2,7.53c-.55,3.65-3.33,5.91-7.27,5.91a11.05,11.05,0,0,1-1.27-.07l-.47-.07c-.89-.15-1.87-.37-2.84-.61l.06.06c4.87,4,11.55,9.58,10.39,17C231,84.24,224.65,89.37,214.52,89.37Z" fill="#45413c"></path><path d="M216.24,41.42a17.2,17.2,0,0,1,2.25.14c7.5.95,13.24,5.42,12.44,10.72-.33,2.21-2,3.35-4.3,3.35-.3,0-.61,0-.93-.05l-.34-.06c-2-.32-4.78-1.18-6.58-1.42l-.35,0a4.89,4.89,0,0,0-.54,0c-1.21,0-2.16.39-2.25,1.24a2.72,2.72,0,0,0,.93,1.74c3.49,3.82,14.16,9.86,13,17.44-1.36,8.71-7.39,11.92-15,11.92-.81,0-1.63,0-2.47-.1l-.93-.11c-4.47-.52-10-2.18-11.91-5A7.1,7.1,0,0,1,198,76.86a6.16,6.16,0,0,1,2.59-5.15,4.33,4.33,0,0,1,2.25-.68h.22c2.22.17,6.7,2.47,9.35,2.78l.26,0a7,7,0,0,0,.79.05c1.06,0,2.06-.31,2.18-1.44.27-2.51-3.86-3.35-9.81-8.85a13.43,13.43,0,0,1-3.93-10.35c.37-6.66,6.54-11.84,14.31-11.84m0-6c-10.83,0-19.75,7.69-20.3,17.5a19.64,19.64,0,0,0,3.7,12.65,10.37,10.37,0,0,0-2.27,1.1A12.1,12.1,0,0,0,192,76.58a13,13,0,0,0,2.24,8c3.78,5.59,12.55,7.16,16.16,7.58l.91.1.11,0h.11c1,.09,2,.13,3,.13,11.61,0,19.25-6.19,20.94-17,.91-5.79-1.91-10.5-5.4-14.25a9.66,9.66,0,0,0,6.81-8,12.78,12.78,0,0,0-2.61-9.79c-3.12-4.12-8.59-7-15-7.77a23.39,23.39,0,0,0-3-.19Z" fill="#45413c"></path><path d="M245.9,95.49a12.31,12.31,0,0,1-3.16-.42c-2.58-.67-6.85-3-7.33-6.41-.29-2.07.32-4.91,1-7.91.16-.74.31-1.47.45-2.15.56-2.9,1.23-5.72,1.75-7.86.64-2.67,1.32-5.33,1.9-7.61-1.11-.32-2.34-.69-3.3-1a13.7,13.7,0,0,1-4.63-2.56c-1.58-1.34-3-4.56-2.22-9.54.75-4.75,3.88-7.7,8.17-7.7a9.38,9.38,0,0,1,1.95.21c3.65.77,5.53,1.19,9.14,2.08,6,1.47,11,3,13.48,3.79l1,.31C275,52,275.71,58.29,274.35,63c-.7,2.42-2.72,5.31-8.3,5.31a39.72,39.72,0,0,1-6.42-.73l-.31,0c-.75,3.27-1.57,7.35-2.37,11.31-.63,3.12-1.3,6.41-2.06,9.46-.13.53-.28,1.07-.43,1.62s-.27.95-.38,1.42l-.23.92-.72.62A11,11,0,0,1,245.9,95.49Z" fill="#45413c"></path><path d="M238.5,45.32a6.32,6.32,0,0,1,1.34.15c3.62.76,5.43,1.17,9,2.05,6.89,1.69,12.49,3.51,14.31,4.06,5.77,1.75,10,4.73,8.28,10.53-.71,2.44-2.81,3.15-5.42,3.15-2.78,0-6.15-.81-9-1.16-.09.35-.13.52-.21.87C256,68.53,255,73.53,254,78.21c-.63,3.1-1.29,6.32-2,9.32-.24,1-.57,2-.81,3a8,8,0,0,1-5.27,1.92,9.39,9.39,0,0,1-2.4-.32c-2.07-.54-4.89-2.3-5.12-3.92-.28-2,.78-6,1.39-9.07.51-2.6,1.11-5.19,1.72-7.74.93-3.84,1.93-7.68,2.61-10.36-.73-.25-4-1.15-6-1.81a10.57,10.57,0,0,1-3.62-2c-.77-.65-1.81-2.91-1.2-6.8.55-3.49,2.64-5.16,5.2-5.16m0-6h0c-5.79,0-10.15,4-11.13,10.23-.83,5.27.38,9.87,3.24,12.3A16.52,16.52,0,0,0,236.23,65l.64.21c-.4,1.56-.81,3.2-1.21,4.87-.52,2.17-1.2,5-1.78,8-.13.67-.28,1.37-.44,2.09-.7,3.28-1.37,6.37-1,9,.74,5.25,6.56,8.12,9.54,8.9a15.51,15.51,0,0,0,3.92.51,14,14,0,0,0,9.2-3.39l1.44-1.25L257,92c.11-.44.24-.89.36-1.34s.32-1.14.46-1.7c.76-3.09,1.44-6.42,2.08-9.57.58-2.89,1.18-5.85,1.75-8.5a31.11,31.11,0,0,0,4.41.37c8.13,0,10.53-5.23,11.18-7.48,1.14-3.92,2.23-13.52-12.29-17.94l-1-.3c-2.46-.76-7.58-2.35-13.65-3.84-3.65-.9-5.55-1.33-9.25-2.1a12.46,12.46,0,0,0-2.56-.28Z" fill="#45413c"></path><path d="M278.78,106.43a6.06,6.06,0,0,1-1.12-.1,47.74,47.74,0,0,1-7.38-2.58l-.68-.27c-4.59-1.82-9.8-3.88-7.7-10.89.38-1.29,1.41-4.71,4.86-5.23a9.44,9.44,0,0,0,1-.19c.89-2.53,1.76-5.35,2.67-8.32.42-1.34.84-2.72,1.29-4.13.23-.73.51-1.51.8-2.31s.54-1.49.78-2.23a13.6,13.6,0,0,0,.62-2.62c-.08-.07-.21-.19-.43-.36-2.06-1.62-2.71-4.34-1.77-7.45a9.13,9.13,0,0,1,2.65-4.34,6.45,6.45,0,0,1,4.17-1.3,22.65,22.65,0,0,1,8,2l1.6.65c3.85,1.56,11.87,4.82,9.71,11.86l-.06.18-.22.59c-1.2,3.18-3.33,4.78-6.52,4.92-.37.92-.75,2-1.09,3l-.47,1.33-2.13,5.9c-.58,1.61-1.26,3.28-1.91,4.9-.58,1.43-1.13,2.78-1.6,4,1.78,2.14,2.71,4,1.28,7.82C283.89,104.56,281.58,106.43,278.78,106.43Z" fill="#45413c"></path><path d="M278.5,57.11a21,21,0,0,1,6.91,1.8l1.58.64c6.41,2.6,9,4.82,8,8.2-.1.27-.15.4-.24.66a3.91,3.91,0,0,1-4.17,2.92l-.63,0h-.07a1.19,1.19,0,0,0-1.12.74c-.71,1.55-1.46,3.82-2.09,5.57l-2.12,5.89c-1.11,3.07-2.62,6.46-3.65,9.35a1.82,1.82,0,0,0,.24,2c1.74,2,2.18,2.7,1.19,5.34-.65,1.72-1.76,3.18-3.52,3.18a4.3,4.3,0,0,1-.61-.05,61.54,61.54,0,0,1-7.46-2.69c-5.3-2.1-7.16-3.18-5.94-7.23.42-1.42,1-2.92,2.45-3.14,1.71-.26,2.78-.64,3-1.33,1.43-3.92,2.75-8.48,4.29-13.37.44-1.41,1.1-3,1.58-4.53a13.34,13.34,0,0,0,.76-3.82,3.22,3.22,0,0,0-1.58-2.43c-1.14-.9-1.27-2.51-.75-4.23a6.06,6.06,0,0,1,1.61-2.82,3.62,3.62,0,0,1,2.34-.68m0-6a9.43,9.43,0,0,0-6.09,2,11.89,11.89,0,0,0-3.61,5.79c-1.13,3.78-.46,7.32,1.79,9.74,0,.19-.12.41-.19.65-.21.65-.47,1.36-.74,2.11s-.59,1.61-.84,2.43c-.45,1.4-.87,2.78-1.29,4.13-.72,2.32-1.4,4.56-2.09,6.62-3.07.79-5.23,3.2-6.42,7.16s-.59,7.53,1.9,10.18c1.87,2,4.43,3.11,7.58,4.36l.69.27a48.77,48.77,0,0,0,7.95,2.75,10.18,10.18,0,0,0,1.64.14c4.06,0,7.48-2.64,9.14-7.08s.84-7.06-.69-9.35c.3-.78.64-1.6,1-2.45.67-1.64,1.35-3.34,2-5l1.61-4.45.52-1.45c.16-.43.32-.9.49-1.38s.28-.81.43-1.22a9.77,9.77,0,0,0,7.12-6.52l.15-.41.1-.25.06-.18.06-.17A10,10,0,0,0,298,59.09c-1.85-1.83-4.54-3.4-8.73-5.1l-1.62-.66c-3.84-1.53-6.66-2.22-9.13-2.22Z" fill="#45413c"></path><path d="M310.6,120a25,25,0,0,1-12.05-3.19c-10.91-6.21-15.8-20.61-11.13-32.76A23.19,23.19,0,0,1,309,69.28a22.78,22.78,0,0,1,11.54,3.15c1.94,1.13,8.49,5.3,11.37,11.16,1.95,4,2.14,7.3.57,10.19A7.5,7.5,0,0,1,325.83,98a9.9,9.9,0,0,1-5.21-1.64,15.75,15.75,0,0,1-3.22-2.75c-.43-.45-.84-.93-1.26-1.42a13.29,13.29,0,0,0-3.33-3.09,7.67,7.67,0,0,0-3.65-1.15c-2.76,0-4.26,2.79-4.78,4a6.79,6.79,0,0,0,2.67,8.36,8.74,8.74,0,0,0,5,1.37c.44,0,.88,0,1.3,0l1.4,0a10.44,10.44,0,0,1,5.83,1.53,11.63,11.63,0,0,1,1.59,1.13,7.12,7.12,0,0,1,1.61,8.82,11.24,11.24,0,0,1-1.77,2.44C319.36,118.39,315.39,120,310.6,120Z" fill="#45413c"></path><path d="M309,72.28A19.75,19.75,0,0,1,319,75c3.42,2,8.13,5.7,10.2,9.9,1.49,3,1.74,5.38.63,7.44a4.51,4.51,0,0,1-4,2.62,7,7,0,0,1-3.64-1.19,13,13,0,0,1-2.6-2.25c-1.6-1.7-2.95-3.74-5.3-5.07a10.46,10.46,0,0,0-5.13-1.54c-3.85,0-6.31,3-7.54,5.79a9.8,9.8,0,0,0,3.87,12.11,11.77,11.77,0,0,0,6.57,1.81c.94,0,1.83-.06,2.7-.06a7.41,7.41,0,0,1,4.23,1.07,10,10,0,0,1,1.16.8,4.19,4.19,0,0,1,1,5.17,8.26,8.26,0,0,1-1.29,1.79c-2.34,2.55-5.75,3.55-9.27,3.55A22.33,22.33,0,0,1,300,114.16c-10.08-5.75-13.8-18.69-9.81-29.09A20.17,20.17,0,0,1,309,72.28m0-6h0a26.22,26.22,0,0,0-24.39,16.64,30.59,30.59,0,0,0-.48,20.28,28.53,28.53,0,0,0,12.92,16.17A28.14,28.14,0,0,0,310.6,123c5.62,0,10.33-1.88,13.63-5.43a14,14,0,0,0,2.19-3,10.14,10.14,0,0,0-2.18-12.43,14,14,0,0,0-2.05-1.5c-.3-.19-.6-.36-.89-.52a11.85,11.85,0,0,0,4.53.93,10.41,10.41,0,0,0,9.3-5.76c2-3.76,1.86-8.11-.52-12.95-3.25-6.6-10.42-11.18-12.55-12.42A25.83,25.83,0,0,0,309,66.28Zm3.05,32.35a5.84,5.84,0,0,1-3.45-.93,3.81,3.81,0,0,1-1.48-4.6c0-.09,1-2.18,2-2.18a4.7,4.7,0,0,1,2.17.76,10.89,10.89,0,0,1,2.54,2.44c.42.49.85,1,1.34,1.52A19.19,19.19,0,0,0,319,98.89c.36.22.73.43,1.09.61a14,14,0,0,0-5.37-.93q-.75,0-1.5,0c-.39,0-.79,0-1.2,0Z" fill="#45413c"></path><path d="M329.48,135.88A11.36,11.36,0,0,1,323,133.5c-2.9-2.11-4.7-6.65-2.56-10.29a7.4,7.4,0,0,1,6.2-3.69c-1.72-5.43,1.24-11.26,4.2-16.35.73-1.26,1.53-2.57,2.37-3.93s1.72-2.82,2.6-4.32L337,92.54l0-.07c.15-.26.36-.66.56-1s.46-.87.61-1.13l.32-.55a8.4,8.4,0,0,1,1.59-2l.25-.22.3-.17a5.6,5.6,0,0,1,2.81-.72,10.54,10.54,0,0,1,6,2.36,21.55,21.55,0,0,1,5.77,6.22,12.28,12.28,0,0,1,1.5,10,19.49,19.49,0,0,1-2.68,5.73c-4.25,6.39-11.83,12.19-15.39,13.54a13.42,13.42,0,0,1-2.66.73,7.34,7.34,0,0,1-6.58,10.64Z" fill="#45413c"></path><path d="M343.47,89.64a8,8,0,0,1,4.29,1.79,18.55,18.55,0,0,1,4.95,5.32,9.26,9.26,0,0,1,1.18,7.73,16.53,16.53,0,0,1-2.28,4.83c-3.86,5.81-10.84,11.22-13.95,12.39a9.33,9.33,0,0,1-3.24.67,5,5,0,0,1-4.63-2.91c-1.83-4.11.25-9,3.61-14.78,1.5-2.57,3.27-5.32,5-8.32l1.2-2.38c.32-.55.89-1.68,1.18-2.18l.32-.54a5,5,0,0,1,1-1.29,2.74,2.74,0,0,1,1.34-.33M327,122.51a6.41,6.41,0,0,1,1.49.19,7.08,7.08,0,0,1,2.64,1.23c2.28,1.69,3.56,4.58,2.09,6.86a4.29,4.29,0,0,1-3.74,2.09,8.45,8.45,0,0,1-4.74-1.8c-1.68-1.22-3.06-4.12-1.75-6.35a4.48,4.48,0,0,1,4-2.22m16.47-38.87h0a8.55,8.55,0,0,0-4.29,1.11l-.59.33-.5.46a11.06,11.06,0,0,0-2.16,2.7l-.24.42-.08.13c-.17.29-.42.76-.68,1.25-.18.34-.36.7-.49.92l-.09.15-.08.15-1.13,2.22c-.84,1.45-1.7,2.85-2.53,4.21s-1.64,2.67-2.39,4c-2.92,5-5.43,10.31-5.08,15.55a10.36,10.36,0,0,0-5.32,4.48c-3,5.09-.57,11.35,3.38,14.24a14.35,14.35,0,0,0,8.28,2.95,10.32,10.32,0,0,0,8.78-4.84,9.84,9.84,0,0,0,1.48-6.71l.05,0c4.55-1.71,12.4-8,16.82-14.68a22.35,22.35,0,0,0,3.08-6.63,15.18,15.18,0,0,0-1.82-12.32,24.59,24.59,0,0,0-6.59-7.11,13.46,13.46,0,0,0-7.81-2.93Z" fill="#45413c"></path><path d="M37.07,133.78a5.83,5.83,0,0,1-2.1-.39,9.73,9.73,0,0,1-4.58-4l-.87-1.31c-1.74-2.63-3.59-5.57-5.55-8.69s-4-6.31-5.9-9.23c-5.35-8.07-6.2-14.47,5.27-23.33,3.43-2.66,4.57-3.43,5.68-4.17,3.59-2.42,8.14-5.16,12.11-5.16a7.08,7.08,0,0,1,6.6,4.2c2.62,5.2-.67,8.32-3.82,10.46l-.61.39c-3.18,1.94-4.71,2.9-7.79,4.93a8.76,8.76,0,0,0-2.4,2.2,2.42,2.42,0,0,0,.4,2.16c.33.57.64,1.08.92,1.54,1.13-.82,2.32-1.68,3.23-2.3,3.1-2.12,5.11-3,7-3a5.23,5.23,0,0,1,4.75,3.13c2.6,4.86-.05,7.35-3.26,9.67l-1,.74a47.68,47.68,0,0,0-4.27,3.3,30.34,30.34,0,0,0,1.68,2.82c1.46,2.27,3.11,4.85,3.53,7.2.27,1.65-.11,4.08-3.38,6.54A9.65,9.65,0,0,1,37.07,133.78Z" fill="#ffcd21"></path><path d="M41.13,79.47A5.09,5.09,0,0,1,46,82.57c1.71,3.4.33,5.54-3.17,7.91l-.55.35c-3.15,1.92-4.72,2.91-7.82,5a10.71,10.71,0,0,0-2.95,2.74c-.88,1.28-.42,3.08.33,4.32A29.33,29.33,0,0,0,34,106.16c1.48-1,3.47-2.52,4.84-3.46,2.33-1.59,4.27-2.63,5.84-2.63a3.31,3.31,0,0,1,3,2.07c1.64,3.08.83,4.57-2.67,7.11-2.43,1.77-6.09,4.25-6.25,5.26-.26,1.71,4.7,7.07,5.37,10.78.31,1.94-1.28,3.57-2.62,4.58a7.76,7.76,0,0,1-4.38,1.91,3.74,3.74,0,0,1-1.37-.26,7.81,7.81,0,0,1-3.64-3.27l-.87-1.3c-3.51-5.29-7.6-12.11-11.46-17.92-4.75-7.18-5.92-12.34,4.84-20.65C28,85.72,29.11,85,30.2,84.25c3.48-2.36,7.6-4.78,10.93-4.78m0-4h0c-4.48,0-9.17,2.76-13.17,5.46l-.06,0c-1.13.76-2.3,1.55-5.78,4.24-12.6,9.74-11.4,17.45-5.72,26,1.92,2.9,3.93,6.1,5.87,9.19s3.83,6.08,5.59,8.74l.73,1.1.14.21a11.65,11.65,0,0,0,5.59,4.81,7.83,7.83,0,0,0,2.75.5,11.44,11.44,0,0,0,6.78-2.71c4.28-3.22,4.45-6.65,4.16-8.41v-.08c-.49-2.74-2.26-5.5-3.82-7.93-.24-.38-.54-.84-.81-1.28.92-.72,2.11-1.58,2.89-2.13l1-.75c2.43-1.76,7.49-5.43,3.84-12.23a7.19,7.19,0,0,0-6.51-4.19c-2.84,0-5.57,1.6-8.1,3.33l-1.48,1v0a8.47,8.47,0,0,1,1.59-1.32c3-2,4.55-2.95,7.67-4.85l0,0,0,0,.55-.35,0,0,.05,0c2-1.38,8.23-5.58,4.49-13a9.08,9.08,0,0,0-8.39-5.3Z" fill="#45413c"></path><path d="M63.91,115.69c-4.64,0-8.1-4.8-9.42-7.63A133.94,133.94,0,0,1,48.21,90c-2.13-7.33-3.58-17.79,8.43-23.94a17.19,17.19,0,0,1,7.86-2c10.34,0,17.1,10.68,21,19.65.28.65.73,1.51,1.21,2.43a53.37,53.37,0,0,1,2.66,5.75c2.36,6.44.8,11.52-4.29,13.93a6.67,6.67,0,0,1-2.84.67c-4.89,0-7.65-5.69-9.47-9.45-.25-.51-.54-1.11-.77-1.54a7.66,7.66,0,0,0-1.52.6A7.54,7.54,0,0,0,69,97c.08.42.19.85.31,1.33s.27,1.09.39,1.71.22,1.11.36,1.72c.88,4,2.22,10.15-2.69,13A6.94,6.94,0,0,1,63.91,115.69Zm-.79-36.91a8.19,8.19,0,0,0,.53,5.44,2.87,2.87,0,0,0,.27.52,6.08,6.08,0,0,0,1-.44l.32-.17a3.44,3.44,0,0,0,1.17-.78,3.27,3.27,0,0,0-.25-.82A8.23,8.23,0,0,0,63.12,78.78Z" fill="#ffcd21"></path><path d="M64.5,66C73.61,66,80,75.92,83.61,84.44c.88,2,2.75,5.13,3.83,8.07,1.54,4.21,1.75,9.07-3.26,11.44a4.63,4.63,0,0,1-2,.48c-5.07,0-7.8-9.76-9.17-11a1.35,1.35,0,0,0-.57-.1,7.24,7.24,0,0,0-3,.91C68.11,95,66.9,96,67,96.63c.16,1.35.55,2.37.8,3.75.72,3.87,2.89,10.15-1.36,12.61a4.94,4.94,0,0,1-2.49.7c-3.46,0-6.41-3.9-7.61-6.47a134.2,134.2,0,0,1-6.17-17.79c-2.51-8.64-2.24-16.65,7.42-21.6a15.14,15.14,0,0,1,7-1.83m-.75,20.78a5,5,0,0,0,2.1-.71l.31-.16c2.07-1.08,2.76-2,1.84-4.16-.83-2-3.08-5-5-5a1.66,1.66,0,0,0-.8.2c-1.75.91-1.64,5.25-.36,8.09.56,1.24,1.15,1.74,1.93,1.74M64.5,62h0a19.16,19.16,0,0,0-8.78,2.27C40.86,71.88,45,85.93,46.29,90.55a135.47,135.47,0,0,0,6.38,18.35c1.89,4.06,6,8.79,11.24,8.79a8.89,8.89,0,0,0,4.49-1.24c6.18-3.57,4.53-11.1,3.64-15.15-.13-.58-.25-1.14-.35-1.65,0-.13,0-.25-.07-.37,2,3.93,5.11,9.15,10.57,9.15a8.66,8.66,0,0,0,3.7-.86c6-2.86,8-9,5.31-16.43a52.87,52.87,0,0,0-2.77-6c-.46-.9-.89-1.74-1.16-2.35C81.43,69.21,73.55,62,64.5,62Z" fill="#45413c"></path><path d="M97.59,100c-4.62,0-8.68-5.63-13.16-18.24l-.9-2.53A95.8,95.8,0,0,1,79.9,65.64a9.89,9.89,0,0,1,5.7-11.45,12.81,12.81,0,0,1,4.66-.89,14.74,14.74,0,0,1,8.13,2.64,130.53,130.53,0,0,1,10.18,8.61c-1.7-6.85-3.72-17.07,5.11-19.46a6.53,6.53,0,0,1,1.67-.22,5.94,5.94,0,0,1,4.8,2.25c1.84,2,3.12,6.8,4.69,14.32l.25,1.19c1.89,9.09,2.27,17.48,1.08,23.71l0,.1,0,.09a8.61,8.61,0,0,1-5.81,5.59,6.52,6.52,0,0,1-1.77.24h0c-5.22,0-11.08-5.86-16.25-11-.1-.11-.21-.21-.31-.31a98.17,98.17,0,0,1,2.37,10.87c.4,3.17-2.22,6.69-4.84,7.73a3.21,3.21,0,0,1-.6.15h0A5.62,5.62,0,0,1,97.59,100Z" fill="#ffcd21"></path><path d="M115.34,46.87a3.92,3.92,0,0,1,3.26,1.52c1.79,1.81,3.25,8.48,4.28,13.46.11.51.16.76.27,1.26,1.72,8.26,2.26,16.54,1,22.85a6.6,6.6,0,0,1-4.43,4.23,4.25,4.25,0,0,1-1.23.17c-6.25,0-15-11.4-20.34-15.59.28,1,.43,1.52.71,2.54a137.5,137.5,0,0,1,3.45,14.84c.27,2.14-1.75,4.89-3.59,5.62-.12,0-.26,0-.38.08a3.65,3.65,0,0,1-.8.1C92.7,98,88.39,86.87,86.32,81l-.9-2.53a93.84,93.84,0,0,1-3.56-13.27,8,8,0,0,1,4.47-9.19,10.79,10.79,0,0,1,3.93-.75,12.72,12.72,0,0,1,7,2.31c3.17,2.09,12,10.37,15.17,13-.08-.3-.11-.45-.19-.75-.43-1.42-1-2.92-1.44-4.6C109,57.94,106.94,49,114.21,47a4.28,4.28,0,0,1,1.13-.15m0-4a8.36,8.36,0,0,0-2.18.29c-2.85.77-7.68,3.19-8.06,10.78a25.54,25.54,0,0,0,.3,5.12,67.88,67.88,0,0,0-5.91-4.78,16.61,16.61,0,0,0-9.23-3,14.83,14.83,0,0,0-5.39,1,11.88,11.88,0,0,0-6.93,13.72,97.12,97.12,0,0,0,3.71,13.79l.45,1.29.45,1.25c4.87,13.71,9.37,19.57,15,19.57a7,7,0,0,0,1.7-.21,4.42,4.42,0,0,0,.94-.25c3.31-1.31,6.62-5.67,6.1-9.84-.16-1.23-.43-2.72-.78-4.34,4.24,3.91,8.57,7,13,7a8.88,8.88,0,0,0,2.31-.31,10.69,10.69,0,0,0,7.19-7l.05-.18,0-.19c1.24-6.48.86-15.15-1.07-24.42l-.08-.4L126.8,61c-1.65-7.93-3-12.78-5.09-15.18a7.87,7.87,0,0,0-6.37-3Z" fill="#45413c"></path><path d="M144.39,87c-1.16,0-5-.19-6.4-2.66-.92-1.65-1.32-4.44-1.75-7.4-.11-.76-.22-1.51-.34-2.21-.47-2.88-.84-5.76-1.1-7.95-.33-2.72-.62-5.44-.88-7.78l-.09-.88c-1.31.19-3,.41-4.18.54a14.41,14.41,0,0,1-1.45.08,11.44,11.44,0,0,1-3.39-.49c-1.65-.51-3.92-2.72-4.85-7.31-1-4.81,1.37-8.71,5.84-9.7,3.63-.8,5.51-1.19,9.14-1.86,6-1.11,11.17-1.75,13.66-2.06l1-.13A26.31,26.31,0,0,1,153,37c7.82,0,9.8,4.56,10.09,8.38.45,6-5.93,7.71-11.05,9.07l-1.31.35c.44,3.52,1.17,8.1,1.87,12.53.5,3.13,1,6.43,1.38,9.57.06.53.11,1.07.16,1.62s.09,1,.14,1.53l.08.6-.28.54a10.81,10.81,0,0,1-8,5.72A11,11,0,0,1,144.39,87Z" fill="#ffcd21"></path><path d="M153,39c4.41,0,7.72,1.59,8.09,6.53.4,5.29-7.22,6.16-12.55,7.82,0,.36.06.54.11.9.43,3.66,1.23,8.7,2,13.42.5,3.12,1,6.38,1.37,9.46.12,1,.18,2.12.3,3.15a8.8,8.8,0,0,1-6.51,4.66,9.22,9.22,0,0,1-1.43.11c-1.91,0-4-.53-4.65-1.62-1-1.74-1.35-5.85-1.86-9-.43-2.61-.78-5.26-1.1-7.87-.47-3.94-.88-7.91-1.19-10.68-.76.09-4.08.6-6.15.81a11,11,0,0,1-1.24.07,9.24,9.24,0,0,1-2.81-.41c-.93-.28-2.69-1.94-3.47-5.79-.82-4,1.18-6.65,4.31-7.35,3.62-.8,5.44-1.17,9.08-1.84,6.94-1.3,12.71-1.93,14.59-2.17A22.86,22.86,0,0,1,153,39m0-4h0a28.45,28.45,0,0,0-3.65.26l-1,.13c-2.51.31-7.73.95-13.79,2.07-3.65.68-5.55,1.07-9.2,1.88-5.54,1.22-8.57,6.18-7.37,12.05,1.11,5.44,3.94,8.12,6.23,8.82a13.33,13.33,0,0,0,4,.58,15.48,15.48,0,0,0,1.65-.09c.66-.07,1.44-.16,2.21-.27.23,2.08.47,4.35.75,6.64s.64,5.13,1.12,8c.11.68.22,1.42.33,2.17.45,3.14.88,6.11,2,8.08C138.13,88.75,143,89,144.39,89a13,13,0,0,0,11.5-7l.55-1.07-.14-1.2c-.05-.48-.1-1-.14-1.46s-.1-1.14-.16-1.69c-.37-3.15-.89-6.49-1.39-9.63-.59-3.75-1.2-7.57-1.64-10.76a30.88,30.88,0,0,0,7.26-2.62c4.6-2.62,5-6.4,4.88-8.42C164.62,38.69,160.22,35,153,35Z" fill="#45413c"></path><path d="M169.25,83.49c-5.87,0-8.29-7-8.49-11.78a142.32,142.32,0,0,1,1.06-19.26c.46-4.44,1.88-18,16.5-18.08h.15c12,0,18.75,10.25,19,28.85,0,.73.1,1.72.18,2.78a56,56,0,0,1,.26,6.41c-.28,6.92-3.56,10.88-9,10.88h-.21c-7-.13-7.43-8.75-7.68-13.39,0-.64-.08-1.38-.13-1.9a6.39,6.39,0,0,0-1.46-.15h-.16a6,6,0,0,0-1.4.17c-.08.39-.14.81-.2,1.27s-.16,1.12-.29,1.73-.21,1.11-.31,1.73c-.71,4.12-1.77,10.36-7.36,10.72Zm8.63-28.81a4.52,4.52,0,0,0,.81.06h.61a4,4,0,0,0,1.14-.13,3.28,3.28,0,0,0,.07-.82,9.53,9.53,0,0,0-1.35-4.88,8.71,8.71,0,0,0-1.37,5A3.35,3.35,0,0,0,177.88,54.68Z" fill="#ffcd21"></path><path d="M178.47,36.37c14.07,0,16.85,15.47,17,26.88.05,2.2.56,5.92.44,9.08-.18,4.48-1.77,9-7,9h-.17c-6.8-.12-5.22-12.65-6.09-14.59-.44-.55-1.84-.85-3.22-.85h-.21c-1.51,0-2.95.4-3.13,1-.36,1.31-.39,2.41-.67,3.78-.78,3.85-1.16,10.55-5.84,10.85l-.34,0c-4.66,0-6.34-6.38-6.49-9.86a141.84,141.84,0,0,1,1.05-19c.94-9,4.17-16.22,14.52-16.29h.14m.22,20.37h.65c2.24,0,3.19-.56,3.17-2.95s-1.16-7-3.38-7h0c-1.89,0-3.39,4-3.3,7.21.07,2.27.94,2.76,2.9,2.76m-.21-24.37h-.18c-10.89.08-17.1,6.77-18.47,19.87a141.22,141.22,0,0,0-1.06,19.56,20.07,20.07,0,0,0,2,7.86c1.89,3.76,4.91,5.83,8.51,5.83l.6,0c7.16-.47,8.49-8.22,9.2-12.38,0-.27.09-.53.13-.78.44,5.07,2,12.84,9.5,13h.24c6.56,0,10.67-4.78,11-12.8a55.23,55.23,0,0,0-.27-6.65c-.08-1-.15-2-.17-2.68-.36-26.79-13.31-30.79-21-30.79Z" fill="#45413c"></path><path d="M214.52,85.44c-.85,0-1.73,0-2.63-.11l-1-.11c-4.94-.57-11-2.42-13.34-5.9A9,9,0,0,1,196,73.84a8,8,0,0,1,3.54-6.76,6.33,6.33,0,0,1,3.3-1l.37,0a20.76,20.76,0,0,1,5,1.44,24.7,24.7,0,0,0,4.42,1.35l.26,0a3.71,3.71,0,0,0,.47,0,25.38,25.38,0,0,0-2.28-1.67,52,52,0,0,1-6.62-5.15,15.44,15.44,0,0,1-4.57-11.93c.44-7.83,7.45-13.73,16.31-13.73a19.34,19.34,0,0,1,2.51.16c5.27.67,9.88,3,12.32,6.22a8.86,8.86,0,0,1,1.84,6.78c-.47,3.12-2.87,5.06-6.28,5.06-.37,0-.76,0-1.16-.07l-.42-.07c-1-.16-2.23-.45-3.38-.73s-2.32-.57-3.16-.68h-.06c.78.77,1.87,1.68,3,2.63,4.69,3.89,11.11,9.22,10,16.06C230.13,80.61,224.1,85.44,214.52,85.44Z" fill="#ffcd21"></path><path d="M216.24,38.49a19.14,19.14,0,0,1,2.25.14c7.5,1,13.24,5.42,12.44,10.72-.33,2.21-2,3.36-4.3,3.36a7.5,7.5,0,0,1-.93-.06l-.34,0c-2-.32-4.78-1.18-6.58-1.42l-.35,0-.54,0c-1.21,0-2.16.39-2.25,1.23a2.69,2.69,0,0,0,.93,1.74c3.49,3.83,14.16,9.86,13,17.45-1.36,8.7-7.39,11.91-15,11.91-.81,0-1.63,0-2.47-.1l-.93-.11c-4.47-.52-10-2.18-11.91-5A7.1,7.1,0,0,1,198,73.93a6.16,6.16,0,0,1,2.59-5.15,4.33,4.33,0,0,1,2.25-.68h.22c2.22.17,6.7,2.48,9.35,2.78l.26,0a7,7,0,0,0,.79,0c1.06,0,2.06-.31,2.18-1.44.27-2.5-3.86-3.34-9.81-8.85a13.42,13.42,0,0,1-3.93-10.35c.37-6.66,6.54-11.84,14.31-11.84m0-4c-9.93,0-17.8,6.72-18.31,15.62a17.46,17.46,0,0,0,5.16,13.46l0,0,0,0,.59.54-.34,0-.52,0a8.41,8.41,0,0,0-4.42,1.32A10.12,10.12,0,0,0,194,73.74a11.12,11.12,0,0,0,1.89,6.74c3.4,5,12.14,6.42,14.74,6.72l.92.11h.14c.95.08,1.9.12,2.8.12,10.68,0,17.42-5.43,19-15.29,1-6.48-3.58-11.65-7.9-15.49.35,0,.7.05,1,.05,4.4,0,7.64-2.66,8.26-6.76a10.82,10.82,0,0,0-2.23-8.29c-2.79-3.7-7.78-6.25-13.66-7a21.43,21.43,0,0,0-2.76-.18Z" fill="#45413c"></path><path d="M245.9,91.57a11.25,11.25,0,0,1-2.91-.39c-2.5-.66-6.2-2.82-6.59-5.58-.27-1.9.32-4.65.95-7.57.16-.74.32-1.48.46-2.16.56-2.88,1.22-5.7,1.74-7.82.64-2.69,1.33-5.36,1.91-7.65.08-.3.16-.6.23-.88-1.3-.38-3-.87-4.2-1.28a12.65,12.65,0,0,1-4.29-2.36c-1.32-1.12-2.6-4.05-1.88-8.63.66-4.23,3.41-6.85,7.18-6.85a8.64,8.64,0,0,1,1.74.18c3.64.77,5.52,1.19,9.11,2.07,6,1.46,11,3,13.42,3.78l1,.31c5.62,1.71,11.85,5.35,9.62,13-.88,3-3.35,4.59-7.34,4.59a39.5,39.5,0,0,1-6.26-.71l-1.23-.21c-.81,3.43-1.71,7.91-2.59,12.26-.63,3.1-1.3,6.38-2.05,9.41-.12.52-.27,1.06-.42,1.59s-.28,1-.39,1.45l-.15.62-.48.41A10,10,0,0,1,245.9,91.57Z" fill="#ffcd21"></path><path d="M238.5,42.4a7,7,0,0,1,1.34.14c3.62.76,5.43,1.17,9,2.06,6.89,1.68,12.49,3.5,14.31,4.06,5.77,1.75,10,4.73,8.28,10.52-.71,2.44-2.81,3.15-5.42,3.15-2.78,0-6.15-.81-9-1.16-.09.35-.13.53-.21.88C256,65.61,255,70.6,254,75.28c-.63,3.1-1.29,6.32-2,9.32-.24,1-.57,2-.81,3a8,8,0,0,1-5.27,1.93,9.85,9.85,0,0,1-2.4-.32c-2.07-.55-4.89-2.3-5.12-3.93-.28-2,.78-6,1.39-9.07.51-2.59,1.11-5.19,1.72-7.73.93-3.85,1.93-7.69,2.61-10.37-.73-.24-4-1.15-6-1.81a10.41,10.41,0,0,1-3.62-2c-.77-.65-1.81-2.91-1.2-6.79.54-3.49,2.64-5.16,5.2-5.16m0-4h0c-4.75,0-8.34,3.35-9.15,8.54-.85,5.39.76,8.94,2.55,10.46a14.75,14.75,0,0,0,5,2.74c.71.24,1.57.5,2.41.75-.53,2.08-1.11,4.36-1.67,6.69-.52,2.15-1.18,5-1.76,7.9-.13.68-.28,1.4-.44,2.13-.67,3.09-1.3,6-1,8.27.55,3.9,5.12,6.46,8.06,7.24a13.91,13.91,0,0,0,3.42.45,12,12,0,0,0,7.89-2.91l1-.83.3-1.23c.11-.46.25-.93.38-1.4s.3-1.1.44-1.64c.75-3.06,1.43-6.36,2.06-9.49.72-3.59,1.47-7.28,2.16-10.38a36.92,36.92,0,0,0,6,.64c6.53,0,8.61-3.78,9.26-6,1.21-4.17,1.4-11.72-10.95-15.47l-1-.31c-2.44-.75-7.52-2.33-13.54-3.81-3.62-.89-5.51-1.32-9.18-2.08a9.89,9.89,0,0,0-2.15-.23Z" fill="#45413c"></path><path d="M278.78,102.5a5.15,5.15,0,0,1-.95-.08,50.11,50.11,0,0,1-7.18-2.53l-.68-.27c-4.6-1.82-9-3.54-7.12-9.66.37-1.23,1.24-4.11,4.07-4.54a7,7,0,0,0,1.57-.37c1-2.67,1.88-5.66,2.86-8.83.41-1.34.84-2.72,1.28-4.13.23-.71.51-1.48.79-2.26s.55-1.52.79-2.27a11.2,11.2,0,0,0,.67-3.11c0-.17,0-.34-.81-1-1.72-1.35-2.25-3.67-1.44-6.37a8.27,8.27,0,0,1,2.31-3.83,5.48,5.48,0,0,1,3.56-1.09,21.75,21.75,0,0,1,7.65,1.93l1.59.65c3.86,1.56,11,4.48,9.14,10.64l-.28.74c-1.43,3.81-4.14,4.25-6.05,4.25h-.2c-.45,1.06-.93,2.42-1.35,3.64-.17.46-.32.91-.47,1.33l-2.13,5.9c-.57,1.58-1.25,3.25-1.9,4.85s-1.25,3.09-1.75,4.48l-.05.16c2,2.37,2.77,3.8,1.47,7.26C282.71,101.92,280.16,102.5,278.78,102.5Z" fill="#ffcd21"></path><path d="M278.5,54.19A20.92,20.92,0,0,1,285.41,56l1.58.64c6.41,2.6,9,4.83,8,8.21-.1.26-.15.39-.24.66a3.91,3.91,0,0,1-4.17,2.91l-.63,0h-.07a1.19,1.19,0,0,0-1.12.74c-.71,1.56-1.46,3.82-2.09,5.57l-2.12,5.9c-1.11,3.07-2.62,6.45-3.65,9.34a1.82,1.82,0,0,0,.24,2c1.74,2,2.18,2.71,1.19,5.34-.65,1.73-1.76,3.18-3.52,3.18a3.2,3.2,0,0,1-.61,0,59.83,59.83,0,0,1-7.46-2.69c-5.3-2.09-7.16-3.17-5.94-7.23.42-1.41,1-2.92,2.45-3.14,1.71-.26,2.78-.64,3-1.33,1.43-3.92,2.75-8.47,4.29-13.37.44-1.4,1.1-3,1.58-4.53a13.27,13.27,0,0,0,.76-3.82,3.23,3.23,0,0,0-1.58-2.43c-1.14-.9-1.27-2.5-.75-4.22a6.1,6.1,0,0,1,1.61-2.83,3.61,3.61,0,0,1,2.34-.67m0-4a7.47,7.47,0,0,0-4.84,1.55,10.07,10.07,0,0,0-2.94,4.8c-1,3.46-.26,6.64,2.09,8.5A15,15,0,0,1,272.3,67c-.22.7-.49,1.46-.76,2.2s-.57,1.57-.82,2.34c-.44,1.4-.86,2.78-1.28,4.12-.85,2.76-1.66,5.39-2.48,7.77l-.35.06c-4.07.62-5.28,4.62-5.67,5.94-2.37,7.88,3.79,10.32,8.29,12.1l.69.27a47.22,47.22,0,0,0,7.57,2.64,7,7,0,0,0,1.29.11c1.53,0,5.31-.56,7.27-5.77,1.5-4,.58-6.23-1.08-8.36.42-1.1.89-2.27,1.39-3.5.65-1.62,1.34-3.3,1.92-4.93l1.8-5,.33-.91.48-1.37c.27-.76.56-1.59.84-2.34a7.72,7.72,0,0,0,6.73-5.44l.19-.51.06-.15,0-.12,0-.12c2.43-7.91-6.49-11.54-10.29-13.09l-1.61-.65c-3.6-1.43-6.19-2.07-8.39-2.07Z" fill="#45413c"></path><path d="M310.6,116A24.45,24.45,0,0,1,299,113c-10.49-6-15.18-19.83-10.69-31.54A22.22,22.22,0,0,1,309,67.35a21.85,21.85,0,0,1,11,3c1.88,1.1,8.23,5.13,11,10.74,1.15,2.33,2.46,5.83.59,9.28a6.45,6.45,0,0,1-5.78,3.67,9,9,0,0,1-4.69-1.49,14.89,14.89,0,0,1-3-2.59c-.42-.45-.82-.91-1.23-1.39a14,14,0,0,0-3.6-3.31A8.56,8.56,0,0,0,309.16,84c-3.35,0-5.1,3.21-5.7,4.59a7.83,7.83,0,0,0,3.07,9.61,9.81,9.81,0,0,0,5.53,1.51c.46,0,.9,0,1.33,0l1.37,0a9.36,9.36,0,0,1,5.3,1.38,11.8,11.8,0,0,1,1.44,1,6.15,6.15,0,0,1,1.42,7.6,10.23,10.23,0,0,1-1.62,2.23C318.81,114.57,315.1,116,310.6,116Z" fill="#ffcd21"></path><path d="M309,69.35a19.67,19.67,0,0,1,10,2.74c3.42,2,8.13,5.7,10.2,9.9,1.49,3,1.74,5.37.63,7.43a4.5,4.5,0,0,1-4,2.63,7,7,0,0,1-3.64-1.2,12.68,12.68,0,0,1-2.6-2.25c-1.6-1.69-2.95-3.74-5.3-5.07A10.46,10.46,0,0,0,309.16,82c-3.85,0-6.31,3-7.54,5.79a9.82,9.82,0,0,0,3.87,12.12,11.75,11.75,0,0,0,6.57,1.8c.94,0,1.83-.06,2.7-.06a7.41,7.41,0,0,1,4.23,1.07,10.07,10.07,0,0,1,1.16.81,4.18,4.18,0,0,1,1,5.16,8.26,8.26,0,0,1-1.29,1.79c-2.34,2.55-5.75,3.56-9.27,3.56a22.33,22.33,0,0,1-10.57-2.8c-10.08-5.74-13.8-18.69-9.81-29.09A20.18,20.18,0,0,1,309,69.35m0-4h0a24.19,24.19,0,0,0-22.52,15.36c-4.85,12.61.23,27.54,11.56,34A26.15,26.15,0,0,0,310.6,118c5,0,9.26-1.67,12.18-4.81a12.58,12.58,0,0,0,1.89-2.61,8.19,8.19,0,0,0-1.79-10,12.38,12.38,0,0,0-1.76-1.27,11.39,11.39,0,0,0-6.36-1.68l-1.44,0q-.61,0-1.26,0a7.74,7.74,0,0,1-4.49-1.22,5.82,5.82,0,0,1-2.28-7.11c.45-1,1.7-3.38,3.87-3.38a6.76,6.76,0,0,1,3.16,1,12.45,12.45,0,0,1,3.06,2.88c.41.47.83,1,1.29,1.45a17,17,0,0,0,3.42,2.92,10.93,10.93,0,0,0,5.74,1.79,8.47,8.47,0,0,0,7.54-4.72c1.73-3.2,1.55-6.83-.55-11.11-3-6.11-9.77-10.41-11.77-11.58a23.85,23.85,0,0,0-12-3.29Z" fill="#45413c"></path><path d="M329.48,132a10.32,10.32,0,0,1-5.92-2.18c-2.54-1.86-4.14-5.82-2.29-9a6.46,6.46,0,0,1,5.73-3.2,7.12,7.12,0,0,1,1.12.08,3.54,3.54,0,0,1-.16-.34c-2.37-5.32.67-11.35,3.72-16.59.72-1.25,1.52-2.55,2.35-3.9s1.74-2.85,2.63-4.37l1.21-2.38,0,0c.16-.26.38-.67.59-1.07s.44-.84.59-1.1l.32-.54a7.07,7.07,0,0,1,1.39-1.76l.17-.16.2-.11a4.65,4.65,0,0,1,2.32-.58,9.59,9.59,0,0,1,5.46,2.16,20.71,20.71,0,0,1,5.5,5.92,11.17,11.17,0,0,1,1.39,9.26,18.45,18.45,0,0,1-2.54,5.43c-4.14,6.23-11.48,11.86-14.92,13.16a11.13,11.13,0,0,1-3.94.79h-.05a6.52,6.52,0,0,1,.53,7.51A6.31,6.31,0,0,1,329.48,132Z" fill="#ffcd21"></path><path d="M343.47,86.72a7.93,7.93,0,0,1,4.29,1.78,18.45,18.45,0,0,1,4.95,5.33,9.26,9.26,0,0,1,1.18,7.73,16.6,16.6,0,0,1-2.28,4.82c-3.86,5.81-10.84,11.22-13.95,12.4a9.32,9.32,0,0,1-3.24.66,4.86,4.86,0,0,1-2.92-.89,4.8,4.8,0,0,1-1.71-2c-1.83-4.11.25-9,3.61-14.78,1.5-2.57,3.27-5.32,5-8.32l1.2-2.38c.32-.55.89-1.68,1.18-2.17l.32-.55a5.21,5.21,0,0,1,1-1.29,2.76,2.76,0,0,1,1.34-.32M327,119.59a6.39,6.39,0,0,1,1.49.18,7.24,7.24,0,0,1,2.64,1.23c2.28,1.7,3.56,4.59,2.09,6.86a4.26,4.26,0,0,1-3.74,2.09,8.38,8.38,0,0,1-4.74-1.8c-1.68-1.22-3.06-4.12-1.75-6.35a4.47,4.47,0,0,1,4-2.21m16.47-36.87h0a6.68,6.68,0,0,0-3.31.84l-.39.22-.33.31a9.15,9.15,0,0,0-1.78,2.23l-.2.34-.12.21c-.16.27-.4.72-.64,1.17s-.39.76-.53,1l-.06.1-.05.1-1.16,2.28c-.86,1.47-1.73,2.9-2.58,4.28s-1.63,2.66-2.37,3.94c-2.87,4.93-5.72,10.53-4.59,16a8.34,8.34,0,0,0-5.82,4c-2.41,4.12-.41,9.23,2.84,11.61a12.37,12.37,0,0,0,7.1,2.56,8.22,8.22,0,0,0,7.1-3.92,8.06,8.06,0,0,0,.81-7,16.4,16.4,0,0,0,1.69-.53c4.17-1.58,11.72-7.69,15.86-13.93a20.34,20.34,0,0,0,2.82-6,13.27,13.27,0,0,0-1.61-10.79,22.79,22.79,0,0,0-6-6.52,11.51,11.51,0,0,0-6.64-2.54Z" fill="#45413c"></path></g></svg>