<svg xmlns="http://www.w3.org/2000/svg" version="1.1" xmlns:xlink="http://www.w3.org/1999/xlink" xmlns:svgjs="http://svgjs.com/svgjs" viewBox="0 0 48 48" width="48" height="48"><title>Exported from Streamline App (https://app.streamlineicons.com)</title><g transform="matrix(0.12972972972972974,0,0,0.12972972972972974,0,0)"><path d="M325.75,226.73c-3.77-14.34-22.16-17.27-42.75-8.88.05-1.21.08-2.42.08-3.64a94.78,94.78,0,0,0-189.55,0c0,1.22,0,2.43.08,3.64-20.59-8.39-39-5.46-42.75,8.88-7.94,30.16,47.28-3.35,69.46,87h136C278.47,223.38,333.69,256.89,325.75,226.73Z" fill="#ffffff"></path><path d="M165.68,204.81a4,4,0,0,1-4,4H107.15a4,4,0,0,1-4-4V179.42h62.51Z" fill="#e0e0e0"></path><path d="M273.44,204.81a4,4,0,0,1-4,4H214.9a4,4,0,0,1-4-4V179.42h62.52Z" fill="#e0e0e0"></path><path d="M97.85,242.6a94.78,94.78,0,1,1,180.48,1.31" fill="none" stroke="#45413c" stroke-linecap="round" stroke-linejoin="round" stroke-width="4"></path><path d="M176.46,190.66c0,11.08,5.3,20.06,11.84,20.06s11.85-9,11.85-20.06Z" fill="#ffa694" stroke="#45413c" stroke-linecap="round" stroke-linejoin="round" stroke-width="4"></path><path d="M104.670 156.630 L164.190 156.630 L164.190 198.830 L104.670 198.830 Z" fill="#b8ecff"></path><path d="M135.36,156.63l-30.69,39a3.33,3.33,0,0,0,3.32,3.19h18.7l33.2-42.21Z" fill="#e5f8ff"></path><path d="M104.670 156.630 L164.190 156.630 L164.190 198.830 L104.670 198.830 Z" fill="none" stroke="#45413c" stroke-linecap="round" stroke-linejoin="round" stroke-width="4"></path><path d="M212.420 156.630 L271.940 156.630 L271.940 198.830 L212.420 198.830 Z" fill="#b8ecff"></path><path d="M243.11,156.63l-30.69,39a3.33,3.33,0,0,0,3.32,3.19h18.7l33.2-42.21Z" fill="#e5f8ff"></path><path d="M212.420 156.630 L271.940 156.630 L271.940 198.830 L212.420 198.830 Z" fill="none" stroke="#45413c" stroke-linecap="round" stroke-linejoin="round" stroke-width="4"></path><path d="M92.55,147.21c-.11-8,13.78-14.15,20.21-6.18" fill="none" stroke="#45413c" stroke-linecap="round" stroke-linejoin="round" stroke-width="4"></path><path d="M284.06,147.21c.11-8-13.78-14.15-20.21-6.18" fill="none" stroke="#45413c" stroke-linecap="round" stroke-linejoin="round" stroke-width="4"></path><path d="M150.11,278.3c-24.71-63.06-91.65-80.46-99.25-51.57-7.94,30.16,47.28-3.35,69.46,87" fill="#ffffff" stroke="#45413c" stroke-linecap="round" stroke-linejoin="round" stroke-width="4"></path><path d="M225.5,280.94c23.85-65.21,92.54-83.5,100.25-54.21,7.94,30.16-47.28-3.35-69.46,87" fill="#ffffff" stroke="#45413c" stroke-linecap="round" stroke-linejoin="round" stroke-width="4"></path><path d="M162.77,282.94a4.5,4.5,0,0,1,4.89-6.38,116.43,116.43,0,0,0,43.32,0,4.51,4.51,0,0,1,4.9,6.38c-3.23,6.71-10.5,15.21-26.56,15.21S166,289.65,162.77,282.94Z" fill="#e0e0e0"></path><path d="M60.670 66.170 A9.440 9.440 0 1 0 79.550 66.170 A9.440 9.440 0 1 0 60.670 66.170 Z" fill="#6dd627" stroke="#45413c" stroke-linecap="round" stroke-linejoin="round" stroke-width="4"></path><path d="M278.670 56.730 A9.440 9.440 0 1 0 297.550 56.730 A9.440 9.440 0 1 0 278.670 56.730 Z" fill="#ffe500" stroke="#45413c" stroke-linecap="round" stroke-linejoin="round" stroke-width="4"></path><path d="M318.830 139.520 L334.220 139.520 L334.220 154.910 L318.830 154.910 Z" fill="#6dd627" stroke="#45413c" stroke-linecap="round" stroke-linejoin="round" stroke-width="4" transform="rotate(23 328.62 147.898)"></path><path d="M55.442 140.413 L70.217 144.722 L65.908 159.497 L51.133 155.188 Z" fill="#ffe500" stroke="#45413c" stroke-linecap="round" stroke-linejoin="round" stroke-width="4" transform="matrix(.96 .29 -.29 .96 46.33 -11.17)"></path><path d="M112.760 84.630 L128.150 84.630 L128.150 100.020 L112.760 100.020 Z" fill="#00aed9" stroke="#45413c" stroke-linecap="round" stroke-linejoin="round" stroke-width="4" transform="rotate(-20.17 120.466 92.335)"></path><path d="M288.11,120.67a6,6,0,0,1-5.61-8c2.94-8,12.5-13.38,21.75-18.57,5.53-3.11,13.1-7.36,14.35-10.21a6,6,0,1,1,10.95,4.8c-2.85,6.52-10.91,11-19.45,15.83-6.66,3.75-15,8.4-16.37,12.26A6,6,0,0,1,288.11,120.67Z" fill="#ffe500"></path><path d="M324.08,82.28a4,4,0,0,1,1.59.33,4,4,0,0,1,2.05,5.24c-2.59,5.91-10.36,10.28-18.6,14.9-7.31,4.11-15.6,8.76-17.27,13.31a4,4,0,0,1-3.74,2.61,3.92,3.92,0,0,1-1.37-.24,4,4,0,0,1-2.36-5.1c2.68-7.32,11.91-12.5,20.85-17.52,6.41-3.6,13.69-7.68,15.2-11.15a4,4,0,0,1,3.65-2.38m0-4h0a8,8,0,0,0-7.31,4.77c-1,2.24-9.13,6.82-13.5,9.27-9.57,5.38-19.46,10.93-22.65,19.63a8,8,0,0,0,15,5.49c1.16-3.16,9.77-8,15.47-11.2,8.84-5,17.18-9.65,20.31-16.78A8,8,0,0,0,327.28,79a7.85,7.85,0,0,0-3.2-.67Z" fill="#45413c"></path><path d="M75,120.67a6,6,0,0,1-5.88-4.92c-.57-3.18-4.94-4.38-14.52-5.86-8.78-1.35-19.7-3-23.86-12.11a6,6,0,0,1,2.95-7.93,5.89,5.89,0,0,1,2.48-.54,6,6,0,0,1,5.44,3.48c1.48,3.23,8.56,4.32,14.81,5.28,9.94,1.54,22.3,3.44,24.47,15.57A6,6,0,0,1,76,120.58,6.12,6.12,0,0,1,75,120.67Z" fill="#ffe500"></path><path d="M36.13,91.31a4,4,0,0,1,3.62,2.32c1.93,4.2,9.25,5.33,16.33,6.42,9.79,1.51,20.88,3.22,22.8,14a4,4,0,0,1-3.22,4.61,4.23,4.23,0,0,1-.7.06A4,4,0,0,1,71,115.39c-.85-4.78-6.68-6-16.18-7.48-8.73-1.34-18.63-2.87-22.34-11a4,4,0,0,1,2-5.27,3.9,3.9,0,0,1,1.65-.36m0-4h0a8,8,0,0,0-7.25,11.3c4.61,10,16.12,11.83,25.37,13.26,6.56,1,12.48,2.09,12.86,4.23A8,8,0,0,0,75,122.67a8.3,8.3,0,0,0,1.41-.12,8,8,0,0,0,6.45-9.26C80.4,99.76,66.69,97.64,56.69,96.1c-4.89-.76-12.27-1.9-13.3-4.14a8,8,0,0,0-7.26-4.65Z" fill="#45413c"></path><path d="M153,88.87A6,6,0,0,1,147,83.59c-1-8.6-5.56-14.59-10-20.38-4.8-6.3-9.75-12.81-8.56-21.58a6,6,0,0,1,5.92-5.17,5.76,5.76,0,0,1,.82.06,6,6,0,0,1,5.11,6.73c-.5,3.67,2,7.22,6.22,12.72,4.88,6.41,11,14.38,12.34,26.23a6,6,0,0,1-5.25,6.63A5.48,5.48,0,0,1,153,88.87Z" fill="#6dd627"></path><path d="M134.42,38.46a3.39,3.39,0,0,1,.55,0,4,4,0,0,1,3.4,4.48c-.61,4.45,2.12,8.3,6.61,14.2,4.73,6.22,10.62,13.95,11.94,25.25a4,4,0,0,1-3.49,4.41,3.71,3.71,0,0,1-.47,0A4,4,0,0,1,149,83.35C148,74.22,143.22,68,138.65,62c-4.76-6.25-9.25-12.15-8.16-20.1a4,4,0,0,1,3.93-3.44m0-4h0a8,8,0,0,0-7.9,6.9c-1.31,9.59,3.91,16.44,9,23.07,4.44,5.83,8.63,11.34,9.57,19.39A8,8,0,0,0,153,90.87a7.3,7.3,0,0,0,.94-.06,8,8,0,0,0,7-8.85c-1.45-12.38-8-20.95-12.72-27.2-4.25-5.58-6.21-8.51-5.84-11.24a8,8,0,0,0-6.82-9,7.88,7.88,0,0,0-1.09-.08Z" fill="#45413c"></path><path d="M209.23,101.26a6.08,6.08,0,0,1-1.27-.13A6,6,0,0,1,203.38,94c2.16-9.94,10.54-17.11,18.64-24,5.63-4.82,10.95-9.37,12.36-13.46a6,6,0,1,1,11.3,3.91c-2.47,7.15-9,12.73-15.89,18.63-6.6,5.65-13.42,11.49-14.72,17.49A6,6,0,0,1,209.23,101.26Z" fill="#ff4064"></path><path d="M240,54.49a3.9,3.9,0,0,1,1.3.22,4,4,0,0,1,2.46,5.06c-2.3,6.65-8.61,12-15.3,17.78-6.85,5.86-13.93,11.92-15.38,18.58a4,4,0,0,1-3.88,3.13,4.17,4.17,0,0,1-.85-.09,4,4,0,0,1-3-4.73c2-9.27,10.13-16.22,18-22.94,5.84-5,11.36-9.72,13-14.33A4,4,0,0,1,240,54.49m0-4h0a8,8,0,0,0-7.54,5.37c-1.24,3.58-6.59,8.17-11.77,12.6-8.36,7.15-17,14.54-19.29,25.13a8,8,0,0,0,6.1,9.49,8.26,8.26,0,0,0,1.7.18A8,8,0,0,0,217,97c1.16-5.34,7.72-11,14.07-16.39,7.11-6.09,13.83-11.84,16.48-19.51A8,8,0,0,0,240,50.49Z" fill="#45413c"></path><path d="M300.89,196.64A6,6,0,0,1,299.12,185c3.05-.94,5.8-3.95,8.72-7.13,4.43-4.84,10-10.87,18.69-10.87a6,6,0,1,1,0,12c-3.48,0-6.3,3.08-9.87,7s-7.86,8.57-14,10.48A6.21,6.21,0,0,1,300.89,196.64Z" fill="#ff4064"></path><path d="M326.53,169a4,4,0,1,1,0,8c-4.36,0-7.6,3.54-11.35,7.64-3.51,3.83-7.48,8.17-13.11,9.92a4,4,0,0,1-2.36-7.61c3.57-1.1,6.5-4.3,9.6-7.69,4.39-4.79,9.36-10.22,17.22-10.22m0-4c-9.62,0-15.47,6.39-20.17,11.52-2.72,3-5.3,5.79-7.83,6.57a8,8,0,0,0,2.36,15.6,8.17,8.17,0,0,0,2.36-.35c6.66-2.07,11.22-7,14.88-11s5.93-6.34,8.4-6.34a8,8,0,1,0,0-16Z" fill="#45413c"></path><path d="M75,202.64c-7.53,0-14.27-4.64-21.41-9.54-6-4.12-12.19-8.38-18.45-9.48a6,6,0,0,1,1-11.86,6.32,6.32,0,0,1,1.06.09c8.81,1.54,16.42,6.77,23.13,11.39,5.57,3.82,10.83,7.44,14.65,7.44a6,6,0,1,1,0,12Z" fill="#6dd627"></path><path d="M36.12,173.76a4,4,0,0,1,.7.06c8.39,1.47,15.82,6.57,22.36,11.07,5.84,4,11.34,7.79,15.78,7.79a4,4,0,1,1,0,8c-6.91,0-13.4-4.47-20.28-9.19-6.17-4.24-12.55-8.62-19.23-9.8a4,4,0,0,1,.67-7.89m0-4h0a8,8,0,0,0-1.36,15.83c5.82,1,11.84,5.16,17.65,9.15,7.08,4.87,14.4,9.9,22.55,9.9a8,8,0,1,0,0-16c-3.2,0-8.44-3.61-13.51-7.09-6.89-4.73-14.69-10.09-23.93-11.71a8.18,8.18,0,0,0-1.4-.12Z" fill="#45413c"></path><path d="M43.32,330.29c-14.87,0-23.75-13.18-23.75-25.92,0-15,10.14-26.12,24.12-26.48h.46c2,0,8.73.31,13.81,4.27,3.54,2.75,5.26,5.94,5.26,9.74,0,6-4.15,10.16-10.1,10.16a13.79,13.79,0,0,1-4.42-.81c-.59-.19-1.17-.43-1.77-.66a7.91,7.91,0,0,0-2.62-.76c-1.15,0-3.54,0-3.54,4.6,0,1.16.7,3.59,2.86,3.67h.29c1.55,0,2.4-.53,4-1.63a12.73,12.73,0,0,1,7.48-2.79,11.32,11.32,0,0,1,2.22.16,8.58,8.58,0,0,1,7,8.58,13.59,13.59,0,0,1-.39,3.31C62.13,324.85,52,330.29,43.32,330.29Z" fill="#45413c"></path><path d="M82.77,330.78c-14.78,0-23.26-9.74-23.26-26.72,0-15.45,9.62-26.23,23.38-26.23a21.87,21.87,0,0,1,19.26,10.65c2.43,3.9,3.68,9.29,3.68,15.95C105.83,317.55,98.7,330.78,82.77,330.78ZM83,299.27a.89.89,0,0,0-.22,0c-.16.15-1,1.51-1,4.95a8.87,8.87,0,0,0,1.11,4.66l.09,0c.2-.14,1.06-1.49,1.11-4.9s-.55-4.53-.66-4.68h0A4.08,4.08,0,0,0,83,299.27Z" fill="#45413c"></path><path d="M112.54,330.85a5.5,5.5,0,0,1-1.13-.12c-9.78-1.41-9.78-17.54-9.78-24.44v-2.6a110.53,110.53,0,0,1,1-13.81c.86-7.22,6.18-11,11-11,3.36,0,8.25,1.24,12.52,7.14.46.64,1,1.53,1.68,2.58,1.25-5.13,4.09-9.59,10.55-9.59a8.66,8.66,0,0,1,7.94,5.29c1.4,2.87,1.67,7.77,1.67,15.6v1.24c0,6.7-.69,16.23-4,23.6-.07.15-.15.3-.23.45a11,11,0,0,1-9.45,5.28c-4.89-.09-8.63-3.7-11.8-8.41,0,.29-.08.57-.13.83C121.53,327.6,116.51,330.85,112.54,330.85Z" fill="#45413c"></path><path d="M165.47,331.22c-15.35-.29-22.34-13.7-22.34-26.05,0-15.3,10.73-27.28,24.43-27.28,11.37,0,20.27,7.19,20.27,16.37a7.62,7.62,0,0,1-2.52,5.71,11,11,0,0,1,2.28,3.82l.09.25a22.87,22.87,0,0,1,.9,6.16v.31c0,10.29-7.75,20.71-22.56,20.71Z" fill="#45413c"></path><path d="M195.28,331.34c-6.46,0-10.44-3.62-10.66-9.67-.34-9.09-.5-14.79-.5-18.48,0-1.52,0-2.6,0-3.43,0-.48,0-.87,0-1.22V296.8c0-.1,0-.48,0-.48.19-3.23.43-7.24,3.67-11.86s8.59-6.76,16.15-6.76c12.83,0,20.51,6.49,21.07,17.8a2,2,0,0,1,0,.25v.93a16.57,16.57,0,0,1-6.23,13.4c.45.58.94,1.16,1.41,1.74a41.07,41.07,0,0,1,3.06,4,13.07,13.07,0,0,1,2.19,6.87c0,3.9-2.88,8-9.33,8.23h-.46c-4.26,0-7.69-2.39-10.51-5.3a9.82,9.82,0,0,1-.69,1.33C202.89,329.67,199.41,331.34,195.28,331.34Z" fill="#45413c"></path><path d="M249.68,330.72c-5.82,0-8.39-4-9.56-8.2-1.31,3.85-3.86,8-9.48,8a9.67,9.67,0,0,1-7.24-3.16c-3.08-3.3-3.94-8.41-3.73-11.88a96.87,96.87,0,0,1,1.76-15.49c.19-1.09.37-2.16.53-3.17.87-5.24,3.18-19.07,18.23-19.07,17.49,0,19.26,18.11,20.44,30.09,0,.07,0,.13,0,.19,0,.7.15,1.58.26,2.54a57.23,57.23,0,0,1,.49,6.44C261.39,327.11,255.34,330.72,249.68,330.72Z" fill="#45413c"></path><path d="M275,331.09c-3.33,0-7.68-1.26-9.9-4.79a4.87,4.87,0,0,1-.72-2,82.65,82.65,0,0,1-.42-9.44c0-2.61.07-5.25.2-7.87.05-1.85.15-3.72.24-5.47l-1-.11a11.72,11.72,0,0,1-5.5-1.92c-2.71-1.65-4.25-5.39-4.25-10.37,0-7.5,5.07-10.91,9.79-10.91h7.88c4,0,7.52.05,9.94.09l2.65,0c4.25,0,14.13,1.19,14.13,12.15,0,7.52-6.77,9.47-11.68,10.32.07,2.95.2,6.35.33,9.46.13,3.38.25,6.42.25,9.38,0,.54,0,1.1,0,1.67s0,.92,0,1.37a5,5,0,0,1-.87,2.8A13.12,13.12,0,0,1,275,331.09Z" fill="#45413c"></path><path d="M308.79,331.16c-1.94,0-11.78-.28-16-5.66a11.47,11.47,0,0,1-2.43-7.11,11,11,0,0,1,4.22-9.06,9.17,9.17,0,0,1,3-1.47,18,18,0,0,1-4.75-12.3c0-9.74,8.31-17.67,18.54-17.67,9.73,0,16.8,5.6,16.8,13.33a8.57,8.57,0,0,1-5.87,8.34c3.91,3,7.67,7.08,7.67,12.87,0,11.11-7.71,18.28-20.1,18.72h-1.11Z" fill="#45413c"></path><path d="M338.69,331.16c-4.52,0-9.36-3.64-9.36-9.05a9.84,9.84,0,0,1,2.42-6.48c-3.1-4.07-3.41-10.09-3.41-15.6,0-1.44,0-2.94.06-4.5s.06-3.24.06-4.94l-.12-2.49v-.23c0-.28,0-.7,0-1.1s0-1,0-1.32v-.62a11.23,11.23,0,0,1,.34-2.82,4.62,4.62,0,0,1,.3-.86c1.44-3.14,4.71-4.94,9-4.94a17.29,17.29,0,0,1,7.86,1.86,12.64,12.64,0,0,1,6.65,8.39,23.55,23.55,0,0,1,.8,6.49c0,7.61-2.58,17.07-4.9,20.8-.22.35-.45.69-.68,1a8.73,8.73,0,0,1,2.48,6.17C350.09,326.86,345.29,331.16,338.69,331.16Z" fill="#45413c"></path><path d="M38.37,323.62c-13,0-20.8-11.68-20.8-23,0-13.53,8.73-23.2,21.24-23.52h.38c1.72,0,7.66.27,12,3.66,2.81,2.18,4.11,4.54,4.11,7.41,0,4.38-2.8,7.21-7.14,7.21a10.83,10.83,0,0,1-3.49-.67c-.54-.17-1.07-.38-1.61-.6a10,10,0,0,0-3.71-1c-5.66,0-6.5,4.73-6.5,7.56,0,3.14,2.13,6.48,5.71,6.62H39a9.22,9.22,0,0,0,5.68-2.15,10,10,0,0,1,5.82-2.27,8.19,8.19,0,0,1,1.64.11,5.59,5.59,0,0,1,4.58,5.68,10.64,10.64,0,0,1-.31,2.65C55,317.37,47.92,323.62,38.37,323.62Z" fill="#ffcd21"></path><path d="M39.19,279.12c3.32,0,7.78.89,10.78,3.23,2.23,1.74,3.34,3.54,3.34,5.83,0,3.11-1.79,5.22-5.14,5.22a9,9,0,0,1-2.86-.56c-1.86-.62-3.66-1.68-6-1.68-6.7,0-8.5,5.4-8.5,9.56s2.79,8.43,7.63,8.62H39c5.81,0,7.39-4.42,11.5-4.42a7.37,7.37,0,0,1,1.24.07,3.62,3.62,0,0,1,3,3.72,8.83,8.83,0,0,1-.25,2.17c-1.55,6.95-9.92,10.73-16.06,10.73-11.61,0-18.8-10.42-18.8-21,0-11.6,7.19-21.21,19.29-21.52h.33m0-4h-.4a22.86,22.86,0,0,0-17.16,7.94,27,27,0,0,0-6.06,17.58c0,12.28,8.53,25,22.8,25,8.27,0,18-5.17,20-13.81a12.77,12.77,0,0,0,.36-3.09,7.63,7.63,0,0,0-6.16-7.64,10.51,10.51,0,0,0-2.06-.15,11.78,11.78,0,0,0-7,2.62c-1.52,1-2.62,1.8-4.55,1.8h-.31c-2.62-.1-3.79-2.76-3.79-4.62,0-5.56,3.38-5.56,4.5-5.56a8.39,8.39,0,0,1,3,.83c.55.21,1.11.44,1.72.64a12.65,12.65,0,0,0,4.12.77,8.78,8.78,0,0,0,9.14-9.22c0-3.48-1.6-6.42-4.89-9-4.84-3.78-11.35-4.08-13.23-4.08Z" fill="#45413c"></path><path d="M79.05,324.12c-13.09,0-20.3-8.45-20.3-23.78,0-13.92,8.21-23.27,20.43-23.27a19,19,0,0,1,16.72,9.22c2.16,3.46,3.26,8.33,3.26,14.43s-1.65,11.8-4.65,15.9C90.93,321.52,85.58,324.12,79.05,324.12Zm.25-31.52c-3.42,0-4.14,4.31-4.14,7.93,0,2.94,1,7.61,3.89,7.61,3.67,0,4.29-4.9,4.33-7.83.07-3.42-.44-5.7-1.52-6.81A3.24,3.24,0,0,0,79.3,292.6Z" fill="#ffcd21"></path><path d="M79.18,279.07a17.05,17.05,0,0,1,15,8.25c2.35,3.78,3,8.87,3,13.4,0,10.73-5.33,21.4-18.11,21.4-13.52,0-18.3-9.56-18.3-21.78,0-11.72,6.45-21.27,18.43-21.27m-.13,31.07c5.09,0,6.27-5.58,6.33-9.8.12-5.64-1.24-9.74-6.08-9.74s-6.14,5-6.14,9.93c0,3.78,1.43,9.61,5.89,9.61m.13-35.07a20.83,20.83,0,0,0-16.82,7.73c-3.62,4.48-5.61,10.71-5.61,17.54,0,16.38,8.13,25.78,22.3,25.78,15.28,0,22.11-12.76,22.11-25.4,0-6.47-1.19-11.68-3.56-15.49a20.94,20.94,0,0,0-18.42-10.16Zm-.13,31.07c-.83,0-1.89-2.72-1.89-5.61a12,12,0,0,1,.85-5c.43-.85.78-.92,1.29-.92.84,0,1.06.22,1.13.3s1,1.27.95,5.36a11.85,11.85,0,0,1-.88,4.81c-.52,1.07-1,1.07-1.45,1.07Z" fill="#45413c"></path><path d="M110.06,324.18a2.65,2.65,0,0,1-.61-.08h0c-6.56-.86-7.32-12.7-7.32-21.52V300a107.33,107.33,0,0,1,.94-13.45c.66-5.51,4.56-8.4,8.07-8.4,3.88,0,7.28,2,10.12,5.92,1.2,1.67,3.41,5.47,5.55,9.16l.51.88c.08-7,.84-15.84,8.57-15.84a5.75,5.75,0,0,1,5.24,3.54c1.17,2.3,1.41,7.24,1.41,14.41v1.24c0,6.41-.64,15.5-3.71,22.4l-.09.18a8.09,8.09,0,0,1-6.89,3.8c-5.84-.12-10.17-7.92-14-15.22a92.7,92.7,0,0,1-.85,10.08C116.43,321.78,112.8,324.18,110.06,324.18Z" fill="#ffcd21"></path><path d="M111.12,280.12c3.22,0,6.07,1.74,8.49,5.09,2.11,2.91,7.7,13.15,9.93,16.5V301c-.06-1.42-.25-3-.25-4.65,0-7.32.19-16.07,6.58-16.07a3.77,3.77,0,0,1,3.41,2.36c1.18,2.11,1.24,8.69,1.24,13.59v1.24c0,8.12-1.06,16-3.54,21.58a6.09,6.09,0,0,1-5.15,2.8c-6.45-.13-12-14.71-15.75-20.66l-.06,2.54a132.85,132.85,0,0,1-1,14.64c-.37,2.05-3,3.85-5,3.85-.12,0-.25-.06-.37-.06-5.21-.69-5.58-13.22-5.58-19.54V300a104.7,104.7,0,0,1,.93-13.21c.56-4.65,3.72-6.64,6.08-6.64m0-4c-4.39,0-9.25,3.49-10.05,10.16a109,109,0,0,0-1,13.69v2.61c0,10.36,1,22.38,9,23.49a4.23,4.23,0,0,0,1,.11c3.6,0,8.14-2.93,8.9-7.13.17-1,.32-2.19.44-3.48,3.32,5.54,7.21,10.14,12.36,10.24h.07a10.16,10.16,0,0,0,8.63-4.81l.18-.36c3.21-7.22,3.88-16.61,3.88-23.21v-1.24c0-7.74-.26-12.53-1.59-15.23a7.81,7.81,0,0,0-7.06-4.72c-2.73,0-7.59,1.07-9.55,8.24a24.27,24.27,0,0,0-.59,2.94c-1.15-1.93-2.15-3.56-2.87-4.56-4-5.57-8.61-6.74-11.74-6.74Z" fill="#45413c"></path><path d="M164.29,324.55c-13.43-.25-19.45-11.78-19.45-23.09,0-13.64,9.43-24.33,21.48-24.33,9.71,0,17.32,5.89,17.32,13.41,0,2.5-1.81,5.17-6.9,5.17a8,8,0,0,1-4.18-1,11.91,11.91,0,0,1-1.76-1.27,5.36,5.36,0,0,0-4.05-1.56c-4.27,0-6.19,4.79-6.19,9.54,0,2.27.55,7.55,5.64,7.55a5.11,5.11,0,0,0,2.88-.78C164,308,164,303.94,164,302.58c0-6.66,7.38-6.66,9.81-6.66a23.42,23.42,0,0,1,3.14.14,7.18,7.18,0,0,1,6.68,5l0,.1a19.27,19.27,0,0,1,.77,5.29v.31c0,11.66-9.86,17.76-19.59,17.76Z" fill="#ffcd21"></path><path d="M166.32,279.13c8.5,0,15.32,4.9,15.32,11.41,0,2.55-2.73,3.17-4.9,3.17a6,6,0,0,1-3.16-.69c-2-1.11-2.86-3.1-6.83-3.1-5.27,0-8.19,5.27-8.19,11.54,0,5.84,2.81,9.55,7.64,9.55h.12c4-.06,5.83-2.6,5.83-4.34v-.37l-2.85-.06c-3.35-.07-3.35-2.11-3.35-3.66,0-4.16,4-4.66,7.81-4.66a21.07,21.07,0,0,1,2.92.13,5.18,5.18,0,0,1,5,3.72,17.47,17.47,0,0,1,.68,4.71v.31c0,10.31-8.64,15.77-17.6,15.77h-.45c-13.46-.25-17.49-12.65-17.49-21.09,0-11.79,7.82-22.33,19.48-22.33m0-4c-13.17,0-23.48,11.56-23.48,26.33a29.94,29.94,0,0,0,4.33,15.78,19.87,19.87,0,0,0,17.09,9.31h.52a23.33,23.33,0,0,0,14.68-4.91,18.7,18.7,0,0,0,6.92-14.86v-.31a21.65,21.65,0,0,0-.85-5.88c0-.06-.05-.13-.07-.2a9.63,9.63,0,0,0-2.83-4.21,6.68,6.68,0,0,0,3-5.65c0-8.64-8.49-15.41-19.32-15.41Zm-3.5,23.58c.51-2.61,1.79-4.79,3.93-4.79a3.07,3.07,0,0,1,2,.48,10.85,10.85,0,0,0-1.9.63,7.9,7.9,0,0,0-4,3.68Z" fill="#45413c"></path><path d="M195.28,324.67c-6.17,0-7.59-3.71-7.7-6.82-.35-9.06-.5-14.73-.5-18.38,0-1.49,0-2.54,0-3.36,0-.5,0-.91,0-1.29v-1.73s0-.31,0-.31c.19-3.15.39-6.41,3.14-10.33,2.58-3.66,7.2-5.51,13.74-5.51,11.21,0,17.65,5.33,18.12,15v1c0,7-4.1,11.06-7.58,12.63.36.46.69.89.88,1.16.75,1.05,1.67,2.16,2.56,3.23a39.12,39.12,0,0,1,2.83,3.68,10.35,10.35,0,0,1,1.74,5.29c0,2.43-1.71,5.09-6.51,5.29h-.33c-5.21,0-9.13-4.91-12.3-9.13-.09,2.92-.43,5-1.4,6.53C200.7,323.87,197.66,324.67,195.28,324.67Zm8-30.05c3.32-.13,3.32-2.16,3.32-2.84,0-1.12-1.22-1.72-2.1-1.72a5.33,5.33,0,0,0-1.22.13Z" fill="#ffcd21"></path><path d="M204,278.94c9.8,0,15.69,4.28,16.13,13.09V293c0,7.51-5.34,10.79-7.88,11.29-.37.13-1,.19-1,.37s.18.31.24.38,1.68,2,2.3,2.91c1.74,2.42,4.15,5,5.33,6.82a8.27,8.27,0,0,1,1.43,4.22c0,1.93-1.61,3.17-4.59,3.29h-.25c-6.26,0-11-9.68-14.51-13a22.47,22.47,0,0,1,.24,3.66c0,4-.24,6.33-1.11,7.7s-3,2.1-5.09,2.1c-3.66,0-5.58-1.42-5.71-4.9-.37-9.8-.49-15-.49-18.3,0-2.41.06-3.66.06-4.65v-1.73c.19-3.11.31-6,2.79-9.5,3.1-4.4,9.24-4.65,12.1-4.65m-1.12,17.68c3.23,0,5.65-1.49,5.65-4.84a3.94,3.94,0,0,0-4.1-3.72,4.57,4.57,0,0,0-3.22,1v7.32a6.94,6.94,0,0,0,1.67.25M204,274.94c-7.23,0-12.4,2.14-15.37,6.35-3.09,4.4-3.31,8.1-3.5,11.37v.19a1.93,1.93,0,0,0,0,.24v1.73c0,.36,0,.76,0,1.24,0,.8,0,1.9,0,3.41,0,3.68.15,9.37.5,18.46.09,2.62,1.22,8.74,9.7,8.74,3.77,0,6.94-1.49,8.48-4a9.16,9.16,0,0,0,1.1-2.61c2.87,3.27,6.43,6.17,10.89,6.17h.42c6.21-.26,8.42-4.09,8.42-7.29a12.13,12.13,0,0,0-2.06-6.37,40,40,0,0,0-3-3.87c-.69-.84-1.4-1.7-2-2.52A15.59,15.59,0,0,0,224.16,293V292c0-.06,0-.13,0-.2-.53-10.73-7.86-16.89-20.12-16.89Z" fill="#45413c"></path><path d="M250.92,324.05c-7,0-7.43-8.76-7.64-13,0-.56-.06-1.22-.1-1.7a7,7,0,0,0-2.68,0c-.08.35-.14.72-.21,1.13s-.19,1.09-.33,1.69-.22,1-.33,1.53c-.78,3.78-2.1,10.12-7.76,10.12a6.76,6.76,0,0,1-5.07-2.23c-2.32-2.48-3.14-6.68-2.94-9.77a96,96,0,0,1,1.72-15.1c.19-1.1.37-2.17.53-3.19,1.29-7.73,4.19-16.58,15.32-16.58,14.81,0,16.3,15.21,17.49,27.43.05.79.17,1.76.28,2.78a52,52,0,0,1,.48,6.1C259.68,320.11,256.49,324.05,250.92,324.05Zm-10-27.61a5.88,5.88,0,0,0,.8,0H242a4.24,4.24,0,0,0,.86-.06,3.26,3.26,0,0,0,.06-.73,10.83,10.83,0,0,0-1-4.4,9.66,9.66,0,0,0-1.11,4.46A4.32,4.32,0,0,0,240.87,296.44Z" fill="#ffcd21"></path><path d="M241.43,278.94c13,0,14.33,13.59,15.5,25.62.13,2.11.75,5.65.75,8.69,0,4.34-1.43,8.8-6.76,8.8-6.76,0-5.15-12.09-6-13.95-.43-.56-1.86-.87-3.22-.87s-2.79.31-3,.87c-.37,1.24-.44,2.29-.75,3.59-.86,3.66-1.48,10.12-6.14,10.12-4.9,0-6.26-6.39-6-9.93,0-5.89,1.36-12.59,2.23-18.05,1.43-8.56,4.34-14.89,13.34-14.89m.24,19.54H242c2.05,0,2.92-.49,2.92-2.79s-1-6.76-3-6.76c-1.67,0-3.1,3.78-3.1,6.82,0,2.3.87,2.73,2.85,2.73m-.24-23.54c-14.25,0-16.45,13.25-17.29,18.23-.16,1.05-.34,2.12-.53,3.21a97.05,97.05,0,0,0-1.75,15.37c-.2,3.27.59,8.1,3.47,11.2a8.76,8.76,0,0,0,6.54,2.86c7,0,8.82-7.4,9.64-11.32a22.48,22.48,0,0,0,1,4.86c2,6,6.58,6.7,8.45,6.7,7.93,0,10.76-6.61,10.76-12.8a55.1,55.1,0,0,0-.49-6.33c-.11-1-.22-1.93-.26-2.59a.92.92,0,0,1,0-.16c-.6-6.1-1.28-13-3.65-18.51-3.06-7.11-8.39-10.72-15.84-10.72Z" fill="#45413c"></path><path d="M277.46,324.43c-2.42,0-5.81-.9-7.4-3.42a2.13,2.13,0,0,1-.29-.81,79.72,79.72,0,0,1-.39-9.06c0-2.57.07-5.17.19-7.73s.22-5.09.34-7.32l.06-1c-1.18-.07-2.59-.18-3.69-.32a9,9,0,0,1-4.28-1.47c-1.83-1.06-2.91-4-2.91-7.9,0-5.49,3.43-7.95,6.83-7.95h7.88c4,0,7.54.05,9.9.09l2.7,0c7.41,0,11.18,3.1,11.18,9.2s-6.46,7-11.18,7.7l-.54.08c0,3.45.2,8,.36,12.11.14,3.35.25,6.36.25,9.26,0,.52,0,1,0,1.58s0,1,0,1.46a2,2,0,0,1-.35,1.14A10.24,10.24,0,0,1,277.46,324.43Z" fill="#ffcd21"></path><path d="M273.8,279.44c6,0,11,.12,12.6.12,5.08,0,9.18,1.37,9.18,7.2,0,5.08-6.83,5.21-11.73,6.08v.87c0,3.53.19,8.43.37,13,.13,3,.25,6.21.25,9.18,0,1-.06,2-.06,3a8.23,8.23,0,0,1-7,3.48c-2.11,0-4.65-.81-5.7-2.48a76.9,76.9,0,0,1-.38-8.81c0-2.55.07-5.09.19-7.63.12-3.85.37-7.63.5-10.3-.69-.06-3.66-.19-5.53-.43a7,7,0,0,1-3.47-1.18c-.87-.44-2-2.42-2-6.21,0-4,2.11-5.95,4.83-5.95h7.88m0-4h-7.88c-6.07,0-8.83,5.16-8.83,9.95s1.38,8.11,3.82,9.58a10.94,10.94,0,0,0,5.15,1.78c.55.07,1.18.13,1.8.18-.1,2-.21,4.18-.29,6.41-.12,2.59-.19,5.22-.19,7.8a82.45,82.45,0,0,0,.41,9.31,4,4,0,0,0,.58,1.63c2,3.21,6.16,4.35,9.09,4.35a12.2,12.2,0,0,0,10.25-5.21,4.08,4.08,0,0,0,.7-2.27c0-.45,0-.93,0-1.4s0-1.1,0-1.64c0-2.94-.11-6-.25-9.34s-.28-7.16-.34-10.3a24.91,24.91,0,0,0,6.28-1.62,8.36,8.36,0,0,0,5.42-7.89c0-4.18-1.72-11.2-13.18-11.2l-2.67,0c-2.36,0-5.93-.09-9.93-.09Z" fill="#45413c"></path><path d="M312.51,324.49c-4.71,0-11.12-1.2-13.69-4.57a8.56,8.56,0,0,1-1.78-5.25,8,8,0,0,1,3.07-6.71,6.06,6.06,0,0,1,3.46-1.18,20.55,20.55,0,0,1,4.65.9,21.54,21.54,0,0,0,4.41.9h.5c-.47-.3-1.22-.71-1.86-1.06a42.19,42.19,0,0,1-6.86-4.5,14.68,14.68,0,0,1-4.88-11.17c0-8.11,7-14.71,15.58-14.71,8,0,13.85,4.36,13.85,10.37,0,3.45-2.38,5.79-6.06,6h-.41c-1,0-2.2-.12-3.34-.23-.9-.1-1.76-.18-2.42-.2.81.65,2,1.39,3.16,2.17,4.59,3,10.87,7,10.87,13.51,0,9.63-6.29,15.38-17.25,15.77h-1Z" fill="#ffcd21"></path><path d="M315.11,279.13c6.45,0,11.85,3.22,11.85,8.37,0,2.42-1.61,3.85-4.16,4h-.31c-1.8,0-4.34-.43-5.95-.43h-.31c-1.31.06-2.36.56-2.36,1.49a2.54,2.54,0,0,0,1,1.55c3.48,3.22,13.9,7.26,13.9,14.64,0,9.36-6.58,13.46-15.32,13.77h-.93c-4.47,0-10.12-1.18-12.1-3.79a6.56,6.56,0,0,1-1.37-4,6.06,6.06,0,0,1,2.24-5.08,4.06,4.06,0,0,1,2.29-.81c2.11,0,6.52,1.8,9.06,1.8h.25c1.24,0,2.67-.31,2.67-1.68,0-2.42-4-2.66-9.87-7.44a12.71,12.71,0,0,1-4.15-9.62c0-7,6-12.71,13.58-12.71m0-4c-9.7,0-17.58,7.5-17.58,16.71a16.7,16.7,0,0,0,5.56,12.67l.06,0a3.11,3.11,0,0,0,.28.23,8.22,8.22,0,0,0-4.55,1.6,10,10,0,0,0-3.84,8.29,10.7,10.7,0,0,0,2.23,6.52c3.92,5,13.37,5.3,15.24,5.3h1.07c12-.43,19.18-7.07,19.18-17.77,0-6.17-4.69-10.35-9-13.32a7.71,7.71,0,0,0,7.16-7.9c0-7.17-6.67-12.37-15.85-12.37Z" fill="#45413c"></path><path d="M343.64,324.49a6.35,6.35,0,0,1-6.4-6.1,7.13,7.13,0,0,1,3.95-6.32l-.24-.16c-4.34-3-4.71-9.32-4.71-15.6,0-1.41,0-2.9.06-4.44s.07-3.35.07-5.11l-.12-2.51c0-.4,0-.85,0-1.3s0-.93,0-1.22v-.62a8.39,8.39,0,0,1,.25-2.1,2.3,2.3,0,0,1,.12-.34c.95-2.08,3.18-3.22,6.28-3.22a14.37,14.37,0,0,1,6.51,1.53,9.72,9.72,0,0,1,5.16,6.57,20.65,20.65,0,0,1,.69,5.69c0,6.9-2.35,15.85-4.46,19.23a11.45,11.45,0,0,1-2.7,3.1,6,6,0,0,1,4.06,5.65C352.09,321.5,348.62,324.49,343.64,324.49Z" fill="#ffcd21"></path><path d="M342.83,277.45a12.33,12.33,0,0,1,5.59,1.31,7.75,7.75,0,0,1,4.15,5.33,18.7,18.7,0,0,1,.62,5.15c0,6.88-2.42,15.38-4.15,18.17-1.12,1.8-2.73,3.48-4.72,3.48a3.61,3.61,0,0,1-2.23-.62c-3.29-2.23-3.85-7.38-3.85-14,0-2.91.13-6.14.13-9.55l-.13-2.61c0-.62-.06-1.86-.06-2.42v-.62a6.13,6.13,0,0,1,.19-1.61c.68-1.49,2.48-2.05,4.46-2.05m2.36,35.61c2.54,0,4.9,1.49,4.9,4.16,0,3.66-3.22,5.27-6.45,5.27-1.92,0-4.4-1.55-4.4-4.1a5.2,5.2,0,0,1,3.34-4.77,6.41,6.41,0,0,1,2.61-.56m-2.36-39.61c-3.87,0-6.82,1.6-8.1,4.38a4.45,4.45,0,0,0-.24.7,10.25,10.25,0,0,0-.31,2.58v.62c0,.31,0,.79,0,1.29s0,.85,0,1.13a1.15,1.15,0,0,0,0,.19l.12,2.51c0,1.7,0,3.37-.07,5s-.06,3-.06,4.48c0,5.63.33,11.8,3.74,15.64a8.92,8.92,0,0,0-2.74,6.44c0,4.85,4.34,8.1,8.4,8.1,6.06,0,10.45-3.9,10.45-9.27a7.79,7.79,0,0,0-2.81-6.06,14.69,14.69,0,0,0,1.15-1.64c2.25-3.61,4.76-12.83,4.76-20.28a22.57,22.57,0,0,0-.78-6.27,11.71,11.71,0,0,0-6.15-7.77,16.35,16.35,0,0,0-7.43-1.75Z" fill="#45413c"></path></g></svg>