<svg xmlns="http://www.w3.org/2000/svg" version="1.1" xmlns:xlink="http://www.w3.org/1999/xlink" xmlns:svgjs="http://svgjs.com/svgjs" viewBox="0 0 48 48" width="48" height="48"><title>Exported from Streamline App (https://app.streamlineicons.com)</title><g transform="matrix(0.12972972972972974,0,0,0.12972972972972974,0,0)"><path d="M340.07,225.57C340.07,321.45,268,325,179,325S17.93,321.45,17.93,225.57,90.05,52,179,52,340.07,129.7,340.07,225.57Z" fill="#b8ecff"></path><path d="M167,53.68A102.33,102.33,0,0,0,188.72,182.5h0c-24.27,21.6-6.43,44.66,9.47,44.66,1.41,0,2.72-.08,4-.2v49.45H313.4c3.64,3.92,9.18,6.32,13.56,6.32,9.44,0,18.24-3.21,19.93-11.8,6.34-32.19,4.55-58.24-5.3-77.43-4.32-8.42-8.21-13.05-12.87-17h0A102.31,102.31,0,0,0,346.82,58.8,163.48,163.48,0,0,0,167,53.68Z" fill="#ffffff"></path><path d="M229.11,178a132.71,132.71,0,0,1-56.06-12.39A102.33,102.33,0,0,0,355.9,85.19,133.12,133.12,0,0,1,229.11,178Z" fill="#f0f0f0"></path><path d="M316.21,204.09c8.08,13.63,7.92,33.49,5.84,49.66" fill="none" stroke="#45413c" stroke-linecap="round" stroke-linejoin="round" stroke-width="3"></path><path d="M187.930 263.980 A70.470 70.470 0 1 0 328.870 263.980 A70.470 70.470 0 1 0 187.930 263.980 Z" fill="#ff6242" stroke="#45413c" stroke-linecap="round" stroke-linejoin="round" stroke-width="3"></path><path d="M201.030 263.980 A57.370 57.370 0 1 0 315.770 263.980 A57.370 57.370 0 1 0 201.030 263.980 Z" fill="#ffffff"></path><path d="M258.4,223a57.37,57.37,0,0,1,56.78,49.2,57.36,57.36,0,1,0-113.56,0A57.39,57.39,0,0,1,258.4,223Z" fill="#f0f0f0"></path><path d="M258.400 263.980 297.010 271.220" fill="none" stroke="#ff6242" stroke-linecap="round" stroke-miterlimit="10" stroke-width="3"></path><path d="M201.030 263.980 A57.370 57.370 0 1 0 315.770 263.980 A57.370 57.370 0 1 0 201.030 263.980 Z" fill="none" stroke="#45413c" stroke-linecap="round" stroke-linejoin="round" stroke-width="3"></path><path d="M279.28,297.15a5.33,5.33,0,0,1-4.39-2.28l-19.37-27.48H231.27a5.37,5.37,0,1,1,0-10.74h27a5.38,5.38,0,0,1,4.39,2.27l21,29.77a5.36,5.36,0,0,1-4.38,8.46Z" fill="#e8f4fa" stroke="#45413c" stroke-miterlimit="10" stroke-width="3"></path><path d="M247.590 263.980 A10.810 10.810 0 1 0 269.210 263.980 A10.810 10.810 0 1 0 247.590 263.980 Z" fill="#c0dceb" stroke="#45413c" stroke-miterlimit="10" stroke-width="3"></path><path d="M258.400 214.280 258.400 220.770" fill="none" stroke="#8ca4b8" stroke-linecap="round" stroke-miterlimit="10" stroke-width="3"></path><path d="M293.550 228.840 288.960 233.420" fill="none" stroke="#8ca4b8" stroke-linecap="round" stroke-miterlimit="10" stroke-width="3"></path><path d="M308.110 263.980 301.620 263.980" fill="none" stroke="#8ca4b8" stroke-linecap="round" stroke-miterlimit="10" stroke-width="3"></path><path d="M293.550 299.130 288.960 294.540" fill="none" stroke="#8ca4b8" stroke-linecap="round" stroke-miterlimit="10" stroke-width="3"></path><path d="M258.400 313.680 258.400 307.200" fill="none" stroke="#8ca4b8" stroke-linecap="round" stroke-miterlimit="10" stroke-width="3"></path><path d="M223.260 299.130 227.850 294.540" fill="none" stroke="#8ca4b8" stroke-linecap="round" stroke-miterlimit="10" stroke-width="3"></path><path d="M208.700 263.980 215.190 263.980" fill="none" stroke="#8ca4b8" stroke-linecap="round" stroke-miterlimit="10" stroke-width="3"></path><path d="M223.260 228.840 227.850 233.420" fill="none" stroke="#8ca4b8" stroke-linecap="round" stroke-miterlimit="10" stroke-width="3"></path><path d="M202,198.64c2.18-2,4.29-4.13,5.76-5.6,9.52-9.51,20.31-20.3,34.93-18.78,20.18,2.1,38.93,35.22,25,39.85-4,1.32-7.65-14.33-9.24-13.16-13.14,9.71-15.53,3.47-21.3-.49-2.9,1-6.35,8.15-10.08,11.88-8.81,8.81-15.09,14.82-28.84,14.82-15.9,0-33.74-23.06-9.47-44.66" fill="#ffffff" stroke="#45413c" stroke-linecap="round" stroke-linejoin="round" stroke-width="3"></path><path d="M346.82,58.8a102.35,102.35,0,0,1-32.21,129.72M196.1,188.3A102.34,102.34,0,0,1,167,53.68" fill="none" stroke="#45413c" stroke-linecap="round" stroke-linejoin="round" stroke-width="3"></path><path d="M332.29,257c-2.72-4-10.24-3.23-10.24-3.23a13.63,13.63,0,0,0-12.52,13.59c0,9,10.26,15.39,17.43,15.39,9.44,0,18.24-3.21,19.93-11.8,6.34-32.19,4.55-58.24-5.3-77.43-4.32-8.42-8.21-13.05-12.87-17" fill="#ffffff" stroke="#45413c" stroke-linecap="round" stroke-linejoin="round" stroke-width="3"></path><path d="M232.62,130.88a8.19,8.19,0,1,1,16.21-2.37l1.19,8.11c-6-2.51-11.4-1.47-16.22,2.36Z" fill="#ffa694" stroke="#45413c" stroke-linecap="round" stroke-linejoin="round" stroke-width="3"></path><path d="M252.550 90.260 A35.470 35.470 0 1 0 323.490 90.260 A35.470 35.470 0 1 0 252.550 90.260 Z" fill="#fff0ed" stroke="#45413c" stroke-linecap="round" stroke-linejoin="round" stroke-width="3"></path><path d="M252.550 90.260 A35.47 14.39 0 1 0 323.490 90.260 A35.47 14.39 0 1 0 252.550 90.260 Z" fill="#ffffff" stroke="#45413c" stroke-linecap="round" stroke-linejoin="round" stroke-width="3" transform="rotate(-6.39 287.964 90.291)"></path><path d="M281.990 78.970 A4.760 4.760 0 1 0 291.510 78.970 A4.760 4.760 0 1 0 281.990 78.970 Z" fill="#45413c"></path><path d="M149.610 101.790 A35.470 35.470 0 1 0 220.550 101.790 A35.470 35.470 0 1 0 149.610 101.790 Z" fill="#fff0ed" stroke="#45413c" stroke-linecap="round" stroke-linejoin="round" stroke-width="3"></path><path d="M149.610 101.790 A35.47 14.39 0 1 0 220.550 101.790 A35.47 14.39 0 1 0 149.610 101.790 Z" fill="#ffffff" stroke="#45413c" stroke-linecap="round" stroke-linejoin="round" stroke-width="3" transform="rotate(-6.39 185.07 101.8)"></path><path d="M179.050 90.490 A4.760 4.760 0 1 0 188.570 90.490 A4.760 4.760 0 1 0 179.050 90.490 Z" fill="#45413c"></path><path d="M29.06,172.39c-6.19,0-9-4.28-10.66-7.5l-.06-.11,0-.11c-4-10-7-26-7-38.14a8.86,8.86,0,0,1,.66-4l.29-.58.5-.41a11,11,0,0,1,7.05-2.32A12.24,12.24,0,0,1,27,121.3c4.33,3,5,8.41,5.49,12.73.11,1,.22,1.86.36,2.64.21,1.23.34,2.9.47,4.71,1.8-3.36,4.5-6.63,9-6.63,3.41,0,5.84,2.05,7.66,4.6,1.56-8.78,3-15.19,6.42-17.82a9.18,9.18,0,0,1,5.53-1.78c4.3,0,8.64,3,8.64,9.54v.45c-.39,10.12-2.29,18.81-6.79,31-2.7,7.32-6.62,11.18-11.35,11.18-5.22,0-8.89-4-11.17-9.18-2.39,4.45-6,9.3-11.54,9.66h-.61Z" fill="#ffcd21"></path><path d="M19.84,122.2a9.36,9.36,0,0,1,5.37,1.51c4.13,2.89,3.92,9.22,4.68,13.49.62,3.64.62,13.34,1.92,13.41h0c2.19,0,3.51-12.86,10.44-12.86,4.33,0,6.74,5.71,8.53,9.49l.34.69c1.86-5.16,2.76-20.78,7-24a6.29,6.29,0,0,1,3.72-1.17c2.75,0,5.64,1.65,5.64,6.54v.34c-.35,9.08-1.93,17.41-6.61,30.06-1.65,4.48-4.47,9.22-8.53,9.22-6.53,0-9.63-9.49-10.52-14.38-1.31,1.72-5,14.38-12.39,14.86h-.41c-4.2,0-6.33-2.54-8-5.84-3.78-9.36-6.74-25.11-6.74-37a6.92,6.92,0,0,1,.34-2.68,8.13,8.13,0,0,1,5.16-1.65m0-6a13.94,13.94,0,0,0-8.93,3l-1,.82-.58,1.16a11.71,11.71,0,0,0-1,5.36c0,12.47,3,29,7.18,39.27l.09.22.1.21c1.14,2.27,4.59,9.16,13.35,9.16h.81c4.92-.32,8.55-3.34,11.2-6.86,2.72,3.79,6.46,6.39,11.31,6.39,3.48,0,9.94-1.7,14.16-13.14,4.62-12.5,6.58-21.45,7-31.91v-.57c0-4.91-2-7.84-3.64-9.43a11.42,11.42,0,0,0-8-3.11,12.33,12.33,0,0,0-7.38,2.41c-3.45,2.62-5.09,7.4-6.49,14.19a10.73,10.73,0,0,0-5.74-1.6A11.06,11.06,0,0,0,35.49,134q0-.14,0-.3c-.53-4.37-1.32-11-6.75-14.83a15.18,15.18,0,0,0-8.87-2.64Z" fill="#45413c"></path><path d="M96,172.46c-8.51,0-9-10.21-9.25-15.12,0-.4,0-.85-.07-1.27a7.12,7.12,0,0,0-.86,0c-.27,0-.51,0-.71,0l-.12.7c-.11.61-.22,1.24-.38,1.92-.12.51-.24,1.08-.36,1.68-.92,4.43-2.45,11.84-9.37,11.84a8.27,8.27,0,0,1-6.2-2.72c-2.9-3.11-3.68-8.05-3.47-11.39a105.62,105.62,0,0,1,1.93-16.85c.2-1.22.4-2.41.58-3.54,1.48-8.88,4.83-19,17.76-19,17.13,0,18.9,18,20.18,31.12v.12c0,.77.17,1.84.3,3a59.83,59.83,0,0,1,.53,6.84C106.5,167.69,102.58,172.46,96,172.46Zm-9.67-32.14v-.1a11.93,11.93,0,0,0-.35-2.68,10.31,10.31,0,0,0-.39,2.75v0Z" fill="#ffcd21"></path><path d="M85.48,121.65c14.37,0,15.89,15.07,17.2,28.41.13,2.34.82,6.26.82,9.63,0,4.82-1.58,9.77-7.5,9.77-7.5,0-5.71-13.41-6.6-15.48-.48-.62-2.07-1-3.58-1s-3.1.34-3.3,1c-.42,1.38-.48,2.55-.83,4-1,4.06-1.65,11.22-6.81,11.22-5.43,0-6.95-7.09-6.67-11,0-6.53,1.51-14,2.48-20,1.58-9.49,4.81-16.51,14.79-16.51m.27,21.67h.35c2.27,0,3.23-.55,3.23-3.1s-1.1-7.49-3.3-7.49c-1.86,0-3.44,4.19-3.44,7.56,0,2.55,1,3,3.16,3m-.27-27.67c-17.13,0-19.83,16.2-20.71,21.52-.19,1.17-.39,2.35-.59,3.56a109,109,0,0,0-2,17.25c-.23,4,.75,9.76,4.27,13.54a11.25,11.25,0,0,0,8.4,3.67c2.48,0,7.06-.84,9.92-6.48.2-.38.38-.78.55-1.17,2.65,7.14,8.3,7.92,10.65,7.92,6.53,0,13.5-4.14,13.5-15.77a62.43,62.43,0,0,0-.55-7.19c-.13-1.08-.24-2.1-.28-2.79v-.23c-.68-6.88-1.44-14.68-4.16-21-4.57-10.6-12.86-12.83-19-12.83Zm0,21.66Z" fill="#45413c"></path><path d="M114.65,172.46c-5.08,0-11.4,0-11.4-8,0-1.5,0-5,3.07-6.69a8.25,8.25,0,0,0,1.06-.64c0-2,0-4,0-6.15,0-2.58,0-5.26,0-8.12,0-.81,0-1.69.07-2.59s.07-1.73.07-2.57a14.21,14.21,0,0,0-.21-3l-.39-.16c-1.13-.41-3.81-1.92-3.81-6.8a10.71,10.71,0,0,1,1.12-5c1.9-3.39,6.46-3.86,11.1-3.86H117c3.94,0,12.14,0,12.55,7.58v.92c0,4.29-2.15,6.22-4.16,7.26,0,1.7,0,3.68,0,5.33v6.74c0,1.84-.07,3.79-.14,5.67-.06,1.68-.12,3.28-.13,4.74,2.48,1.36,4,2.81,4,7.07s-1.91,7-5.25,7.8C122.42,172.31,119.66,172.46,114.65,172.46Z" fill="#ffcd21"></path><path d="M117,121.86c6.39,0,9.35,1,9.56,4.74v.76c0,3-1.31,4.13-3.3,5a1.39,1.39,0,0,0-.83,1.24c-.07,1.93-.07,4.4-.07,6.4v6.74c0,3.51-.27,7.5-.27,10.8,0,1.17.41,1.65,1,1.93,2.41,1.24,3.1,1.72,3.1,4.75,0,2.2-.69,4.33-3,4.88a53.82,53.82,0,0,1-8.53.41c-6.13,0-8.4-.48-8.4-5,0-1.58.14-3.3,1.52-4.06,1.65-.89,2.54-1.65,2.61-2.48,0-4.67.07-9.56.07-15.06,0-1.58.14-3.44.14-5.16a14.42,14.42,0,0,0-.42-4.13c-.34-1-1-1.44-2.13-1.86-1.31-.48-1.86-2.06-1.86-4a7.64,7.64,0,0,1,.69-3.44c1.24-2.2,5.3-2.4,8.53-2.4H117m0-6H115.4c-3.45,0-10.63,0-13.72,5.4a13.65,13.65,0,0,0-1.5,6.44c0,4,1.62,7.29,4.39,9,0,.28,0,.62,0,1,0,.76,0,1.58-.07,2.45s-.07,1.82-.07,2.71c0,2.85,0,5.53,0,8.1,0,1.53,0,3,0,4.48-4.14,2.64-4.14,7.41-4.14,9,0,3.14.9,7.35,5.15,9.55,2.65,1.36,5.75,1.47,9.25,1.47,5.39,0,8.17-.16,9.92-.57,3.67-.89,7.57-4.17,7.57-10.72,0-4.78-1.74-7.12-4-8.73,0-.94.06-1.94.1-3,.07-1.92.14-3.9.14-5.79V140c0-1.13,0-2.42,0-3.66a10.44,10.44,0,0,0,4.19-8.93v-1.08a10,10,0,0,0-6-8.93c-2.3-1-5.17-1.49-9.59-1.49Z" fill="#45413c"></path><path d="M32.23,246.26c-2.89,0-6.94-1.09-8.87-4.15l-.36-.56-.08-.66a89.86,89.86,0,0,1-.44-10.15c0-2.86.07-5.76.21-8.61s.25-5.64.38-8.12c0-.12,0-.23,0-.35-1.13-.07-2.36-.18-3.37-.31a10.61,10.61,0,0,1-5.07-1.75c-2.25-1.34-3.59-4.82-3.59-9.41,0-6.64,4.2-9.6,8.37-9.6h8.74c4.42,0,8.37.06,11,.1l3,0c6,0,13.18,1.91,13.18,11,0,7.37-7.78,8.55-13,9.31,0,3.72.23,8.47.4,12.72.15,3.72.28,7.07.28,10.31,0,.58,0,1.18,0,1.77s0,1.08,0,1.6v.93l-.53.77A12.1,12.1,0,0,1,32.23,246.26Z" fill="#ffcd21"></path><path d="M28.17,195.59c6.67,0,12.17.13,14,.13,5.64,0,10.18,1.52,10.18,8,0,5.64-7.56,5.78-13,6.75v1c0,3.92.21,9.35.41,14.45.14,3.37.28,6.88.28,10.18,0,1.1-.07,2.27-.07,3.37a9.14,9.14,0,0,1-7.7,3.85c-2.34,0-5.16-.89-6.33-2.75a83.88,83.88,0,0,1-.42-9.77q0-4.23.21-8.46c.14-4.27.41-8.46.55-11.42-.76-.07-4.06-.21-6.12-.48a7.66,7.66,0,0,1-3.86-1.31c-1-.48-2.2-2.68-2.2-6.88,0-4.4,2.34-6.6,5.37-6.6h8.74m0-6H19.43c-5.47,0-11.37,3.94-11.37,12.6,0,5.69,1.8,10,4.95,11.93a13.71,13.71,0,0,0,6.38,2.21l.55.07c-.09,1.79-.18,3.69-.25,5.64-.14,2.88-.21,5.81-.21,8.7A85.37,85.37,0,0,0,20,241.27l.16,1.32.71,1.12c2.58,4.09,7.58,5.55,11.41,5.55a15.06,15.06,0,0,0,12.65-6.45l1-1.54v-1.86c0-.49,0-1,0-1.5s0-1.26,0-1.87c0-3.3-.13-6.67-.28-10.43-.14-3.43-.28-6.94-.35-10a25.23,25.23,0,0,0,6-1.68c6-2.7,6.93-7.54,6.93-10.19,0-4.2-1.57-14-16.18-14l-2.93,0c-2.63,0-6.59-.1-11-.1Z" fill="#45413c"></path><path d="M63.18,245.85c-5.07,0-11.39,0-11.39-8,0-1.5,0-5,3.07-6.69a11.56,11.56,0,0,0,1.06-.64c0-2,0-4,0-6.15,0-2.58,0-5.27,0-8.13,0-.81,0-1.69.07-2.59s.07-1.73.07-2.57a14.16,14.16,0,0,0-.21-3l-.39-.16c-1.14-.42-3.81-1.93-3.81-6.8a10.77,10.77,0,0,1,1.12-5c1.9-3.38,6.46-3.86,11.1-3.86h1.58c4,0,12.15,0,12.56,7.59v.92c0,4.28-2.15,6.22-4.16,7.26,0,1.7,0,3.68,0,5.32v6.75c0,1.83-.07,3.78-.14,5.67-.07,1.68-.12,3.27-.13,4.74,2.48,1.35,4,2.81,4,7.06s-1.91,7-5.25,7.8C71,245.7,68.2,245.85,63.18,245.85Z" fill="#ffcd21"></path><path d="M65.52,195.24c6.4,0,9.36,1,9.57,4.75v.76c0,3-1.31,4.12-3.31,4.95a1.4,1.4,0,0,0-.82,1.24c-.07,1.92-.07,4.4-.07,6.39v6.75c0,3.5-.28,7.5-.28,10.8,0,1.17.42,1.65,1,1.92,2.41,1.24,3.09,1.72,3.09,4.75,0,2.2-.68,4.34-3,4.89a53.89,53.89,0,0,1-8.54.41c-6.12,0-8.39-.48-8.39-5,0-1.59.14-3.31,1.52-4.06,1.65-.9,2.54-1.65,2.61-2.48,0-4.68.07-9.56.07-15.07,0-1.58.14-3.44.14-5.16a14.39,14.39,0,0,0-.42-4.12,2.93,2.93,0,0,0-2.13-1.86c-1.31-.48-1.86-2.06-1.86-4a7.61,7.61,0,0,1,.69-3.44c1.24-2.2,5.3-2.41,8.53-2.41h1.58m0-6H63.94c-3.45,0-10.63,0-13.72,5.4a13.66,13.66,0,0,0-1.5,6.45c0,4,1.62,7.29,4.39,8.95,0,.28,0,.62,0,1,0,.76,0,1.59-.07,2.46s-.07,1.81-.07,2.7c0,2.85,0,5.54,0,8.11,0,1.52,0,3,0,4.47-4.14,2.64-4.14,7.42-4.14,9,0,3.14.89,7.35,5.15,9.54,2.65,1.37,5.75,1.48,9.24,1.48,5.4,0,8.18-.16,9.92-.58,3.68-.89,7.57-4.17,7.57-10.72,0-4.78-1.73-7.12-4-8.72,0-1,.06-1.94.1-3,.07-1.91.14-3.89.14-5.78v-6.75c0-1.12,0-2.42,0-3.65a10.44,10.44,0,0,0,4.19-8.93v-1.09a10,10,0,0,0-6-8.92c-2.3-1.05-5.17-1.5-9.6-1.5Z" fill="#45413c"></path><path d="M84.51,246a3.7,3.7,0,0,1-.82-.1c-7.78-1-8.78-13.72-8.78-24.64v-2.89a121.16,121.16,0,0,1,1-15c.79-6.56,5.49-10,9.72-10,3.14,0,7.75,1.2,11.86,6.89,1.21,1.67,3.21,5.07,5.39,8.82.33-7.3,2-15.57,10.2-15.57a7.19,7.19,0,0,1,6.53,4.38c1.36,2.71,1.63,8.07,1.63,16.3v1.38c0,7.18-.72,17.38-4.18,25.15l-.06.14L117,241a9.78,9.78,0,0,1-8.32,4.6c-6.24-.12-10.86-7.29-14.87-14.77a80.27,80.27,0,0,1-.82,8.43C92.27,243.11,87.93,246,84.51,246Z" fill="#ffcd21"></path><path d="M85.68,196.34c3.58,0,6.74,1.93,9.43,5.64,2.34,3.24,8.53,14.59,11,18.3v-.82c-.07-1.58-.28-3.3-.28-5.16,0-8.12.21-17.82,7.29-17.82a4.16,4.16,0,0,1,3.79,2.61c1.3,2.34,1.37,9.64,1.37,15.07v1.38c0,9-1.17,17.75-3.92,23.94a6.77,6.77,0,0,1-5.71,3.09c-7.15-.13-13.35-16.3-17.47-22.91l-.07,2.82A148.38,148.38,0,0,1,90,238.72C89.6,241,86.65,243,84.51,243c-.13,0-.27-.07-.41-.07-5.78-.76-6.19-14.66-6.19-21.67v-2.89a115.74,115.74,0,0,1,1-14.66c.62-5.16,4.13-7.36,6.74-7.36m0-6c-5.55,0-11.7,4.35-12.7,12.65a124.05,124.05,0,0,0-1.07,15.37v2.89c0,7.78,0,26,11.26,27.59a6,6,0,0,0,1.34.15c4.63,0,10.22-3.58,11.36-8.93,3.42,4.82,7.46,8.41,12.67,8.51h.12a12.66,12.66,0,0,0,10.92-6.12l.15-.26.12-.28c3.67-8.25,4.44-18.9,4.44-26.37v-1.38c0-8.95-.3-14.25-1.89-17.52a10.13,10.13,0,0,0-9.27-6.16c-2.74,0-9.32,1-11.95,9.79-.45-.7-.86-1.32-1.21-1.8-4.85-6.72-10.45-8.13-14.29-8.13Z" fill="#45413c"></path><path d="M140.52,246.4c-7.64-.14-13.78-3.49-17.76-9.67A31.67,31.67,0,0,1,118.18,220c0-15.57,10.81-27.77,24.61-27.77,11.21,0,20,6.88,20,15.66,0,2.47-1.37,5.08-5,6.08a8.57,8.57,0,0,1,4.86,5.35l.05.15a22.76,22.76,0,0,1,.88,6.1v.34c0,13.45-11.32,20.48-22.52,20.48Zm2.75-36.19c-4.2,0-6.08,4.92-6.08,9.8,0,2.83.7,7.57,5.43,7.59-2.16-1-3.25-3.14-3.25-6.35,0-6.77,6-7.93,9.75-8.12a16.31,16.31,0,0,1-1.86-1.36A5.17,5.17,0,0,0,143.27,210.21Z" fill="#ffcd21"></path><path d="M142.79,195.24c9.42,0,17,5.44,17,12.66,0,2.82-3,3.51-5.44,3.51a6.63,6.63,0,0,1-3.51-.76c-2.2-1.24-3.16-3.44-7.56-3.44-5.85,0-9.08,5.85-9.08,12.8,0,6.48,3.11,10.59,8.46,10.59h.14c4.47-.07,6.46-2.89,6.46-4.81v-.42l-3.16-.07c-3.72-.06-3.72-2.33-3.72-4.05,0-4.61,4.41-5.16,8.67-5.16a25.7,25.7,0,0,1,3.23.13c3.31.28,4.75,1.86,5.58,4.13a19.67,19.67,0,0,1,.75,5.23v.34c0,11.44-9.58,17.48-19.51,17.48h-.51c-14.92-.28-19.4-14-19.4-23.39,0-13.07,8.67-24.77,21.61-24.77m0-6c-15.48,0-27.61,13.52-27.61,30.77a34.76,34.76,0,0,0,5.06,18.34c4.54,7.07,11.54,10.89,20.23,11.05h.62a27.41,27.41,0,0,0,17.25-5.78,22.27,22.27,0,0,0,8.26-17.7v-.34a26,26,0,0,0-1-7l-.05-.15,0-.15a13,13,0,0,0-2.3-4,9,9,0,0,0,2.59-6.37c0-10.46-10.1-18.66-23-18.66Z" fill="#45413c"></path><path d="M27.46,293.16c-3.76,0-9.2-3-9.2-8.37a10.18,10.18,0,0,1,5.88-9.26,11.12,11.12,0,0,1,4.62-1c4.66,0,9.68,3.33,9.68,8.71C38.44,289.1,33.92,293.16,27.46,293.16Z" fill="#ffcd21"></path><path d="M28.76,277.57c3.31,0,6.68,2.27,6.68,5.71,0,4.75-3.86,6.88-8,6.88-2.48,0-6.2-2.07-6.2-5.37a7.13,7.13,0,0,1,4.13-6.53,8.24,8.24,0,0,1,3.37-.69m0-6a14.23,14.23,0,0,0-5.91,1.25,13.18,13.18,0,0,0-7.59,12c0,6.7,6.43,11.37,12.2,11.37,8.1,0,14-5.42,14-12.88,0-6.46-5.69-11.71-12.68-11.71Z" fill="#45413c"></path><path d="M49.06,293.16c-3.76,0-9.19-3-9.19-8.37a10.16,10.16,0,0,1,5.88-9.26,11.06,11.06,0,0,1,4.62-1c4.65,0,9.67,3.33,9.67,8.71C60,289.1,55.52,293.16,49.06,293.16Z" fill="#ffcd21"></path><path d="M50.36,277.57c3.31,0,6.68,2.27,6.68,5.71,0,4.75-3.85,6.88-8,6.88-2.48,0-6.19-2.07-6.19-5.37A7.14,7.14,0,0,1,47,278.26a8.27,8.27,0,0,1,3.37-.69m0-6a14.16,14.16,0,0,0-5.9,1.25,13.16,13.16,0,0,0-7.59,12c0,6.7,6.42,11.37,12.19,11.37,8.1,0,14-5.42,14-12.88,0-6.46-5.69-11.71-12.68-11.71Z" fill="#45413c"></path><path d="M70.66,293.16c-3.76,0-9.19-3-9.19-8.37a10.18,10.18,0,0,1,5.88-9.26,11.09,11.09,0,0,1,4.62-1c4.65,0,9.67,3.33,9.67,8.71C81.64,289.1,77.12,293.16,70.66,293.16Z" fill="#ffcd21"></path><path d="M72,277.57c3.3,0,6.67,2.27,6.67,5.71,0,4.75-3.85,6.88-8,6.88-2.48,0-6.19-2.07-6.19-5.37a7.13,7.13,0,0,1,4.13-6.53,8.24,8.24,0,0,1,3.37-.69m0-6a14.18,14.18,0,0,0-5.91,1.25,13.16,13.16,0,0,0-7.59,12c0,6.7,6.42,11.37,12.19,11.37,8.1,0,14-5.42,14-12.88,0-6.46-5.68-11.71-12.67-11.71Z" fill="#45413c"></path><path d="M29.06,168.89c-5.58,0-8.15-3.71-9.77-6.95l-.06-.14c-4-9.87-6.89-25.75-6.89-37.77a8.42,8.42,0,0,1,.55-3.57l.2-.39.33-.27a10,10,0,0,1,6.42-2.1,11.23,11.23,0,0,1,6.55,1.9c4,2.79,4.6,7.93,5.1,12.05.11,1,.22,1.89.37,2.7.23,1.37.37,3.37.52,5.5.06.85.14,1.92.23,3,1.67-4.07,4.21-9.57,9.66-9.57,3.85,0,6.38,3.1,8.19,6.31.14-.76.28-1.55.42-2.35,1.53-8.65,2.86-15,6.07-17.38a8.31,8.31,0,0,1,4.93-1.58c3.52,0,7.64,2.24,7.64,8.54v.34c-.38,10.08-2.27,18.68-6.73,30.76-2.54,6.88-6.14,10.52-10.41,10.52-6.05,0-9.36-5.9-11.05-10.64-2.24,4.67-5.88,10.74-11.73,11.12h-.54Z" fill="#ffcd21"></path><path d="M19.84,119.7a9.36,9.36,0,0,1,5.37,1.51c4.13,2.89,3.92,9.22,4.68,13.49.62,3.64.62,13.34,1.92,13.41h0c2.19,0,3.51-12.86,10.44-12.86,4.33,0,6.74,5.71,8.53,9.49l.34.69c1.86-5.16,2.76-20.78,7-24a6.29,6.29,0,0,1,3.72-1.17c2.75,0,5.64,1.65,5.64,6.54v.34c-.35,9.08-1.93,17.41-6.61,30.06-1.65,4.48-4.47,9.22-8.53,9.22-6.53,0-9.63-9.49-10.52-14.38-1.31,1.72-5,14.38-12.39,14.86h-.41c-4.2,0-6.33-2.54-8-5.84-3.78-9.36-6.74-25.11-6.74-37a6.92,6.92,0,0,1,.34-2.68,8.13,8.13,0,0,1,5.16-1.65m0-4a12,12,0,0,0-7.67,2.54l-.68.55-.38.77a9.94,9.94,0,0,0-.77,4.47c0,12.24,3,28.44,7,38.52l.06.14.07.15c1.73,3.45,4.81,8,11.56,8h.67c5.31-.35,8.92-4.37,11.42-8.52,2.46,4.62,6.16,8,11.23,8,3.61,0,8.67-2,12.29-11.83,4.54-12.29,6.46-21.06,6.84-31.3v-.49c0-7.28-4.84-10.54-9.64-10.54a10.27,10.27,0,0,0-6.16,2c-3.44,2.61-4.93,8.39-6.39,16.31a9.48,9.48,0,0,0-7.06-3.31c-3.75,0-6.34,2-8.21,4.53-.07-.64-.14-1.24-.23-1.75-.14-.79-.25-1.68-.36-2.62C33,127.14,32.26,121.3,27.54,118a13.32,13.32,0,0,0-7.7-2.26Z" fill="#45413c"></path><path d="M96,169c-7.56,0-8-9.22-8.25-14.17,0-.7-.07-1.51-.13-2a6.93,6.93,0,0,0-1.8-.22,6.77,6.77,0,0,0-1.55.16c-.1.44-.18.9-.27,1.4s-.21,1.2-.36,1.86-.25,1.1-.37,1.7c-.86,4.13-2.29,11.05-8.39,11.05a7.3,7.3,0,0,1-5.47-2.4c-2.52-2.7-3.42-7.29-3.2-10.68a105.94,105.94,0,0,1,1.91-16.72c.21-1.22.41-2.41.59-3.54,2.69-16.13,10.37-18.2,16.77-18.2,16.23,0,17.87,16.75,19.19,30.22,0,.88.17,2,.31,3.09a61,61,0,0,1,.52,6.73C105.5,164.67,102,169,96,169ZM84.68,138.73a4.09,4.09,0,0,0,1.07.09h.35a4.36,4.36,0,0,0,1.12-.1,3.11,3.11,0,0,0,.11-1A11.17,11.17,0,0,0,86,132.43a10.26,10.26,0,0,0-1.45,5.36A3.28,3.28,0,0,0,84.68,138.73Z" fill="#ffcd21"></path><path d="M85.48,119.15c14.37,0,15.89,15.07,17.2,28.41.13,2.34.82,6.26.82,9.63,0,4.82-1.58,9.77-7.5,9.77-7.5,0-5.71-13.41-6.6-15.48-.48-.62-2.07-1-3.58-1s-3.1.34-3.3,1c-.42,1.38-.48,2.55-.83,4-1,4.06-1.65,11.22-6.81,11.22-5.43,0-6.95-7.09-6.67-11,0-6.53,1.51-14,2.48-20,1.58-9.49,4.81-16.51,14.79-16.51m.27,21.67h.35c2.27,0,3.23-.55,3.23-3.1s-1.1-7.49-3.3-7.49c-1.86,0-3.44,4.19-3.44,7.56,0,2.55,1,3,3.16,3m-.27-25.67c-15.43,0-17.84,14.42-18.74,19.85-.19,1.16-.39,2.34-.59,3.56a108,108,0,0,0-1.94,17c-.22,3.54.63,8.77,3.74,12.1a9.24,9.24,0,0,0,6.93,3c7.73,0,9.43-8.22,10.35-12.64.12-.59.23-1.15.35-1.65.08-.32.15-.63.2-.92A32.69,32.69,0,0,0,87,163.83c2.07,6.21,6.5,7.13,9,7.13,7.2,0,11.5-5.14,11.5-13.77a59.34,59.34,0,0,0-.54-7c-.13-1.11-.25-2.15-.29-2.9v-.16c-.66-6.73-1.41-14.37-4-20.4-3.32-7.71-9.1-11.62-17.17-11.62Z" fill="#45413c"></path><path d="M114.65,169c-5.11,0-10.4,0-10.4-7,0-1.32,0-4.41,2.55-5.81a7.09,7.09,0,0,0,1.58-1c0-2.14,0-4.33,0-6.61,0-2.58,0-5.27,0-8.13,0-.8,0-1.67.07-2.55s.07-1.76.07-2.61a11.67,11.67,0,0,0-.3-3.45c-.08-.24-.12-.35-1-.66-1.17-.43-3.16-1.78-3.16-5.87a9.74,9.74,0,0,1,1-4.47c1.66-3,5.91-3.37,10.24-3.37H117c4.18,0,11.19,0,11.55,6.63v.87c0,4.09-2.13,5.72-4.14,6.63-.06,1.83-.06,4.11-.06,6v6.74c0,1.82-.07,3.76-.14,5.64s-.13,3.57-.13,5.16a1.35,1.35,0,0,0,0,.22c2.82,1.46,4,2.57,4,6.46,0,3.64-1.63,6.13-4.48,6.82C122.26,168.82,119.58,169,114.65,169Z" fill="#ffcd21"></path><path d="M117,119.36c6.39,0,9.35,1,9.56,4.74v.76c0,3-1.31,4.13-3.3,5a1.39,1.39,0,0,0-.83,1.24c-.07,1.93-.07,4.4-.07,6.4v6.74c0,3.51-.27,7.5-.27,10.8,0,1.17.41,1.65,1,1.93,2.41,1.24,3.1,1.72,3.1,4.75,0,2.2-.69,4.33-3,4.88a53.82,53.82,0,0,1-8.53.41c-6.13,0-8.4-.48-8.4-5,0-1.58.14-3.3,1.52-4.06,1.65-.89,2.54-1.65,2.61-2.48,0-4.67.07-9.56.07-15.06,0-1.58.14-3.44.14-5.16a14.42,14.42,0,0,0-.42-4.13c-.34-1-1-1.44-2.13-1.86-1.31-.48-1.86-2.06-1.86-4a7.64,7.64,0,0,1,.69-3.44c1.24-2.2,5.3-2.4,8.53-2.4H117m0-4H115.4c-3.08,0-9.47,0-12,4.4a11.56,11.56,0,0,0-1.23,5.44c0,5.28,2.89,7.1,4.31,7.68a20,20,0,0,1,.1,2.3c0,.8,0,1.68-.07,2.53s-.07,1.78-.07,2.63c0,2.85,0,5.54,0,8.12,0,1.92,0,3.78,0,5.61l-.52.29c-3.61,2-3.61,6-3.61,7.58,0,9,7.46,9,12.4,9,5.16,0,7.9-.15,9.45-.52,3.79-.92,6-4.2,6-8.77s-1.63-6.24-4.06-7.65c0-1.3.07-2.68.13-4.12.07-1.89.14-3.85.14-5.71v-6.74c0-1.45,0-3.17,0-4.72,1.81-1.07,4.17-3.26,4.17-7.87v-1c-.46-8.53-9.64-8.53-13.55-8.53Z" fill="#45413c"></path><path d="M32.23,242.76c-2.63,0-6.31-1-8-3.68L24,238.7l-.06-.44a89.59,89.59,0,0,1-.43-10c0-2.85.07-5.73.21-8.56s.25-5.64.38-8.12c0-.46.05-.9.07-1.33-1.34-.08-3-.2-4.29-.37a9.65,9.65,0,0,1-4.66-1.6c-1.93-1.12-3.13-4.37-3.13-8.57,0-5.94,3.7-8.6,7.37-8.6h8.74c4.41,0,8.35.06,11,.1l3,0c8.09,0,12.18,3.36,12.18,10s-7.05,7.58-12.21,8.33l-.79.12c0,3.84.23,9,.41,13.62.15,3.71.28,7,.28,10.27,0,.57,0,1.16,0,1.74s0,1.1,0,1.63v.62l-.35.51A11.11,11.11,0,0,1,32.23,242.76Z" fill="#ffcd21"></path><path d="M28.17,193.09c6.67,0,12.17.13,14,.13,5.64,0,10.18,1.52,10.18,8,0,5.64-7.56,5.78-13,6.75v1c0,3.92.21,9.35.41,14.45.14,3.37.28,6.88.28,10.18,0,1.1-.07,2.27-.07,3.37a9.14,9.14,0,0,1-7.7,3.85c-2.34,0-5.16-.89-6.33-2.75a83.88,83.88,0,0,1-.42-9.77q0-4.23.21-8.46c.14-4.27.41-8.46.55-11.42-.76-.07-4.06-.21-6.12-.48a7.66,7.66,0,0,1-3.86-1.31c-1-.48-2.2-2.68-2.2-6.88,0-4.4,2.34-6.6,5.37-6.6h8.74m0-4H19.43c-6.44,0-9.37,5.49-9.37,10.6,0,4.92,1.5,8.71,4,10.25a11.79,11.79,0,0,0,5.54,1.91c.73.09,1.57.17,2.41.24-.13,2.31-.26,4.89-.35,7.53-.14,2.86-.21,5.76-.21,8.62a90.25,90.25,0,0,0,.45,10.28l.11.87.47.75c2.15,3.41,6.58,4.62,9.72,4.62a13.09,13.09,0,0,0,11-5.59l.7-1v-1.24c0-.51,0-1,0-1.57s0-1.21,0-1.8c0-3.26-.13-6.61-.28-10.35-.17-4.09-.33-8.32-.39-11.82,5.25-.79,13-2.38,13-10.17,0-5.51-2.61-8.36-4.8-9.77s-5.31-2.21-9.38-2.21l-3,0c-2.62,0-6.58-.1-11-.1Z" fill="#45413c"></path><path d="M63.18,242.35c-5.1,0-10.39,0-10.39-7,0-1.32,0-4.41,2.55-5.82a6.86,6.86,0,0,0,1.58-1c0-2.15,0-4.34,0-6.61,0-2.59,0-5.28,0-8.14,0-.79,0-1.66.07-2.55s.07-1.75.07-2.61a11.67,11.67,0,0,0-.3-3.45c-.08-.24-.12-.34-.95-.66-1.17-.43-3.16-1.77-3.16-5.86a9.69,9.69,0,0,1,1-4.47c1.66-3,5.91-3.38,10.24-3.38h1.58c4.19,0,11.2,0,11.56,6.64v.87c0,4.09-2.14,5.72-4.14,6.63-.06,1.83-.06,4.1-.06,6v6.75c0,1.81-.07,3.76-.14,5.63s-.13,3.58-.13,5.17v.21c2.83,1.47,4,2.57,4,6.46,0,3.65-1.63,6.14-4.48,6.83C70.8,242.21,68.11,242.35,63.18,242.35Z" fill="#ffcd21"></path><path d="M65.52,192.74c6.4,0,9.36,1,9.57,4.75v.76c0,3-1.31,4.12-3.31,4.95a1.4,1.4,0,0,0-.82,1.24c-.07,1.92-.07,4.4-.07,6.39v6.75c0,3.5-.28,7.5-.28,10.8,0,1.17.42,1.65,1,1.92,2.41,1.24,3.09,1.72,3.09,4.75,0,2.2-.68,4.34-3,4.89a53.89,53.89,0,0,1-8.54.41c-6.12,0-8.39-.48-8.39-5,0-1.59.14-3.31,1.52-4.06,1.65-.9,2.54-1.65,2.61-2.48,0-4.68.07-9.56.07-15.07,0-1.58.14-3.44.14-5.16a14.39,14.39,0,0,0-.42-4.12,2.93,2.93,0,0,0-2.13-1.86c-1.31-.48-1.86-2.06-1.86-4a7.61,7.61,0,0,1,.69-3.44c1.24-2.2,5.3-2.41,8.53-2.41h1.58m0-4H63.94c-3.08,0-9.47,0-12,4.4a11.62,11.62,0,0,0-1.23,5.45c0,5.28,2.88,7.1,4.31,7.68a22.5,22.5,0,0,1,.1,2.29c0,.8,0,1.68-.07,2.53s-.07,1.78-.07,2.63c0,2.86,0,5.54,0,8.12,0,1.93,0,3.79,0,5.61-.14.09-.31.19-.52.3-3.61,2-3.61,6.05-3.61,7.58,0,9,7.46,9,12.39,9,5.17,0,7.91-.15,9.46-.52,3.78-.92,6-4.2,6-8.78s-1.62-6.23-4-7.64c0-1.3.07-2.68.13-4.12.07-1.9.14-3.86.14-5.71v-6.75c0-1.45,0-3.17,0-4.71,1.81-1.07,4.17-3.26,4.17-7.87v-1c-.46-8.53-9.64-8.53-13.56-8.53Z" fill="#45413c"></path><path d="M84.51,242.49a2.31,2.31,0,0,1-.64-.09h0c-7.11-.93-7.93-14-7.93-23.65v-2.89A119.39,119.39,0,0,1,77,201c.71-6,4.93-9.12,8.72-9.12,4.23,0,7.95,2.18,11,6.47,1.33,1.85,3.78,6.07,6.15,10.15l1,1.67c0-7.8.64-18.15,9.29-18.15a6.18,6.18,0,0,1,5.62,3.79c1.28,2.51,1.54,8,1.54,15.89V213c0,7.09-.71,17.14-4.09,24.75l0,.09,0,.09a8.75,8.75,0,0,1-7.45,4.1c-6.54-.12-11.41-9.23-15.7-17.47a107.09,107.09,0,0,1-1,12C91.38,239.9,87.47,242.49,84.51,242.49Z" fill="#ffcd21"></path><path d="M85.68,193.84c3.58,0,6.74,1.93,9.43,5.64,2.34,3.24,8.53,14.59,11,18.3V217c-.07-1.58-.28-3.3-.28-5.16,0-8.12.21-17.82,7.29-17.82a4.16,4.16,0,0,1,3.79,2.61c1.3,2.34,1.37,9.64,1.37,15.07V213c0,9-1.17,17.75-3.92,23.94a6.77,6.77,0,0,1-5.71,3.09c-7.15-.13-13.35-16.3-17.47-22.91L91.12,220A148.38,148.38,0,0,1,90,236.22c-.42,2.27-3.37,4.27-5.51,4.27-.13,0-.27-.07-.41-.07-5.78-.76-6.19-14.66-6.19-21.67v-2.89a115.74,115.74,0,0,1,1-14.66c.62-5.16,4.13-7.36,6.74-7.36m0-4c-4.67,0-9.85,3.74-10.71,10.89a120.62,120.62,0,0,0-1.06,15.13v2.89c0,11.31,1.09,24.45,9.61,25.62a4.46,4.46,0,0,0,1,.12c3.82,0,8.63-3.1,9.44-7.55.25-1.44.45-3.24.6-5.19,3.78,6.56,8.18,12.21,14,12.32h.08a10.76,10.76,0,0,0,9.18-5.11l.1-.17.09-.19c3.52-7.93,4.26-18.28,4.26-25.56v-1.38c0-8.54-.28-13.8-1.72-16.71a8.2,8.2,0,0,0-7.44-5c-2.9,0-8.07,1.14-10.16,8.81a29.51,29.51,0,0,0-.81,4.47c-1.53-2.61-2.89-4.84-3.81-6.12-4.36-6-9.29-7.3-12.67-7.3Z" fill="#45413c"></path><path d="M140.54,242.9c-14.75-.27-21.36-13-21.36-25.39,0-15,10.37-26.77,23.61-26.77,10.65,0,19,6.44,19,14.66,0,3.4-2.85,5.51-7.44,5.51a8.54,8.54,0,0,1-4.52-1,13.7,13.7,0,0,1-1.93-1.39,6.09,6.09,0,0,0-4.62-1.78c-4.89,0-7.08,5.42-7.08,10.8,0,2.58.63,8.59,6.46,8.59h.11a5.29,5.29,0,0,0,3.69-1.29H146c-5.67-.1-5.67-4.43-5.67-6.05,0-7.16,7.75-7.16,10.67-7.16a26.1,26.1,0,0,1,3.46.15,7.76,7.76,0,0,1,7.23,5.43l0,.1a21.47,21.47,0,0,1,.84,5.81v.34c0,12.79-10.82,19.48-21.52,19.48h-.54Z" fill="#ffcd21"></path><path d="M142.79,192.74c9.42,0,17,5.44,17,12.66,0,2.82-3,3.51-5.44,3.51a6.63,6.63,0,0,1-3.51-.76c-2.2-1.24-3.16-3.44-7.56-3.44-5.85,0-9.08,5.85-9.08,12.8,0,6.48,3.11,10.59,8.46,10.59h.14c4.47-.07,6.46-2.89,6.46-4.81v-.42l-3.16-.07c-3.72-.06-3.72-2.33-3.72-4.05,0-4.61,4.41-5.16,8.67-5.16a25.7,25.7,0,0,1,3.23.13c3.31.28,4.75,1.86,5.58,4.13a19.67,19.67,0,0,1,.75,5.23v.34c0,11.44-9.58,17.48-19.51,17.48h-.51c-14.92-.28-19.4-14-19.4-23.39,0-13.07,8.67-24.77,21.61-24.77m0-4c-14.36,0-25.61,12.64-25.61,28.77a32.7,32.7,0,0,0,4.74,17.26c4.16,6.48,10.59,10,18.59,10.13h.58c11.68,0,23.51-7.37,23.51-21.48v-.34a23.28,23.28,0,0,0-.93-6.39l0-.11,0-.1a10.08,10.08,0,0,0-3.51-4.86,7,7,0,0,0,3.68-6.22c0-9.34-9.22-16.66-21-16.66Zm-4.37,31.42a13.21,13.21,0,0,1-.23-2.65c0-6,2.63-8.8,5.08-8.8a4,4,0,0,1,3.2,1.2,13.07,13.07,0,0,0-3,.86,8.26,8.26,0,0,0-5.14,8c0,.39,0,.87,0,1.41Z" fill="#45413c"></path><path d="M27.46,289.66c-3.42,0-8.2-2.8-8.2-7.37a9.17,9.17,0,0,1,5.3-8.35,10.14,10.14,0,0,1,4.2-.87c4.17,0,8.68,2.95,8.68,7.71C37.44,286.09,33.43,289.66,27.46,289.66Z" fill="#ffcd21"></path><path d="M28.76,275.07c3.31,0,6.68,2.27,6.68,5.71,0,4.75-3.86,6.88-8,6.88-2.48,0-6.2-2.07-6.2-5.37a7.13,7.13,0,0,1,4.13-6.53,8.24,8.24,0,0,1,3.37-.69m0-4a12.31,12.31,0,0,0-5.06,1.06,11.17,11.17,0,0,0-6.44,10.16A8.83,8.83,0,0,0,21,289.41a11.15,11.15,0,0,0,6.43,2.25c7,0,12-4.48,12-10.88,0-5.35-4.79-9.71-10.68-9.71Z" fill="#45413c"></path><path d="M49.06,289.66c-3.42,0-8.19-2.8-8.19-7.37a9.18,9.18,0,0,1,5.29-8.35,10.15,10.15,0,0,1,4.21-.87c4.17,0,8.67,2.95,8.67,7.71C59,286.09,55,289.66,49.06,289.66Z" fill="#ffcd21"></path><path d="M50.36,275.07c3.31,0,6.68,2.27,6.68,5.71,0,4.75-3.85,6.88-8,6.88-2.48,0-6.19-2.07-6.19-5.37A7.14,7.14,0,0,1,47,275.76a8.27,8.27,0,0,1,3.37-.69m0-4a12.31,12.31,0,0,0-5.06,1.06,11.16,11.16,0,0,0-6.43,10.16,8.82,8.82,0,0,0,3.76,7.12,11.15,11.15,0,0,0,6.43,2.25c7,0,12-4.48,12-10.88,0-5.35-4.79-9.71-10.68-9.71Z" fill="#45413c"></path><path d="M70.66,289.66c-3.42,0-8.19-2.8-8.19-7.37a9.18,9.18,0,0,1,5.29-8.35,10.18,10.18,0,0,1,4.21-.87c4.17,0,8.67,2.95,8.67,7.71C80.64,286.09,76.63,289.66,70.66,289.66Z" fill="#ffcd21"></path><path d="M72,275.07c3.3,0,6.67,2.27,6.67,5.71,0,4.75-3.85,6.88-8,6.88-2.48,0-6.19-2.07-6.19-5.37a7.13,7.13,0,0,1,4.13-6.53,8.24,8.24,0,0,1,3.37-.69m0-4a12.33,12.33,0,0,0-5.07,1.06,11.18,11.18,0,0,0-6.43,10.16,8.83,8.83,0,0,0,3.77,7.12,11.1,11.1,0,0,0,6.42,2.25c7,0,12-4.48,12-10.88,0-5.35-4.79-9.71-10.67-9.71Z" fill="#45413c"></path></g></svg>