<svg xmlns="http://www.w3.org/2000/svg" version="1.1" xmlns:xlink="http://www.w3.org/1999/xlink" xmlns:svgjs="http://svgjs.com/svgjs" viewBox="0 0 48 48" width="48" height="48"><title>Exported from Streamline App (https://app.streamlineicons.com)</title><g transform="matrix(0.12972972972972974,0,0,0.12972972972972974,0,0)"><path d="M343.94,230.25c0,92.84-71.66,96.28-160,96.28S23.83,323.09,23.83,230.25,95.49,62.15,183.89,62.15,343.94,137.41,343.94,230.25Z" fill="#fff48c"></path><path d="M88.9,334.85l-19-2.8,3.35-47.94a3.55,3.55,0,0,1,1.31-2.55,3.59,3.59,0,0,1,2.77-.77l19.23,2.84A3.56,3.56,0,0,1,99.53,288Z" fill="#00b8f0"></path><path d="M69.93,332.05l3.35-47.94a3.55,3.55,0,0,1,1.31-2.55,3.59,3.59,0,0,1,2.77-.77l19.23,2.84A3.56,3.56,0,0,1,99.53,288L88.9,334.85" fill="#00b8f0" stroke="#45413c" stroke-linecap="round" stroke-linejoin="round" stroke-width="4"></path><path d="M77.79,280.86s-6.37-17.2-.93-17,5.92,3.38,5.92,3.38,2.82-14.91,11.13-15.09,21.49,14.43,3.78,31.67Z" fill="#ffffff" stroke="#45413c" stroke-linecap="round" stroke-linejoin="round" stroke-width="4"></path><path d="M29.17,334.85l19-2.8-1.38-47.94a3.55,3.55,0,0,0-1.31-2.55,3.59,3.59,0,0,0-2.77-.77l-19.22,2.84A3.58,3.58,0,0,0,20.51,288Z" fill="#00b8f0"></path><path d="M48.14,332.05l-1.38-47.94a3.55,3.55,0,0,0-1.31-2.55,3.59,3.59,0,0,0-2.77-.77l-19.22,2.84A3.58,3.58,0,0,0,20.51,288l8.66,46.86" fill="#00b8f0" stroke="#45413c" stroke-linecap="round" stroke-linejoin="round" stroke-width="4"></path><path d="M42.25,280.86s6.38-17.2.93-17-5.91,3.38-5.91,3.38-2.83-14.91-11.14-15.09-21.48,14.43-3.77,31.67Z" fill="#ffffff" stroke="#45413c" stroke-linecap="round" stroke-linejoin="round" stroke-width="4"></path><path d="M327.82,334.85l-19-2.8,3.35-47.94a3.55,3.55,0,0,1,1.31-2.55,3.59,3.59,0,0,1,2.77-.77l19.23,2.84a3.56,3.56,0,0,1,2.94,4.36Z" fill="#00b8f0"></path><path d="M308.85,332.05l3.35-47.94a3.55,3.55,0,0,1,1.31-2.55,3.59,3.59,0,0,1,2.77-.77l19.23,2.84a3.56,3.56,0,0,1,2.94,4.36l-10.63,46.86" fill="#00b8f0" stroke="#45413c" stroke-linecap="round" stroke-linejoin="round" stroke-width="4"></path><path d="M316.71,280.86s-6.37-17.2-.93-17,5.91,3.38,5.91,3.38,2.83-14.91,11.14-15.09,21.49,14.43,3.77,31.67Z" fill="#ffffff" stroke="#45413c" stroke-linecap="round" stroke-linejoin="round" stroke-width="4"></path><path d="M268.09,334.85l19-2.8-1.38-47.94a3.55,3.55,0,0,0-1.31-2.55,3.59,3.59,0,0,0-2.77-.77l-19.22,2.84a3.58,3.58,0,0,0-2.95,4.36Z" fill="#00b8f0"></path><path d="M287.06,332.05l-1.38-47.94a3.55,3.55,0,0,0-1.31-2.55,3.59,3.59,0,0,0-2.77-.77l-19.22,2.84a3.58,3.58,0,0,0-2.95,4.36l8.66,46.86" fill="#00b8f0" stroke="#45413c" stroke-linecap="round" stroke-linejoin="round" stroke-width="4"></path><path d="M281.17,280.86s6.38-17.2.93-17-5.91,3.38-5.91,3.38-2.83-14.91-11.14-15.09-21.48,14.43-3.77,31.67Z" fill="#ffffff" stroke="#45413c" stroke-linecap="round" stroke-linejoin="round" stroke-width="4"></path><path d="M170.73,334.85l-19-2.8,2.37-22.18a3.55,3.55,0,0,1,4.07-3.32l19.23,2.83a3.56,3.56,0,0,1,2.94,4.36Z" fill="#00b8f0"></path><path d="M151.76,332.05l2.37-22.18a3.55,3.55,0,0,1,4.07-3.32l19.23,2.83a3.56,3.56,0,0,1,2.94,4.36l-9.64,21.11" fill="#00b8f0" stroke="#45413c" stroke-linecap="round" stroke-linejoin="round" stroke-width="4"></path><path d="M158.63,306.61s-6.37-17.2-.92-17,5.91,3.37,5.91,3.37,2.82-14.91,11.14-15.09,21.48,14.43,3.77,31.68Z" fill="#ffffff" stroke="#45413c" stroke-linecap="round" stroke-linejoin="round" stroke-width="4"></path><path d="M111,334.85l19-2.8-2.37-22.18a3.55,3.55,0,0,0-4.07-3.32l-19.23,2.83a3.56,3.56,0,0,0-2.94,4.36Z" fill="#00b8f0"></path><path d="M130,332.05l-2.37-22.18a3.55,3.55,0,0,0-4.07-3.32l-19.23,2.83a3.56,3.56,0,0,0-2.94,4.36L111,334.85" fill="#00b8f0" stroke="#45413c" stroke-linecap="round" stroke-linejoin="round" stroke-width="4"></path><path d="M123.1,306.61s6.37-17.2.92-17-5.91,3.37-5.91,3.37-2.82-14.91-11.14-15.09-21.48,14.43-3.77,31.68Z" fill="#ffffff" stroke="#45413c" stroke-linecap="round" stroke-linejoin="round" stroke-width="4"></path><path d="M256.62,334.85l-19-2.8L240,309.87a3.56,3.56,0,0,1,4.08-3.32l19.23,2.83a3.56,3.56,0,0,1,2.94,4.36Z" fill="#00b8f0"></path><path d="M237.64,332.05,240,309.87a3.56,3.56,0,0,1,4.08-3.32l19.23,2.83a3.56,3.56,0,0,1,2.94,4.36l-9.64,21.11" fill="#00b8f0" stroke="#45413c" stroke-linecap="round" stroke-linejoin="round" stroke-width="4"></path><path d="M244.52,306.61s-6.37-17.2-.93-17,5.92,3.37,5.92,3.37,2.82-14.91,11.14-15.09,21.48,14.43,3.77,31.68Z" fill="#ffffff" stroke="#45413c" stroke-linecap="round" stroke-linejoin="round" stroke-width="4"></path><path d="M196.88,334.85l19-2.8-2.37-22.18a3.55,3.55,0,0,0-4.07-3.32l-19.23,2.83a3.58,3.58,0,0,0-2.95,4.36Z" fill="#00b8f0"></path><path d="M215.86,332.05l-2.37-22.18a3.55,3.55,0,0,0-4.07-3.32l-19.23,2.83a3.58,3.58,0,0,0-2.95,4.36l9.64,21.11" fill="#00b8f0" stroke="#45413c" stroke-linecap="round" stroke-linejoin="round" stroke-width="4"></path><path d="M209,306.61s6.38-17.2.93-17S204,293,204,293s-2.83-14.91-11.14-15.09-21.48,14.43-3.77,31.68Z" fill="#ffffff" stroke="#45413c" stroke-linecap="round" stroke-linejoin="round" stroke-width="4"></path><path d="M154.53,170.44c-12.14,10.06-33.17,13-44.21,1.85-.65-.65-36.9-30.23-63.25,15.27-2.44,4.23-2.66,9.38.12,13.4a6.15,6.15,0,0,0,8.89,1.32l25.34-16.76,5.46,16.54a7.36,7.36,0,0,1-2.82,8.38L63.48,224.63a15.35,15.35,0,0,0-5.72,14.2A7.37,7.37,0,0,0,70,243.05c32.33-29.81,46.89-1.77,86.6-.55,35.18,1.08,55.08-4.82,70.79-21.7h0a91.79,91.79,0,1,0-60.22-77.55c-.8-1.93-1.61-4.09-2.38-6.48-3.85-12-7.29-31.91-1.82-58.7a12.24,12.24,0,1,0-24-4.9C126.41,134.84,153.21,168.79,154.53,170.44Z" fill="#ffffff"></path><path d="M339.66,91.57a91.74,91.74,0,0,1-172.27,53.37A91.75,91.75,0,1,0,339.66,91.57Z" fill="#f0f0f0"></path><path d="M174.46,171.21a92.09,92.09,0,0,1-7.29-28" fill="none" stroke="#45413c" stroke-linecap="round" stroke-miterlimit="10" stroke-width="4"></path><path d="M227.4,220.79c.73-1.18,18.5-28.24,68.78-36a12.24,12.24,0,0,0-3.72-24.19c-62.4,9.58-84.95,46.72-85.88,48.29l-5,5.88,21.12,10.62Z" fill="#ffffff"></path><path d="M206.58,208.93c.93-1.57,23.48-38.71,85.88-48.29a12.24,12.24,0,0,1,3.72,24.19c-50.28,7.72-68.05,34.78-68.78,36" fill="none" stroke="#45413c" stroke-linecap="round" stroke-linejoin="round" stroke-width="4"></path><path d="M215.89,133.49a7.35,7.35,0,0,1-11.95-8.55l4.27-6c2.35,5.37,6.45,8,11.95,8.54Z" fill="#ffb0ca" stroke="#45413c" stroke-linecap="round" stroke-linejoin="round" stroke-width="4"></path><path d="M178.830 110.780 A4.59 11.47 0 1 0 188.010 110.780 A4.59 11.47 0 1 0 178.830 110.780 Z" fill="#ffb0ca" transform="rotate(-54.43 183.427 110.779)"></path><path d="M235.330 148.670 A4.59 11.47 0 1 0 244.510 148.670 A4.59 11.47 0 1 0 235.330 148.670 Z" fill="#ffb0ca" transform="rotate(-54.43 239.933 148.665)"></path><path d="M205.69,96.43c3.12,1.53,1.59,9.4,1.59,9.4s-2.56-3.59-6.44-4.5" fill="none" stroke="#45413c" stroke-linecap="round" stroke-linejoin="round" stroke-width="4"></path><path d="M242.3,122.61c-2.45-2.45-9.4,1.54-9.4,1.54s4.23,1.26,6.34,4.64" fill="none" stroke="#45413c" stroke-linecap="round" stroke-linejoin="round" stroke-width="4"></path><path d="M154.53,170.44c-12.14,10.06-33.17,13-44.21,1.85-.65-.65-36.9-30.23-63.25,15.27-2.44,4.23-2.66,9.38.12,13.4a6.15,6.15,0,0,0,8.89,1.32l25.34-16.76,5.46,16.54a7.36,7.36,0,0,1-2.82,8.38L63.48,224.63a15.35,15.35,0,0,0-5.72,14.2A7.37,7.37,0,0,0,70,243.05c32.33-29.81,46.89-1.77,86.6-.55,35.18,1.08,55.08-4.82,70.79-21.7h0a91.79,91.79,0,1,0-60.22-77.55c-.8-1.93-1.61-4.09-2.38-6.48-3.85-12-7.29-31.91-1.82-58.7a12.24,12.24,0,1,0-24-4.9C126.41,134.84,153.21,168.79,154.53,170.44Z" fill="none" stroke="#45413c" stroke-linejoin="round" stroke-width="4"></path><path d="M181.44,188.07c-43.48,9.52-28.66,65-28.66,65l21,18.94,8.32-32.34S158.15,218.86,181.44,188.07Z" fill="#ff6242" stroke="#45413c" stroke-linecap="round" stroke-linejoin="round" stroke-width="4"></path><path d="M174.300 188.070 A7.13 9.36 0 1 0 188.560 188.070 A7.13 9.36 0 1 0 174.300 188.070 Z" fill="#ff6242" stroke="#45413c" stroke-linecap="round" stroke-linejoin="round" stroke-width="4" transform="rotate(-71.87 181.448 188.074)"></path></g></svg>