<svg xmlns="http://www.w3.org/2000/svg" version="1.1" xmlns:xlink="http://www.w3.org/1999/xlink" xmlns:svgjs="http://svgjs.com/svgjs" viewBox="0 0 48 48" width="48" height="48"><title>Exported from Streamline App (https://app.streamlineicons.com)</title><g transform="matrix(0.12972972972972974,0,0,0.12972972972972974,0,0)"><path d="M113,238.81a.28.28,0,0,1,.1.22.28.28,0,0,1-.11.21L13,318.6a2.15,2.15,0,0,1-2.07.29,1.65,1.65,0,0,1-1.14-1.51c0-3.39,0-6.59.07-9.79,0-.49.77-1.06,1.33-1.43,8.09-5.36,16.22-10.68,24.31-16.05,7.38-4.89,14.7-9.85,22.08-14.75Q85,257.18,112.47,239A2.52,2.52,0,0,1,113,238.81Z"></path><path d="M9.81,76.87a1.66,1.66,0,0,1,1.06-1.49,2.14,2.14,0,0,1,2,.17L122.8,147.71a.4.4,0,0,1,.12.57c-1.83-1-3.67-1.93-5.48-2.94q-24.6-13.69-49.2-27.41c-9.66-5.37-19.37-10.66-29-16L11.32,86.61A2.55,2.55,0,0,1,9.76,84C9.84,81.69,9.83,79.35,9.81,76.87Z"></path><path d="M348.93,34.37a1.94,1.94,0,0,1,1.78,1,1.49,1.49,0,0,1-.39,1.8L243.9,131.57a.51.51,0,0,1-.64,0c2.58-2.61,5.15-5.22,7.74-7.82q11.17-11.24,22.36-22.44l39.81-39.94c7.9-7.92,16-15.69,23.61-23.82a9.22,9.22,0,0,1,8.42-3.3C346.42,34.37,347.64,34.38,348.93,34.37Z"></path><path d="M270.38,139.76a.41.41,0,0,1-.13-.34.44.44,0,0,1,.22-.31l86.75-52.79a2.19,2.19,0,0,1,2-.12,1.68,1.68,0,0,1,1,1.47c0,2.37,0,4.62-.08,6.87,0,.46-.81,1-1.41,1.33q-24.13,12-48.31,23.93C297.59,126.18,284.79,132.63,272,139,271.45,139.3,270.91,139.52,270.38,139.76Z"></path><path d="M34.89,37.06a1.49,1.49,0,0,1-.33-1.77,1.94,1.94,0,0,1,1.74-1c2.33,0,4.5,0,6.66.05a2.88,2.88,0,0,1,1.82.85Q64,56.43,83.15,77.69,97,93,110.81,108.41c.23.27.45.54.66.82a.45.45,0,0,1-.13.65Z"></path><path d="M360.24,293.65a1.64,1.64,0,0,1-1.08,1.48,2.14,2.14,0,0,1-2-.18l-77.59-52.08a.32.32,0,0,1-.11-.46c1.9,1,3.81,1.91,5.68,2.92q23.08,12.43,46.16,24.9,14,7.56,28,15.21a1.94,1.94,0,0,1,.94,1.38C360.24,289.05,360.24,291.28,360.24,293.65Z"></path><path d="M27,336a1.93,1.93,0,0,1-1.76-1,1.48,1.48,0,0,1,.37-1.79C59.73,302.23,93.5,271.62,127.28,241a.54.54,0,0,1,.69,0l-6,5.89c-7.78,7.62-15.6,15.23-23.36,22.88q-18.51,18.23-37,36.49c-7.27,7.16-14.62,14.27-21.91,21.42-2.38,2.34-4.64,4.78-7.1,7.06a4.89,4.89,0,0,1-2.76,1.13C29,335.93,28,336,27,336Z"></path><path d="M9.85,46.83A1.66,1.66,0,0,1,11,45.32a2.18,2.18,0,0,1,2.07.33l103.1,85a.38.38,0,0,1,0,.57c-2.36-1.78-4.73-3.54-7.08-5.32C98.4,117.8,87.71,109.61,77,101.48,64.62,92.16,52.22,82.9,39.88,73.58c-9.42-7.12-18.77-14.31-28.19-21.42-1.34-1-2.1-2-1.93-3.62C9.82,48,9.84,47.41,9.85,46.83Z"></path><path d="M203.21,34.42a2.09,2.09,0,0,1,1.44.56,1.52,1.52,0,0,1,.46,1.3q-6.33,43.32-12.63,86.36a.44.44,0,0,1-.49.35q2.4-43.44,4.82-87a1.82,1.82,0,0,1,1.91-1.58Z"></path><path d="M238.66,256.45a.54.54,0,0,1,.33-.06.44.44,0,0,1,.29.16c20,25.49,40,51,60.28,76.79a1.49,1.49,0,0,1,.11,1.7,2,2,0,0,1-1.68.88c-1.71,0-3.3,0-4.88-.08-.59,0-1.3-.75-1.67-1.3-5.19-7.65-10.31-15.34-15.49-23q-10.49-15.51-21-31l-16-23.49A2.82,2.82,0,0,1,238.66,256.45Z"></path><path d="M127.7,334.69a1.91,1.91,0,0,1-1.83,1.16h-4.68a2,2,0,0,1-1.59-.74,1.46,1.46,0,0,1-.18-1.55q16.5-34.28,32.86-68.29A.62.62,0,0,1,153,265Z"></path><path d="M333,333.19a1.49,1.49,0,0,1,.31,1.78,2,2,0,0,1-1.75,1c-.94,0-1.85,0-2.76-.09a3.75,3.75,0,0,1-2.08-1.2c-4.79-5.13-9.51-10.3-14.27-15.44Q297.39,303,282.32,286.79q-11-11.91-22-23.87a.23.23,0,0,1,0-.34.33.33,0,0,1,.4,0Z"></path><path d="M217.06,112.36a.29.29,0,0,1-.22-.36c.71-2.14,1.38-4.3,2.17-6.43,2.15-5.76,4.35-11.5,6.55-17.25,2.29-6,4.63-12,6.91-18q5.22-13.76,10.38-27.5c.89-2.34,1.73-4.69,2.64-7a2,2,0,0,1,2.44-1.57,21.22,21.22,0,0,0,2.42.09,2,2,0,0,1,1.61.71,1.49,1.49,0,0,1,.2,1.55C240.39,62,228.73,87.18,217.06,112.36Z"></path><path d="M95.14,335.88a2,2,0,0,1-1.66-.81,1.46,1.46,0,0,1,0-1.65l40.68-61.84a.44.44,0,0,1,.55-.14q-3.84,7-7.68,14.07Q118.5,301,110,316.57c-3.29,6-6.6,12-9.87,18a2.3,2.3,0,0,1-2.48,1.4C96.81,335.89,96,335.88,95.14,335.88Z"></path><path d="M9.85,151.69a1.62,1.62,0,0,1,.74-1.31,2.15,2.15,0,0,1,1.65-.29l76.2,16.59a.47.47,0,0,1,.4.52l-6.53-1c-5.65-.87-11.29-1.73-16.93-2.62-5.37-.85-10.72-1.74-16.09-2.58C42.51,160,35.72,159,29,157.88c-5.24-.83-10.46-1.76-15.69-2.63-1.07-.18-2.14-.3-3.21-.46a.38.38,0,0,1-.19-.29C9.86,153.59,9.85,152.67,9.85,151.69Z"></path><path d="M360.26,264.32a1.59,1.59,0,0,1-1,1.1,2,2,0,0,1-1.61,0l-82.2-38.83a.47.47,0,0,1-.24-.66c1.95.8,3.92,1.58,5.86,2.4q22.34,9.51,44.65,19,15.94,6.76,31.93,13.44C359.52,261.51,360.69,262.39,360.26,264.32Z"></path><path d="M89,142.28a.58.58,0,0,1-.71.24c-.68-.22-1.38-.44-2-.72L39.79,122.06c-9.64-4.1-19.29-8.17-28.91-12.28a1.86,1.86,0,0,1-1-1.15c0-.39-.06-.79-.07-1.19a1.6,1.6,0,0,1,.93-1.44,2.12,2.12,0,0,1,1.9,0Z"></path><path d="M282.84,193.82a.32.32,0,0,1,.35-.26l75.08,3.25a1.79,1.79,0,0,1,1.82,1.65v1.39a1.58,1.58,0,0,1-.64,1.24,2.13,2.13,0,0,1-1.5.4Z"></path><path d="M12.6,284.88a2,2,0,0,1-1.84.11,1.51,1.51,0,0,1-1-1.35c0-4,0-3.94,4-5.92q18.67-9.21,37.32-18.45a1,1,0,0,1,1.18.26.69.69,0,0,1-.23,1Z"></path><path d="M12.15,214.31a2.13,2.13,0,0,1-1.58-.35,1.56,1.56,0,0,1-.71-1.27v-.2a1.76,1.76,0,0,1,1.63-1.63L93.59,200a.45.45,0,0,1,.51.31Z"></path><path d="M218.2,333.93a1.47,1.47,0,0,1-.37,1.33,2,2,0,0,1-1.4.64l-.3,0c-1.33.13-1.65-.36-1.84-1.49-.94-5.42-2.08-10.82-3.09-16.23-.9-4.83-1.72-9.67-2.58-14.51l-3-17.16q-1.44-8.07-2.89-16.13c-.24-1.33-.53-2.65-.8-4a.54.54,0,0,1,.5-.62C207.64,288.43,212.89,311,218.2,333.93Z"></path><path d="M10.74,259.19a.75.75,0,0,1-.62,0,.56.56,0,0,1-.32-.47c-.1-3.12-.07-3.07,3.36-4.33,9.22-3.41,18.41-6.88,27.63-10.29Q58.6,237.49,76.44,231a.3.3,0,0,1,.36.12.23.23,0,0,1-.13.31Z"></path><path d="M351.09,333.22a.94.94,0,0,1,0,1.47,1.34,1.34,0,0,1-1.7,0l-.2-.18q-8.3-7.89-16.79-15.59c-9.45-8.61-19-17.17-28.42-25.78q-13-11.82-25.89-23.71a.24.24,0,0,1,0-.39.36.36,0,0,1,.46,0Z"></path><path d="M357.41,114.89a2.15,2.15,0,0,1,2,.16,1.54,1.54,0,0,1,.74,1.61c-.24,1.17-1.13,1.49-3.49,2.36q-11.94,4.4-23.85,8.88-16.51,6.21-33,12.46a.28.28,0,0,1-.35-.12.21.21,0,0,1,.12-.3Z"></path><path d="M147.13,79.56a.45.45,0,0,1-.52-.24l-18-42.7a1.48,1.48,0,0,1,.23-1.52,2,2,0,0,1,1.57-.7h1.14a1.88,1.88,0,0,1,1.84,1.22Q140.24,57.54,147.13,79.56Z"></path><path d="M195.24,334.08a1.51,1.51,0,0,1-.51,1.24,2,2,0,0,1-1.39.53,1.47,1.47,0,0,1-1.56-1.32q-.69-28.78-1.39-57.5a.31.31,0,0,1,.33-.3C192.22,295.78,193.73,314.84,195.24,334.08Z"></path><path d="M358,158.1a2.11,2.11,0,0,1,1.57.34,1.54,1.54,0,0,1,.69,1.26c0,1.13-.58,1.25-2.58,1.52-6.21.85-12.44,1.61-18.65,2.43-4.19.55-8.36,1.19-12.54,1.73-4.87.64-9.75,1.2-14.62,1.83-4.54.59-9.07,1.24-13.61,1.86a.26.26,0,0,1-.3-.19.23.23,0,0,1,.21-.27Z"></path><path d="M307.55,34.35a2,2,0,0,1,1.92.79,1.45,1.45,0,0,1-.12,1.83L281.67,68.66a.42.42,0,0,1-.44.09,2.6,2.6,0,0,1,.3-.82q12-16.34,24.12-32.63A3.09,3.09,0,0,1,307.55,34.35Z"></path><path d="M106.79,92.87a.55.55,0,0,1-.38.1.55.55,0,0,1-.34-.17L56.17,35.18a.84.84,0,0,1,0-1.13c.89.43,2.07.69,2.62,1.33Q72.79,52,86.65,68.6q9.5,11.34,19,22.67C106.06,91.77,106.41,92.33,106.79,92.87Z"></path><path d="M282.1,335.56a1.1,1.1,0,0,1-1.18.17,3.06,3.06,0,0,1-1.27-.86c-3.57-5.72-7-11.51-10.55-17.24-4.7-7.55-9.49-15.06-14.23-22.59-1-1.56-1.93-3.13-2.88-4.7a.42.42,0,0,1,0-.39.53.53,0,0,1,.28-.29Z"></path><path d="M241.15,334.44a.77.77,0,0,1-.58,1,1,1,0,0,1-1.16-.51l-.06-.15c-2.33-6.95-4.77-13.87-7.23-20.78-2.7-7.6-5.47-15.18-8.19-22.78a.28.28,0,0,1,.22-.36.36.36,0,0,1,.42.19Q232.84,312.68,241.15,334.44Z"></path><path d="M180.52,81.08a.34.34,0,0,1-.35-.29q-1.48-22.65-3-45.32a.78.78,0,0,1,.81-.78.81.81,0,0,1,.9.7.53.53,0,0,1,0,.13c.38,10,.81,20,1.2,30,.17,4.56.28,9.12.41,13.68C180.54,79.84,180.52,80.46,180.52,81.08Z"></path><path d="M46.29,191.05a.39.39,0,1,1,0,.78l-35.44,1.74a.83.83,0,0,1-.9-.66c-.1-.77.12-.78,1.28-.82C23,191.73,34.62,191.32,46.29,191.05Z"></path><path d="M303.6,175.12a.38.38,0,0,1,.07-.31.52.52,0,0,1,.31-.16c2.74-.32,5.48-.68,8.23-.94,5.79-.57,11.59-1,17.37-1.62s11.42-1.26,17.13-1.88c4-.44,8-.87,12-1.24a1.15,1.15,0,0,1,.32,0,.58.58,0,0,1,.49.58.6.6,0,0,1-.57.52q-6.94.72-13.9,1.34-15.13,1.37-30.26,2.7Z"></path><path d="M62,154.73a.41.41,0,0,1-.21.29.55.55,0,0,1-.38,0c-2.23-.53-4.47-1-6.7-1.59l-27.21-6.55c-5.19-1.25-10.4-2.45-15.57-3.77a10.83,10.83,0,0,1-1.47-.32.61.61,0,0,1-.39-.81.79.79,0,0,1,.91-.4Z"></path><path d="M61.08,212.45a.35.35,0,0,1-.28.38l-50,11a1.17,1.17,0,0,1-1.16-.36c.42-.34.79-.89,1.28-1,6.31-1.3,12.65-2.49,19-3.78s12.32-2.61,18.48-3.91c3.7-.79,7.4-1.59,11.12-2.35A8.31,8.31,0,0,1,61.08,212.45Z"></path><path d="M173,334.25a1.8,1.8,0,0,1-1.9,1.58,1.32,1.32,0,0,1-.93-.37,1,1,0,0,1-.29-.85c1.36-8.07,2.71-16,4.05-24a.32.32,0,0,1,.35-.24C173.89,318.27,173.47,326.18,173,334.25Z"></path><path d="M359.91,126.78a.86.86,0,0,1-.14,1.19,1.79,1.79,0,0,1-.58.37q-16.89,5.66-33.8,11.25c-2.29.75-4.58,1.5-6.88,2.22a.35.35,0,0,1-.42-.16.28.28,0,0,1,.18-.37Z"></path><path d="M88.05,98.17a.3.3,0,0,1,.36,0l10.83,9.33a.25.25,0,0,1,.08.18.25.25,0,0,1-.08.17c-2.28-1.85-4.61-3.67-6.83-5.58C90.89,101,89.5,99.54,88.05,98.17Z"></path><path d="M225.2,67.52a18.79,18.79,0,0,1-.34,2.91c-.14.51-.29,1-.47,1.5a.27.27,0,0,1-.33.15.23.23,0,0,1-.19-.28c.45-1.41.9-2.81,1.34-4.22A0,0,0,0,0,225.2,67.52Z"></path><path d="M71.29,196.87h0l6.22-.54a.71.71,0,0,1,.5.13.55.55,0,0,1,.24.41Z"></path><path d="M272.84,114.18a.15.15,0,0,0,.19,0l4-4a.64.64,0,0,1,.41-.17.63.63,0,0,1,.42.16Z"></path><path d="M176.28,182.92c-4.28-1.49-8.14-.06-11.72,3.31-.19-2-.46-4.1-.84-6.15A71,71,0,1,0,84.1,263c-4.61,12.68-22.46,64-10.59,67.07,3.55.92,7.3-1.33,11-5.34L84,334.12h60.91V284.58C173.24,260.82,194,189.1,176.28,182.92Z" fill="#ffffff"></path><path d="M144.92,334.12V284.58c28.32-23.76,49-95.48,31.36-101.66-4.28-1.49-8.14-.06-11.72,3.31-.19-2-.46-4.1-.84-6.15A71,71,0,1,0,84.1,263c-4.61,12.68-22.46,64-10.59,67.07,3.55.92,7.3-1.33,11-5.34L84,334.12" fill="none" stroke="#45413c" stroke-linecap="round" stroke-linejoin="round" stroke-width="4"></path><path d="M69.69,217.48c1,5.78,5.8,9.77,10.62,8.89s7.88-6.27,6.84-12.05Z" fill="#ffa694" stroke="#45413c" stroke-linecap="round" stroke-linejoin="round" stroke-width="4"></path><path d="M65.48,217.35a2.48,2.48,0,0,1-2,2.89l-17,3.08-5.63-31.1,17-3.08a2.48,2.48,0,0,1,2.89,2Z" fill="#80ddff" stroke="#45413c" stroke-linecap="round" stroke-linejoin="round" stroke-width="4"></path><path d="M10.730 193.890 L55.310 193.890 L55.310 225.500 L10.730 225.500 Z" fill="#b8ecff" transform="rotate(-10.27 32.991 209.598)"></path><path d="M30.89,194,13.48,226.86a2.48,2.48,0,0,0,2.87,1.91l13.78-2.5L49,190.74Z" fill="#e5f8ff"></path><path d="M10.730 193.890 L55.310 193.890 L55.310 225.500 L10.730 225.500 Z" fill="none" stroke="#45413c" stroke-linecap="round" stroke-linejoin="round" stroke-width="4" transform="rotate(-10.27 32.991 209.598)"></path><path d="M144.88,203a2.48,2.48,0,0,1-2,2.89l-17,3.08-5.63-31.1,17-3.08a2.48,2.48,0,0,1,2.89,2Z" fill="#80ddff" stroke="#45413c" stroke-linecap="round" stroke-linejoin="round" stroke-width="4"></path><path d="M90.130 179.510 L134.710 179.510 L134.710 211.120 L90.130 211.120 Z" fill="#b8ecff" transform="rotate(-10.27 112.357 195.248)"></path><path d="M110.29,179.64,92.88,212.48a2.49,2.49,0,0,0,2.87,1.91l13.78-2.5,18.84-35.53Z" fill="#e5f8ff"></path><path d="M90.130 179.510 L134.710 179.510 L134.710 211.120 L90.130 211.120 Z" fill="none" stroke="#45413c" stroke-linecap="round" stroke-linejoin="round" stroke-width="4" transform="rotate(-10.27 112.357 195.248)"></path><path d="M88.07,281a379.72,379.72,0,0,0-3.57,43.78" fill="none" stroke="#45413c" stroke-linecap="round" stroke-linejoin="round" stroke-width="4"></path><path d="M96.33,263.67A70,70,0,0,1,84.1,263" fill="none" stroke="#45413c" stroke-linecap="round" stroke-linejoin="round" stroke-width="4"></path><path d="M122.85,257.54c20.09-9.89,31-82.45,53.43-74.62" fill="none" stroke="#45413c" stroke-linecap="round" stroke-linejoin="round" stroke-width="4"></path><path d="M13.14,173.33c0-3.82,5.45-6.52,8.26-3.28" fill="none" stroke="#45413c" stroke-linecap="round" stroke-linejoin="round" stroke-width="4"></path><path d="M128.33,155c1.63-3.46,7.72-3.55,8.86.58" fill="none" stroke="#45413c" stroke-linecap="round" stroke-linejoin="round" stroke-width="4"></path><path d="M118.37,262.29a2.19,2.19,0,0,0-3-2.27,42.87,42.87,0,0,1-13,2.87,2.21,2.21,0,0,0-1.79,3.28c1.71,3,5,6.9,10.47,5.6S118,265.67,118.37,262.29Z" fill="#e0e0e0"></path><path d="M336.32,214A70.49,70.49,0,0,0,198,186.92c-3.47-3.12-7.19-4.41-11.31-3-17.56,6.14,3,77.38,31.15,101v49.2h60.49l-.48-9.28c3.66,4,7.39,6.21,10.91,5.3,10.05-2.61-1.34-40-7.76-58.8A70.51,70.51,0,0,0,336.32,214Z" fill="#ffffff"></path><path d="M278.54,132.76A70.49,70.49,0,0,0,198,186.92a36.6,36.6,0,0,1,6.15,7.65c32.26,5.21,110.77,18.09,110.77,18.09s1.61,38.94-22.36,55.23a70.49,70.49,0,0,0-14-135.13Z" fill="#e0e0e0"></path><path d="M193.42,184l-.17-.06Z" fill="#e0e0e0"></path><path d="M194.27,184.36l-.23-.1Z" fill="#e0e0e0"></path><path d="M195.87,185.26l-.18-.11Z" fill="#e0e0e0"></path><path d="M195.1,184.79l-.24-.13Z" fill="#e0e0e0"></path><path d="M292.55,222.12a33.16,33.16,0,0,0,22.63,31.43,70.49,70.49,0,0,0,21.17-62.83,33.14,33.14,0,0,0-43.8,31.4Z" fill="#e0e0e0"></path><path d="M211.130 206.610 A33.150 33.150 0 1 0 277.430 206.610 A33.150 33.150 0 1 0 211.130 206.610 Z" fill="#e0e0e0"></path><path d="M278.34,334.12l-.48-9.28c3.66,4,7.39,6.21,10.91,5.3,10.05-2.61-1.34-40-7.76-58.8a70.5,70.5,0,1,0-83-84.42c-3.47-3.12-7.19-4.41-11.31-3-17.56,6.14,3,77.38,31.15,101v49.2" fill="none" stroke="#45413c" stroke-linecap="round" stroke-linejoin="round" stroke-width="4"></path><path d="M271.490 132.760 A7.050 7.050 0 1 0 285.590 132.760 A7.050 7.050 0 1 0 271.490 132.760 Z" fill="#ff512e" stroke="#45413c" stroke-linecap="round" stroke-linejoin="round" stroke-width="4"></path><path d="M177.29,169.3l25.13,4.24A70.51,70.51,0,0,1,337.15,207L207.08,185.05h0l-31.55-5.33a5.28,5.28,0,1,1,1.76-10.42Z" fill="#ff866e"></path><path d="M299.91,200.71l.88-5.22a3.52,3.52,0,0,0-2.89-4.06l-25.2-4.25-.84,8.79Z" fill="#ff512e"></path><path d="M212.64,186a79.74,79.74,0,0,1,85.1-44,81.51,81.51,0,0,1,8.64,2,70.53,70.53,0,0,0-104,29.62l-25.13-4.24a5.28,5.28,0,1,0-1.76,10.42l31.55,5.33Z" fill="#ffcabf"></path><path d="M203.69,170.85c-.44.88-.87,1.78-1.27,2.69l-25.13-4.24a5.28,5.28,0,1,0-1.76,10.42l23.29,3.93A70,70,0,0,1,203.69,170.85Z" fill="#ff512e"></path><path d="M177.29,169.3l25.13,4.24A70.51,70.51,0,0,1,337.15,207L207.08,185.05h0l-31.55-5.33a5.28,5.28,0,1,1,1.76-10.42Z" fill="none" stroke="#45413c" stroke-linecap="round" stroke-linejoin="round" stroke-width="4"></path><path d="M272.7,187.18a10.57,10.57,0,1,1,20.85,3.52Z" fill="#e0e0e0" stroke="#45413c" stroke-linecap="round" stroke-linejoin="round" stroke-width="4"></path><path d="M293.55,190.7l4.35.73a3.52,3.52,0,0,1,2.89,4.06l-.88,5.22" fill="none" stroke="#45413c" stroke-linecap="round" stroke-linejoin="round" stroke-width="4"></path><path d="M200.56,178.14c.56-1.54,1.16-3,1.82-4.52" fill="#ffffff" stroke="#45413c" stroke-linecap="round" stroke-linejoin="round" stroke-width="4"></path><path d="M291,232.38c-1,5.76-5.65,9.77-10.45,9s-7.9-6.13-6.93-11.89Z" fill="#ffa694" stroke="#45413c" stroke-linecap="round" stroke-linejoin="round" stroke-width="4"></path><path d="M294.750 217.930 A29.960 29.960 0 1 0 354.670 217.930 A29.960 29.960 0 1 0 294.750 217.930 Z" fill="#ffffff" stroke="#45413c" stroke-linecap="round" stroke-linejoin="round" stroke-width="4"></path><path d="M312.590 222.910 A3.520 3.520 0 1 0 319.630 222.910 A3.520 3.520 0 1 0 312.590 222.910 Z" fill="#45413c"></path><path d="M213.070 204.150 A29.960 29.960 0 1 0 272.990 204.150 A29.960 29.960 0 1 0 213.070 204.150 Z" fill="#ffffff" stroke="#45413c" stroke-linecap="round" stroke-linejoin="round" stroke-width="4"></path><path d="M230.910 209.130 A3.520 3.520 0 1 0 237.950 209.130 A3.520 3.520 0 1 0 230.910 209.130 Z" fill="#45413c"></path><path d="M273.43,285.46c3,11.45,3.68,23.25,4.45,39.67" fill="none" stroke="#45413c" stroke-linecap="round" stroke-linejoin="round" stroke-width="4"></path><path d="M267.66,272.77A70.31,70.31,0,0,0,281,271.34" fill="none" stroke="#45413c" stroke-linecap="round" stroke-linejoin="round" stroke-width="4"></path><path d="M235.77,263.42c-19.93-10.72-22.48-62.75-37.76-76.51" fill="none" stroke="#45413c" stroke-linecap="round" stroke-linejoin="round" stroke-width="4"></path><path d="M353,181.82c0-3.82-5.44-6.52-8.25-3.28" fill="none" stroke="#45413c" stroke-linecap="round" stroke-linejoin="round" stroke-width="4"></path><path d="M237.82,163.49c-1.62-3.46-7.71-3.55-8.86.58" fill="none" stroke="#45413c" stroke-linecap="round" stroke-linejoin="round" stroke-width="4"></path><path d="M242.85,270.09a2.36,2.36,0,0,1,3.34-2.23,46.62,46.62,0,0,0,13.72,4,2.37,2.37,0,0,1,1.86,1.36,2.34,2.34,0,0,1-.17,2.29c-2.05,3.14-5.9,7.06-11.66,5.27S243,273.75,242.85,270.09Z" fill="#e0e0e0"></path><path d="M64.13,136.94c-6.58,3.38-10,.38-11.53-1.75a59.75,59.75,0,0,1-4.52-8.49c-.23-.53-.42-.92-.58-1.22l-.19.11c.49,1.06,1,1.94,1.45,2.81s1,1.74,1.37,2.69c2.82,6.34,1.62,12.09-3,14.87a9.61,9.61,0,0,1-5.76,1.36c-3-.23-6.12-2.28-9.59-6.31a70.37,70.37,0,0,1-8.06-12.23,121.13,121.13,0,0,1-5.05-11.1c-1.7-4.35-1.94-6.32-1.94-7.22-.46-4.78,2.94-9.24,6.59-11.46,5.68-3.46,10.93-2.09,13.3,3.21l2.46,5.53a15.12,15.12,0,0,0,.78,1.55l.27-.17a37.28,37.28,0,0,0-1.52-3.85L38.07,104c-2.92-6.57-.38-13.79,6.29-17.19,6.37-3.26,11.2-1.55,14.24,4.7.69,1.41,1.52,3.43,2.46,6,3,8.16,6.75,20.62,8,27.21C70.57,132.74,66.13,135.91,64.13,136.94Z" fill="#45413c"></path><path d="M82.34,128.64c-4.35,1.84-10.85,4.88-14-3.42-.53-1.4-2-5.18.68-8.51l.36-.46c-.6-1.65-1.2-3.34-1.82-5.09-.83-2.36-1.71-4.82-2.65-7.43-.28-.76-.54-1.59-.81-2.44s-.5-1.59-.77-2.34a18.6,18.6,0,0,0-.83-2c-1.59.09-5-.3-6.81-5.11a11,11,0,0,1-.65-5.59c1.06-5.22,7.6-8.2,10.76-9.53l1.62-.67c4-1.67,13.58-5.26,16.36,2.69l.06.2.21.71a9.11,9.11,0,0,1-2,9c.4,1.44.87,3,1.27,4.37.75,2.53,1.13,3.79,1.88,6.31.52,1.74,1,3.61,1.46,5.41.34,1.35.68,2.65,1,3.84,2.61.49,4.64,1.66,5.83,5.86s.09,8.2-3,10.35C89.23,125.67,86.85,126.73,82.34,128.64Z" fill="#45413c"></path><path d="M112.72,118.43c-7.21,1.92-13.78.56-19.33-4.19a30.74,30.74,0,0,1-9.19-14.6c-3.94-14,3.51-31.77,18.63-35.82,9.28-2.48,22.87-.08,24.86,11a7.35,7.35,0,0,1-2.62,6.79,9.28,9.28,0,0,1,4.15,4l.1.19a22.5,22.5,0,0,1,1.89,6.07l.06.33c1.84,12.3-6.53,22.82-18,26.13ZM107.58,83c-3.4,1-3.93,5.72-3,9.72l.09.36c-.68-4.25,1.34-7.61,6.11-9.86A3.86,3.86,0,0,0,107.58,83Z" fill="#45413c"></path><path d="M161.42,108.53c-7.06.64-9.33-3.51-10.09-6.1a66.41,66.41,0,0,1-1.65-9.72c-.06-.58-.12-1-.17-1.36l-.21,0c.14,1.18.32,2.2.5,3.19s.37,2,.47,3.06c.72,7-2.07,12-7.1,12.79a9.1,9.1,0,0,1-5.67-1c-2.63-1.38-4.92-4.54-6.91-9.67a78.75,78.75,0,0,1-3.8-14.6c-.48-2.92-1.11-7.93-1.37-12.38-.28-4.74.07-6.68.34-7.52,1-4.65,5.39-7.5,9.38-8.16,6.21-1,10.64,2.29,11.25,8.18.26,2.45.38,3.68.64,6.14a16.51,16.51,0,0,0,.26,1.75l.29,0a38,38,0,0,0-.26-4.2l-.15-1.42c-.75-7.3,3.71-13.09,10.86-13.72,6.83-.6,10.8,2.86,11.75,9.9.21,1.59.38,3.81.49,6.59.35,8.82.12,22-.68,28.64C168.6,107.07,163.57,108.34,161.42,108.53Z" fill="#45413c"></path><path d="M190.75,107.83c-1.5,0-6-.14-8.58-4.3a14.41,14.41,0,0,1-1.85-7.4c0-.68,0-1,0-1.7-.05-3.39,0-7.1,0-11s.22-8.28,0-11.93c-.57-11,7.19-19,18.62-18.49,4,.19,5.56.11,6.85.2,5.12.36,18.7,1.89,17.48,13.48-.44,4.14-2.71,8.79-11.05,8.26l-.77-.07c-3.52-.41-5.28-.59-8.8-.9a6.94,6.94,0,0,0-1.22,0,3,3,0,0,0-.06.48v.17l1.7.09c2.95.19,11.94,1,11.2,9.8-.73,8.53-7.46,8.11-10,8l-.83,0c-1.08,0-2.17,0-3.15,0q0,.69-.06,1.44c-.11,3-.23,6.44-1.39,9.28C197.59,106.28,194.62,107.92,190.75,107.83Z" fill="#45413c"></path><path d="M225.55,111c-4.54-.73-11.42-1.57-10.61-10.54.14-1.52.5-5.6,4.19-7.1l.49-.21q.28-2.66.59-5.44c.28-2.53.57-5.16.86-8,.08-.81.2-1.68.33-2.57s.24-1.66.33-2.47a21.83,21.83,0,0,0,.13-2.19c-1.41-.78-4.18-3-3.71-8.16a10.84,10.84,0,0,1,1.8-5.25c3.12-4,10-3.09,13.32-2.56l1.68.28c4.21.71,14,2.7,13.07,11.18a1.55,1.55,0,0,1,0,.21l-.12.74a8.06,8.06,0,0,1-5.55,6.8c-.27,1.48-.53,3.12-.76,4.52l-1.05,6.55c-.29,1.8-.67,3.69-1,5.52-.27,1.38-.53,2.69-.75,3.92,2.06,1.84,3.33,4,2.58,8.28-.77,4.49-3.41,7.25-7,7.46C232.78,112.05,230.26,111.7,225.55,111Z" fill="#45413c"></path><path d="M257.68,118.12c-9.09-2.66-10.25-10.61-11.45-17.78-.06-.43-.1-.64-.16-1.07a190.78,190.78,0,0,1-2.72-31,4.48,4.48,0,0,1,.06-.64c.89-4.8,5.5-7.23,11.44-5.82,5,1.18,9,4.47,10.36,8.21,0,.08.05.16.08.25a35.54,35.54,0,0,1,.8,8.5c0,1.59.05,3.23.16,4.6.07.94.1,1.42.17,2.36l.16-.27c2.19-3.37,3.3-5,5.56-8.38,3.78-5.85,8.73-7.9,14.45-5.87,9.71,3.45,8.88,10.37,8.06,13C293.16,89.12,289,93.86,285.4,98l-.34.4c-1,1.11-2,2.28-2.93,3.43-5.49,6.82-13.4,18.47-23.83,16.5Z" fill="#45413c"></path><path d="M295.82,132.73c-7.21-3.37-12.08-7.7-13.74-12.67-2.11-6.31,0-15.69,1.48-20.71,1.27-4.28,6.09-18.58,16.27-20.23,4.38-.7,11.3.65,17.47,3.6,14.27,6.82,12,15.31,11,17.62a8,8,0,0,1-1.5,2.52c-3.34,3.39-8.39,1.67-12.65-.18,2.25,2.1,3.62,4.85,2.21,8.3-1.65,4-4.47,5.39-7.43,5.58a30.06,30.06,0,0,1,3.52,1.47,9.06,9.06,0,0,1,4.23,11.54C313.64,136.63,305.94,137.45,295.82,132.73Z" fill="#45413c"></path><path d="M320.25,146.06c-3.62-2.16-6.19-7.42-4.19-12a8.13,8.13,0,0,1,5.58-4.74c-1.81-5.61.48-11.93,2.91-17.52.61-1.4,1.28-2.86,2-4.37s1.47-3.19,2.21-4.88c.38-1,.57-1.52.94-2.54l.08-.18c.12-.28.29-.72.45-1.14s.38-1,.51-1.28l.27-.61a9.14,9.14,0,0,1,1.39-2.29,4.1,4.1,0,0,1,.52-.5c2.49-1.89,6.3-1.65,10.39.77a24.63,24.63,0,0,1,7.09,6.47A14.84,14.84,0,0,1,353,112.59a21.51,21.51,0,0,1-2.26,6.32c-3.68,7-10.66,14-14.54,16a15,15,0,0,1-2.16.93,8.67,8.67,0,0,1-.11,7.51C331.38,148.36,325.79,149.35,320.25,146.06Z" fill="#45413c"></path><path d="M57.17,130.56c-4.22,2.24-7.4,1.93-9.55-1a55.65,55.65,0,0,1-4.42-8.15,7.72,7.72,0,0,0-1.54-2.64,6,6,0,0,0-1.32.64c-1.6.93-1.81,1.3-1.83,1.37a2.25,2.25,0,0,0,.33,1.18c.59,1.26,1.17,2.27,1.73,3.24s1,1.66,1.36,2.53c2.45,5.27,1.61,10.09-2.11,12.41A8.17,8.17,0,0,1,35,141.35c-2.53-.14-5.45-2-8.62-5.6a67.08,67.08,0,0,1-7.95-11.82,114.91,114.91,0,0,1-5-10.9c-1.69-4.28-1.86-6-1.85-6.69-.42-3.9,2.42-7.64,5.47-9.55,4.74-3,8.83-2,10.88,2.34,1,2.19,1.54,3.28,2.56,5.47,1.51,3.23,2,3,2.86,2.44,2.72-1.59,2.73-1.58.27-7L33,98.76c-2.56-5.66-.5-11.67,5.19-14.68,5.43-2.87,9.27-1.59,12,3.76.68,1.33,1.55,3.34,2.5,5.8,3.11,8,7,20.25,8.33,26.73C62.29,126.45,59.65,129.24,57.17,130.56Z" fill="#ffcd21"></path><path d="M39.06,86.06c3.87-2,6.6-1.68,9,3,.68,1.3,1.53,3.25,2.47,5.61,3.09,7.82,7.07,19.88,8.38,26.3.68,3.16.36,6-2.61,7.57-2.54,1.35-5.15,2-7-.51a51.32,51.32,0,0,1-4.17-7.83c-1.89-4.26-2.87-4.49-5.76-2.81-2.72,1.58-4,2.87-2.61,5.69,1.16,2.46,2.3,4,3.12,5.75,1.62,3.42,2,7.41-1.09,9.33a5.85,5.85,0,0,1-3.51.89c-2.25-.12-4.87-2.26-7.27-5a64.56,64.56,0,0,1-7.61-11.52,106.69,106.69,0,0,1-4.88-10.73c-1.06-2.68-1.74-5-1.67-6.06-.42-3.19,2.26-5.94,4.07-7.08,3.75-2.36,6.35-1.28,7.78,1.72l2.6,5.45c1.42,3,2.83,4.89,5.87,3.11,4.41-2.58,4.24-4,1.52-10.17l-.57-1.28c-2-4.55-.62-9.09,3.86-11.47m-1.66-4c-6.27,3.32-9,9.77-7.25,15.9l-.06-.13c-2.51-5.45-8-6.74-14-3-3.81,2.4-7.35,7.11-6.87,12,0,1,.22,2.91,2,7.37a109.33,109.33,0,0,0,5.18,11,69.12,69.12,0,0,0,8.27,12.11c3.63,4,6.89,6,10,6.2a10.29,10.29,0,0,0,6-1.58c4-2.47,5.5-7.11,4.25-12.29.3.46.59.89.88,1.28,1.58,2.17,5.23,5.18,12.11,1.52,6.33-3.36,5.72-10,5.16-12.83-1.26-6.6-5.16-19-8.26-27.13-1-2.56-1.83-4.59-2.54-6-3.2-6.39-8.29-8-15-4.48Zm-5.06,23.05Z" fill="#45413c"></path><path d="M76.73,121.33c-4.45,1.94-9.45,4.33-12-2.24-.47-1.23-1.59-4.14.38-6.62a9.08,9.08,0,0,0,1-1.5c-.71-1.93-1.42-3.91-2.15-6-.85-2.37-1.73-4.83-2.69-7.44-.27-.73-.53-1.54-.79-2.37s-.52-1.63-.8-2.4a10,10,0,0,0-1.41-3c-.11-.13-.17-.19-1-.1-2.32.25-4.28-1.17-5.35-4a9.49,9.49,0,0,1-.57-4.64c.73-3.56,5-6.08,9.53-8l1.63-.71c4.12-1.76,11.86-4.78,14.17,1.48l.25.82a7.27,7.27,0,0,1-2.27,8c.47,1.7,1.12,3.76,1.64,5.44l2,6.28c.53,1.69,1,3.53,1.51,5.31s.92,3.38,1.38,4.85a.25.25,0,0,1,0,.07c3,.32,4.57,1,5.68,4.69,1.06,3.51.23,6.5-2.23,8.23A61,61,0,0,1,76.73,121.33Z" fill="#ffcd21"></path><path d="M63.29,74.42c6.58-2.81,9.94-3,11.24.41.08.28.13.42.21.71.87,2.82-.14,4.36-1.91,5.93A1.53,1.53,0,0,0,72.37,83c.51,1.82,1.24,4.12,1.84,6l2,6.27c1.05,3.26,2,7.07,3,10.14.34,1.08.87,1.37,1.47,1.42,2.62.25,3.39.46,4.26,3.29.63,2,.61,4.28-1.29,5.62A63.3,63.3,0,0,1,76,119.29c-5.51,2.4-7.69,3-9.23-1.16-.54-1.44-1-3.07,0-4.34,1.21-1.53,1.79-2.59,1.58-3.38-1.53-4.28-3.08-8.78-4.89-13.82-.52-1.45-1-3.21-1.56-4.79a12.5,12.5,0,0,0-1.76-3.59c-.68-.79-1.51-.86-2.74-.73-1.46.17-2.54-1-3.2-2.77a6.84,6.84,0,0,1-.47-3.46c.51-2.59,4.59-4.69,7.91-6.13l1.62-.7m-1.38-4.1L60.27,71C57,72.45,50.18,75.6,49.11,81.09a10.87,10.87,0,0,0,.69,5.76c1.84,4.76,5.25,5.25,7,5.17a18.82,18.82,0,0,1,.75,1.79c.27.72.53,1.53.79,2.32s.54,1.66.83,2.44c1,2.6,1.87,5.05,2.73,7.41.62,1.67,1.21,3.3,1.8,4.89l-.21.28c-2.84,3.6-1.32,7.47-.76,8.91,3.33,8.57,10.4,5.17,14.66,3.31,4.62-2,7.06-3.13,8.38-4.05,3.3-2.33,4.52-6.34,3.2-10.84-1.25-4.26-3.35-5.47-6-5.94-.33-1.14-.65-2.37-1-3.64-.47-1.8-1-3.67-1.5-5.41-.77-2.51-1.15-3.77-1.92-6.29-.4-1.29-.86-2.79-1.26-4.18a9.4,9.4,0,0,0,2-9.2c-.08-.29-.12-.43-.21-.71a2,2,0,0,0-.07-.23c-3-8.2-12.9-4.35-17.1-2.56Z" fill="#45413c"></path><path d="M108.87,110.17C96.19,113.72,85.19,104.52,82,92.86,78.34,79.65,85.23,63,99.5,59.24c11.28-3,21.61,1.19,23,9.28.46,2.69-1.1,6-6.83,7.34a9.87,9.87,0,0,1-4.9.16,15.56,15.56,0,0,1-2.26-.82,6,6,0,0,0-4.94-.4c-4.83,1.38-5.73,7.14-4.49,12.15.59,2.4,2.6,7.76,8,6.17a6.09,6.09,0,0,0,2.9-1.71c-5.57,1.33-6.58-3-6.92-4.4-1.66-7.05,6.59-9.39,9.32-10.08a32.49,32.49,0,0,1,3.55-.74c3.78-.5,6.63.64,8.44,3.69l.06.1a20.45,20.45,0,0,1,1.81,5.52l0,.33c1.81,11.49-6.3,21.08-16.9,24.19h0Z" fill="#ffcd21"></path><path d="M100,61.37c10-2.87,19,.66,20.21,7.66.49,2.73-2.49,4.09-5,4.69a7.35,7.35,0,0,1-3.72.16c-2.49-.61-3.93-2.49-8.45-1.2-6,1.71-7.87,8.36-6.19,15,1.56,6.16,5.52,9.08,10.66,7.6l.13,0c4.28-1.3,5.65-4.49,5.26-6.34l-.08-.4c-1.25.3-1.87.45-3.11.77-3.65.93-4.14-1.22-4.51-2.86-1-4.41,3.27-6.21,7.56-7.31a26,26,0,0,1,3.28-.68c3.37-.54,5.11.68,6.32,2.69A18.37,18.37,0,0,1,124,86c0,.13,0,.2.06.33,1.93,11.08-6,18.9-15.21,21.61l-.47.13c-11.88,3.11-20.83-5.27-24.27-16C80.43,79.2,86.83,65.34,100,61.37m-1-4.25C83.07,61,75.88,79,79.83,93.69a31.18,31.18,0,0,0,9.48,14.64c5.75,4.74,12.54,6,20,4l.53-.16a27.68,27.68,0,0,0,14-9.18,22.26,22.26,0,0,0,4.63-17.58L128.4,85a22.4,22.4,0,0,0-2-6.14c0-.06-.07-.13-.11-.2a9.7,9.7,0,0,0-3.94-3.85,7.66,7.66,0,0,0,2.4-6.81C122.34,56.48,108.69,54.15,99,57.12Zm1.83,26.16c-.1-2.93.78-5.67,3.19-6.35a3.68,3.68,0,0,1,2.31-.12,14.78,14.78,0,0,0-2,1.27,9.44,9.44,0,0,0-3.52,5.2Z" fill="#45413c"></path><path d="M159.8,99.57c-4.55.42-7.36-1.14-8.43-4.76a62.5,62.5,0,0,1-1.58-9.38,8.44,8.44,0,0,0-.61-3.07,4.89,4.89,0,0,0-1.4.07c-1.74.23-2,.49-2.09.54a2.52,2.52,0,0,0-.05,1.24c.16,1.41.39,2.58.6,3.72.19,1,.37,1.92.48,2.9.65,5.91-1.58,10.08-5.66,10.76a7.71,7.71,0,0,1-4.74-.77c-2.26-1.14-4.35-4.06-6.16-8.69a75.51,75.51,0,0,1-3.68-14.22c-.47-2.87-1.07-7.82-1.31-12.19-.25-4.68.11-6.35.33-7,.78-3.81,4.48-6.15,7.84-6.72,5.21-.89,8.67,1.63,9.22,6.53.27,2.46.41,3.68.69,6.14.4,3.62.93,3.55,1.88,3.42,3-.41,3-.39,2.36-6.45l-.15-1.42c-.62-6.31,3.06-11.1,9.2-11.67,5.84-.54,9,2.18,9.87,8.26.22,1.52.4,3.74.53,6.42.42,8.74.29,21.74-.48,28.32C165.74,97.75,162.47,99.32,159.8,99.57Z" fill="#ffcd21"></path><path d="M156.7,50.76c4.16-.39,6.56,1,7.37,6.42.23,1.48.42,3.65.56,6.22.46,8.55.45,21.41-.3,27.93-.34,3.23-1.49,5.75-4.69,6-2.74.26-5.34-.12-6.23-3.23a57.89,57.89,0,0,1-1.44-9c-.44-4.73-1.26-5.33-4.42-4.91-3,.39-4.47,1.11-4.1,4.27.33,2.77.89,4.67,1.12,6.62.45,3.84-.42,7.72-3.8,8.28a5.54,5.54,0,0,1-3.47-.57c-2-1-3.75-4.06-5.11-7.59a72.78,72.78,0,0,1-3.47-13.8,117.32,117.32,0,0,1-1.22-12c-.16-2.94-.08-5.36.3-6.33.57-3.14,3.84-4.64,5.83-5,4.13-.7,6.18,1.35,6.58,4.72.29,2.45.43,3.67.73,6.13.39,3.36,1.1,5.7,4.42,5.25,4.8-.65,5.1-2.08,4.46-8.91-.06-.56-.08-.85-.14-1.42-.47-5.06,2.19-8.75,7-9.19m-.32-4.37a12.11,12.11,0,0,0-11.46,12,.76.76,0,0,0,0-.15c-.64-6.09-5.31-9.49-11.86-8.38-4.19.71-8.82,3.68-9.86,8.49-.29.89-.68,2.8-.35,7.69a121.84,121.84,0,0,0,1.41,12.35A78.16,78.16,0,0,0,128.14,93c2.09,5.22,4.45,8.41,7.24,9.8a9.59,9.59,0,0,0,6,.94c4.35-.72,7.16-4.44,7.58-9.78.13.55.27,1.07.42,1.55.79,2.65,3.2,6.93,10.62,6.23,6.83-.64,8.3-7.15,8.63-10,.85-6.68,1-19.82.67-28.66-.12-2.79-.29-5-.51-6.62-1-7.24-5.19-10.77-12.37-10.11ZM144.77,65.94Z" fill="#45413c"></path><path d="M190.92,98.75c-2.26,0-5.45-.51-7.31-3.49a12.2,12.2,0,0,1-1.55-6.37v-1.7c0-3.37,0-7.08.08-11s.13-8.13.1-12c-.07-10.52,2.66-16.63,17-16.59,4.23,0,5.58.11,6.86.2,5.07.36,16.91,1.66,15.94,11.4-.73,7.29-7.09,6.77-9.18,6.64l-.73-.07c-3.58-.42-5.38-.61-9-.91a7,7,0,0,0-2.83.26,3.44,3.44,0,0,0-.56,2c0,.76-.06,1.45-.08,2.07l.83,0c1,0,2,.08,2.82.14,3.31.21,10.19.84,9.64,7.75-.45,5.6-3.62,6.51-8.24,6.33l-.89,0a42.32,42.32,0,0,0-5,.08c-.09,1-.12,2-.15,3.12-.1,3-.19,6.1-1.23,8.63C196.53,97.61,194.17,98.83,190.92,98.75Z" fill="#ffcd21"></path><path d="M206,50c6.47.45,14.38,1.76,13.71,8.92-.38,4.05-2.64,5-6.75,4.74l-.64-.07c-3.59-.42-5.38-.6-9-.91a9.55,9.55,0,0,0-3.84.39c-1.39.55-1.95,2.36-2,3.92a38,38,0,0,0,0,4.28c1.76.08,4.15.15,5.77.25,4.85.32,7.81,1.3,7.52,5.36-.28,3.72-1.71,4.52-6,4.35-2.95-.08-5.89-.17-7.9.35-.67,3.65.07,9.18-1.36,12.8-.79,1.87-3,2.2-4.59,2.16-2.22,0-4.37-.48-5.55-2.45a9.71,9.71,0,0,1-1.19-5.23c0-.68,0-1,0-1.7,0-6.86.34-15.42.33-23,0-9.3,1.7-14.47,14.75-14.39,4.17,0,5.44.11,6.71.2m.24-4.38c-1.32-.09-2.69-.21-7.05-.2-12-1.46-20.38,7.28-19.27,18.81.05,3.81,0,7.94,0,11.92s-.07,7.65,0,11c0,.68,0,1,0,1.7a14.2,14.2,0,0,0,2,7.57c2.7,4.36,7.44,4.41,9,4.45,4.08.1,7.18-1.59,8.55-4.76l0-.07c1.2-2.93,1.33-6.37,1.45-9.4,0-.39,0-.77,0-1.14.92,0,1.92,0,2.9,0l.88,0c2.69.11,9.74.53,10.5-8.28.78-9.1-8.65-10-11.76-10.18l-1.38-.08v0c.28,0,.6,0,1,0,3.53.31,5.29.49,8.81.9H212l.64.06.16,0c8.78.55,11.16-4.24,11.61-8.53.53-5-1.83-9.11-6.76-11.46-3.54-1.69-7.74-2.17-11.4-2.43Z" fill="#45413c"></path><path d="M227.65,102.11c-4.66-.77-10-1.44-9.25-8.55.13-1.33.43-4.48,3.18-5.55a8.32,8.32,0,0,0,1.53-.73c.23-2.08.48-4.19.74-6.39.3-2.53.61-5.16.92-8,.09-.79.22-1.63.35-2.5s.27-1.7.36-2.54a11.12,11.12,0,0,0,.07-3.35c0-.17-.06-.26-.8-.64-2.09-1-3.15-3.37-2.85-6.4a9.19,9.19,0,0,1,1.52-4.36c2.16-2.69,6.88-2.55,11.64-1.76l1.71.29c4.3.74,12.29,2.38,11.55,9.1,0,0-.14.85-.14.85a6.35,6.35,0,0,1-5.41,5.68c-.34,1.74-.68,3.89-1,5.64-.42,2.63-.63,3.94-1,6.56-.28,1.77-.65,3.64-1,5.46s-.68,3.44-.92,5a.17.17,0,0,0,0,.07c2.46,2,3.5,3.39,2.85,7.21-.61,3.65-2.63,5.79-5.5,5.94C234.83,103.24,232.29,102.87,227.65,102.11Z" fill="#ffcd21"></path><path d="M236.47,53.84c6.87,1.18,9.88,2.83,9.49,6.55l-.12.74c-.48,2.94-2,3.72-4.23,4.12a1.3,1.3,0,0,0-1,1c-.36,1.87-.72,4.28-1,6.22l-1,6.56c-.51,3.42-1.38,7.25-1.86,10.47a1.91,1.91,0,0,0,.65,2c2.14,1.66,2.72,2.27,2.24,5.21-.35,2.14-1.34,4.07-3.56,4.19a59.21,59.21,0,0,1-8.09-1c-5.77-1-7.88-1.65-7.41-6.1.17-1.55.48-3.23,1.89-3.78,1.7-.66,2.66-1.27,2.82-2.06.54-4.58,1.17-9.36,1.8-14.74.19-1.55.54-3.35.74-5a13.9,13.9,0,0,0,0-4.11c-.25-1.06-.92-1.57-2-2.14-1.32-.66-1.74-2.29-1.54-4.18a6.77,6.77,0,0,1,1.09-3.27c1.56-2,6-1.56,9.43-1l1.7.29m.59-4.33-1.72-.29c-3.43-.58-10.61-1.6-13.9,2.59a10.87,10.87,0,0,0-1.9,5.4c-.48,5.17,2.22,7.48,3.78,8.4,0,.41,0,1-.13,2s-.21,1.63-.33,2.45-.26,1.75-.35,2.59c-.29,2.8-.58,5.43-.87,8-.2,1.79-.39,3.54-.58,5.25l-.3.12c-4,1.58-4.35,5.78-4.5,7.35-.86,9.3,6.64,10.24,11.11,11,4.84.8,7.43,1.17,9,1.09,3.86-.2,6.66-3,7.47-7.67.78-4.4-.51-6.61-2.59-8.49.21-1.17.47-2.42.73-3.72.37-1.83.76-3.72,1.06-5.53.43-2.62.65-3.93,1.08-6.54.22-1.34.48-2.91.74-4.34a8.28,8.28,0,0,0,5.69-6.93c.05-.3.08-.44.13-.74a1.85,1.85,0,0,0,0-.23c1-8.78-9.23-10.91-13.62-11.66Z" fill="#45413c"></path><path d="M261.61,109.88c-8.13-2.44-9.14-9.45-10.27-16.36-.06-.42-.09-.63-.16-1a189,189,0,0,1-2.51-30.71,2.07,2.07,0,0,1,0-.35c.74-3.77,4.42-5.54,9.33-4.33,4.31,1.06,7.85,3.84,9,7l0,.13a33.84,33.84,0,0,1,.77,8.06c0,1.62.07,3.3.18,4.73l.2,2.66c.16,2.08.28,3.88.4,5.46a45.82,45.82,0,0,0,3.29-4.77l.06-.1c2.26-3.34,3.4-5,5.72-8.28,3.45-5.15,7.61-6.86,12.51-5.08,7.4,2.69,7.77,7.39,6.77,10.67-1.38,4.53-5.44,9.08-9,13l-.35.39c-1,1.12-2,2.28-3,3.44-7.81,9.15-14.64,18-22.4,15.69Z" fill="#ffcd21"></path><path d="M289.58,68.94c3.86,1.4,6.28,3.65,5.1,7.72-1.32,4.3-5.43,8.89-8.48,12.34l-.33.38c-5.41,6.58-13.1,19.5-23.12,18.58l-.64-.19c-6.75-2-7.51-7.53-8.62-14.5-.05-.4-.08-.61-.14-1A192,192,0,0,1,251,62c.63-3.11,3.89-3.41,6.59-2.75,3.21.79,6.24,2.86,7.15,5.35.88,3,.59,8.35.94,12.38.38,4.52.59,7.68.83,10.35.1.8.38,1.73.79,1.85,1.27.39,5.27-5.41,6.57-7.61,2.27-3.31,3.42-5,5.75-8.23,3.26-4.8,6.56-5.59,9.93-4.37m1.19-4.17c-6-2.18-11.15-.16-15.12,5.83-2.13,3.06-3.19,4.6-5.26,7.7,0-.52-.05-.79-.09-1.31-.11-1.37-.13-3-.15-4.59a35,35,0,0,0-.81-8.6,2.14,2.14,0,0,0-.09-.27c-1.4-3.94-5.56-7.3-10.8-8.59-6.26-1.54-11.13,1-12.08,5.93a5.38,5.38,0,0,0-.07.69A198.84,198.84,0,0,0,249,92.75c.05.39.08.58.14,1v.07c1.24,7.29,2.43,15.38,11.91,18.22l.63.19c10.67,2.22,18.93-9.1,24.66-16.27q1.47-1.73,3-3.41l.33-.35c3.71-4.12,7.91-8.8,9.49-13.7l0-.06c1.76-5.82-1.37-11.06-8.45-13.63Z" fill="#45413c"></path><path d="M301.65,125.63c-6.86-3.29-11.45-7.33-12.93-11.78-1.94-5.84.21-14.73,1.69-19.51C293,86,298.34,76.61,305.8,75.57c4-.56,10.71.9,16.51,3.74,8.65,4.25,12.23,10,10,15.17a6.59,6.59,0,0,1-1.19,2c-3,3-8.14.53-12.71-1.57-2.5-1.15-6.3-2.82-6.95-1.93a6.37,6.37,0,0,0-.62,1.25l1.38.65c4.25,2.1,10,5.17,8,10.09-2.84,6.89-9.59,4.39-14.32,2.65a2,2,0,0,0,1,2.22c.43.3,2.25,1.27,3.05,1.66,1.17.58,2.35,1,3.59,1.48a30.84,30.84,0,0,1,3.81,1.62,7.12,7.12,0,0,1,3.31,9C318,129.67,311,130.11,301.65,125.63Z" fill="#ffcd21"></path><path d="M321.53,81.32c5.3,2.6,10.7,7,8.58,12a5.73,5.73,0,0,1-.79,1.46c-3.92,4.14-16.62-7.62-19.81-3.22a9.25,9.25,0,0,0-1,2,10,10,0,0,0-.5,1.82l3.13,1.46c4.3,2.12,8.13,4.08,6.9,7.11-2.4,5.94-8.72,2.6-13.71.89l-.3.82c-.69,1.89-.84,4.37,1.67,6.08a37.87,37.87,0,0,0,3.36,1.84c2.53,1.25,5,1.85,7.35,3.07a4.69,4.69,0,0,1,2.15,6c-2.74,6.36-11,3.52-16.18,1.05C296,120.56,292,117,290.74,113.26c-1.43-4.37-.22-11.66,1.82-18.06,2.59-8.12,7.66-16.52,13.91-17.38,3.2-.43,9.2.62,15.06,3.5m1.56-4c-6.34-3.11-13.45-4.6-18-4-10.57,1.51-15.55,15.88-16.86,20.18-1.54,5-3.71,14.48-1.55,20.93,1.75,5.21,6.63,9.59,14.18,13.21,10.47,5,18.47,4.33,21.68-2.87a9.53,9.53,0,0,0-4.47-12.14c-.77-.4-1.53-.74-2.27-1,2.58-.44,5-1.93,6.45-5.48a7.46,7.46,0,0,0-1.21-7.61c4.09,1.7,8.63,2.93,11.8-.24a7.93,7.93,0,0,0,1.59-2.58c1.05-2.36,3.45-11.1-11.37-18.38Z" fill="#45413c"></path><path d="M327.55,140.15c-2.93-1.8-5-6-3.36-9.57a6.65,6.65,0,0,1,6.75-3.83c-.06-.09-.11-.19-.17-.29-2.91-5.43-.53-11.84,2.26-18,.63-1.38,1.32-2.81,2-4.29s1.56-3.23,2.34-4.94c.4-1,.59-1.52,1-2.53.17-.38.36-.84.54-1.28s.37-.93.5-1.21l.28-.6a7.63,7.63,0,0,1,1.2-1.89,1.42,1.42,0,0,1,.29-.26c2-1.42,5-1.09,8.37,1A23.2,23.2,0,0,1,356,98.42a12.84,12.84,0,0,1,2.28,9.84,19.72,19.72,0,0,1-2.13,5.83c-3.48,6.48-10.32,13.28-14.05,15.13a11.17,11.17,0,0,1-4.15,1.22,7.27,7.27,0,0,1,1.17,7.91C337,142.4,332.26,143.05,327.55,140.15Z" fill="#ffcd21"></path><path d="M348.65,94.42a18.75,18.75,0,0,1,5.45,5,9.81,9.81,0,0,1,1.83,8,17.52,17.52,0,0,1-1.9,5.29c-3.42,6.48-10.06,12.89-13.13,14.43-2,1-4.36,1.59-6.32.37a4.85,4.85,0,0,1-1.92-2c-2.23-4.13-.5-9.45,2.46-15.84,1.31-2.83,2.9-5.88,4.44-9.19.41-1,.62-1.57,1-2.61.28-.6.77-1.85,1-2.39l.28-.6a5.49,5.49,0,0,1,.93-1.45c1.42-1,3.65-.38,5.82,1m-14.24,35.69c2.49,1.56,4.06,4.46,2.76,7-1.79,3.47-5.61,3-8.69,1.13-1.83-1.12-3.5-4-2.35-6.51a4.9,4.9,0,0,1,5.47-2.64,7.14,7.14,0,0,1,2.81,1m16.1-39.54c-4.28-2.62-8.3-2.95-10.93-1a3.69,3.69,0,0,0-.58.53,9.21,9.21,0,0,0-1.47,2.34l-.27.61c-.13.29-.33.78-.53,1.27s-.34.85-.46,1.13a1.08,1.08,0,0,0-.08.19l-1,2.53c-.75,1.66-1.51,3.27-2.25,4.83s-1.4,2.93-2,4.34c-2.46,5.51-4.79,11.73-3.13,17.44a8.25,8.25,0,0,0-5.57,4.72c-2.14,4.72.56,10.27,4.37,12.62,5.7,3.5,11.7,2.6,14.38-2.45a8.91,8.91,0,0,0,.29-7.51,15.87,15.87,0,0,0,1.93-.8c4-2,11.18-8.86,15-15.81a21.52,21.52,0,0,0,2.37-6.42,14.82,14.82,0,0,0-2.73-11.71,24.65,24.65,0,0,0-7.31-6.81Z" fill="#45413c"></path><path d="M226.09,204.75c-30.09-22-33.87-26.22-4.71-29.5-20.38-6.92-24.67-6.64,2-30-32,18-34,14.76-32.31-6.36-9.46,18.79-13.81,16.48-29.94-13.63,8.82,34.08,6.82,36.7-12.93,28.15,15.71,17.66,9.7,19.41-21.37,25.22,31.82,4,36.93,4.23,20.57,22.86,22.61-11.44,23.46-2.92,19.58,26.26,11.35-30,18.74-28.82,33.14-7.35C191.59,195.11,191.46,189.11,226.09,204.75Z" fill="#ffe500"></path></g></svg>