<svg xmlns="http://www.w3.org/2000/svg" version="1.1" xmlns:xlink="http://www.w3.org/1999/xlink" xmlns:svgjs="http://svgjs.com/svgjs" viewBox="0 0 48 48" width="48" height="48"><title>Exported from Streamline App (https://app.streamlineicons.com)</title><g transform="matrix(0.12972972972972974,0,0,0.12972972972972974,0,0)"><path d="M281.91,130.71c2.07,14.93-.49,25-3.15,35.17,7.77-5.3,20.74-11,35.91-34.5,0,0,40.53.72,42.84.82,1.48-33.2,2.47-53-.08-93.36-103.22-1.33-241,.57-344.22,3.35.06,2.19-.84,47.21.68,88.32Z" fill="#ffffff" stroke="#45413c" stroke-linejoin="round" stroke-width="4"></path><path d="M49.41,98.23h.24c1.21,0,2.59-.34,2.57-1.67,0-2.35-4-2.54-9.71-7.1a12.35,12.35,0,0,1-4.18-9.29c-.11-6.82,5.66-12.46,13-12.58,6.28-.09,11.58,3,11.66,8,0,2.35-1.51,3.76-4,3.92h-.3c-1.75,0-4.23-.36-5.8-.34h-.3c-1.27.08-2.29.57-2.27,1.48a2.39,2.39,0,0,0,1,1.49C54.76,85.23,65,89,65.07,96.18c.14,9.11-6.19,13.2-14.7,13.63h-.91c-4.34.07-9.85-1-11.82-3.5a6.39,6.39,0,0,1-1.39-3.9,5.9,5.9,0,0,1,2.1-5,3.87,3.87,0,0,1,2.22-.82C42.62,96.58,46.93,98.27,49.41,98.23Z" fill="#ff512e"></path><path d="M81.67,83.67c3.92,0,7.42,0,7.47,2.91.09,5.79-5.89,5.76-10.35,6.31v.79c0,1.81.66,3.91,3.21,4.3a29.61,29.61,0,0,0,3.26.13c2.41,0,4.58-.62,6.81-.65a3.73,3.73,0,0,1,3.74,3.81c.1,6.27-7.61,7.66-12.68,7.74-6.28.09-10.83-1.41-12.92-4-2.46-3.1-3.47-9.61-3.56-15.65-.12-7.66,1.62-16.38,6-19.41,2.27-1.54,7-2.94,12-3,4.59-.07,9.8,1.06,9.87,5.95a5.91,5.91,0,0,1-.1,1.51C93,79.39,80,75.19,78.83,80a9.7,9.7,0,0,0-.15,2,10.69,10.69,0,0,0,.15,1.69Z" fill="#ff512e"></path><path d="M124.61,108.43c-6.1.1-10.83-9.25-14.32-12.46a20.76,20.76,0,0,1,.3,3.56c.06,3.92-.15,6.16-1,7.5s-2.93,2.1-4.92,2.13c-3.56,0-5.45-1.31-5.63-4.68-.51-9.53-.7-14.6-.75-17.8,0-2.36,0-3.56,0-4.53l0-1.69c.14-3,.22-5.8,2.58-9.28,3-4.33,8.92-4.66,11.7-4.7,9.53-.15,15.33,3.93,15.89,12.49v.91c.11,7.3-5,10.58-7.5,11.1-.36.13-1,.2-1,.38s.19.3.25.36,1.66,2,2.28,2.8c1.72,2.33,4.11,4.77,5.29,6.56a8.07,8.07,0,0,1,1.45,4.08c0,1.87-1.52,3.1-4.42,3.27ZM113.12,75.34a4.46,4.46,0,0,0-3.13,1l.11,7.12a7.2,7.2,0,0,0,1.63.22c3.14,0,5.48-1.54,5.43-4.8A3.83,3.83,0,0,0,113.12,75.34Z" fill="#ff512e"></path><path d="M145.58,82l.09,5.92c.05,3.07-.14,6.58-.1,9.48,0,1,.39,1.44.88,1.67,2.12,1.06,2.73,1.47,2.77,4.13,0,1.93-.54,3.81-2.53,4.32a47,47,0,0,1-7.47.48c-5.38.08-7.37-.31-7.43-4.3,0-1.38.07-2.89,1.27-3.58,1.44-.8,2.21-1.48,2.26-2.2-.06-4.11-.07-8.4-.14-13.22,0-1.39.07-3,0-4.53a12.72,12.72,0,0,0-.42-3.62c-.31-.9-.92-1.25-1.89-1.6-1.16-.4-1.66-1.78-1.69-3.47a6.68,6.68,0,0,1,.56-3c1.06-2,4.62-2.19,7.45-2.23l1.39,0c5.61-.09,8.22.72,8.45,4v.66a4,4,0,0,1-2.83,4.39,1.21,1.21,0,0,0-.7,1.1C145.52,78.11,145.55,80.28,145.58,82Z" fill="#ff512e"></path><path d="M186.28,86.54c.16,10.44-4.87,20.9-17.3,21.09-13.16.2-17.95-9-18.13-20.91-.18-11.41,6-20.8,17.61-21a16.61,16.61,0,0,1,14.73,7.81C185.54,77.2,186.21,82.14,186.28,86.54ZM168.75,77c-4.65.07-5.9,5-5.83,9.75.06,3.68,1.53,9.33,5.88,9.26,4.95-.07,6-5.52,6-9.63C174.85,80.86,173.46,76.9,168.75,77Z" fill="#ff512e"></path><path d="M204.87,93.74c3,0,3.37-4.88,3.57-7.36.31-3.2.14-10.68.76-13.47.68-3.09,1.86-4.92,5.3-5,2.53,0,3.76,1.57,4.7,3.61,1.56,3.42,1.74,11.08,1.78,13.86a28.32,28.32,0,0,1-2.7,12.66c-2.23,4.08-6.5,9.15-13.69,9.26-10.14.16-14.07-8.18-15.15-15.65a101.84,101.84,0,0,1-.86-12.78,49.21,49.21,0,0,1,.31-7.43c.54-4,4.26-6,7.82-6.1.48,0,1.09,0,1.57.1,3.15.62,4.05,4.22,4.1,7.78.06,3.81-.34,9.25-.13,15.16C202.25,91.91,203.48,93.76,204.87,93.74Z" fill="#ff512e"></path><path d="M235.57,95.39h.24c1.21,0,2.59-.34,2.57-1.67,0-2.35-4-2.53-9.71-7.09a12.38,12.38,0,0,1-4.19-9.3c-.1-6.82,5.67-12.46,13-12.57,6.28-.1,11.58,3,11.66,8,0,2.36-1.52,3.77-4,3.93h-.3c-1.75,0-4.23-.36-5.8-.33h-.3c-1.27.08-2.29.58-2.27,1.48a2.43,2.43,0,0,0,1,1.5c3.43,3.09,13.63,6.85,13.74,14,.14,9.11-6.2,13.19-14.7,13.62l-.91,0c-4.34.06-9.85-1-11.82-3.5a6.44,6.44,0,0,1-1.39-3.91,5.88,5.88,0,0,1,2.1-5,3.94,3.94,0,0,1,2.22-.82C228.78,93.74,233.09,95.42,235.57,95.39Z" fill="#ff512e"></path><path d="M259.43,64.47c3.44,0,6.16.27,6.59,5.1,0,.48.08,1,.09,1.44,0,2.18-.42,12.33-.33,18.12a15.18,15.18,0,0,0,.36,3.8c3.87.72,7.3-.17,10.94,1,1.94.63,2.81,1.83,2.84,4.18.12,7.73-4.1,7.91-10.32,8-1.27,0-1.87,0-2.35,0-7.13-.07-11.93-1.93-13-8.61a85.37,85.37,0,0,1-1-11.64,143.79,143.79,0,0,1,1-17.77C254.85,65,258.1,64.5,259.43,64.47Z" fill="#ff512e"></path><path d="M274.65,68.65c0-2.17.85-3.52,2.83-4.09a12.14,12.14,0,0,1,2.95-.41A6.81,6.81,0,0,1,286,66.42c2.71,3.58,4.79,9.23,6.71,12,1.11-1.83,2.17-3.84,3.41-6,2.23-3.9,3.43-8.51,9.52-8.6,2.6,0,4.9.65,4.95,3.61A13,13,0,0,1,309.49,73a109.66,109.66,0,0,1-5.1,10.1c-2.71,4.81-4.23,8-7.11,12.9-3,5.06-5,10.1-10.77,10.19-3,0-4.39-2.71-4.43-5.06v-.61c.18-3.44,3.79-8.63,4.47-11.23L281.07,82c-2.65-3.58-5.49-7.46-6.28-11.85A12.12,12.12,0,0,1,274.65,68.65Z" fill="#ff512e"></path><path d="M323.52,74.79l-.24.24a7.63,7.63,0,0,1-4.91,2.43,4.09,4.09,0,0,1-4.11-4.28,6.93,6.93,0,0,1,.39-2.36c2.48-7.23,8.37-9.37,14.89-9.47,6.69-.1,13.16,4.51,13.27,11.45.14,9.42-8.46,11.12-9.66,16l-.45,1.88a9.1,9.1,0,0,1-.29,1,3.55,3.55,0,0,1-2.86,2,4.12,4.12,0,0,1-.85.07c-2.17,0-4.18-.72-5.1-2.09a2.58,2.58,0,0,1-.51-1.44v-.37c-.08-4.95,2.41-7.94,5.56-11.13l.78-.8c1.12-1.16,2.25-2.75,2.23-4.14a2.43,2.43,0,0,0-2.75-2.25C326.25,71.6,325.36,72.89,323.52,74.79Zm5.16,21.59c2.48,0,4.79,1.37,4.83,4,.06,3.56-3.06,5.18-6.2,5.23-1.87,0-4.31-1.45-4.34-3.92a5.06,5.06,0,0,1,3.19-4.7A6.15,6.15,0,0,1,328.68,96.38Z" fill="#ff512e"></path><path d="M155.79,120.89A88.22,88.22,0,0,0,71.09,270C59.9,281.45,45.56,299.54,40.62,335.5h100.2c-1.65-15.74-2.42-26.25-.11-42.09a88.22,88.22,0,0,0,15.08-172.52Z" fill="#ffffff"></path><path d="M163.56,215c-6.75,23.52,4.92,47.5,26.05,53.57,1,.29,2,.52,3,.71a87.73,87.73,0,0,0,23.59-39.17Z" fill="#e0e0e0"></path><path d="M63.06,186.11c-6.75,23.52,4.92,47.5,26.06,53.57s43.75-8.08,50.5-31.6Z" fill="#e0e0e0"></path><path d="M140.82,335.5c-1.65-15.74-2.42-26.25-.11-42.09A88.21,88.21,0,1,0,71.09,270C59.9,281.45,45.56,299.54,40.62,335.5" fill="none" stroke="#45413c" stroke-linecap="round" stroke-linejoin="round" stroke-width="4"></path><path d="M146.970 120.890 A8.820 8.820 0 1 0 164.610 120.890 A8.820 8.820 0 1 0 146.970 120.890 Z" fill="#ff512e" stroke="#45413c" stroke-linecap="round" stroke-linejoin="round" stroke-width="4"></path><path d="M24.78,152.11l30.64,8.79a88.23,88.23,0,0,1,162.83,60.51L59.61,175.87h0l-38.48-11a6.62,6.62,0,1,1,3.65-12.72Z" fill="#ff866e"></path><path d="M65.15,177.46a96.92,96.92,0,0,1,110.08-43.68,98.25,98.25,0,0,1,14,5.17,88.29,88.29,0,0,0-133.76,22l-30.64-8.79a6.62,6.62,0,1,0-3.65,12.72l38.48,11Z" fill="#ffcabf"></path><path d="M137.85,198.33l1.83-6.36a4.4,4.4,0,0,1,5.45-3l30.73,8.82-3.06,10.59Z" fill="#ff512e"></path><path d="M55.42,160.9l-30.64-8.79a6.62,6.62,0,1,0-3.65,12.72L49.52,173A89.46,89.46,0,0,1,55.42,160.9Z" fill="#ff512e"></path><path d="M24.78,152.11l30.64,8.79a88.23,88.23,0,0,1,162.83,60.51L59.61,175.87h0l-38.48-11a6.62,6.62,0,1,1,3.65-12.72Z" fill="none" stroke="#45413c" stroke-linecap="round" stroke-linejoin="round" stroke-width="4"></path><path d="M175.86,197.77a13.23,13.23,0,1,0-25.43-7.3Z" fill="#e0e0e0" stroke="#45413c" stroke-linecap="round" stroke-linejoin="round" stroke-width="4"></path><path d="M150.43,190.47l-5.3-1.52a4.4,4.4,0,0,0-5.45,3l-1.83,6.36" fill="none" stroke="#45413c" stroke-linecap="round" stroke-linejoin="round" stroke-width="4"></path><path d="M52.47,166.36c.9-1.82,1.87-3.61,2.89-5.35" fill="#ffffff" stroke="#45413c" stroke-linecap="round" stroke-linejoin="round" stroke-width="4"></path><path d="M157.93,234.28c2-7-.5-13.91-5.62-15.38s-10.91,3-12.93,10.06" fill="none" stroke="#45413c" stroke-linecap="round" stroke-linejoin="round" stroke-width="4"></path><path d="M167.19,216a37.49,37.49,0,1,0,72.07,20.69Z" fill="#ffffff" stroke="#45413c" stroke-linecap="round" stroke-linejoin="round" stroke-width="4"></path><path d="M224.73,232.51a4.41,4.41,0,0,0,8.48,2.44Z" fill="#45413c"></path><path d="M67.57,187.39a37.49,37.49,0,0,0,72.07,20.69Z" fill="#ffffff" stroke="#45413c" stroke-linecap="round" stroke-linejoin="round" stroke-width="4"></path><path d="M125.11,203.92a4.41,4.41,0,0,0,8.48,2.43Z" fill="#45413c"></path><path d="M139.64,208.08l4.55,1.31a4.12,4.12,0,0,0,5.09-2.83" fill="none" stroke="#45413c" stroke-linecap="round" stroke-linejoin="round" stroke-width="4"></path><path d="M239.26,236.68l4.55,1.3a4.11,4.11,0,0,0,5.09-2.82" fill="none" stroke="#45413c" stroke-linecap="round" stroke-linejoin="round" stroke-width="4"></path><path d="M167.190 215.990 163.480 214.930" fill="none" stroke="#45413c" stroke-linecap="round" stroke-linejoin="round" stroke-width="4"></path><path d="M67.570 187.390 63.860 186.330" fill="none" stroke="#45413c" stroke-linecap="round" stroke-linejoin="round" stroke-width="4"></path><path d="M67,335.5c.56-11.87,2.61-15.31,6.91-24.23" fill="none" stroke="#45413c" stroke-linecap="round" stroke-linejoin="round" stroke-width="4"></path><path d="M127.74,313c-1.61,8.72-2.27,11.65-2.07,22.5" fill="none" stroke="#45413c" stroke-linecap="round" stroke-linejoin="round" stroke-width="4"></path><path d="M126.87,293.78a87.34,87.34,0,0,0,13.84-.37" fill="none" stroke="#45413c" stroke-linecap="round" stroke-linejoin="round" stroke-width="4"></path><path d="M71.09,270a87.56,87.56,0,0,0,14.46,11" fill="none" stroke="#45413c" stroke-linecap="round" stroke-linejoin="round" stroke-width="4"></path><path d="M98.19,290.58a1.88,1.88,0,0,1,2.63-2.42,38.47,38.47,0,0,0,18.11,5.3,1.87,1.87,0,0,1,1.68,2.62c-1.42,3.31-4.53,8.4-9.88,7.12C104.42,301.68,100.38,295.32,98.19,290.58Z" fill="#e0e0e0"></path></g></svg>