<svg xmlns="http://www.w3.org/2000/svg" version="1.1" xmlns:xlink="http://www.w3.org/1999/xlink" xmlns:svgjs="http://svgjs.com/svgjs" viewBox="0 0 48 48" width="48" height="48"><title>Exported from Streamline App (https://app.streamlineicons.com)</title><g transform="matrix(0.12972972972972974,0,0,0.12972972972972974,0,0)"><path d="M112.91,239.27a.28.28,0,0,1,.1.22.26.26,0,0,1-.11.21l-100,80a2.15,2.15,0,0,1-2.07.3,1.68,1.68,0,0,1-1.14-1.52c0-3.43,0-6.66.06-9.89,0-.49.78-1.06,1.34-1.43,8.1-5.41,16.24-10.78,24.33-16.19,7.38-4.94,14.71-9.94,22.09-14.88q27.45-18.33,54.93-36.64A3.28,3.28,0,0,1,112.91,239.27Z"></path><path d="M9.67,75.94a1.67,1.67,0,0,1,1.06-1.5,2.17,2.17,0,0,1,2,.17l110,72.78a.4.4,0,0,1,.11.58c-1.82-1-3.67-1.95-5.48-3q-24.61-13.81-49.24-27.65c-9.66-5.41-19.38-10.74-29.07-16.12L11.18,85.77a2.61,2.61,0,0,1-1.57-2.61C9.7,80.8,9.68,78.44,9.67,75.94Z"></path><path d="M349.06,33.08a1.92,1.92,0,0,1,1.78,1,1.5,1.5,0,0,1-.38,1.82L244,131.11a.53.53,0,0,1-.64,0c2.58-2.64,5.15-5.27,7.75-7.9l22.38-22.63q19.92-20.13,39.83-40.28c7.91-8,16-15.82,23.63-24A9.22,9.22,0,0,1,345.33,33C346.55,33.08,347.78,33.09,349.06,33.08Z"></path><path d="M270.45,139.38a.44.44,0,0,1-.13-.35.47.47,0,0,1,.22-.32l86.82-53.23a2.13,2.13,0,0,1,2-.12,1.64,1.64,0,0,1,1,1.47c0,2.4,0,4.67-.08,6.93,0,.47-.81,1-1.4,1.35q-24.16,12.09-48.36,24.13-19.29,9.66-38.5,19.41C271.52,138.91,271,139.13,270.45,139.38Z"></path><path d="M34.77,35.8a1.5,1.5,0,0,1-.33-1.8,1.93,1.93,0,0,1,1.74-1c2.34,0,4.5,0,6.66.05a2.89,2.89,0,0,1,1.82.86q19.25,21.4,38.41,42.85,13.85,15.48,27.68,31c.23.26.45.54.66.82a.46.46,0,0,1-.13.66Z"></path><path d="M360.38,294.58a1.67,1.67,0,0,1-1.07,1.5,2.19,2.19,0,0,1-2-.19l-77.66-52.52a.34.34,0,0,1-.1-.47c1.9,1,3.81,1.93,5.68,2.95q23.12,12.54,46.2,25.11,14,7.64,28,15.34a2,2,0,0,1,.94,1.39C360.39,289.94,360.39,292.19,360.38,294.58Z"></path><path d="M26.86,337.24a1.94,1.94,0,0,1-1.76-1,1.51,1.51,0,0,1,.37-1.8l101.76-92.94a.56.56,0,0,1,.7,0l-6,5.94c-7.79,7.69-15.61,15.36-23.38,23.08q-18.53,18.38-37,36.8c-7.28,7.22-14.63,14.39-21.93,21.6-2.38,2.36-4.65,4.82-7.1,7.12a5,5,0,0,1-2.76,1.14C28.82,337.22,27.87,337.24,26.86,337.24Z"></path><path d="M9.7,45.65a1.69,1.69,0,0,1,1.17-1.52,2.13,2.13,0,0,1,2.07.33l103.18,85.77a.38.38,0,0,1,0,.58c-2.36-1.79-4.73-3.57-7.08-5.36-10.74-8.23-21.44-16.48-32.2-24.68C64.52,91.37,52.11,82,39.76,72.63,30.33,65.45,21,58.2,11.55,51c-1.34-1-2.1-2-1.94-3.65A16.09,16.09,0,0,0,9.7,45.65Z"></path><path d="M203.23,33.14a2.06,2.06,0,0,1,1.44.56,1.54,1.54,0,0,1,.46,1.31q-6.34,43.68-12.64,87.1a.45.45,0,0,1-.5.35q2.41-43.81,4.83-87.74a1.81,1.81,0,0,1,1.91-1.58Z"></path><path d="M238.71,257.07A.46.46,0,0,1,239,257a.45.45,0,0,1,.28.16l60.33,77.45a1.49,1.49,0,0,1,.11,1.71,2,2,0,0,1-1.68.89c-1.71,0-3.3,0-4.88-.08-.59,0-1.3-.76-1.68-1.31-5.19-7.72-10.31-15.47-15.49-23.19Q265.52,297,255,281.39l-16-23.7A2.55,2.55,0,0,1,238.71,257.07Z"></path><path d="M127.65,336a1.91,1.91,0,0,1-1.83,1.17h-4.68a2,2,0,0,1-1.59-.74,1.5,1.5,0,0,1-.18-1.57L152.25,266a.63.63,0,0,1,.73-.29Q140.34,300.78,127.65,336Z"></path><path d="M333.12,334.46a1.5,1.5,0,0,1,.31,1.79,1.94,1.94,0,0,1-1.75,1c-.94,0-1.85,0-2.76-.09a3.71,3.71,0,0,1-2.09-1.21c-4.79-5.17-9.51-10.39-14.28-15.57Q297.49,304,282.4,287.66c-7.36-8-14.66-16-22-24.07a.22.22,0,0,1,0-.34.32.32,0,0,1,.4,0Z"></path><path d="M217.09,111.73a.28.28,0,0,1-.23-.35c.72-2.17,1.39-4.34,2.18-6.48,2.15-5.82,4.35-11.61,6.56-17.41,2.29-6,4.63-12.07,6.91-18.11q5.22-13.86,10.39-27.74c.88-2.36,1.73-4.73,2.64-7.08A2,2,0,0,1,248,33a19.31,19.31,0,0,0,2.43.09,2,2,0,0,1,1.6.72,1.46,1.46,0,0,1,.2,1.56Z"></path><path d="M95.07,337.18a2,2,0,0,1-1.66-.83,1.46,1.46,0,0,1,0-1.66c13.69-21,27.2-41.68,40.7-62.37a.46.46,0,0,1,.56-.14c-2.56,4.73-5.11,9.46-7.69,14.19L109.91,317.7c-3.29,6-6.61,12.07-9.88,18.12a2.31,2.31,0,0,1-2.48,1.41C96.74,337.18,95.93,337.17,95.07,337.18Z"></path><path d="M9.71,151.4a1.58,1.58,0,0,1,.74-1.31,2.11,2.11,0,0,1,1.65-.3l76.27,16.73a.47.47,0,0,1,.39.53l-6.54-1q-8.46-1.32-16.93-2.64c-5.38-.86-10.74-1.76-16.11-2.61-6.79-1.06-13.58-2.07-20.36-3.15-5.24-.84-10.47-1.78-15.7-2.66-1.07-.18-2.14-.29-3.21-.46-.08,0-.19-.19-.19-.29C9.71,153.32,9.71,152.4,9.71,151.4Z"></path><path d="M360.4,265a1.6,1.6,0,0,1-1,1.12,2,2,0,0,1-1.61-.05L275.53,226.9a.47.47,0,0,1-.24-.66c2,.8,3.93,1.59,5.87,2.42q22.35,9.59,44.69,19.18,15.94,6.82,31.95,13.55C359.67,262.17,360.83,263.05,360.4,265Z"></path><path d="M88.94,141.91a.61.61,0,0,1-.71.25c-.69-.23-1.39-.45-2-.73L39.67,121.52c-9.65-4.13-19.3-8.23-28.93-12.39a1.82,1.82,0,0,1-1-1.16c0-.39-.06-.79-.07-1.2a1.64,1.64,0,0,1,.92-1.45,2.14,2.14,0,0,1,1.91,0Z"></path><path d="M282.92,193.9a.32.32,0,0,1,.35-.27l75.14,3.28a1.8,1.8,0,0,1,1.82,1.67V200a1.56,1.56,0,0,1-.64,1.24,2.09,2.09,0,0,1-1.5.41Z"></path><path d="M12.46,285.73a2,2,0,0,1-1.84.12,1.53,1.53,0,0,1-1-1.37c0-4,0-4,4-6q18.69-9.28,37.35-18.6a1,1,0,0,1,1.18.25.71.71,0,0,1-.23,1Z"></path><path d="M12,214.56a2.16,2.16,0,0,1-1.59-.35,1.61,1.61,0,0,1-.7-1.29v-.19a1.75,1.75,0,0,1,1.63-1.64l82.17-11a.43.43,0,0,1,.51.31Z"></path><path d="M218.22,335.2a1.51,1.51,0,0,1-.36,1.35,2,2,0,0,1-1.41.64l-.29,0c-1.34.13-1.66-.37-1.85-1.5-.94-5.47-2.08-10.91-3.09-16.37-.9-4.87-1.72-9.76-2.58-14.64q-1.51-8.65-3-17.3-1.42-8.14-2.89-16.27c-.24-1.34-.52-2.67-.8-4a.56.56,0,0,1,.5-.63Z"></path><path d="M10.6,259.82a.71.71,0,0,1-.62,0,.58.58,0,0,1-.32-.47c-.1-3.16-.07-3.1,3.36-4.38,9.23-3.43,18.42-6.94,27.65-10.38q17.82-6.65,35.68-13.23a.29.29,0,0,1,.36.12.24.24,0,0,1-.13.32Z"></path><path d="M351.23,334.49a1,1,0,0,1,0,1.48,1.33,1.33,0,0,1-1.71,0l-.2-.18c-5.53-5.3-11.15-10.53-16.8-15.72-9.46-8.69-19-17.32-28.44-26q-13-11.91-25.92-23.9a.26.26,0,0,1,0-.4.36.36,0,0,1,.46,0Z"></path><path d="M357.55,114.29a2.17,2.17,0,0,1,2,.16,1.56,1.56,0,0,1,.73,1.63c-.24,1.18-1.12,1.5-3.49,2.38q-12,4.42-23.87,9L299.9,140a.29.29,0,0,1-.36-.12.22.22,0,0,1,.13-.31Z"></path><path d="M147.1,78.66a.45.45,0,0,1-.52-.24c-6-14.32-12-28.64-18-43.07a1.52,1.52,0,0,1,.23-1.53,2,2,0,0,1,1.57-.71h1.14a1.89,1.89,0,0,1,1.85,1.23Q140.2,56.44,147.1,78.66Z"></path><path d="M195.25,335.36a1.54,1.54,0,0,1-.51,1.25,2,2,0,0,1-1.4.53,1.48,1.48,0,0,1-1.56-1.33q-.69-29-1.38-58a.31.31,0,0,1,.32-.3C192.23,296.73,193.73,316,195.25,335.36Z"></path><path d="M358.11,157.87a2.1,2.1,0,0,1,1.57.34,1.57,1.57,0,0,1,.69,1.28c0,1.13-.58,1.25-2.58,1.53-6.22.85-12.45,1.62-18.67,2.45-4.18.56-8.36,1.2-12.55,1.75-4.87.64-9.76,1.2-14.63,1.84-4.54.59-9.08,1.25-13.61,1.87a.26.26,0,0,1-.31-.19.23.23,0,0,1,.21-.27Z"></path><path d="M307.65,33.06a2,2,0,0,1,1.92.8,1.48,1.48,0,0,1-.12,1.85c-9.4,10.84-18.55,21.4-27.71,31.95a.38.38,0,0,1-.43.1,2.82,2.82,0,0,1,.29-.83q12-16.47,24.14-32.91A3.1,3.1,0,0,1,307.65,33.06Z"></path><path d="M106.73,92.08a.58.58,0,0,1-.38.1A.56.56,0,0,1,106,92L56.07,33.9a.84.84,0,0,1,0-1.14c.89.44,2.07.69,2.62,1.34C68,45.24,77.29,56.43,86.57,67.61l19,22.85C106,91,106.34,91.54,106.73,92.08Z"></path><path d="M282.18,336.85A1.1,1.1,0,0,1,281,337a3,3,0,0,1-1.27-.87c-3.57-5.77-7-11.61-10.57-17.38-4.7-7.62-9.49-15.19-14.23-22.79-1-1.57-1.93-3.16-2.89-4.74a.45.45,0,0,1,0-.39.52.52,0,0,1,.29-.29Z"></path><path d="M241.2,335.71a.79.79,0,0,1-.59,1,1,1,0,0,1-1.16-.5,1,1,0,0,1,0-.16c-2.34-7-4.78-14-7.24-21-2.71-7.66-5.47-15.31-8.2-23a.28.28,0,0,1,.22-.36.34.34,0,0,1,.42.19Z"></path><path d="M180.52,80.19a.33.33,0,0,1-.35-.29q-1.5-22.85-3-45.71a.8.8,0,0,1,.81-.79.83.83,0,0,1,.91.71.62.62,0,0,0,0,.13c.37,10.09.81,20.18,1.19,30.28.18,4.6.28,9.2.42,13.8C180.53,78.94,180.52,79.56,180.52,80.19Z"></path><path d="M46.18,191.1a.42.42,0,0,1,.46.38.41.41,0,0,1-.42.4l-35.48,1.76a.83.83,0,0,1-.89-.66c-.1-.78.12-.79,1.28-.83C22.82,191.79,34.5,191.38,46.18,191.1Z"></path><path d="M303.7,175a.33.33,0,0,1,.07-.3.48.48,0,0,1,.31-.17c2.74-.32,5.48-.68,8.24-.95,5.79-.57,11.59-1,17.38-1.63s11.43-1.28,17.14-1.9c4-.44,8-.88,12-1.25a1.15,1.15,0,0,1,.32,0,.58.58,0,0,1,.49.59.6.6,0,0,1-.57.52q-6.94.72-13.91,1.35-15.13,1.38-30.29,2.73Z"></path><path d="M61.92,154.47a.41.41,0,0,1-.21.29.5.5,0,0,1-.38.05c-2.24-.53-4.47-1.05-6.7-1.6L27.39,146.6c-5.19-1.26-10.41-2.47-15.58-3.8a10.52,10.52,0,0,1-1.47-.32.62.62,0,0,1-.39-.82.78.78,0,0,1,.91-.4Z"></path><path d="M61,212.69a.33.33,0,0,1-.28.37l-50,11.14a1.19,1.19,0,0,1-1.16-.37c.42-.34.79-.9,1.28-1,6.32-1.31,12.66-2.51,19-3.81,6.17-1.28,12.32-2.63,18.49-4,3.71-.79,7.41-1.6,11.12-2.37A8.43,8.43,0,0,1,61,212.69Z"></path><path d="M173,335.53a1.82,1.82,0,0,1-1.92,1.59,1.32,1.32,0,0,1-.92-.37,1,1,0,0,1-.29-.86c1.36-8.14,2.71-16.18,4-24.21a.33.33,0,0,1,.35-.25Z"></path><path d="M360.05,126.28a.88.88,0,0,1-.13,1.2,1.68,1.68,0,0,1-.59.37q-16.9,5.7-33.83,11.35-3.44,1.14-6.88,2.24a.34.34,0,0,1-.42-.17.27.27,0,0,1,.18-.36Z"></path><path d="M88,97.43a.27.27,0,0,1,.36,0l10.84,9.41a.25.25,0,0,1,.08.18.25.25,0,0,1-.08.17c-2.29-1.87-4.61-3.7-6.83-5.62C90.81,100.25,89.42,98.81,88,97.43Z"></path><path d="M225.24,66.51a20.35,20.35,0,0,1-.35,2.94c-.13.51-.29,1-.47,1.51a.27.27,0,0,1-.33.15.24.24,0,0,1-.19-.28l1.35-4.26A.13.13,0,0,0,225.24,66.51Z"></path><path d="M71.2,197h0l6.23-.55a.79.79,0,0,1,.5.14.54.54,0,0,1,.23.41Z"></path><path d="M272.91,113.57a.17.17,0,0,0,.19,0l4-4a.66.66,0,0,1,.41-.17.65.65,0,0,1,.43.16Z"></path><path d="M117.43,316.73c9.58,2.14,20.32,1.4,32-3.29-2.73,10.16-5.67,9-8.43,20.41h76.16c-.77-9.92-1.63-7.17-2.47-16,10.27,5.1,20.08,6.75,29.18,5.8,24.89-2.59,53.64-38.07,36.23-47.18s-20.15,23.09-38.54,25c-5.11.54-13.76-2.45-22.46-7.71a78.5,78.5,0,1,0-66.82-7.35c-11.44,6.58-23.77,10-30,8.58-18.05-4-17.05-36.32-35.4-29.28S93,311.28,117.43,316.73Z" fill="#ffffff"></path><path d="M143.48,159a78.6,78.6,0,0,0-27.87,70.53A38,38,0,0,0,143.48,159Z" fill="#e0e0e0"></path><path d="M263.59,184.18a78.51,78.51,0,0,0-142.93,6l119.85,52.61Z" fill="#e0e0e0"></path><path d="M217.19,333.85c-.77-9.92-1.63-7.17-2.47-16,10.27,5.1,20.08,6.75,29.18,5.8,24.89-2.59,53.64-38.07,36.23-47.18s-20.15,23.09-38.54,25c-5.11.54-13.76-2.45-22.46-7.71a78.5,78.5,0,1,0-66.82-7.35c-11.44,6.58-23.77,10-30,8.58-18.05-4-17.05-36.32-35.4-29.28s6.12,45.59,30.54,51c9.58,2.14,20.32,1.4,32-3.29-2.73,10.16-5.79,15-8.43,20.41" fill="none" stroke="#45413c" stroke-linecap="round" stroke-linejoin="round" stroke-width="3"></path><path d="M181.530 233.320 A37.970 37.970 0 1 0 257.470 233.320 A37.970 37.970 0 1 0 181.530 233.320 Z" fill="#e0e0e0"></path><path d="M219.280 148.600 A7.850 7.850 0 1 0 234.980 148.600 A7.850 7.850 0 1 0 219.280 148.600 Z" fill="#ff512e" stroke="#45413c" stroke-linecap="round" stroke-linejoin="round" stroke-width="3"></path><path d="M296.24,246.54,270.6,234.38A78.52,78.52,0,0,0,126.27,179L259,241.92h0l32.19,15.26a5.89,5.89,0,0,0,5.05-10.64Z" fill="#ff866e"></path><path d="M193.53,210.87l2.53-5.32a3.93,3.93,0,0,0-1.87-5.23l-25.71-12.19-3.88,9Z" fill="#ff512e"></path><path d="M296.24,246.54,270.6,234.38a78.53,78.53,0,0,0-105.09-88.2,78.56,78.56,0,0,1,79.06,88.9L259,241.92l32.19,15.26a5.89,5.89,0,0,0,5.05-10.64Z" fill="#ffcabf"></path><path d="M296.24,246.54,270.6,234.38c0-.21.07-.43.11-.65a79.31,79.31,0,0,1-1.94,8.1c-.41,1.38-.86,2.74-1.34,4.08l23.76,11.27a5.89,5.89,0,0,0,5.05-10.64Z" fill="#ff512e"></path><path d="M296.24,246.54,270.6,234.38A78.52,78.52,0,0,0,126.27,179L259,241.92h0l32.19,15.26a5.89,5.89,0,0,0,5.05-10.64Z" fill="none" stroke="#45413c" stroke-linecap="round" stroke-linejoin="round" stroke-width="3"></path><path d="M168.48,188.13a11.78,11.78,0,1,1,21.28,10.09Z" fill="#e0e0e0" stroke="#45413c" stroke-linecap="round" stroke-linejoin="round" stroke-width="3"></path><path d="M269.36,239.77c.47-1.76.87-3.52,1.22-5.28" fill="#ffffff" stroke="#45413c" stroke-linecap="round" stroke-linejoin="round" stroke-width="3"></path><path d="M189.76,198.22l4.43,2.1a3.93,3.93,0,0,1,1.87,5.23l-2.53,5.32" fill="none" stroke="#45413c" stroke-linecap="round" stroke-linejoin="round" stroke-width="3"></path><path d="M157.36,220.08c-4.4,9.27-6.45,17.5,2.09,21.56s13.63-2.75,18-12Z" fill="#ffa694" stroke="#45413c" stroke-linecap="round" stroke-linejoin="round" stroke-width="3"></path><path d="M150.32,162.34c-.85-.5-1.72-1-2.62-1.39a33.36,33.36,0,1,0,15.85,44.44,32.86,32.86,0,0,0,1.79-4.64Z" fill="#ffffff" stroke="#45413c" stroke-linecap="round" stroke-linejoin="round" stroke-width="3"></path><path d="M125.970 175.570 A3.930 3.930 0 1 0 133.830 175.570 A3.930 3.930 0 1 0 125.970 175.570 Z" fill="#45413c"></path><path d="M231.05,200.48c-.6-.29-1.2-.55-1.81-.79l-40.72,13.14a34.68,34.68,0,0,0-1.92,3.5,33.36,33.36,0,1,0,44.45-15.85Z" fill="#ffffff" stroke="#45413c" stroke-linecap="round" stroke-linejoin="round" stroke-width="3"></path><path d="M209.320 215.100 A3.930 3.930 0 1 0 217.180 215.100 A3.930 3.930 0 1 0 209.320 215.100 Z" fill="#45413c"></path><path d="M146.380 152.270 167.980 207.500" fill="none" stroke="#45413c" stroke-linecap="round" stroke-linejoin="round" stroke-width="3"></path><path d="M239.420 196.400 183.000 214.620" fill="none" stroke="#45413c" stroke-linecap="round" stroke-linejoin="round" stroke-width="3"></path><path d="M214.72,317.82c-.38-4-.75-7.79-1.11-11.36" fill="none" stroke="#45413c" stroke-linecap="round" stroke-linejoin="round" stroke-width="3"></path><path d="M152,304q-1.24,4.53-2.58,9.49" fill="none" stroke="#45413c" stroke-linecap="round" stroke-linejoin="round" stroke-width="3"></path><path d="M167.53,295.24a3.67,3.67,0,0,1,4.81-4.7,49.71,49.71,0,0,0,23.8,3,3.67,3.67,0,0,1,3.73,5.12c-2.43,5.53-7.39,12.74-16.5,11.57C174.53,309.14,169.88,301.48,167.53,295.24Z" fill="#e0e0e0"></path><path d="M80.45,93.62C68.12,95.75,57.13,87.2,54.69,75.29c-2.69-13.12,5.89-25.11,19-27.53l.43-.07c1.9-.33,8.53-1.15,13.79,1.48,3.44,1.71,5.2,3.88,5.58,6.77.58,4.37-2.22,7.75-6.94,8.49a13.21,13.21,0,0,1-3.9-.05c-.6-.08-1.2-.2-1.81-.31a11,11,0,0,0-4-.27c-5.77,1-5.89,5.61-5.45,8.25a6.09,6.09,0,0,0,6.72,5.16l.41-.07a10.12,10.12,0,0,0,5.47-3,11.35,11.35,0,0,1,6-3.25,10.25,10.25,0,0,1,1.79-.17,5.86,5.86,0,0,1,5.82,5.07,11.18,11.18,0,0,1,0,2.71C96.62,86.21,88.22,92.25,80.45,93.62Z" fill="#45413c"></path><path d="M74.43,49.9C78,49.28,83,49.36,86.6,51.15c2.66,1.32,4.1,2.9,4.4,5.14.41,3-1.23,5.36-4.81,5.92a10.26,10.26,0,0,1-3.13-.06c-2.07-.28-4.15-1-6.61-.56C69.29,62.82,68.27,68.46,69,72.5a8.33,8.33,0,0,0,9.37,6.93l.5-.07c6-1.06,7.07-5.61,11.39-6.27A9.38,9.38,0,0,1,91.53,73a3.58,3.58,0,0,1,3.61,3.17,8.53,8.53,0,0,1,0,2.15c-.72,7-8.78,12-15.07,13.14-11.11,1.9-20.87-5.89-23-16.62A20.84,20.84,0,0,1,74.07,50l.36-.06m-.7-4.43-.45.09c-7.67,1.49-14,5.62-17.72,11.47A25.61,25.61,0,0,0,52.3,75.8c2.79,13.14,15,22.39,28.51,20,8.63-1.52,18.09-8.2,19.1-17.2a12.62,12.62,0,0,0,0-3.19,8,8,0,0,0-8-7,11.56,11.56,0,0,0-2.31.19,13.76,13.76,0,0,0-7.27,3.87c-1.56,1.37-2.45,2.11-4.2,2.41l-.31,0c-2.38.33-3.81-1.76-4.07-3.36-.8-4.87,2.14-5.39,3.4-5.61a8.84,8.84,0,0,1,3.06.27c.62.11,1.26.23,2,.33a15.68,15.68,0,0,0,4.67,0c6-1,9.79-5.44,9.07-11-.46-3.58-2.65-6.35-6.75-8.4-6-3-13.31-2.08-15.42-1.72Z" fill="#45413c"></path><path d="M117.89,88.72C104.17,90.31,95.6,81,93.7,68s6.47-24.52,19.6-25.85c7.86-.79,15,2,19.32,7.42,2.57,3.24,4.13,8,4.58,14C138.1,75.74,130.8,87.47,117.89,88.72ZM115,57.86c-1.55.17-4,1.44-3.35,8,.3,2.78,1.8,7.06,4.57,6.75,1.55-.17,4-1.43,3.56-7.86-.31-4.06-1.34-5.69-2.17-6.31A3.33,3.33,0,0,0,115,57.86Z" fill="#45413c"></path><path d="M113.53,44.37c7.32-.8,13.46,1.91,17.06,6.51,2.84,3.49,3.86,8.42,4.19,12.86,1,11-5.37,21.68-17.11,22.76-12.28,2-20.59-7.38-21.57-18.85-1.73-11.52,5.43-22.21,17.43-23.28m3,30.42c5.32-.6,6.06-6.16,5.74-10.3-.37-5.54-2.21-9.42-7.42-8.85s-6.06,5.67-5.53,10.46c.41,3.7,2.53,9.2,7.21,8.69m-3.4-34.87c-14.74.74-23.33,14.87-21.79,28.43,2.07,14.34,11.9,24.27,26.83,22.6,14.27-2,22.08-13.78,21.49-27.57-.42-6.43-2.08-11.54-5-15.16-4.81-6.16-12.73-9.26-21.55-8.3Zm3,30.42c-.55-.32-1.67-2.21-1.94-4.8a10.57,10.57,0,0,1,.37-4.75c.27-.65.4-.66.79-.7a1.51,1.51,0,0,1,.81,0s1,.82,1.33,4.76a11,11,0,0,1-.42,4.59c-.32.79-.53.81-.94.86Z" fill="#45413c"></path><path d="M178.18,84.73c-2.91,0-6.59-1.33-7.74-8.12l0-.09c-.1-1.4-.15-2.1-.26-3.49-1.57,2.72-3.66,5.17-6.83,5.28h-.26c-3.29.12-5.62-1.89-7.38-4.21a22.78,22.78,0,0,1-.28,5.58,7,7,0,0,1-1.75,3.44c-1.51,1.58-3.7,2.43-6.71,2.62-4.69.3-7.24-2.06-7.58-7.09,0-.14,0-.21,0-.36,0-1.18-.07-2.3-.11-3.43-.28-9.06-.57-19.36,1.45-27.16,1.72-6.67,5.95-8,8.32-8.07a10.23,10.23,0,0,1,5.81,1.57c2.85,1.68,4.82,6.15,6.63,10.48.43,1,1,2.36,1.49,3.43.29-.71.58-1.51.83-2.2,1.73-4.67,4.22-11.19,9.77-12.61a8.8,8.8,0,0,1,2.25-.29,9.31,9.31,0,0,1,7.4,3.61c2.56,3.44,2.86,7.17,3.25,11.8.06.69.12,1.4.19,2.14.53,5.88.84,10.11.83,14.71,0,1.89-.12,4-.35,6.61,0,.14,0,.21,0,.35l-.15.33C185.52,82.73,182.17,84.68,178.18,84.73Z" fill="#45413c"></path><path d="M149.13,41.87a7.17,7.17,0,0,1,4.28,1.19c4.33,2.48,7.1,15.9,9.62,15.81,2.85-.09,3.92-14.45,11.23-16.43a7,7,0,0,1,1.56-.2,6.75,6.75,0,0,1,5.32,2.64c2.52,3.46,2.52,7.35,3.06,12.87.55,6,.87,10,.87,14.52,0,2.06-.13,4.19-.32,6.43-1.16,2.61-4,3.77-6.6,3.8-3.39,0-4.79-2.73-5.37-6.24-.31-4.4-.47-6.59-.8-11-1.7,0-3.87,10.65-8.72,10.82H163c-4.92.17-7.31-7.14-9.32-9.54-.66,1.43-.55,3.81-.43,6.36a27.22,27.22,0,0,1-.15,6.34,4.9,4.9,0,0,1-1.17,2.38c-1,1.09-2.68,1.73-5.11,1.89-3.14.19-4.82-.9-5.09-5l0-.36c-.23-9.63-.88-21.44,1.38-29.94.88-3.41,2.77-6.15,6-6.32m-.23-4.46c-2.48.13-8.51,1.39-10.63,9.85-2.1,8.09-1.73,18.52-1.41,27.72,0,1.13.08,2.24.11,3.33a.22.22,0,0,0,0,.08v.09c0,.15,0,.22,0,.36.61,8.53,6.57,9.36,10.06,9.14s6.4-1.35,8.32-3.36a9.3,9.3,0,0,0,2.32-4.43v-.06c.07-.29.12-.58.17-.88a9.68,9.68,0,0,0,5.26,1.3h.25a8.57,8.57,0,0,0,5.08-1.87c.93,3.4,3.35,8.35,9.72,8.28,4.94,0,9.1-2.52,10.9-6.51l.29-.65c0-.28,0-.42.07-.71.25-2.68.37-4.83.38-6.79,0-4.67-.28-8.92-.78-14.87-.07-.76-.13-1.47-.18-2.14-.39-4.76-.72-8.87-3.58-12.82l0,0,0,0a11.8,11.8,0,0,0-9.48-4.59,12.24,12.24,0,0,0-2.78.35l-.09,0-.08,0c-5.35,1.45-8.14,6.09-10,10.5-1.68-3.89-3.6-7.57-6.62-9.34a12.48,12.48,0,0,0-7.3-1.93Z" fill="#45413c"></path><path d="M205.18,85.41c-7.28-.25-12.74-2.12-15.42-5.44-3.48-4.33-4-12.62-4-17.17,0-7.93,2.15-17.72,8.28-21.19,3.3-1.87,9.38-3,15.08-2.77,12.24.51,13.25,6.53,13.12,9a6.44,6.44,0,0,1-.38,2.22c-1.68,3.79-7.07,3.74-11.43,3.69-1.94,0-6,0-6.21.74a5.61,5.61,0,0,0-.14.93l1.08,0c4.38.22,10.37.59,10.15,5.69-.3,6.82-7,7.46-11.5,7.71a1.32,1.32,0,0,0,1.2,1c.48.09,2.33.24,3.13.27a35.29,35.29,0,0,0,3.55-.12,32.53,32.53,0,0,1,3.85-.09,6.2,6.2,0,0,1,6,6.45C221.24,82.52,215.12,85.75,205.18,85.41Z" fill="#45413c"></path><path d="M209,41.06c5.17.21,11,1.76,10.72,6.66a5.49,5.49,0,0,1-.21,1.5c-2,4.92-16.25-.13-17.7,4.68a8.43,8.43,0,0,0-.25,2,9.17,9.17,0,0,0,.09,1.7l3.13.1c4.32.21,8.17.4,8.05,3.36-.23,5.81-6.72,5.4-11.59,5.75l0,.79c0,1.82.56,4,3.28,4.47.65.14,2.86.28,3.51.31,2.61.1,5-.34,7.38-.21a3.9,3.9,0,0,1,3.78,4.09c-.32,6.28-8.58,7.12-13.95,6.93-6.67-.23-11.44-1.87-13.61-4.56-2.55-3.19-3.5-9.75-3.48-15.82,0-7.71,2.14-16.45,7.21-19.32C198,42,203.31,40.82,209,41.06m.14-4.44c-6.26-.26-12.76,1-16.5,3.1-8.79,5-9.36,18.94-9.34,23.07,0,4.84.65,13.67,4.56,18.51,3.18,3.94,9.11,6,17.22,6.33,11.2.39,18.41-3.69,18.83-11.08a8.48,8.48,0,0,0-8.32-8.82l-.73,0a9.11,9.11,0,0,0,2.82-6.4,6.48,6.48,0,0,0-2.37-5.41c3.61-.32,7.26-1.38,8.79-5a7.77,7.77,0,0,0,.56-2.91c.14-2.47-.56-10.79-15.52-11.41Z" fill="#45413c"></path><path d="M263.22,90.12c-7.44-1-7-9.63-6.75-13.81,0-.48.06-1,.07-1.45a6.61,6.61,0,0,0-1.24-.26,7,7,0,0,0-1.06,0q-.13.42-.27.9c-.15.51-.31,1-.51,1.6s-.33.93-.5,1.44c-1.21,3.65-3.2,9.73-9.24,9.13a7.7,7.7,0,0,1-5.24-2.76c-2.24-2.68-2.7-7-2.37-10a103.78,103.78,0,0,1,2.95-14.56c.29-1,.56-2.07.81-3,2-7.46,6.18-16.16,18.39-14.52,14.74,2,16.61,17,15.95,29.27,0,.77,0,1.72-.06,2.72a48.54,48.54,0,0,1-.28,6C273,87.43,269,90.89,263.22,90.12ZM256,61.64c.14,0,.33.06.6.09l.33,0a5.08,5.08,0,0,0,.66,0,2.78,2.78,0,0,0,.08-.47,10,10,0,0,0-.38-3.75A8.55,8.55,0,0,0,256,61.22,4.06,4.06,0,0,0,256,61.64Z" fill="#45413c"></path><path d="M258,45c13.6,1.47,14.59,16.35,13.77,26.93-.12,2,.09,5.55-.29,8.48-.54,4.19-2.55,8.25-8,7.53-6.94-.92-4-12.37-4.65-14.28-.4-.59-1.87-1.08-3.3-1.25s-3,0-3.21.49c-.51,1.15-.68,2.17-1.12,3.39-1.26,3.45-2.49,9.61-7.28,9.14-5-.51-6-6.82-5.44-10.23.45-5.72,2.41-12.1,3.77-17.31C244.47,49.71,248.2,43.82,258,45m-1.69,18.94.33,0c2.18.26,3.15-.1,3.4-2.32s-.36-6.68-2.5-6.93c-1.81-.22-3.71,3.27-4,6.22-.22,2.22.66,2.74,2.77,3m2.14-23.34c-16.17-1.93-19.69,11.23-21,16.12-.26,1-.53,2-.8,3.06a85.31,85.31,0,0,0-3,14.87c-.44,3.27.08,8.19,2.92,11.58a10.14,10.14,0,0,0,6.88,3.61c6.13.6,9-3.87,10.61-7.65a19.75,19.75,0,0,0,.38,2.15c1.55,6.44,6.41,7.72,8.44,8,7.11.94,12.19-3.29,13.27-11.21a48.56,48.56,0,0,0,.32-6.22c0-1,0-1.88.06-2.52V72.2c.16-6,.34-12.82-1.55-18.57-3.12-9.42-10.77-12.35-16.59-13Z" fill="#45413c"></path><path d="M289.84,94.63c-2.53-.46-5.95-1.95-7.27-4.74l-.21-.45V89a73,73,0,0,1,.88-8.8c.36-2.47.82-5,1.28-7.4s1-4.85,1.4-7c.05-.23.1-.46.14-.69-1.18-.27-2.55-.6-3.61-.9A11.23,11.23,0,0,1,278,62c-1.89-1.38-2.72-4.46-2.22-8.31.71-5.47,4.93-7.34,8.79-6.72,3.44.56,5.16.85,8.59,1.45,4.34.76,8.2,1.54,10.76,2.07l2.92.6c8.25,1.63,11.84,5.61,10.69,11.58s-8.61,5.39-13.54,5.08l-.34,0c-.52,3.22-1.06,7.38-1.58,11.4-.41,3.22-.8,6.11-1.28,8.9-.09.49-.19,1-.3,1.5s-.19.93-.27,1.38c-.05.27-.07.41-.12.68l-.51.47A11.09,11.09,0,0,1,289.84,94.63Z" fill="#45413c"></path><path d="M292.79,50.59c6.53,1.14,11.89,2.32,13.63,2.66,5.51,1.09,9.69,3.34,8.64,8.89-.91,4.83-8.19,3.42-13.55,3.25-.05.33-.08.5-.14.83-.57,3.38-1.17,8.1-1.72,12.52-.37,2.92-.76,6-1.24,8.81-.17,1-.4,2-.56,2.89a8.71,8.71,0,0,1-7.66,2c-2.15-.39-4.63-1.6-5.47-3.39a69.29,69.29,0,0,1,.88-8.52q.56-3.66,1.29-7.29c.69-3.66,1.5-7.25,2-9.78-.72-.19-3.88-.84-5.83-1.4a8.32,8.32,0,0,1-3.56-1.72c-.87-.56-1.81-2.66-1.32-6.3.51-3.82,3.06-5.38,6-4.9,3.42.55,5.13.84,8.56,1.44m.67-4.36c-3.45-.61-5.17-.9-8.62-1.45-6-1-10.8,2.58-11.56,8.54-.58,4.67.56,8.38,3.12,10.31a13.71,13.71,0,0,0,5.48,2.68l1.35.36c-.36,1.76-.74,3.66-1.09,5.62-.49,2.47-.91,5-1.27,7.47a74.75,74.75,0,0,0-.86,9.09c0,.39,0,.59,0,1l.43.9c1.72,3.62,5.8,5.49,9.07,6.07a13.44,13.44,0,0,0,11.75-3.15l1-1c.09-.54.14-.81.24-1.35s.17-.87.26-1.31.22-1.06.31-1.57c.51-2.84.91-5.75,1.33-9s.88-6.59,1.32-9.43c5.21.26,12.82.12,14.19-6.87.82-4.16.27-11.7-12.74-14.28-.59-.11-1.58-.32-2.9-.6-2.57-.53-6.45-1.31-10.82-2.08Z" fill="#45413c"></path><path d="M123.22,150c-2.63.31-6.09-.69-7.77-7.37l0-.09c-.23-1.39-.34-2.08-.57-3.47-1.17,2.87-2.83,5.53-5.69,5.94l-.23,0c-3,.43-5.28-1.36-7.09-3.52a26.16,26.16,0,0,1,.29,5.61,7.45,7.45,0,0,1-1.26,3.6c-1.21,1.73-3.12,2.78-5.83,3.25-4.21.72-6.75-1.4-7.56-6.4l-.06-.36c-.14-1.17-.29-2.28-.43-3.41-1.15-9-2.43-19.3-1.35-27.28.92-6.83,4.65-8.49,6.8-8.84a8.67,8.67,0,0,1,5.45,1c2.74,1.41,5,5.69,7,9.86.49,1,1.12,2.26,1.68,3.28.2-.74.39-1.57.55-2.28,1.13-4.84,2.78-11.59,7.69-13.54a7.5,7.5,0,0,1,2-.52,8.16,8.16,0,0,1,7.06,2.89c2.65,3.2,3.26,6.9,4,11.49.11.68.24,1.38.37,2.12,1,5.84,1.69,10,2.1,14.62.17,1.9.26,4,.29,6.65,0,.14,0,.22,0,.36a3.38,3.38,0,0,0-.11.34A8.56,8.56,0,0,1,123.22,150Z" fill="#45413c"></path><path d="M92.77,109.94a6.16,6.16,0,0,1,4,.79c4.18,2.07,8,15.22,10.26,14.9,2.58-.36,2.2-14.82,8.66-17.5a5.42,5.42,0,0,1,1.4-.35,5.87,5.87,0,0,1,5.08,2.12c2.62,3.21,3,7.1,4,12.57,1,5.9,1.71,9.94,2.13,14.43.19,2.06.27,4.2.3,6.47a6.45,6.45,0,0,1-5.61,4.44c-3.07.36-4.59-2.27-5.45-5.73l-1.75-10.91c-1.55.2-2.51,11-6.89,11.65l-.24,0c-4.44.64-7.3-6.44-9.37-8.65-.46,1.49-.12,3.85.23,6.39A29.94,29.94,0,0,1,100,147a5.2,5.2,0,0,1-.84,2.49,6.43,6.43,0,0,1-4.44,2.35c-2.82.49-4.45-.46-5.1-4.56,0-.15,0-.22-.06-.36-1.43-9.66-2.79-20.29-1.67-30.05.46-3.49,1.92-6.41,4.88-6.88m-.64-4.43c-2.25.36-7.63,2.18-8.73,10.83-1.12,8.27.25,18.66,1.45,27.82.15,1.13.29,2.24.43,3.32v.17c0,.14,0,.21.06.36,1.4,8.47,6.88,8.75,10,8.21a10.58,10.58,0,0,0,7.2-4.13,9.7,9.7,0,0,0,1.67-4.64v-.07c0-.29,0-.59.06-.89a8.09,8.09,0,0,0,4.89.8l.23,0a7.43,7.43,0,0,0,4.42-2.35c1.16,3.31,3.83,8,9.58,7.34a10.74,10.74,0,0,0,9.25-7.57l.2-.68v-.71c0-2.71-.11-4.87-.28-6.83-.4-4.68-1.07-8.9-2.07-14.8-.13-.76-.25-1.46-.36-2.13-.79-4.71-1.47-8.79-4.44-12.46l0,0,0,0a10.3,10.3,0,0,0-9-3.67,10.51,10.51,0,0,0-2.5.62l-.07,0-.08,0c-4.73,2-6.83,6.87-8.1,11.45-1.9-3.73-4-7.23-6.92-8.72a10.66,10.66,0,0,0-6.84-1.23Z" fill="#45413c"></path><path d="M147.68,148.05c-6.6.48-11.71-.85-14.43-3.91-3.54-4-4.8-12.22-5.22-16.78-.72-7.93.32-17.92,5.57-22,2.84-2.2,8.27-4,13.47-4.29,11.18-.73,12.62,5.17,12.72,7.69a7.09,7.09,0,0,1-.16,2.26c-1.19,4-6.08,4.47-10,4.86-1.76.18-5.42.57-5.57,1.37a6.42,6.42,0,0,0,0,1l1-.07c4-.23,9.46-.46,9.71,4.66.33,6.84-5.66,8.16-9.73,8.88a1.2,1.2,0,0,0,1.18.87,28.35,28.35,0,0,0,2.85,0,27.61,27.61,0,0,0,3.21-.47,26.85,26.85,0,0,1,3.47-.49,5.84,5.84,0,0,1,6,5.83C161.93,143.51,156.68,147.39,147.68,148.05Z" fill="#45413c"></path><path d="M147.2,103.3c4.72-.31,10.12.64,10.33,5.57a6,6,0,0,1-.05,1.52c-1.38,5.12-14.77,1.52-15.66,6.48a10.07,10.07,0,0,0,0,2,10.42,10.42,0,0,0,.24,1.69l2.84-.21c3.94-.23,7.45-.43,7.6,2.54.31,5.84-5.61,6.09-10,6.92,0,.32,0,.48.06.79.12,1.83.86,3.9,3.37,4.14a28.44,28.44,0,0,0,3.2,0c2.37-.16,4.47-.84,6.66-1a3.66,3.66,0,0,1,3.77,3.7c.27,6.32-7.11,8-12,8.36-6,.44-10.5-.72-12.71-3.21-2.6-2.93-4.07-9.4-4.6-15.47-.68-7.71.43-16.66,4.77-20,2.23-1.72,7-3.46,12.2-3.8m-.26-4.46c-5.72.38-11.52,2.28-14.73,4.76-7.54,5.88-6.76,19.87-6.37,24,.46,4.83,1.86,13.6,5.84,18.06,3.24,3.63,8.79,5.15,16.14,4.61,10.14-.74,16.29-5.57,16-13a8,8,0,0,0-8.3-8l-.67,0a9.78,9.78,0,0,0,2-6.68,6.68,6.68,0,0,0-2.63-5.18c3.25-.68,6.46-2.12,7.54-5.86a8.82,8.82,0,0,0,.26-3c-.09-2.48-1.46-10.71-15.11-9.82Z" fill="#45413c"></path><path d="M193,147.29c-5.24-.06-11.25-.47-15.81-3.81-2.78-2-2.86-5.26-2.89-7.17-.13-7-.19-10.53-.32-17.56,0-1-.05-2-.08-3s-.06-1.6-.07-2.32a19,19,0,0,1,.6-5.87,10.61,10.61,0,0,1,4.24-5.64,16.88,16.88,0,0,1,9.19-2.37c9.22,0,15.75,5.75,15.54,13.29a11.38,11.38,0,0,1-.85,4.05c7.13,1.73,11.64,7.58,11.25,14.86C213.3,141,204.48,147.4,193,147.29Zm-3.39-14.56a12.14,12.14,0,0,0,2.56.33c2.41,0,4.31-1.15,4.34-2.69,0-.7,0-2.16-3.38-2.2a11.4,11.4,0,0,0-3.49.48C189.62,130.28,189.61,131.1,189.6,132.73Zm-.54-18.63a2.3,2.3,0,0,0,.54-1.35,1.18,1.18,0,0,0-.11-.57h-.09a1.57,1.57,0,0,0-.33,0C189.06,113,189.06,113.34,189.06,114.1Z" fill="#45413c"></path><path d="M187.84,101.81c7.29,0,13.47,4.16,13.3,11a8.58,8.58,0,0,1-2.32,5.82c8.36.37,13.09,6.09,12.8,13-.46,8-8.32,13.48-18.6,13.37-5.06-.05-10.5-.45-14.62-3.42-1.83-1.36-1.92-3.49-2-5.37l-.25-17.56c0-2-.12-3.77-.14-5.28a17.59,17.59,0,0,1,.54-5.24,8.41,8.41,0,0,1,3.29-4.35,14.62,14.62,0,0,1,8-2m.25,15.06c2.13,0,3.73-2.16,3.75-4.11,0-1.63-.89-2.8-2.43-2.81a3.09,3.09,0,0,0-2.59,1.15v5.52a2.55,2.55,0,0,0,1.28.25m4,18.41c3.78,0,6.48-2.14,6.54-4.87.07-2.91-2-4.42-5.54-4.46-1.85,0-4.38.33-5.7,1.36,0,2.72,0,4.08,0,6.79.77.86,3.42,1.17,4.72,1.18m-4.28-37.92a19.11,19.11,0,0,0-10.43,2.73,12.7,12.7,0,0,0-5.14,6.78l0,.07,0,.07a22.06,22.06,0,0,0-.66,6.51c0,.73,0,1.52.08,2.36s.07,1.88.09,2.93l.38,17.56c0,2,.15,6.19,3.77,8.9l0,0,0,0c5.12,3.68,11.45,4.14,17,4.2,10.73.29,22-5.95,23-17.55v-.06a16.09,16.09,0,0,0-10.64-16.45,14.39,14.39,0,0,0,.3-2.5c.28-8.82-7.19-15.54-17.77-15.59Zm3.93,33.1a12.75,12.75,0,0,1,1.3-.07,8.26,8.26,0,0,1,.89.07,3.81,3.81,0,0,1-1.79.38l-.4,0v-.36Z" fill="#45413c"></path><path d="M222.85,148.23c-6.27-.41-7.13-4.77-7.09-7.35.12-8.85.23-14.39.41-17.95.07-1.46.14-2.48.2-3.28,0-.49.06-.89.08-1.25l.09-1.76,0-.24c.34-3.1.68-6.32,3.69-10,2.81-3.47,7.66-5,14.32-4.46,11.42,1,17.43,7,16.91,16.61l-.1,1A13.38,13.38,0,0,1,243,131.07c.24.39.45.73.57.94.62,1.09,1.4,2.25,2.14,3.38a39.06,39.06,0,0,1,2.35,3.88,10.61,10.61,0,0,1,1.13,5.45c-.26,2.47-2.2,5-6.87,4.7l-.32,0c-4.74-.48-8-5.16-10.6-9.4a12.59,12.59,0,0,1-1.75,5.63C228.11,147.74,225.14,148.38,222.85,148.23ZM232.76,119c2.72,0,2.85-1.54,2.91-2.24.07-.92-.93-1.5-1.68-1.56a5,5,0,0,0-1,0C232.93,116.74,232.87,117.5,232.76,119Z" fill="#45413c"></path><path d="M234.4,104.11c9.81.83,15.28,5.68,14.84,14.26,0,.36-.05.54-.09.9-.73,7.27-6.19,9.9-8.68,10.15-.37.08-1,.09-1,.27s.16.32.21.38,1.43,2.14,1.95,3c1.45,2.51,3.51,5.22,4.44,7.14a8.18,8.18,0,0,1,.93,4.23c-.19,1.86-1.82,2.89-4.61,2.73l-.23,0c-5.86-.59-9.53-10.35-12.67-13.87a22.63,22.63,0,0,1,0,3.58c-.28,3.92-.68,6.13-1.59,7.4s-3,1.84-4.9,1.72c-3.43-.23-5.15-1.71-5.09-5.1.16-9.57.31-14.66.47-17.86.13-2.36.25-3.57.3-4.54,0-.67.06-1,.09-1.69.35-3,.6-5.79,3.27-9.08,3.33-4.1,9.51-3.88,12.37-3.64M232,121.2c3.14.26,5.62-1,5.89-4.22a3.9,3.9,0,0,0-3.74-4,4.53,4.53,0,0,0-3.26.71c-.2,2.84-.3,4.27-.51,7.11a7,7,0,0,0,1.62.37m2.73-21.51c-7.48-.63-13,1.2-16.28,5.29s-3.77,7.92-4.12,11.17l0,.18v.26c0,.68,0,1-.07,1.7,0,.35,0,.73-.08,1.2-.05.78-.12,1.84-.19,3.33-.16,3.58-.27,9.15-.35,18-.07,5.67,3.33,9.21,9.1,9.58,3.68.24,6.89-1.06,8.62-3.52a9.1,9.1,0,0,0,1-1.7c2.42,3.18,5.44,6,9.46,6.37l.23,0h.18c4.15.24,8.58-1.68,9.12-6.66a12.5,12.5,0,0,0-1.33-6.69,37.85,37.85,0,0,0-2.47-4.11c-.47-.72-1-1.46-1.4-2.17a14.9,14.9,0,0,0,2.33-1.72,16.08,16.08,0,0,0,5.19-10.5l.09-.9,0-.11v-.1c.95-11.26-8.47-18.52-19-19Z" fill="#45413c"></path><path d="M265.73,152.2c-13-1.44-18-14.29-16.75-25.72,1.29-11.6,10.42-22,23-20.07a19.69,19.69,0,0,1,15.47,11.73c1.55,3.72,1.85,8.67.91,14.52C286.61,143.8,278.05,154.06,265.73,152.2Zm4.32-30.3c-1.4-.2-3.89.41-4.72,6.83-.35,2.73,0,7.2,2.54,7.57,1.4.2,3.88-.4,4.89-6.69.63-4,.08-5.78-.51-6.58A3.05,3.05,0,0,0,270.05,121.9Z" fill="#45413c"></path><path d="M271.72,108.6a17.08,17.08,0,0,1,13.67,10.33c1.74,4,1.54,9,.83,13.33-1.46,10.12-9,19.5-20.2,17.75-11.92-1.26-16.43-12.69-14.84-23.28.85-10.77,9.06-20,20.54-18.13m-4.14,29.89c4.82.71,6.71-4.46,7.36-8.5.9-5.41.14-9.57-4.59-10.27s-6.62,4-7.21,8.7c-.46,3.65.2,9.44,4.44,10.07m4.73-34.27c-13.87-2.16-24.53,8.67-25.52,22-1.25,13.41,4.35,26,18.65,28.14,13.53,2.07,23.18-8.92,25.14-21.32,1.07-6.27.75-11.56-1-15.72-2.88-7-9.22-11.91-17.26-13.12Zm-4.15,29.89c-.4-.43-1-2.52-.64-5.07a11.11,11.11,0,0,1,1.38-4.47c.38-.55.5-.53.86-.48a1.34,1.34,0,0,1,.7.23s.73,1,.12,4.89a11.19,11.19,0,0,1-1.4,4.3c-.45.68-.64.66-1,.6Z" fill="#45413c"></path><path d="M80,90.66c-12.35,2.13-23.41-6.38-25.86-18.32-2.7-13.15,6-25.13,19.06-27.54l.43-.08c1.91-.32,8.57-1.15,13.85,1.48,3.45,1.71,5.22,3.88,5.6,6.76.57,4.37-2.23,7.76-7,8.5a13.28,13.28,0,0,1-3.91-.05c-.61-.08-1.21-.19-1.82-.31a11.09,11.09,0,0,0-4-.27c-5.8,1-5.92,5.62-5.47,8.26a6.08,6.08,0,0,0,6.74,5.15l.41-.06c2.58-.44,3.92-1.64,5.5-3a11.43,11.43,0,0,1,6-3.26,10.43,10.43,0,0,1,1.8-.17,5.87,5.87,0,0,1,5.84,5.07,10.72,10.72,0,0,1,0,2.71C96.23,83.23,87.78,89.29,80,90.66Z" fill="#ffcd21"></path><path d="M74,46.93c3.63-.62,8.63-.54,12.22,1.25,2.67,1.32,4.12,2.9,4.42,5.14.41,3-1.24,5.36-4.84,5.92a10.59,10.59,0,0,1-3.13-.05c-2.09-.29-4.18-1-6.65-.57-7.19,1.24-8.22,6.88-7.53,10.92a8.35,8.35,0,0,0,9.41,6.93l.5-.08c6.08-1,7.1-5.61,11.44-6.27A9.68,9.68,0,0,1,91.12,70a3.59,3.59,0,0,1,3.63,3.16,8.63,8.63,0,0,1,0,2.16c-.72,7-8.83,12-15.14,13.15-11.12,1.9-20.95-5.85-23.11-16.61A20.87,20.87,0,0,1,73.6,47l.36-.07m-.7-4.42-.45.08c-7.7,1.5-14.05,5.64-17.8,11.49a25.57,25.57,0,0,0-3.29,18.77c2.81,13.18,15,22.38,28.61,20,8.67-1.53,18.19-8.21,19.2-17.21a12.7,12.7,0,0,0,0-3.2c-.5-4-3.71-6.79-8-7a11.77,11.77,0,0,0-2.32.19,13.94,13.94,0,0,0-7.3,3.87c-1.43,1.26-2.37,2.1-4.22,2.42l-.31,0c-2.39.33-3.83-1.77-4.09-3.36-.79-4.87,2.16-5.4,3.42-5.61a9.16,9.16,0,0,1,3.08.26c.62.12,1.26.24,1.95.33a16.13,16.13,0,0,0,4.69,0c6.08-1,9.84-5.45,9.12-11.06-.46-3.58-2.66-6.35-6.78-8.4-6-3-13.36-2.07-15.48-1.71Z" fill="#45413c"></path><path d="M117.59,85.74C103.85,87.34,95.21,78,93.3,65S99.86,40.48,113,39.16c7.89-.79,15.06,2,19.39,7.42,2.59,3.23,4.15,8,4.6,14C137.9,72.8,130.52,84.5,117.59,85.74Zm-2.86-30.86c-1.56.17-4.07,1.45-3.37,8,.3,2.77,1.81,7,4.59,6.74,1.55-.17,4.06-1.43,3.57-7.86-.3-4.06-1.34-5.69-2.17-6.31A3.37,3.37,0,0,0,114.73,54.88Z" fill="#ffcd21"></path><path d="M113.22,41.39c7.36-.8,13.52,1.91,17.14,6.5,2.85,3.5,3.88,8.43,4.2,12.87,1,11-5.44,21.69-17.19,22.76-12.3,2-20.68-7.33-21.65-18.85-1.74-11.55,5.49-22.22,17.5-23.28m3,30.42c5.34-.6,6.08-6.16,5.77-10.3-.37-5.54-2.22-9.42-7.45-8.85s-6.09,5.67-5.56,10.46c.41,3.7,2.54,9.21,7.24,8.69m-3.41-34.87C98,37.68,89.34,51.77,90.88,65.38,93,79.77,102.87,89.65,117.82,88c14.29-2,22.18-13.74,21.6-27.58-.43-6.43-2.09-11.54-5-15.16-4.82-6.15-12.77-9.25-21.64-8.29Zm3,30.42c-.54-.32-1.67-2.21-1.93-4.8a10.31,10.31,0,0,1,.37-4.75c.27-.64.4-.66.79-.7a1.51,1.51,0,0,1,.81,0s1,.82,1.33,4.76a10.8,10.8,0,0,1-.42,4.59c-.32.79-.53.81-1,.86Z" fill="#45413c"></path><path d="M178.15,81.74c-2.92,0-6.62-1.32-7.78-8.11v-.1c-.11-1.39-.16-2.09-.27-3.49-1.58,2.72-3.67,5.18-6.86,5.29H163c-3.31.11-5.65-1.89-7.41-4.22a22.87,22.87,0,0,1-.28,5.59,7,7,0,0,1-1.76,3.44c-1.52,1.58-3.72,2.43-6.75,2.62-4.7.29-7.26-2.06-7.6-7.09,0-.15,0-.22,0-.36,0-1.18-.07-2.3-.1-3.44-.28-9.06-.57-19.36,1.46-27.16,1.73-6.67,6-7.94,8.36-8.06a10.25,10.25,0,0,1,5.84,1.56c2.85,1.69,4.83,6.15,6.65,10.49.43,1,1,2.36,1.49,3.43.29-.72.59-1.52.84-2.2,1.74-4.68,4.24-11.2,9.81-12.61a9.27,9.27,0,0,1,9.69,3.32c2.57,3.44,2.87,7.17,3.27,11.8.06.69.12,1.4.19,2.14.53,5.88.84,10.11.83,14.71,0,1.89-.12,4-.35,6.61,0,.14,0,.21,0,.35s-.08.2-.14.33C185.52,79.75,182.16,81.7,178.15,81.74Z" fill="#ffcd21"></path><path d="M149,38.88a7.25,7.25,0,0,1,4.29,1.19c4.35,2.49,7.13,15.9,9.66,15.82,2.87-.09,3.95-14.45,11.28-16.43a7,7,0,0,1,1.57-.2,6.79,6.79,0,0,1,5.34,2.64c2.53,3.46,2.54,7.35,3.08,12.87.54,5.95.87,10,.87,14.52,0,2.06-.13,4.19-.32,6.43-1.16,2.61-4,3.77-6.63,3.8-3.41,0-4.81-2.73-5.39-6.24l-.8-11c-1.72,0-3.89,10.65-8.77,10.81h-.26c-4.94.17-7.33-7.13-9.36-9.53-.66,1.43-.55,3.8-.43,6.35a27.32,27.32,0,0,1-.15,6.35,5,5,0,0,1-1.18,2.38c-1.05,1.09-2.69,1.73-5.13,1.88-3.16.2-4.84-.9-5.11-5,0-.15,0-.22,0-.37-.23-9.63-.88-21.43,1.39-29.93.89-3.41,2.79-6.16,6.07-6.33m-.23-4.45c-2.49.13-8.55,1.39-10.68,9.85C136,52.37,136.33,62.8,136.65,72c0,1.14.07,2.25.11,3.34v.17c0,.14,0,.22,0,.36.61,8.53,6.6,9.36,10.11,9.14s6.43-1.35,8.36-3.36a9.36,9.36,0,0,0,2.33-4.43v-.07c.07-.29.12-.58.17-.88a9.64,9.64,0,0,0,5.28,1.31h.26a8.6,8.6,0,0,0,5.09-1.87c.94,3.39,3.37,8.35,9.77,8.28,5,0,9.14-2.52,11-6.51l.29-.65c0-.28,0-.42.07-.71.25-2.67.37-4.83.38-6.79,0-4.67-.28-8.92-.78-14.87-.07-.76-.13-1.47-.19-2.14-.39-4.76-.72-8.87-3.59-12.82l0,0,0,0a11.86,11.86,0,0,0-9.52-4.59,12.32,12.32,0,0,0-2.79.35l-.09,0-.08,0c-5.37,1.45-8.17,6.09-10,10.49-1.68-3.88-3.61-7.56-6.64-9.34a12.63,12.63,0,0,0-7.33-1.92Z" fill="#45413c"></path><path d="M205.27,82.44c-7.32-.26-12.8-2.13-15.49-5.45-3.49-4.33-4-12.62-4-17.17,0-7.93,2.15-17.72,8.3-21.19,3.32-1.87,9.43-3,15.15-2.77,12.29.52,13.31,6.54,13.18,9a6.34,6.34,0,0,1-.39,2.22c-1.68,3.79-7.09,3.74-11.47,3.69-2,0-6,0-6.24.73a5.79,5.79,0,0,0-.14.94l1.08,0c4.4.21,10.42.59,10.2,5.69-.3,6.82-7,7.45-11.55,7.71a1.32,1.32,0,0,0,1.21,1c.48.1,2.34.24,3.14.27a33,33,0,0,0,3.57-.11,32.7,32.7,0,0,1,3.86-.09,6.21,6.21,0,0,1,6.08,6.45C221.4,79.55,215.25,82.78,205.27,82.44Z" fill="#ffcd21"></path><path d="M209.12,38.08c5.2.22,11,1.77,10.78,6.67a5.9,5.9,0,0,1-.21,1.5c-2,4.92-16.32-.13-17.78,4.68a8.34,8.34,0,0,0-.25,2,9.1,9.1,0,0,0,.09,1.7l3.14.1c4.34.22,8.21.4,8.09,3.37-.23,5.81-6.75,5.4-11.64,5.74l0,.79c0,1.82.56,3.95,3.3,4.47a34.84,34.84,0,0,0,3.52.31c2.62.11,5-.33,7.41-.2a3.9,3.9,0,0,1,3.8,4.09c-.32,6.29-8.61,7.11-14,6.93-6.69-.24-11.48-1.88-13.66-4.57-2.56-3.19-3.52-9.75-3.5-15.82,0-7.71,2.15-16.45,7.24-19.32,2.61-1.46,8-2.67,13.71-2.43m.15-4.44c-6.29-.26-12.81,1-16.57,3.1-8.82,5-9.39,18.94-9.38,23.07,0,4.84.66,13.67,4.58,18.51,3.2,3.94,9.15,6.06,17.3,6.34,11.25.39,18.49-3.69,18.91-11.08a8.5,8.5,0,0,0-8.36-8.82l-.73,0a9.12,9.12,0,0,0,2.83-6.4,6.52,6.52,0,0,0-2.38-5.42c3.63-.31,7.28-1.37,8.83-5a8.14,8.14,0,0,0,.56-2.91c.14-2.47-.57-10.78-15.59-11.42Z" fill="#45413c"></path><path d="M263.57,87.18c-7.47-1-7-9.64-6.79-13.82,0-.48.06-1,.07-1.45a7.89,7.89,0,0,0-1.24-.25,9.12,9.12,0,0,0-1.07-.06q-.14.42-.27.9c-.15.51-.31,1-.52,1.61s-.32.92-.49,1.43c-1.22,3.65-3.21,9.73-9.28,9.13a7.72,7.72,0,0,1-5.26-2.76c-2.25-2.69-2.72-7-2.39-10a103.39,103.39,0,0,1,3-14.55c.29-1,.56-2.08.82-3,2-7.46,6.15-16.13,18.45-14.51,14.93,2,16.71,17,16,29.28-.05.78-.06,1.73-.06,2.73a48.54,48.54,0,0,1-.28,6C273.37,84.5,269.38,88,263.57,87.18Zm-7.3-28.49.61.09.33,0c.3,0,.52,0,.66.06a2.94,2.94,0,0,0,.08-.48,10.26,10.26,0,0,0-.39-3.74,8.69,8.69,0,0,0-1.26,3.61A4.06,4.06,0,0,0,256.27,58.69Z" fill="#ffcd21"></path><path d="M258.33,42C272,43.5,273,58.37,272.18,69c-.13,2.05.09,5.55-.29,8.48-.54,4.18-2.56,8.25-8.06,7.52-7-.93-4-12.38-4.68-14.28-.4-.6-1.87-1.08-3.31-1.25s-3,0-3.23.48c-.51,1.15-.68,2.17-1.12,3.39-1.26,3.45-2.5,9.61-7.31,9.13-5.07-.5-6-6.82-5.47-10.23.45-5.72,2.42-12.1,3.79-17.31,2.22-8.17,6-14.06,15.83-12.88M256.65,61l.33,0c2.18.26,3.16-.1,3.4-2.32S260,52,257.87,51.77c-1.81-.22-3.72,3.27-4,6.22-.22,2.22.67,2.74,2.79,3m2.14-23.34C242.55,35.7,239,48.87,237.72,53.75c-.26,1-.53,2-.8,3.07a84.11,84.11,0,0,0-3,14.86c-.45,3.27.08,8.19,2.93,11.58a10.11,10.11,0,0,0,6.91,3.61c6.16.61,9.07-3.86,10.66-7.64a17.57,17.57,0,0,0,.37,2.15c1.56,6.44,6.45,7.73,8.49,8,7.14.94,12.24-3.28,13.32-11.2A52.49,52.49,0,0,0,277,72c0-1,0-1.88.06-2.52v-.17c.17-6,.34-12.82-1.57-18.57-3.12-9.43-10.81-12.36-16.65-13.06Z" fill="#45413c"></path><path d="M290.31,91.71c-2.55-.45-6-1.95-7.31-4.74-.08-.18-.13-.27-.21-.46V86a73.23,73.23,0,0,1,.87-8.81c.36-2.46.82-5,1.29-7.39s.95-4.86,1.4-7c0-.24.1-.47.14-.69-1.18-.28-2.56-.61-3.63-.9a11.41,11.41,0,0,1-4.5-2.2c-1.9-1.38-2.74-4.46-2.24-8.31.71-5.48,4.95-7.34,8.83-6.72,3.45.56,5.17.85,8.62,1.46,4.36.76,8.24,1.55,10.8,2.08l2.93.61c8.29,1.64,11.9,5.62,10.75,11.59s-8.65,5.38-13.6,5.06l-.33,0c-.53,3.22-1.07,7.38-1.58,11.39-.42,3.22-.8,6.11-1.29,8.9-.08.5-.19,1-.29,1.51s-.2.93-.28,1.38c0,.27-.07.4-.11.67l-.51.48A11.16,11.16,0,0,1,290.31,91.71Z" fill="#ffcd21"></path><path d="M293.24,47.67c6.56,1.15,11.93,2.33,13.69,2.67,5.53,1.1,9.72,3.36,8.68,8.9-.92,4.84-8.23,3.42-13.6,3.24-.06.33-.09.5-.14.83-.58,3.38-1.17,8.1-1.73,12.52-.36,2.93-.75,6-1.24,8.81-.16,1-.39,2-.56,2.9a8.77,8.77,0,0,1-7.68,2c-2.17-.38-4.66-1.6-5.5-3.39a67.39,67.39,0,0,1,.88-8.52q.54-3.66,1.29-7.29c.69-3.66,1.5-7.25,2-9.78-.72-.19-3.89-.84-5.86-1.41a8.2,8.2,0,0,1-3.57-1.72c-.87-.56-1.82-2.66-1.33-6.3.51-3.82,3.07-5.38,6.05-4.9,3.44.55,5.16.84,8.6,1.45m.67-4.36c-3.46-.61-5.19-.9-8.65-1.46-6.08-1-10.85,2.58-11.6,8.54-.59,4.66.56,8.37,3.13,10.31a13.81,13.81,0,0,0,5.5,2.69l1.36.36c-.36,1.75-.74,3.66-1.09,5.61-.49,2.47-.91,5-1.27,7.48a74.56,74.56,0,0,0-.86,9.09c0,.39,0,.58,0,1,.17.36.26.54.43.91,1.73,3.61,5.83,5.49,9.11,6.08a13.56,13.56,0,0,0,11.81-3.15l1-.94c.1-.54.15-.81.24-1.35s.17-.87.27-1.31.22-1.06.31-1.57c.51-2.84.9-5.75,1.33-9s.87-6.58,1.31-9.43c5.23.27,12.88.14,14.25-6.85.81-4.16.26-11.7-12.81-14.29l-2.9-.6c-2.58-.54-6.49-1.33-10.87-2.1Z" fill="#45413c"></path><path d="M122.91,147.05c-2.64.31-6.11-.69-7.8-7.37l0-.09c-.23-1.39-.34-2.08-.57-3.46-1.18,2.87-2.84,5.53-5.72,5.94l-.23,0c-3,.43-5.3-1.36-7.13-3.52a24.93,24.93,0,0,1,.29,5.61,7.45,7.45,0,0,1-1.26,3.6A8.5,8.5,0,0,1,94.61,151c-4.24.73-6.79-1.4-7.6-6.39,0-.14,0-.21-.06-.36-.14-1.17-.29-2.28-.43-3.42-1.15-9-2.42-19.29-1.34-27.28.93-6.83,4.69-8.49,6.84-8.84a8.72,8.72,0,0,1,5.47,1c2.76,1.41,5,5.69,7.07,9.85.49,1,1.12,2.26,1.68,3.29.2-.75.39-1.57.56-2.28,1.13-4.84,2.79-11.6,7.73-13.55a7.89,7.89,0,0,1,2-.52,8.26,8.26,0,0,1,7.1,2.89c2.66,3.2,3.27,6.9,4.06,11.49.11.68.24,1.38.37,2.11,1,5.85,1.7,10,2.1,14.63.17,1.9.26,4,.29,6.65,0,.14,0,.22,0,.36l-.1.34A8.64,8.64,0,0,1,122.91,147.05Z" fill="#ffcd21"></path><path d="M92.34,107a6.21,6.21,0,0,1,4,.79c4.2,2.07,8,15.22,10.3,14.9,2.59-.37,2.21-14.82,8.71-17.51a5.82,5.82,0,0,1,1.41-.35,5.92,5.92,0,0,1,5.1,2.12c2.63,3.21,3,7.1,4,12.57,1,5.9,1.72,9.94,2.13,14.43.19,2.06.27,4.2.31,6.47a6.5,6.5,0,0,1-5.65,4.44c-3.08.36-4.61-2.26-5.47-5.72-.7-4.37-1-6.55-1.76-10.91-1.55.19-2.52,11-6.93,11.65l-.23,0c-4.46.64-7.34-6.44-9.41-8.65-.46,1.49-.13,3.85.23,6.39a30.55,30.55,0,0,1,.47,6.36,5.2,5.2,0,0,1-.84,2.49,6.43,6.43,0,0,1-4.47,2.35c-2.84.49-4.47-.45-5.12-4.56,0-.14,0-.21-.06-.36-1.42-9.65-2.79-20.28-1.66-30.05.47-3.49,1.94-6.4,4.91-6.88m-.63-4.43c-2.26.36-7.67,2.18-8.79,10.83-1.13,8.28.24,18.66,1.44,27.83.15,1.13.29,2.24.43,3.32v.08l0,.09.05.36c1.4,8.46,6.91,8.75,10.07,8.2a10.62,10.62,0,0,0,7.24-4.13,9.71,9.71,0,0,0,1.69-4.64v-.07c0-.29,0-.59.07-.9a8.07,8.07,0,0,0,4.91.81l.23,0a7.55,7.55,0,0,0,4.44-2.36c1.17,3.31,3.84,8,9.62,7.35a10.82,10.82,0,0,0,9.3-7.58c.08-.28.12-.41.21-.68s0-.43,0-.72c0-2.7-.11-4.87-.27-6.82-.4-4.68-1.08-8.9-2.08-14.8-.13-.76-.25-1.46-.36-2.13-.79-4.71-1.47-8.79-4.45-12.46l0,0,0,0a10.37,10.37,0,0,0-9.09-3.67,10.55,10.55,0,0,0-2.52.62l-.07,0-.07,0c-4.76,2-6.88,6.87-8.15,11.45-1.91-3.72-4-7.22-6.94-8.71a10.77,10.77,0,0,0-6.87-1.23Z" fill="#45413c"></path><path d="M147.49,145.06c-6.63.49-11.76-.85-14.49-3.9-3.56-4-4.82-12.22-5.24-16.78-.73-7.93.32-17.92,5.61-22,2.84-2.2,8.3-3.94,13.52-4.28,11.23-.74,12.68,5.17,12.78,7.69a6.73,6.73,0,0,1-.16,2.25c-1.19,4-6.1,4.47-10.09,4.87-1.77.17-5.45.56-5.59,1.36a6,6,0,0,0-.05.95l1-.07c4-.22,9.51-.46,9.75,4.66.34,6.85-5.69,8.17-9.78,8.88a1.24,1.24,0,0,0,1.19.88c.44,0,2.14,0,2.87-.05A26.09,26.09,0,0,0,152,129a27.43,27.43,0,0,1,3.49-.48,5.84,5.84,0,0,1,6.07,5.82C161.81,140.52,156.54,144.4,147.49,145.06Z" fill="#ffcd21"></path><path d="M147,100.31c4.75-.31,10.17.65,10.38,5.57a6.05,6.05,0,0,1-.05,1.53c-1.39,5.12-14.84,1.52-15.73,6.48a9.28,9.28,0,0,0-.05,2,10.42,10.42,0,0,0,.24,1.69l2.86-.22c4-.22,7.48-.43,7.64,2.55.3,5.84-5.65,6.09-10,6.92l0,.79c.13,1.82.87,3.9,3.39,4.14a28.83,28.83,0,0,0,3.22,0c2.37-.16,4.49-.84,6.69-1a3.68,3.68,0,0,1,3.79,3.7c.26,6.33-7.16,8-12.06,8.36-6.06.45-10.55-.72-12.77-3.2-2.61-2.93-4.08-9.4-4.61-15.47-.68-7.72.44-16.66,4.8-20,2.24-1.73,7-3.46,12.25-3.81m-.26-4.45c-5.74.37-11.57,2.27-14.8,4.76-7.57,5.88-6.8,19.87-6.4,24,.46,4.83,1.86,13.6,5.85,18.06,3.26,3.62,8.84,5.15,16.22,4.61,10.19-.75,16.37-5.58,16.11-13a8,8,0,0,0-8.34-8l-.66.05a9.79,9.79,0,0,0,2-6.69,6.64,6.64,0,0,0-2.63-5.17c3.26-.68,6.48-2.12,7.57-5.86a8.84,8.84,0,0,0,.26-3c-.09-2.49-1.46-10.71-15.18-9.82Z" fill="#45413c"></path><path d="M193,144.31c-5.26-.06-11.31-.47-15.89-3.82-2.8-2-2.87-5.26-2.9-7.16l-.32-17.56q0-1.59-.09-3c0-.82-.05-1.6-.06-2.31a18.75,18.75,0,0,1,.6-5.88A10.62,10.62,0,0,1,178.63,99a17,17,0,0,1,9.23-2.37c9.26,0,15.82,5.76,15.61,13.3a11.32,11.32,0,0,1-.85,4c7.16,1.73,11.7,7.59,11.31,14.87C213.44,138.07,204.58,144.43,193,144.31Zm-3.41-14.56a11.63,11.63,0,0,0,2.58.33c2.41,0,4.33-1.15,4.36-2.69,0-.7,0-2.16-3.41-2.2a11.47,11.47,0,0,0-3.5.48C189.64,127.3,189.63,128.12,189.62,129.75Zm-.55-18.63a2.32,2.32,0,0,0,.55-1.35,1.18,1.18,0,0,0-.11-.57h-.1l-.33,0C189.08,110,189.08,110.36,189.07,111.12Z" fill="#ffcd21"></path><path d="M187.85,98.83c7.32,0,13.54,4.16,13.37,11a8.58,8.58,0,0,1-2.34,5.83c8.4.37,13.16,6.08,12.86,13-.46,8-8.35,13.47-18.68,13.36-5.08-.05-10.55-.45-14.7-3.42-1.83-1.37-1.93-3.49-2-5.37l-.26-17.56c0-2-.11-3.77-.13-5.29a17.56,17.56,0,0,1,.54-5.23,8.41,8.41,0,0,1,3.31-4.36,14.81,14.81,0,0,1,8-2m.25,15.06c2.14,0,3.75-2.16,3.77-4.1,0-1.64-.9-2.81-2.44-2.82a3.11,3.11,0,0,0-2.6,1.15v5.52a2.55,2.55,0,0,0,1.28.25m4.07,18.41c3.8,0,6.52-2.14,6.58-4.87.06-2.91-2-4.42-5.57-4.46-1.87,0-4.4.33-5.73,1.36,0,2.72,0,4.08,0,6.8.77.85,3.44,1.16,4.74,1.17m-4.3-37.92a19.3,19.3,0,0,0-10.48,2.73,12.76,12.76,0,0,0-5.16,6.77l0,.07,0,.08a22.09,22.09,0,0,0-.67,6.51c0,.73.05,1.51.08,2.35s.08,1.89.1,2.93c.15,7,.22,10.54.38,17.56,0,2,.14,6.2,3.78,8.9l0,0,0,0c5.14,3.68,11.5,4.14,17.08,4.2,10.74.3,22.09-5.9,23.11-17.53v-.07a16.11,16.11,0,0,0-10.7-16.45,13.59,13.59,0,0,0,.3-2.5c.28-8.82-7.22-15.55-17.85-15.6Zm4,33.1a10.35,10.35,0,0,1,1.29-.06,5.12,5.12,0,0,1,.9.07,3.85,3.85,0,0,1-1.8.37l-.4,0v-.36Z" fill="#45413c"></path><path d="M223,145.26c-6.3-.41-7.17-4.77-7.14-7.35.13-8.85.24-14.4.41-18,.08-1.45.15-2.48.21-3.28,0-.49.06-.88.08-1.25,0-.7.05-1.05.08-1.76l0-.24c.34-3.1.68-6.32,3.7-10,2.82-3.48,7.69-5,14.38-4.46,11.48,1,17.52,7.06,17,16.63,0,.4-.06.6-.11,1a13.34,13.34,0,0,1-8.45,11.54c.25.39.45.73.58.94.63,1.09,1.4,2.25,2.15,3.38a38.56,38.56,0,0,1,2.36,3.88,10.53,10.53,0,0,1,1.14,5.45c-.26,2.47-2.21,5-6.9,4.7l-.32,0c-4.76-.48-8-5.17-10.66-9.41a12.22,12.22,0,0,1-1.76,5.63C228.32,144.78,225.34,145.42,223,145.26Zm9.94-29.2c2.74,0,2.86-1.54,2.92-2.24.07-.92-.93-1.5-1.69-1.56a4.85,4.85,0,0,0-.94,0C233.15,113.78,233.09,114.54,233,116.06Z" fill="#ffcd21"></path><path d="M234.62,101.15c9.86.84,15.36,5.7,14.92,14.27,0,.36,0,.54-.09.9-.73,7.27-6.22,9.9-8.72,10.14-.37.09-1,.09-1,.27s.16.32.21.39,1.44,2.14,2,3c1.45,2.51,3.52,5.22,4.46,7.14a8.12,8.12,0,0,1,.94,4.23c-.19,1.86-1.82,2.89-4.63,2.73l-.23,0c-5.89-.6-9.58-10.36-12.74-13.88a20.47,20.47,0,0,1,0,3.58c-.28,3.92-.68,6.13-1.59,7.4s-3,1.84-4.93,1.71c-3.44-.22-5.17-1.71-5.11-5.1.16-9.57.3-14.66.47-17.86.13-2.36.25-3.57.3-4.53,0-.68,0-1,.09-1.7.34-3,.6-5.79,3.28-9.08,3.34-4.09,9.56-3.87,12.42-3.63m-2.39,17.09c3.15.26,5.64-1,5.91-4.22.19-2.23-1.79-3.8-3.76-4a4.6,4.6,0,0,0-3.27.7c-.2,2.85-.3,4.27-.51,7.12a7,7,0,0,0,1.63.37M235,96.73c-7.51-.63-13,1.2-16.35,5.28s-3.78,7.92-4.13,11.17l0,.18v.26c0,.68-.05,1-.08,1.7,0,.35,0,.73-.07,1.2,0,.78-.13,1.84-.19,3.33-.17,3.58-.27,9.15-.35,18-.07,5.67,3.35,9.21,9.15,9.59,3.7.24,6.92-1.06,8.66-3.52a9.7,9.7,0,0,0,1-1.7c2.44,3.18,5.46,6,9.51,6.38l.23,0h.18c4.17.24,8.62-1.68,9.16-6.66a12.44,12.44,0,0,0-1.34-6.69,38,38,0,0,0-2.48-4.11c-.48-.72-1-1.46-1.41-2.17a15.46,15.46,0,0,0,2.34-1.72,16,16,0,0,0,5.21-10.49c0-.36.05-.54.09-.9l0-.11v-.11c.95-11.29-8.55-18.52-19.07-19Z" fill="#45413c"></path><path d="M266.12,149.27c-13-1.44-18.11-14.26-16.83-25.74,1.29-11.64,10.49-22,23.12-20A19.8,19.8,0,0,1,288,115.23c1.56,3.72,1.86,8.67.93,14.52C287.09,140.93,278.46,151.14,266.12,149.27Zm4.33-30.3c-1.42-.21-3.91.41-4.74,6.82-.35,2.74,0,7.21,2.55,7.58,1.41.21,3.9-.4,4.91-6.68.63-4,.08-5.78-.51-6.59A3.08,3.08,0,0,0,270.45,119Z" fill="#ffcd21"></path><path d="M272.12,105.66A17.23,17.23,0,0,1,285.86,116c1.74,4,1.54,9,.83,13.34-1.46,10.16-9.06,19.49-20.27,17.73-11.94-1.26-16.52-12.66-14.93-23.3.86-10.8,9.13-20,20.63-18.12M268,135.56c4.85.71,6.75-4.46,7.39-8.5.91-5.4.14-9.56-4.62-10.27s-6.64,4-7.23,8.7c-.46,3.65.2,9.44,4.46,10.07m4.74-34.27c-13.89-2.17-24.63,8.6-25.63,22-1.25,13.46,4.43,26,18.75,28.16,13.55,2.09,23.28-8.85,25.25-21.3,1.07-6.26.74-11.56-1-15.72-2.9-7.06-9.27-11.93-17.34-13.14Zm-4.15,29.89c-.41-.44-1-2.52-.65-5.07a11.11,11.11,0,0,1,1.38-4.47c.39-.55.51-.53.86-.48a1.35,1.35,0,0,1,.71.23s.73,1,.12,4.9a11.14,11.14,0,0,1-1.4,4.29c-.46.68-.64.66-1,.6Z" fill="#45413c"></path></g></svg>