<svg xmlns="http://www.w3.org/2000/svg" version="1.1" xmlns:xlink="http://www.w3.org/1999/xlink" xmlns:svgjs="http://svgjs.com/svgjs" viewBox="0 0 48 48" width="48" height="48"><title>Exported from Streamline App (https://app.streamlineicons.com)</title><g transform="matrix(0.12972972972972974,0,0,0.12972972972972974,0,0)"><path d="M283.12,277.3h0a81.76,81.76,0,1,0-117.54-92.52c-.14.55-.27,1.09-.4,1.63L296.9,224.34S298.08,262.58,283.12,277.3Z" fill="#e0e0e0"></path><path d="M169.16,236.14a36.44,36.44,0,1,0,5.16-72.56,81.92,81.92,0,0,0-5.16,72.56Z" fill="#e0e0e0"></path><path d="M233.360 223.580 A38.740 38.740 0 1 0 310.840 223.580 A38.740 38.740 0 1 0 233.360 223.580 Z" fill="#e0e0e0"></path><path d="M260.4,331c.89-7.93,1.92-15.18,3.26-22.27,53.93-7.4,106.63-42.89,90.24-61-16.85-18.64-24.8,20.43-76.57,32.38A81.75,81.75,0,1,0,200.71,274c-63.81-12.84-81.49-54-97.25-35.62-20.25,23.61,47.77,52.81,87.48,61.31-3.23,7.52-6.17,15.59-9,24.4" fill="none" stroke="#45413c" stroke-linecap="round" stroke-linejoin="round" stroke-width="4"></path><path d="M256.910 125.880 A8.180 8.180 0 1 0 273.270 125.880 A8.180 8.180 0 1 0 256.910 125.880 Z" fill="#ff512e" stroke="#45413c" stroke-linecap="round" stroke-linejoin="round" stroke-width="4"></path><path d="M355.2,212.27l-28.63-7.34A81.78,81.78,0,0,0,168,177l148.2,38h0l36,9.21a6.13,6.13,0,1,0,3-11.88Z" fill="#ff866e"></path><path d="M243.12,196.21l1.52-5.94a4.09,4.09,0,0,0-2.95-5L213,177.94l-2.17,10Z" fill="#ff512e"></path><path d="M355.2,212.27l-28.63-7.34v-.08a81.4,81.4,0,0,1-.94,12.5l26.53,6.8a6.13,6.13,0,1,0,3-11.88Z" fill="#ff512e"></path><path d="M274.44,138.51a81.26,81.26,0,0,1,40.4,24.4A81.77,81.77,0,0,0,168,177l13.37,3.43A81.78,81.78,0,0,1,274.44,138.51Z" fill="#ffcabf"></path><path d="M355.2,212.27l-28.63-7.34A81.78,81.78,0,0,0,168,177l148.2,38h0l36,9.21a6.13,6.13,0,1,0,3-11.88Z" fill="none" stroke="#45413c" stroke-linecap="round" stroke-linejoin="round" stroke-width="4"></path><path d="M213,177.94A12.26,12.26,0,1,1,236.74,184Z" fill="#e0e0e0" stroke="#45413c" stroke-linecap="round" stroke-linejoin="round" stroke-width="4"></path><path d="M236.74,184l4.95,1.26a4.09,4.09,0,0,1,2.95,5l-1.52,5.94" fill="none" stroke="#45413c" stroke-linecap="round" stroke-linejoin="round" stroke-width="4"></path><path d="M326.38,210.69c.13-1.89.19-3.77.19-5.65" fill="#ffffff" stroke="#45413c" stroke-linecap="round" stroke-linejoin="round" stroke-width="4"></path><path d="M206.29,220.52c-1.68,6.56,1.39,13,6.86,14.42s11.26-2.78,12.94-9.35Z" fill="#ffa694" stroke="#45413c" stroke-linecap="round" stroke-linejoin="round" stroke-width="4"></path><path d="M141.300 194.420 A34.750 34.750 0 1 0 210.800 194.420 A34.750 34.750 0 1 0 141.300 194.420 Z" fill="#80ddff" stroke="#45413c" stroke-linecap="round" stroke-linejoin="round" stroke-width="4"></path><path d="M142.39,185.79c-1.57,6.14,4.9,29.43,27.41,33,16.31,2.61,27.45-7.06,29.23-19.59,2.47-17.39-10-26.32-21.5-26.69-14.14-.46-18.87,8.26-19.35,15.32-.7,10.11,5.72,16.06,13.8,16.9,9.5,1,15.61-6.65,14.07-11.92" fill="none" stroke="#45413c" stroke-linecap="round" stroke-linejoin="round" stroke-width="4"></path><path d="M234.370 218.270 A34.750 34.750 0 1 0 303.870 218.270 A34.750 34.750 0 1 0 234.370 218.270 Z" fill="#80ddff" stroke="#45413c" stroke-linecap="round" stroke-linejoin="round" stroke-width="4"></path><path d="M302.78,226.89c1.57-6.13-4.9-29.43-27.41-33-16.31-2.61-27.45,7-29.23,19.58-2.47,17.39,10,26.32,21.5,26.7,14.14.46,18.87-8.27,19.35-15.33.7-10.11-5.72-16.05-13.8-16.89-9.5-1-15.61,6.65-14.07,11.91" fill="none" stroke="#45413c" stroke-linecap="round" stroke-linejoin="round" stroke-width="4"></path><path d="M197.1,286.7c-2.18,4.15-4.22,8.45-6.16,12.95" fill="none" stroke="#45413c" stroke-linecap="round" stroke-linejoin="round" stroke-width="4"></path><path d="M216.47,281.79A81.26,81.26,0,0,1,200.71,274" fill="none" stroke="#45413c" stroke-linecap="round" stroke-linejoin="round" stroke-width="4"></path><path d="M277.33,280.09a81.72,81.72,0,0,1-22.72,6.18" fill="none" stroke="#45413c" stroke-linecap="round" stroke-linejoin="round" stroke-width="4"></path><path d="M224.6,286.26a1.76,1.76,0,0,1,2.38-1.55,34.83,34.83,0,0,0,14.2,1.81,1.75,1.75,0,0,1,1.54,2.74c-2.11,3.12-6.12,7.44-11.71,6.47C225.11,294.7,224.44,289.45,224.6,286.26Z" fill="#e0e0e0"></path><path d="M45.66,205.3l83.71-7.53,8,89.57a4.86,4.86,0,0,1-2.89,4.9,117.6,117.6,0,0,1-77.1,6.93,4.86,4.86,0,0,1-3.71-4.3Z" fill="#ffda8f" stroke="#45413c" stroke-linecap="round" stroke-linejoin="round" stroke-width="4"></path><path d="M72.34,292.44a7.32,7.32,0,0,1-8-6.63l-5.63-62.66a7.32,7.32,0,0,1,14.58-1.31L79,284.5A7.32,7.32,0,0,1,72.34,292.44Z" fill="#ffbe3d" stroke="#e0a416" stroke-linecap="round" stroke-linejoin="round" stroke-width="4"></path><path d="M95.5,290.36a7.32,7.32,0,0,1-7.94-6.64l-5.64-62.65a7.32,7.32,0,0,1,14.58-1.31l5.64,62.65A7.33,7.33,0,0,1,95.5,290.36Z" fill="#ffbe3d" stroke="#e0a416" stroke-linecap="round" stroke-linejoin="round" stroke-width="4"></path><path d="M118.67,288.27a7.31,7.31,0,0,1-8-6.63L105.09,219a7.32,7.32,0,0,1,14.58-1.31l5.63,62.65A7.32,7.32,0,0,1,118.67,288.27Z" fill="#ffbe3d" stroke="#e0a416" stroke-linecap="round" stroke-linejoin="round" stroke-width="4"></path><path d="M140.74,196.82a17.34,17.34,0,0,0,0-2.79,16.13,16.13,0,0,0-29.4-7.63,18.73,18.73,0,0,0-4-.57,18.71,18.71,0,0,0-19.76-13.89l-.37,0a23.57,23.57,0,0,0,0-4.2,23.92,23.92,0,1,0-47.65,4.28A23.63,23.63,0,0,0,41.69,180a24,24,0,0,0,21.14,43.06,18.7,18.7,0,0,0,31.83-4.26,18.69,18.69,0,0,0,24.93-.74,15.23,15.23,0,1,0,21.15-21.24Z" fill="#fffef2" stroke="#45413c" stroke-linecap="round" stroke-linejoin="round" stroke-width="4"></path><path d="M105.950 157.200 A6.990 6.990 0 1 0 119.930 157.200 A6.990 6.990 0 1 0 105.950 157.200 Z" fill="#fffef2" stroke="#45413c" stroke-linecap="round" stroke-linejoin="round" stroke-width="4"></path><path d="M10.180 158.440 A10.850 10.850 0 1 0 31.880 158.440 A10.850 10.850 0 1 0 10.180 158.440 Z" fill="#fffef2" stroke="#45413c" stroke-linecap="round" stroke-linejoin="round" stroke-width="4"></path><path d="M248.75,113.7c-6,.51-14.4-.38-18.23-4.54a11.81,11.81,0,0,1-3.09-7,11.15,11.15,0,0,1,3.45-9.57,8.77,8.77,0,0,1,4.89-2.16,19.19,19.19,0,0,1,4.43.35,46.48,46.48,0,0,1-4.41-2.69A19.27,19.27,0,0,1,228.1,74c-.9-10.63,7.49-20.05,18.7-21,10.56-.9,18.72,4.33,19.41,12.43.41,4.88-2.77,8.62-7.91,9.31l-.18,0-.38,0c-.72.06-1.48.08-2.26.08,6.15,3.27,14.4,7.76,15.13,16.3,1.05,12.38-6.65,20.78-20.6,22.46h-.13Z" fill="#45413c"></path><path d="M200.92,106.1c-6.59-.74-10.1-4.69-9.62-10.81.84-11.14,1.44-18.11,1.94-22.58.21-1.84.39-3.13.53-4.14.08-.6.15-1.1.2-1.54l.24-2.13,0-.22,0-.23c.66-3.81,1.42-8.14,5.58-12.84,3.95-4.45,10.24-6.21,18.68-5.25,14.3,1.62,22,9.72,21.24,22.22,0,.06,0,.12,0,.19l-.13,1.13c-.93,8.2-5.88,12.9-10.41,14.9.06.1.11.18.15.26.76,1.36,1.71,2.82,2.64,4.24a48.26,48.26,0,0,1,3,5,13.93,13.93,0,0,1,1.51,7.42c-.38,3.4-3.25,7.2-10.07,6.71l-.46,0c-5.85-.67-9.83-5.58-13-10.59a12.51,12.51,0,0,1-2.26,5C208.85,105.35,205.15,106.58,200.92,106.1Zm15.51-38.26a1.74,1.74,0,0,0,1.7-1.84c.06-.49-.67-.9-1.17-1l-.21,0Z" fill="#45413c"></path><path d="M184.28,109.47c-8.84,1.07-15.84-.5-19.68-4.4-4.93-5-6.83-15.4-7.52-21.15-.59-4.86-1.88-21.28,6.25-28.2,3.52-3,10-5.4,16.52-6.19,9.92-1.2,16.34,2.3,17.19,9.34a9.17,9.17,0,0,1,0,3.12c-1.13,5.75-7.54,6.76-12.7,7.57a31.89,31.89,0,0,0-5.4,1.15c4.75-.5,12.23-1.09,13.08,6,.87,7.19-3.91,10.19-8.51,11.71l1.08-.11a34.1,34.1,0,0,0,3.92-.8,36.63,36.63,0,0,1,4.46-.9,8.35,8.35,0,0,1,9.29,7.49C203.27,102.22,196.54,108,184.28,109.47Z" fill="#45413c"></path><path d="M144.47,110.09c-9.21-.17-16.15-2.77-19.53-7.32C120.62,96.92,120.16,86,120.28,80c.09-5.07,1.13-22.07,10.45-28,4-2.55,11-4.1,17.8-4,10.32.19,16.4,4.69,16.26,12a9.78,9.78,0,0,1-.42,3.19c-2,5.73-8.7,5.84-14.1,5.93a34,34,0,0,0-5.69.4c4.93.18,12.68.65,12.54,8-.14,7.49-5.47,9.88-10.4,10.77.44,0,.84,0,1.12,0a34.39,34.39,0,0,0,4.13-.25,39.32,39.32,0,0,1,4.7-.28,8.63,8.63,0,0,1,8.44,9C164.94,105.4,157.23,110.34,144.47,110.09Z" fill="#45413c"></path><path d="M117.85,118c-7.94.92-10.9-3-12-6.48a71.67,71.67,0,0,1-2.12-11.39,24,24,0,0,0-.39-2.44l-.52,0a13,13,0,0,0-1.33.21q0,.14,0,.33c.19,1.63.46,3,.72,4.32s.46,2.35.61,3.56c.91,7.85-2.31,13.37-8.22,14.06A11,11,0,0,1,88,118.89c-3.09-1.7-5.62-5.49-7.7-11.56a90.63,90.63,0,0,1-3.67-17.48c-.41-3.48-.9-9.41-1-14.68-.13-5.65.36-7.73.66-8.61,1.16-5,5.72-7.73,9.81-8.21,6.38-.74,10.83,2.88,11.59,9.47l.85,7.29A13.57,13.57,0,0,0,99.13,78h.09a9.52,9.52,0,0,0,1.65-.3,34.32,34.32,0,0,0-.35-5.76l-.19-1.68c-1-8.3,3.35-14.46,10.74-15.32,7-.82,11.21,2.62,12.84,10.52.38,1.81.78,4.47,1.16,7.68,1.2,10.38,2.16,25.86,1.68,33.81C126.28,115.75,121,117.68,117.85,118Z" fill="#45413c"></path><path d="M65.58,129.43c-17.71,3.45-31.37-10.29-34.35-25.58C27.66,85.56,37,70.16,53.85,66.42l.53-.11c2.34-.46,10.47-1.67,17.35,1.82,4.54,2.29,7.14,5.41,7.94,9.52,1.25,6.4-2.18,11.53-8.53,12.77a15.8,15.8,0,0,1-5.13,0c-.8-.1-1.57-.25-2.31-.39a11.91,11.91,0,0,0-4.53-.31c-5.82,1.13-6.15,5.94-5.4,9.78.56,2.9,3.26,6.68,7.48,6l.46-.08c2.87-.55,4.29-2,6.09-3.82s4-4.08,7.68-4.79a13,13,0,0,1,2.41-.31,8.84,8.84,0,0,1,8.73,7.32,15.73,15.73,0,0,1,.3,3.81C86.59,118.76,75.82,127.43,65.58,129.43Z" fill="#45413c"></path><path d="M288.78,120.39c-5.26-.56-10.43-5.35-9.77-11.59a11.84,11.84,0,0,1,5.64-8.83c-5-5.68-4.54-15.07-3.64-23.54.22-2.07.5-4.24.78-6.5s.61-4.79.88-7.31l.22-3.72c0-.07,0-.14,0-.21,0-.43.09-1.07.14-1.7s.1-1.41.15-1.84l.09-.9a13.88,13.88,0,0,1,.78-3.39,4.26,4.26,0,0,1,.35-.75c1.18-2,4.2-5.2,11.17-4.46a22.82,22.82,0,0,1,9.94,3.5c3.88,2.42,6.29,6.26,7.17,11.41a31.64,31.64,0,0,1,.14,8.84c-1.11,10.33-6.1,23.38-9.83,28.15a20.15,20.15,0,0,1-2.9,3.07,10.13,10.13,0,0,1,3.84,9.11C303.18,116.88,296.94,121.27,288.78,120.39Z" fill="#45413c"></path><path d="M251.32,108.45c-6,.51-14.39-.37-18.22-4.54a11.81,11.81,0,0,1-3.09-7,11.15,11.15,0,0,1,3.45-9.57,8.72,8.72,0,0,1,4.89-2.15,18.64,18.64,0,0,1,4.43.34,44.54,44.54,0,0,1-4.42-2.69,19.34,19.34,0,0,1-7.69-14.09c-.9-10.63,7.5-20.06,18.71-21,10.56-.89,18.72,4.33,19.41,12.43.41,4.88-2.77,8.63-7.91,9.32l-.18,0-.38,0c-.72.06-1.49.08-2.27.08,6.16,3.27,14.41,7.76,15.13,16.3,1.05,12.38-6.64,20.78-20.59,22.46h-.13Z" fill="#45413c"></path><path d="M202.63,100.86c-6.59-.75-10.1-4.69-9.63-10.81.84-11.15,1.44-18.11,1.95-22.58.21-1.85.38-3.14.52-4.14.08-.6.15-1.1.2-1.55l.24-2.12a1.43,1.43,0,0,1,0-.22l0-.23c.67-3.82,1.43-8.14,5.59-12.84,4-4.45,10.23-6.21,18.68-5.25,14.29,1.62,22,9.72,21.23,22.22,0,.06,0,.12,0,.18l-.13,1.14c-.93,8.2-5.88,12.9-10.41,14.9l.14.26c.76,1.35,1.72,2.82,2.65,4.24a50.06,50.06,0,0,1,3,5,14,14,0,0,1,1.51,7.42c-.39,3.4-3.26,7.2-10.08,6.71l-.45,0c-5.86-.66-9.83-5.57-13-10.58a12.51,12.51,0,0,1-2.25,5C210.56,100.11,206.86,101.34,202.63,100.86Zm15.5-38.26a1.75,1.75,0,0,0,1.71-1.84c.06-.49-.67-.9-1.18-1l-.21,0Z" fill="#45413c"></path><path d="M185.12,104.23c-8.85,1.07-15.84-.49-19.69-4.39-4.92-5-6.82-15.41-7.52-21.15-.58-4.87-1.87-21.29,6.26-28.2,3.51-3,10-5.41,16.52-6.2,9.91-1.19,16.34,2.3,17.19,9.35a9.1,9.1,0,0,1,0,3.11c-1.14,5.76-7.55,6.76-12.7,7.57a34.1,34.1,0,0,0-5.41,1.15c4.76-.49,12.24-1.08,13.09,6,.87,7.19-3.92,10.2-8.52,11.71.42,0,.81-.07,1.08-.11a33.25,33.25,0,0,0,3.92-.8,41.06,41.06,0,0,1,4.47-.9,8.35,8.35,0,0,1,9.28,7.49C204.1,97,197.37,102.75,185.12,104.23Z" fill="#45413c"></path><path d="M143.56,104.87c-9.21-.17-16.15-2.78-19.53-7.33-4.32-5.84-4.77-16.75-4.66-22.73.1-5.06,1.13-22.06,10.45-28,4-2.54,11-4.1,17.8-4,10.32.2,16.4,4.7,16.26,12a9.52,9.52,0,0,1-.42,3.19c-2,5.73-8.7,5.84-14.1,5.93a34,34,0,0,0-5.69.4c4.93.17,12.68.64,12.54,8-.14,7.49-5.47,9.87-10.4,10.77.44,0,.84,0,1.13,0a32.44,32.44,0,0,0,4.12-.26,37.39,37.39,0,0,1,4.7-.27,8.63,8.63,0,0,1,8.44,9C164,100.18,156.32,105.11,143.56,104.87Z" fill="#45413c"></path><path d="M116.07,112.82c-7.94.93-10.9-3-12-6.48A71.37,71.37,0,0,1,102,95c-.15-1.22-.28-2-.39-2.45l-.52,0c-.63.08-1.05.15-1.33.21q0,.15,0,.33c.19,1.63.46,3,.72,4.32s.46,2.35.61,3.57c.91,7.85-2.31,13.36-8.22,14.05a11,11,0,0,1-6.64-1.36c-3.09-1.71-5.62-5.5-7.7-11.57a90.48,90.48,0,0,1-3.67-17.48c-.41-3.47-.9-9.41-1-14.68-.13-5.65.36-7.72.66-8.61,1.16-5,5.72-7.73,9.81-8.21,6.38-.74,10.83,2.89,11.59,9.47l.85,7.29a13.57,13.57,0,0,0,.56,2.92h.09a9.89,9.89,0,0,0,1.65-.29,34.37,34.37,0,0,0-.35-5.77l-.19-1.68c-1-8.3,3.35-14.46,10.74-15.32,7-.82,11.21,2.62,12.84,10.52.38,1.81.78,4.47,1.16,7.69,1.2,10.37,2.16,25.86,1.68,33.8C124.51,110.53,119.19,112.46,116.07,112.82Z" fill="#45413c"></path><path d="M62.93,124.22c-17.71,3.45-31.37-10.29-34.35-25.58C25,80.35,34.31,65,51.19,61.21l.54-.11c2.33-.46,10.47-1.67,17.35,1.82,4.54,2.29,7.13,5.41,7.94,9.52,1.24,6.4-2.18,11.53-8.53,12.77a15.8,15.8,0,0,1-5.13,0c-.8-.1-1.57-.25-2.31-.39a12.13,12.13,0,0,0-4.53-.32c-5.82,1.14-6.15,5.95-5.41,9.79.57,2.9,3.26,6.68,7.48,6l.47-.08c2.86-.56,4.29-2,6.09-3.82s4-4.08,7.68-4.79a12.2,12.2,0,0,1,2.41-.31A8.85,8.85,0,0,1,84,98.67a16.21,16.21,0,0,1,.3,3.8C83.94,113.55,73.17,122.22,62.93,124.22Z" fill="#45413c"></path><path d="M292.23,115.14c-5.26-.56-10.44-5.35-9.77-11.59a11.83,11.83,0,0,1,5.64-8.83c-5-5.69-4.54-15.07-3.64-23.54.22-2.08.5-4.25.78-6.51s.61-4.79.88-7.31l.22-3.71c0-.07,0-.14,0-.21,0-.43.09-1.08.14-1.71s.1-1.4.15-1.83l.09-.91a14,14,0,0,1,.78-3.39,3.86,3.86,0,0,1,.35-.74c1.18-2,4.2-5.2,11.17-4.46A22.82,22.82,0,0,1,309,43.89c3.88,2.43,6.29,6.27,7.17,11.42a31.64,31.64,0,0,1,.14,8.84c-1.11,10.32-6.1,23.37-9.83,28.15a20.52,20.52,0,0,1-2.9,3.06,10.16,10.16,0,0,1,3.84,9.12C306.63,111.63,300.39,116,292.23,115.14Z" fill="#45413c"></path><path d="M249.92,90.14l.31,0c1.51-.13,3.23-.66,3.08-2.33-.25-3-5.2-2.84-12.82-8.08a15.56,15.56,0,0,1-6.08-11.32c-.73-8.57,6-16.17,15.29-17,7.89-.67,14.82,2.71,15.35,9,.25,2.95-1.57,4.87-4.67,5.28l-.38,0c-2.2.19-5.35-.08-7.32.09l-.38,0c-1.59.21-2.83.93-2.73,2.07a3.11,3.11,0,0,0,1.37,1.79c4.59,3.58,17.74,7.43,18.51,16.46,1,11.45-6.65,17.13-17.31,18.42l-1.13.1c-5.46.46-12.49-.4-15.18-3.38a8.1,8.1,0,0,1-2.09-4.79,7.42,7.42,0,0,1,2.2-6.44,5.09,5.09,0,0,1,2.73-1.23C241.24,88.66,246.81,90.41,249.92,90.14Z" fill="#ffcd21"></path><path d="M228.15,99.44c-7.66-.87-12.09-13.36-16-18A25.67,25.67,0,0,1,212,86c-.56,4.93-1.18,7.7-2.43,9.25s-4,2.16-6.52,1.88c-4.47-.51-6.63-2.52-6.3-6.79.91-12,1.48-18.43,1.94-22.45.33-3,.58-4.47.72-5.68l.24-2.13c.66-3.76,1.21-7.24,4.73-11.22,4.41-5,12-4.4,15.44-4,12,1.36,18.6,7.42,17.91,18.25l-.13,1.14c-1,9.18-8,12.46-11.2,12.71-.47.1-1.24.09-1.27.32s.19.41.25.49,1.77,2.74,2.41,3.88c1.79,3.2,4.39,6.65,5.57,9.09a10.14,10.14,0,0,1,1.16,5.36c-.26,2.35-2.41,3.64-6.07,3.38Zm-9.06-43.37a5.6,5.6,0,0,0-4.09.76l-1,9a8.61,8.61,0,0,0,2,.54c3.95.45,7.11-1,7.58-5.13C223.9,58.38,221.52,56.34,219.09,56.07Z" fill="#ffcd21"></path><path d="M179.52,69.24c4.88-.52,9.23-1,9.67,2.63.87,7.19-6.57,7.94-12,9.21l.12,1c.27,2.25,1.34,4.78,4.55,4.93a36.92,36.92,0,0,0,4.07-.27c3-.36,5.61-1.36,8.38-1.7a4.67,4.67,0,0,1,5.15,4.25c1,7.79-8.46,10.52-14.75,11.28-7.79.94-13.65-.33-16.59-3.31-3.47-3.54-5.57-11.49-6.48-19-1.15-9.51-.13-20.58,5-24.92,2.62-2.22,8.26-4.58,14.55-5.34,5.7-.68,12.32,0,13.06,6.11a7.92,7.92,0,0,1,.07,1.89c-1.19,6.45-18,2.93-18.74,9.1a11.47,11.47,0,0,0,.08,2.5,11.89,11.89,0,0,0,.4,2.08Z" fill="#ffcd21"></path><path d="M142.85,68.24c5.07.17,9.59.26,9.52,4.08-.14,7.49-7.86,7.19-13.65,7.7l0,1c0,2.34.69,5.09,4,5.7a37.26,37.26,0,0,0,4.21.31c3.12.06,5.94-.59,8.83-.53a4.82,4.82,0,0,1,4.67,5.08c-.16,8.11-10.18,9.56-16.73,9.44-8.11-.15-13.93-2.29-16.51-5.78-3.05-4.11-4.06-12.56-3.91-20.36.19-9.91,2.82-21.1,8.67-24.81,3-1.9,9.12-3.5,15.67-3.37,5.93.11,12.61,1.8,12.49,8.12a8.46,8.46,0,0,1-.19,1.94c-2.16,6.44-18.82.43-20.5,6.64a12.06,12.06,0,0,0-.28,2.57,13.34,13.34,0,0,0,.11,2.19Z" fill="#ffcd21"></path><path d="M107.86,105.15a67.46,67.46,0,0,1-2-10.65c-.65-5.61-1.63-6.31-5.31-5.88-3.45.4-5.22,1.18-4.79,4.94.39,3.29,1.06,5.56,1.33,7.89.53,4.56-.56,9.16-4.72,9.64a7,7,0,0,1-4.25-.88c-2.43-1.34-4.41-5.09-5.88-9.39a86.62,86.62,0,0,1-3.49-16.65c-.45-3.92-.88-9.64-.93-14.26-.08-3.49.08-6.35.52-7.45.71-3.66,4.27-5.13,6.44-5.38,4.48-.52,6.72,2,7.19,6l.85,7.29c.46,4,1.28,6.84,5.05,6.4,5.45-.63,5.73-2.37,4.79-10.47l-.2-1.68c-.7-6,2.05-10.31,7.26-10.91,4.48-.53,7.18,1,8.49,7.37.37,1.75.75,4.3,1.1,7.34,1.18,10.1,2.14,25.34,1.66,33.11-.2,3.84-1.47,6.91-5.39,7.37C112.24,109.27,109,108.83,107.86,105.15Z" fill="#ffcd21"></path><path d="M73,73c.79,4-1,7.2-5.34,8a11.78,11.78,0,0,1-3.84,0c-2.56-.33-5.16-1.24-8.13-.66C47,82,46.06,89.48,47.11,94.86c1,5.22,5.75,10.21,12.06,9.23,8.09-1.24,8.92-7.66,14.38-8.72a9.88,9.88,0,0,1,1.62-.23A4.78,4.78,0,0,1,80,99.2a11.58,11.58,0,0,1,.22,2.87c-.25,9.39-10.13,16.4-18.08,18-15,2.93-27-8.74-29.63-22.39-2.92-15,4-29.28,19.54-32.73,4.32-.93,10.56-1,15.19,1.37C70.54,68,72.44,70,73,73Z" fill="#ffcd21"></path><path d="M298.56,44.86a18.13,18.13,0,0,1,7.94,2.77c3.09,1.89,4.61,4.8,5.23,8.43a27.8,27.8,0,0,1,.1,7.61c-1.07,10-5.93,22.06-8.9,25.87-1.91,2.45-4.52,4.64-7.42,4.33a5.36,5.36,0,0,1-3.16-1.26c-4.45-3.77-4.46-11.37-3.43-21,.45-4.25,1.14-8.94,1.67-13.91l.23-3.83c.09-.9.2-2.72.28-3.53l.1-.91a9.44,9.44,0,0,1,.52-2.32C293,45.08,295.66,44.55,298.56,44.86Zm-2.12,52.31c3.71.4,6.92,2.94,6.5,6.83-.57,5.34-5.53,7.19-10.23,6.68-2.81-.3-6.19-3-5.79-6.66a7.65,7.65,0,0,1,5.63-6.44A9.37,9.37,0,0,1,296.44,97.17Z" fill="#ffcd21"></path></g></svg>