<svg xmlns="http://www.w3.org/2000/svg" version="1.1" xmlns:xlink="http://www.w3.org/1999/xlink" xmlns:svgjs="http://svgjs.com/svgjs" viewBox="0 0 48 48" width="48" height="48"><title>Exported from Streamline App (https://app.streamlineicons.com)</title><g transform="matrix(0.12972972972972974,0,0,0.12972972972972974,0,0)"><path d="M362.5,230.45c0,96.93-76.11,100.51-170,100.51s-170-3.58-170-100.51S98.61,55,192.5,55,362.5,133.53,362.5,230.45Z" fill="#b8ecff"></path><path d="M234.64,267.53a93,93,0,1,0-89.5.05v30.87c5.27,10.62-4.78,38.63-4.78,38.63h99.07s-10.06-28-4.79-38.63Z" fill="#ffffff"></path><path d="M189.65,235.85h0a93.08,93.08,0,0,1-90.21-71.37,93,93,0,0,0,90.21,114.58h0a92.92,92.92,0,0,0,90.61-114.58A93.07,93.07,0,0,1,189.65,235.85Z" fill="#f0f0f0"></path><path d="M244.89,261a93,93,0,1,0-110.08,0" fill="none" stroke="#45413c" stroke-linecap="round" stroke-linejoin="round" stroke-width="4"></path><path d="M180.290 93.320 A9.360 9.360 0 1 0 199.010 93.320 A9.360 9.360 0 1 0 180.290 93.320 Z" fill="#ff6242" stroke="#45413c" stroke-linecap="round" stroke-linejoin="round" stroke-width="4"></path><path d="M270.22,139.39s33.16,5.22,31.42,21.22l-25.38-8.81c-56.44-14.63-114-14.93-172.82,0a92.95,92.95,0,0,1,166.78-12.41Z" fill="#ff6242"></path><path d="M175.81,132.54A10.22,10.22,0,0,1,186,122.34c6.9,0,10.21,4.76,10.2,10.23Z" fill="#ffffff"></path><path d="M175.81,132.54A10.22,10.22,0,0,1,186,122.34c6.9,0,10.21,4.76,10.2,10.23C189.15,130.55,182.31,130.36,175.81,132.54Z" fill="none" stroke="#45413c" stroke-linecap="round" stroke-linejoin="round" stroke-width="4"></path><path d="M270.22,139.39s33.16,5.22,31.42,21.22l-25.38-8.81c-56.44-14.63-114-14.93-172.82,0a92.95,92.95,0,0,1,166.78-12.41Z" fill="none" stroke="#45413c" stroke-linecap="round" stroke-linejoin="round" stroke-width="4"></path><path d="M272.16,142.88c-.62-1.18-1.27-2.34-1.94-3.49" fill="none" stroke="#45413c" stroke-linecap="round" stroke-linejoin="round" stroke-width="4"></path><path d="M196.24,132.57s8.38,1.62,8.38,4.78-.51,3.65-.51,3.65" fill="none" stroke="#45413c" stroke-linecap="round" stroke-linejoin="round" stroke-width="4"></path><path d="M107.18,149.28a32.75,32.75,0,1,0,28-18A64.22,64.22,0,0,1,107.18,149.28Z" fill="#ffffff" stroke="#45413c" stroke-linecap="round" stroke-linejoin="round" stroke-width="4"></path><path d="M142,122.34a64.34,64.34,0,0,1-46.88,29.57" fill="none" stroke="#45413c" stroke-linecap="round" stroke-linejoin="round" stroke-width="4"></path><path d="M137.310 151.500 A4.680 4.680 0 1 0 146.670 151.500 A4.680 4.680 0 1 0 137.310 151.500 Z" fill="#45413c"></path><path d="M272.52,149.28a32.75,32.75,0,1,1-28-18A64.22,64.22,0,0,0,272.52,149.28Z" fill="#ffffff" stroke="#45413c" stroke-linecap="round" stroke-linejoin="round" stroke-width="4"></path><path d="M237.71,122.34a64.36,64.36,0,0,0,46.88,29.57" fill="none" stroke="#45413c" stroke-linecap="round" stroke-linejoin="round" stroke-width="4"></path><path d="M233.030 151.500 A4.680 4.680 0 1 0 242.390 151.500 A4.680 4.680 0 1 0 233.030 151.500 Z" fill="#45413c"></path><path d="M302.1 294.81 L302.1 294.81 L345.21 302.71 L342.23 320.14 L298.94 313.27 Z" fill="#ffe500" stroke="#45413c" stroke-linecap="round" stroke-linejoin="round" stroke-width="4"></path><path d="M345.21 302.71 L345.21 302.71 L362.67 314.67 L342.23 320.14 Z" fill="#f7e5c6" stroke="#45413c" stroke-linecap="round" stroke-linejoin="round" stroke-width="4"></path><path d="M302.1,294.81l-3.16,18.46a9.27,9.27,0,0,1-7.58-10.71l0-.17A9.28,9.28,0,0,1,302.1,294.81Z" fill="#ff866e" stroke="#45413c" stroke-linecap="round" stroke-linejoin="round" stroke-width="4"></path><path d="M151.84,271c-13-2.34-10.5,17.93-25.34,10.45-9.34-4.7-15.81-17.24-16.16-27.73,0,0,.56-13.32.68-15.77.81-16.13-10.09-16.89-11.61-5.9-.32,2.37-2.52,10.14-2.52,10.14-9.13-8.2-3.76-23.89-9.88-24.78s-7.31,4.41-6.86,13.14.78,12.49.78,12.49c-13.87-4.16-8.76-25.1-14.6-26-8.8-1.41-8.36,9-7.76,15.14s1.87,10.35,5,15.13c-5.67,2.83-11.47-18.09-17.83-15.13-6.86,3.21,2.64,21.46,5.87,25.7,12.18,16,24.9,6.22,42.57,29.34,27.68,36.23,52.18,24.73,52.18,15.76" fill="#ffffff" stroke="#45413c" stroke-linecap="round" stroke-linejoin="round" stroke-width="4"></path><path d="M162.25,274.57c-8.57-1.9-19.18-7.61-27.44-13.59" fill="#ffffff" stroke="#45413c" stroke-linecap="round" stroke-linejoin="round" stroke-width="4"></path><path d="M220.39,273.8c8-2.41,17.17-7.51,24.5-12.82" fill="#ffffff" stroke="#45413c" stroke-linecap="round" stroke-linejoin="round" stroke-width="4"></path><path d="M163.74,228.42,170.19,194a14.72,14.72,0,0,1,14.29-11.22h10.64a14.7,14.7,0,0,1,14.26,11.12L216,228a8.14,8.14,0,0,1-11.43,9.31,34.35,34.35,0,0,0-14.82-3.5,30.71,30.71,0,0,0-14.24,3.67A8.12,8.12,0,0,1,163.74,228.42Z" fill="#ffb0ca" stroke="#45413c" stroke-linecap="round" stroke-linejoin="round" stroke-width="4"></path><path d="M216,228.31a32.51,32.51,0,0,0-52.23-.12l0,.23a8.12,8.12,0,0,0,11.72,9.05,30.71,30.71,0,0,1,14.24-3.67,34.35,34.35,0,0,1,14.82,3.5A8.13,8.13,0,0,0,216,228.31Z" fill="#ff866e" stroke="#45413c" stroke-linecap="round" stroke-linejoin="round" stroke-width="4"></path><path d="M187.36,192.57A93.42,93.42,0,0,0,208,190.39a14.71,14.71,0,0,0-12.87-7.6H184.48a14.7,14.7,0,0,0-13.31,8.48A97.8,97.8,0,0,0,187.36,192.57Z" fill="#ffffff" stroke="#45413c" stroke-linecap="round" stroke-linejoin="round" stroke-width="4"></path><path d="M315,272.37c1.9,3.18,2.69,14.84,1.35,18.07" fill="none" stroke="#87898c" stroke-linecap="round" stroke-linejoin="round" stroke-width="4"></path><path d="M145.09,298.45c5.27,10.62-4.78,38.63-4.78,38.63" fill="none" stroke="#45413c" stroke-linecap="round" stroke-linejoin="round" stroke-width="4"></path><path d="M126.5,281.4c.19.1,5.12,6.68,10.91,7.48" fill="none" stroke="#45413c" stroke-linecap="round" stroke-linejoin="round" stroke-width="4"></path><path d="M227.86,271c13-2.34,10.5,17.93,25.34,10.45,9.35-4.7,15.81-17.24,16.16-27.73,0,0-.56-13.32-.68-15.77-.8-16.13,10.1-16.89,11.61-5.9.32,2.37,2.53,10.14,2.53,10.14,9.12-8.2,3.75-23.89,9.87-24.78s7.31,4.41,6.87,13.14-.79,12.49-.79,12.49c13.87-4.16,8.77-25.1,14.6-26,8.8-1.41,8.36,9,7.77,15.14s-1.87,10.35-5,15.13c5.68,2.83,11.47-18.09,17.83-15.13,6.86,3.21-2.64,21.46-5.86,25.7-12.19,16-24.91,6.22-42.58,29.34-27.68,36.23-52.18,24.73-52.18,15.76" fill="#ffffff" stroke="#45413c" stroke-linecap="round" stroke-linejoin="round" stroke-width="4"></path><path d="M253.2,281.4c-.18.1-5.12,6.68-10.91,7.48" fill="none" stroke="#45413c" stroke-linecap="round" stroke-linejoin="round" stroke-width="4"></path><path d="M239.38,337.08s-10.06-28-4.79-38.63" fill="none" stroke="#45413c" stroke-linecap="round" stroke-linejoin="round" stroke-width="4"></path><path d="M325.91,253.67c3.7,6.21,5.23,28.91,2.61,35.21" fill="none" stroke="#87898c" stroke-linecap="round" stroke-linejoin="round" stroke-width="4"></path><path d="M13.25,67.94C27,40.91,67.73,34.15,99.11,37.49c17.48,2.28,43.9,8.08,55.54,33.9.52,1.37,17.44,47.17-53.61,56.26-1.69.22-3.37.39-5.06.54A43.21,43.21,0,0,0,99.33,142a45.22,45.22,0,0,0,4.46,8.15.58.58,0,0,1-.67.86c-9-2.8-21.13-11.59-29.8-22.73a118.35,118.35,0,0,1-31.47-7l0-.07C11.55,109.2,4,85.57,13.25,67.94Z" fill="#ffffff" stroke="#404041" stroke-linecap="round" stroke-linejoin="round" stroke-width="4"></path><path d="M43.380 79.940 A5.860 5.860 0 1 0 55.100 79.940 A5.860 5.860 0 1 0 43.380 79.940 Z" fill="#656769" stroke="#404041" stroke-linecap="round" stroke-linejoin="round" stroke-width="4"></path><path d="M71.340 79.940 A5.860 5.860 0 1 0 83.060 79.940 A5.860 5.860 0 1 0 71.340 79.940 Z" fill="#656769" stroke="#404041" stroke-linecap="round" stroke-linejoin="round" stroke-width="4"></path><path d="M99.300 79.940 A5.860 5.860 0 1 0 111.020 79.940 A5.860 5.860 0 1 0 99.300 79.940 Z" fill="#656769" stroke="#404041" stroke-linecap="round" stroke-linejoin="round" stroke-width="4"></path></g></svg>