<svg xmlns="http://www.w3.org/2000/svg" version="1.1" xmlns:xlink="http://www.w3.org/1999/xlink" xmlns:svgjs="http://svgjs.com/svgjs" viewBox="0 0 48 48" width="48" height="48"><title>Exported from Streamline App (https://app.streamlineicons.com)</title><g transform="matrix(0.12972972972972974,0,0,0.12972972972972974,0,0)"><path d="M112.4,239.72a.28.28,0,0,1,.1.22.26.26,0,0,1-.11.21L11.21,320.85a2.17,2.17,0,0,1-2.09.3A1.68,1.68,0,0,1,8,319.62c0-3.45,0-6.71.07-10,0-.5.79-1.07,1.35-1.45,8.19-5.46,16.42-10.87,24.61-16.32,7.47-5,14.88-10,22.35-15q27.75-18.5,55.55-36.95A2.91,2.91,0,0,1,112.4,239.72Z"></path><path d="M8,75a1.66,1.66,0,0,1,1.07-1.51,2.15,2.15,0,0,1,2,.17l111.27,73.38a.41.41,0,0,1,.12.58c-1.85-1-3.72-2-5.55-3Q92,130.74,67.12,116.79c-9.78-5.45-19.61-10.83-29.41-16.25Q23.61,92.76,9.5,85a2.62,2.62,0,0,1-1.58-2.63C8,79.94,8,77.56,8,75Z"></path><path d="M351.25,31.83a2,2,0,0,1,1.81,1,1.53,1.53,0,0,1-.4,1.84l-107.73,96a.5.5,0,0,1-.64,0c2.61-2.65,5.21-5.31,7.83-8l22.64-22.81,40.3-40.62c8-8,16.22-15.95,23.9-24.22a9.29,9.29,0,0,1,8.52-3.35C348.71,31.82,350,31.84,351.25,31.83Z"></path><path d="M271.74,139a.43.43,0,0,1-.13-.35.45.45,0,0,1,.22-.32l87.82-53.67a2.18,2.18,0,0,1,2-.12A1.66,1.66,0,0,1,362.7,86c0,2.42,0,4.71-.08,7,0,.47-.82,1.06-1.42,1.36q-24.43,12.18-48.91,24.33-19.5,9.74-38.94,19.56C272.82,138.53,272.28,138.76,271.74,139Z"></path><path d="M33.37,34.56a1.49,1.49,0,0,1-.34-1.8,2,2,0,0,1,1.76-1c2.36,0,4.55,0,6.74,0a2.93,2.93,0,0,1,1.84.87Q62.83,54.24,82.21,75.88q14,15.62,28,31.24c.24.27.45.55.67.83a.45.45,0,0,1-.13.66C85.08,84.05,59.41,59.49,33.37,34.56Z"></path><path d="M362.7,295.49a1.66,1.66,0,0,1-1.09,1.5,2.18,2.18,0,0,1-2-.18l-78.55-53a.34.34,0,0,1-.1-.48c1.91,1,3.85,1.95,5.74,3Q310,259,333.4,271.67q14.18,7.69,28.3,15.47a2,2,0,0,1,.95,1.4C362.71,290.81,362.71,293.07,362.7,295.49Z"></path><path d="M25.36,338.5a2,2,0,0,1-1.78-1,1.53,1.53,0,0,1,.38-1.82L126.88,242a.59.59,0,0,1,.71,0c-2,2-4,4-6.06,6-7.88,7.76-15.79,15.5-23.65,23.27Q79.16,289.73,60.47,308.3c-7.36,7.28-14.79,14.51-22.18,21.78-2.41,2.38-4.7,4.86-7.19,7.18a5,5,0,0,1-2.79,1.15C27.35,338.48,26.38,338.5,25.36,338.5Z"></path><path d="M8,44.5A1.7,1.7,0,0,1,9.19,43a2.16,2.16,0,0,1,2.09.33l104.37,86.48a.39.39,0,0,1,0,.58c-2.39-1.8-4.79-3.59-7.17-5.41q-16.28-12.44-32.57-24.88c-12.48-9.48-25-18.89-37.53-28.37-9.53-7.24-19-14.55-28.54-21.78-1.35-1-2.12-2.05-1.95-3.68C8,45.67,8,45.09,8,44.5Z"></path><path d="M203.75,31.88a2.06,2.06,0,0,1,1.45.57,1.52,1.52,0,0,1,.47,1.32q-6.4,44-12.78,87.82a.46.46,0,0,1-.51.35q2.44-44.18,4.89-88.46a1.84,1.84,0,0,1,1.93-1.6Z"></path><path d="M239.63,257.66a.57.57,0,0,1,.34-.07.43.43,0,0,1,.28.17l61,78.09a1.49,1.49,0,0,1,.12,1.72,2,2,0,0,1-1.7.9c-1.73,0-3.34,0-4.94-.08-.6,0-1.32-.77-1.69-1.33-5.25-7.78-10.43-15.59-15.68-23.37q-10.62-15.78-21.31-31.5l-16.2-23.9A3.16,3.16,0,0,1,239.63,257.66Z"></path><path d="M127.31,337.22a1.94,1.94,0,0,1-1.85,1.17h-4.74a2,2,0,0,1-1.61-.74,1.51,1.51,0,0,1-.18-1.58l33.26-69.44a.62.62,0,0,1,.74-.29Z"></path><path d="M335.13,335.69a1.52,1.52,0,0,1,.31,1.81,2,2,0,0,1-1.76,1c-1,0-1.88,0-2.8-.09a3.73,3.73,0,0,1-2.11-1.23c-4.85-5.2-9.62-10.47-14.45-15.69-10.15-11-20.35-22-30.49-33q-11.16-12.11-22.24-24.27a.23.23,0,0,1,0-.35.32.32,0,0,1,.4,0Z"></path><path d="M217.77,111.13a.29.29,0,0,1-.23-.36c.73-2.18,1.4-4.38,2.2-6.54,2.18-5.86,4.41-11.7,6.63-17.55,2.32-6.09,4.69-12.16,7-18.26q5.28-14,10.51-28c.89-2.38,1.75-4.77,2.67-7.14a2.06,2.06,0,0,1,2.46-1.6,19.86,19.86,0,0,0,2.46.09,2,2,0,0,1,1.62.73,1.49,1.49,0,0,1,.2,1.58Z"></path><path d="M94.35,338.43a2,2,0,0,1-1.68-.83,1.49,1.49,0,0,1,0-1.68L133.84,273a.45.45,0,0,1,.56-.14q-3.89,7.16-7.78,14.3Q118,303,109.37,318.79c-3.33,6.1-6.69,12.18-10,18.28a2.35,2.35,0,0,1-2.52,1.42C96.05,338.44,95.23,338.43,94.35,338.43Z"></path><path d="M8,151.13a1.6,1.6,0,0,1,.75-1.33,2.14,2.14,0,0,1,1.66-.3l77.14,16.87a.47.47,0,0,1,.4.53l-6.61-1q-8.56-1.32-17.13-2.66c-5.44-.86-10.86-1.77-16.3-2.62-6.85-1.08-13.73-2.09-20.58-3.19-5.31-.85-10.59-1.79-15.89-2.67-1.07-.18-2.16-.3-3.24-.47A.38.38,0,0,1,8,154C8,153.06,8,152.13,8,151.13Z"></path><path d="M362.72,265.65a1.61,1.61,0,0,1-1,1.13,2.05,2.05,0,0,1-1.63,0l-83.21-39.48a.48.48,0,0,1-.24-.67c2,.81,4,1.6,5.93,2.44q22.6,9.66,45.2,19.34,16.14,6.87,32.32,13.66C362,262.81,363.16,263.7,362.72,265.65Z"></path><path d="M88.15,141.56a.62.62,0,0,1-.72.25c-.69-.23-1.4-.45-2.06-.74Q61.84,131,38.32,121q-14.64-6.24-29.26-12.48a1.88,1.88,0,0,1-1-1.17,12.09,12.09,0,0,1-.08-1.21,1.66,1.66,0,0,1,.94-1.47,2.18,2.18,0,0,1,1.93,0Z"></path><path d="M284.35,194a.32.32,0,0,1,.35-.26l76,3.3a1.81,1.81,0,0,1,1.84,1.68v1.41a1.61,1.61,0,0,1-.65,1.26,2.11,2.11,0,0,1-1.51.41Z"></path><path d="M10.79,286.57a2,2,0,0,1-1.86.11,1.55,1.55,0,0,1-1-1.38c0-4,0-4,4.08-6q18.88-9.37,37.77-18.76a1,1,0,0,1,1.2.25.72.72,0,0,1-.24,1.05Z"></path><path d="M10.34,214.8a2.14,2.14,0,0,1-1.6-.35,1.6,1.6,0,0,1-.71-1.3V213a1.78,1.78,0,0,1,1.64-1.66l83.11-11.08a.45.45,0,0,1,.52.32Z"></path><path d="M218.92,336.44a1.53,1.53,0,0,1-.37,1.36,2.06,2.06,0,0,1-1.42.65l-.3,0c-1.35.13-1.68-.37-1.87-1.51-1-5.52-2.1-11-3.12-16.51-.91-4.91-1.75-9.84-2.61-14.76q-1.54-8.71-3.08-17.45-1.44-8.21-2.92-16.4c-.24-1.35-.53-2.69-.81-4a.56.56,0,0,1,.51-.64Z"></path><path d="M8.92,260.44a.7.7,0,0,1-.63,0,.54.54,0,0,1-.32-.47c-.1-3.18-.07-3.12,3.4-4.41,9.33-3.46,18.63-7,28-10.46q18-6.7,36.09-13.35a.3.3,0,0,1,.36.13.21.21,0,0,1-.13.31Z"></path><path d="M353.44,335.72a1,1,0,0,1,0,1.5,1.34,1.34,0,0,1-1.72,0l-.21-.19q-8.39-8-17-15.85c-9.56-8.76-19.2-17.46-28.77-26.22q-13.14-12-26.21-24.1a.26.26,0,0,1,0-.4.38.38,0,0,1,.47,0Z"></path><path d="M359.84,113.71a2.15,2.15,0,0,1,2,.16,1.58,1.58,0,0,1,.74,1.64c-.25,1.19-1.14,1.52-3.53,2.4q-12.09,4.45-24.14,9-16.71,6.31-33.41,12.67a.29.29,0,0,1-.36-.12.23.23,0,0,1,.12-.32Z"></path><path d="M147,77.78a.46.46,0,0,1-.53-.24c-6.06-14.44-12.12-28.87-18.24-43.43a1.5,1.5,0,0,1,.23-1.54,2.05,2.05,0,0,1,1.59-.71h1.15a1.9,1.9,0,0,1,1.87,1.24Z"></path><path d="M195.68,336.6a1.56,1.56,0,0,1-.51,1.26,2.1,2.1,0,0,1-1.42.54,1.5,1.5,0,0,1-1.58-1.34q-.69-29.28-1.4-58.48a.33.33,0,0,1,.33-.31C192.62,297.65,194.15,317,195.68,336.6Z"></path><path d="M360.4,157.65A2.09,2.09,0,0,1,362,158a1.58,1.58,0,0,1,.7,1.29c0,1.14-.58,1.26-2.61,1.54-6.29.86-12.59,1.63-18.88,2.47-4.23.56-8.46,1.21-12.69,1.76-4.93.65-9.88,1.21-14.81,1.86-4.59.6-9.17,1.26-13.76,1.89a.29.29,0,0,1-.32-.19.25.25,0,0,1,.22-.28Z"></path><path d="M309.37,31.81a2,2,0,0,1,1.94.8,1.48,1.48,0,0,1-.12,1.86l-28,32.22a.39.39,0,0,1-.44.1A3.36,3.36,0,0,1,283,66q12.18-16.61,24.42-33.18A3.13,3.13,0,0,1,309.37,31.81Z"></path><path d="M106.14,91.31a.5.5,0,0,1-.38.1.51.51,0,0,1-.35-.17L54.9,32.65a.87.87,0,0,1,0-1.15c.9.44,2.1.7,2.65,1.36Q71.72,49.71,85.76,66.64l19.21,23C105.4,90.2,105.75,90.77,106.14,91.31Z"></path><path d="M283.6,338.1a1.08,1.08,0,0,1-1.19.17,2.9,2.9,0,0,1-1.28-.87c-3.61-5.82-7.08-11.7-10.69-17.53-4.75-7.67-9.6-15.31-14.4-23-1-1.59-2-3.19-2.92-4.79a.42.42,0,0,1,0-.38.53.53,0,0,1,.29-.3Z"></path><path d="M242.15,337a.79.79,0,0,1-.59,1,1,1,0,0,1-1.17-.52l-.06-.15c-2.36-7.07-4.83-14.1-7.32-21.13-2.74-7.73-5.53-15.44-8.29-23.16a.28.28,0,0,1,.22-.37.34.34,0,0,1,.42.19C231,307.51,236.53,322.18,242.15,337Z"></path><path d="M180.78,79.32a.33.33,0,0,1-.35-.29q-1.52-23-3-46.08a.79.79,0,0,1,.81-.8.84.84,0,0,1,.92.71s0,.09,0,.13c.38,10.18.82,20.36,1.21,30.53.18,4.64.28,9.28.42,13.92C180.8,78.06,180.78,78.69,180.78,79.32Z"></path><path d="M44.91,191.15a.43.43,0,0,1,.46.38.42.42,0,0,1-.43.41L9.06,193.71a.84.84,0,0,1-.9-.66c-.11-.79.12-.8,1.3-.84C21.27,191.85,33.09,191.43,44.91,191.15Z"></path><path d="M305.37,175a.35.35,0,0,1,.07-.31.47.47,0,0,1,.31-.16c2.78-.33,5.55-.69,8.34-1,5.86-.57,11.73-1,17.58-1.64S343.23,170.59,349,170c4.05-.45,8.11-.89,12.18-1.26a1.17,1.17,0,0,1,.32,0,.58.58,0,0,1,.49.59.61.61,0,0,1-.57.53q-7,.72-14.07,1.36Q332,172.6,316.72,174Z"></path><path d="M60.83,154.22a.44.44,0,0,1-.21.29.49.49,0,0,1-.39.05C58,154,55.7,153.5,53.45,153q-13.77-3.33-27.55-6.66c-5.25-1.27-10.53-2.5-15.76-3.83a13,13,0,0,1-1.49-.33.63.63,0,0,1-.39-.83.79.79,0,0,1,.92-.4Z"></path><path d="M59.87,212.92a.33.33,0,0,1-.28.37L9,224.52a1.21,1.21,0,0,1-1.18-.37c.43-.35.8-.9,1.3-1,6.39-1.31,12.81-2.53,19.2-3.84s12.47-2.65,18.71-4c3.75-.8,7.49-1.61,11.25-2.39A8.54,8.54,0,0,1,59.87,212.92Z"></path><path d="M173.2,336.77a1.83,1.83,0,0,1-1.93,1.6,1.32,1.32,0,0,1-.94-.37,1,1,0,0,1-.29-.86l4.1-24.42a.33.33,0,0,1,.36-.24C174.07,320.52,173.64,328.56,173.2,336.77Z"></path><path d="M362.37,125.8a.87.87,0,0,1-.14,1.2,1.57,1.57,0,0,1-.59.38q-17.1,5.75-34.22,11.44c-2.31.77-4.63,1.53-7,2.26a.34.34,0,0,1-.42-.17.27.27,0,0,1,.18-.37Z"></path><path d="M87.17,96.71a.29.29,0,0,1,.37,0l11,9.49a.23.23,0,0,1,.08.17.25.25,0,0,1-.08.18c-2.31-1.89-4.66-3.74-6.91-5.67C90,99.55,88.64,98.1,87.17,96.71Z"></path><path d="M226,65.53a19.58,19.58,0,0,1-.35,3c-.14.51-.29,1-.48,1.52a.27.27,0,0,1-.33.15.23.23,0,0,1-.19-.29c.46-1.42.91-2.85,1.36-4.28A.08.08,0,0,0,226,65.53Z"></path><path d="M70.21,197.07h0l6.3-.55a.72.72,0,0,1,.51.14.54.54,0,0,1,.23.41Z"></path><path d="M274.23,113a.17.17,0,0,0,.19,0l4-4a.63.63,0,0,1,.84,0Z"></path><path d="M245.94,293.86c0,16.72-40.44,42.11-71.17,42.11-19.49,0-41.83-4.44-41.83-21.15s54.82-48.75,74.3-48.75S245.94,277.15,245.94,293.86Z" fill="#e0e0e0"></path><path d="M176,297.46a15.76,15.76,0,0,0-4.72,11.26c0,10.73,9.89,15.34,19.81,15.34,14.41,0,38.94-25.85,48.56-36.64a5.78,5.78,0,0,0-.77-8.39,6.38,6.38,0,0,0-4.9-1.26l-9.68,1.55-.9,6.48,3.11-22.51v-31a99.25,99.25,0,0,0,49.19-88.16c-1.26-52.66-44.17-95.58-96.82-96.85a99.31,99.31,0,0,0-45.06,189l11.68,24.89c4.78,10.17.58,29.7-5.34,39.25-1.49,2.41-1.78,2.81-1.78,5.86a15.76,15.76,0,0,0,15.57,15.76c12.8,0,19.72-5,19.72-5" fill="#ffffff"></path><path d="M74.660 139.680 A32.210 32.210 0 1 0 139.080 139.680 A32.210 32.210 0 1 0 74.660 139.680 Z" fill="#f0f0f0"></path><path d="M180.250 139.680 A32.210 32.210 0 1 0 244.670 139.680 A32.210 32.210 0 1 0 180.250 139.680 Z" fill="#f0f0f0"></path><path d="M239.06,279.22c-10,11.14-33.85,36-48,36-6.94,0-13.85-2.27-17.38-7.3l0,.31a30.42,30.42,0,0,1-20.3,7.41c-7.09-.09-12.21-7.26-14.1-13.76a7.78,7.78,0,0,0-.89,4.39,15.76,15.76,0,0,0,15.57,15.76c12.8,0,19.72-5,19.72-5l0-.31c3.53,5,10.44,7.29,17.38,7.29,14.41,0,38.94-25.85,48.56-36.64a5.77,5.77,0,0,0,1.43-4.36A5.69,5.69,0,0,0,239.06,279.22Z" fill="#f0f0f0"></path><path d="M176,297.46a15.76,15.76,0,0,0-4.72,11.26c0,10.73,9.89,15.34,19.81,15.34,14.41,0,38.94-25.85,48.56-36.64a5.78,5.78,0,0,0-.77-8.39,6.38,6.38,0,0,0-4.9-1.26l-9.68,1.55-.9,6.48,3.11-22.51v-31a99.25,99.25,0,0,0,49.19-88.16c-1.26-52.66-44.17-95.58-96.82-96.85a99.31,99.31,0,0,0-45.06,189l11.68,24.89c4.78,10.17.58,29.7-5.34,39.25a12.52,12.52,0,0,0-1.78,5.86,15.76,15.76,0,0,0,15.57,15.76c12.8,0,19.72-5,19.72-5" fill="none" stroke="#45413c" stroke-linecap="round" stroke-linejoin="round" stroke-width="4"></path><path d="M209.86,239.91c-10,1.11-15.31,2.55-15.31-31.88a13.24,13.24,0,1,0-26.48-.23c-.28,31.14,3.75,42.27,13.9,51.44,6.87,6.21,15.13,7.59,22,7.59,1.28,0,6.1-.17,11.74-.39A23.16,23.16,0,0,0,238,243.3c0-6.33-5.13-11-11.46-11" fill="#ffffff" stroke="#45413c" stroke-linecap="round" stroke-linejoin="round" stroke-width="4"></path><path d="M134,236.67a16,16,0,0,1-1.93,2.79" fill="none" stroke="#45413c" stroke-linejoin="round" stroke-width="4"></path><path d="M140.24,265.39a14.75,14.75,0,0,1-4.9,1.36A23.88,23.88,0,0,0,140.24,265.39Z" fill="none" stroke="#45413c" stroke-linecap="round" stroke-linejoin="round" stroke-width="4"></path><path d="M134,236.67c3.08-5.4,6.53-10.92,6.11-28.43a13.24,13.24,0,1,1,26.47-.65c.73,29.47-7.63,47-22.33,55.82a28.61,28.61,0,0,1-3.93,1.94l-.09,0a23.88,23.88,0,0,1-4.9,1.36h0a12.68,12.68,0,0,1-1.52.08,15.08,15.08,0,0,1-15.08-15.08c0-12.29,10.33-17.88,15.29-15.08" fill="#ffffff" stroke="#45413c" stroke-linecap="round" stroke-linejoin="round" stroke-width="4"></path><path d="M274.72,129.4c-.41-2.28-.64-4.62-1.21-6.84" fill="#ffffff" stroke="#45413c" stroke-linecap="round" stroke-linejoin="round" stroke-width="4"></path><path d="M74.420 133.720 A30.460 30.460 0 1 0 135.340 133.720 A30.460 30.460 0 1 0 74.420 133.720 Z" fill="#ffffff" stroke="#45413c" stroke-linecap="round" stroke-linejoin="round" stroke-width="4"></path><path d="M100.910 131.070 A3.970 3.970 0 1 0 108.850 131.070 A3.970 3.970 0 1 0 100.910 131.070 Z" fill="#45413c"></path><path d="M183.760 133.720 A30.460 30.460 0 1 0 244.680 133.720 A30.460 30.460 0 1 0 183.760 133.720 Z" fill="#ffffff" stroke="#45413c" stroke-linecap="round" stroke-linejoin="round" stroke-width="4"></path><path d="M210.250 129.750 A3.970 3.970 0 1 0 218.190 129.750 A3.970 3.970 0 1 0 210.250 129.750 Z" fill="#45413c"></path><path d="M154.31,164.88a7.06,7.06,0,1,1,14.09-.83l.42,7a14.76,14.76,0,0,0-14.1.83Z" fill="#ffccdd" stroke="#45413c" stroke-linecap="round" stroke-linejoin="round" stroke-width="4"></path><path d="M226.58,184.76a8.13,8.13,0,0,1-16.26,0c0-4.49,8.13-20,8.13-20S226.58,180.27,226.58,184.76Z" fill="#4acfff" stroke="#00b8f0" stroke-linecap="round" stroke-linejoin="round" stroke-width="4"></path><path d="M117.17,184.76a8.13,8.13,0,1,1-16.26,0c0-4.49,8.13-20,8.13-20S117.17,180.27,117.17,184.76Z" fill="#4acfff" stroke="#00b8f0" stroke-linecap="round" stroke-linejoin="round" stroke-width="4"></path><path d="M106.87,164.8c-11.2-.32-24.56-5-20.24-10.71s14.72,4.33,21.27,1.36,23-5.14,15.4,2.53C117.17,164.18,106.87,164.8,106.87,164.8Z" fill="#4acfff" stroke="#00b8f0" stroke-linecap="round" stroke-linejoin="round" stroke-width="4"></path><path d="M211.48,164.8c11.2-.32,24.56-5,20.24-10.71s-14.72,4.33-21.27,1.36-23-5.14-15.4,2.53C201.18,164.18,211.48,164.8,211.48,164.8Z" fill="#4acfff" stroke="#00b8f0" stroke-linecap="round" stroke-linejoin="round" stroke-width="4"></path><path d="M74.420 133.720 A30.460 30.460 0 1 0 135.340 133.720 A30.460 30.460 0 1 0 74.420 133.720 Z" fill="none" stroke="#45413c" stroke-linecap="round" stroke-linejoin="round" stroke-width="4"></path><path d="M100.910 131.070 A3.970 3.970 0 1 0 108.850 131.070 A3.970 3.970 0 1 0 100.910 131.070 Z" fill="none"></path><path d="M183.760 133.720 A30.460 30.460 0 1 0 244.680 133.720 A30.460 30.460 0 1 0 183.760 133.720 Z" fill="none" stroke="#45413c" stroke-linecap="round" stroke-linejoin="round" stroke-width="4"></path><path d="M210.250 129.750 A3.970 3.970 0 1 0 218.190 129.750 A3.970 3.970 0 1 0 210.250 129.750 Z" fill="none"></path></g></svg>