<svg xmlns="http://www.w3.org/2000/svg" version="1.1" xmlns:xlink="http://www.w3.org/1999/xlink" xmlns:svgjs="http://svgjs.com/svgjs" viewBox="0 0 48 48" width="48" height="48"><title>Exported from Streamline App (https://app.streamlineicons.com)</title><g transform="matrix(0.12972972972972974,0,0,0.12972972972972974,0,0)"><path d="M285.86,184.85c-13.34,40.38-54,57-55.81,57.7a170.8,170.8,0,0,1,7.31,20l7,2.48a13.81,13.81,0,0,1,9.19,13v16.09a4.77,4.77,0,0,1-5.21,4.75,4.94,4.94,0,0,1-4.16-3.5l-3.64-11.53a4.46,4.46,0,0,0-2.17-2.83,4.52,4.52,0,0,0-3.56-.38c-11.15,3.49-39.9,15-43.76,43.41a5.7,5.7,0,0,1-5.82,5c-5.42,0-5.83-5.16-5.82-5.72,0-.93,0-2,0-3.07,0-13.68-1.09-40.53-8.83-60.52-5-.11-50.82-1.92-77-33.49-4.27-5.14-21.75-4.62-18.16-12,2.14-4.42,13.44.95,13.44.95.69-2.73,2.28-4.62,5.39-5.06,0,0-7.63-14.25-1.66-15.78s14.66,15.45,14.66,15.45l.73-.22h-.12a79.6,79.6,0,1,1,138.7-3.21c5.77-6.27,15.43-17.28,16.53-22.75-1-1.35-3-4.64-1.74-7.13.68-1.29,3-1.92,5.61-2.06,0,0,2.05-18.9,8.17-19.67s4.21,15.27,4.21,15.27c3.06-.72,5.23.46,6.87,2.76,0,0,8.56-9.13,12.17-5.8C304.41,172.6,288,178.5,285.86,184.85Z" fill="#ffffff"></path><path d="M164.850 329.950 A62.09 6.8 0 1 0 289.030 329.950 A62.09 6.8 0 1 0 164.850 329.950 Z" fill="#e0e0e0"></path><path d="M158,237.39c-12-1.93-30.4-7-43.7-20.53.47-1.63,1.55-5.25-1-7.27-1.12-.89-3.67-.55-6.1.24,0,0-8.68-17-14.66-15.44s1.66,15.76,1.66,15.76c-3.11.45-4.69,2.34-5.39,5.07,0,0-11.3-5.37-13.44-.95-3.58,7.4,13.9,6.88,18.16,12,26.2,31.57,72,33.38,77,33.48h0c8.37,21.64,9,51.3,8.81,63.61,0,.55.4,5.71,5.82,5.71a5.71,5.71,0,0,0,5.82-5c3.85-28.44,32.61-39.92,43.76-43.42a4.53,4.53,0,0,1,5.74,3.21l3.63,11.53a4.94,4.94,0,0,0,4.16,3.5,4.77,4.77,0,0,0,5.21-4.75V278.08a13.82,13.82,0,0,0-9.18-13l-7-2.48a170.29,170.29,0,0,0-7.31-20c1.86-.75,42.47-17.33,55.81-57.72,2.09-6.34,18.56-12.23,12.52-17.81-3.6-3.34-12.17,5.79-12.17,5.79-1.64-2.29-3.81-3.48-6.87-2.75,0,0,1.91-16.06-4.21-15.29S267,174.46,267,174.46c-2.58.14-4.94.78-5.6,2.06-1.3,2.5.7,5.78,1.73,7.13-1.1,5.47-10.77,16.49-16.54,22.77" fill="#ffffff"></path><path d="M103.61,145.77c-.49-3.67.27-7.35.76-10.92a79.69,79.69,0,0,0,3.53,74.85c.89-.67,9.33-3.12,6.44,7.16,14.73,18.46,63.35,28.28,96.16,19.58C241,228.38,117.74,255.09,103.61,145.77Z" fill="#f0f0f0"></path><path d="M106.33,216.37s-4.68,1.49-5.85-1.66c-.51-1.37,3.09-3.69,6.77-4.88" fill="none" stroke="#45413c" stroke-linecap="round" stroke-linejoin="round" stroke-width="3"></path><path d="M204.65,167.73a6.37,6.37,0,1,1-12.27,3.44L190.65,165a11.75,11.75,0,0,0,12.28-3.44Z" fill="#ffb0ca" stroke="#45413c" stroke-linecap="round" stroke-linejoin="round" stroke-width="3"></path><path d="M246.55,206.42a79.61,79.61,0,1,0-138.69,3.19" fill="none" stroke="#45413c" stroke-miterlimit="10" stroke-width="3"></path><path d="M246.56,206.42a80,80,0,0,1-19.62,24" fill="none" stroke="#45413c" stroke-linecap="round" stroke-miterlimit="10" stroke-width="3"></path><path d="M222.83,298.93h61.83a3.63,3.63,0,0,1,3.63,3.63v22.9a3.63,3.63,0,0,1-3.63,3.63H222.83a0,0,0,0,1,0,0V298.93A0,0,0,0,1,222.83,298.93Z" fill="#8ca4b8" stroke="#45413c" stroke-linecap="round" stroke-linejoin="round" stroke-width="3"></path><path d="M222.83,298.93a19.5,19.5,0,0,0-19.5,19.49v10.67h19.5Z" fill="#627b8c" stroke="#45413c" stroke-linecap="round" stroke-linejoin="round" stroke-width="3"></path><path d="M270.37,180.27s4.9-.32,4.84-3.68c0-1.46-4.39-2.34-8.25-2.13" fill="none" stroke="#45413c" stroke-linecap="round" stroke-linejoin="round" stroke-width="3"></path><path d="M158,237.39c-12-1.93-30.4-7-43.7-20.53.47-1.63,1.55-5.25-1-7.27-1.12-.89-3.67-.55-6.1.24,0,0-8.68-17-14.66-15.44s1.66,15.76,1.66,15.76c-3.11.45-4.69,2.34-5.39,5.07,0,0-11.3-5.37-13.44-.95-3.58,7.4,13.9,6.88,18.16,12,26.2,31.57,72,33.38,77,33.48h0c8.37,21.64,9,51.3,8.81,63.61,0,.55.4,5.71,5.82,5.71a5.71,5.71,0,0,0,5.82-5c3.85-28.44,32.61-39.92,43.76-43.42a4.53,4.53,0,0,1,5.74,3.21l3.63,11.53a4.94,4.94,0,0,0,4.16,3.5,4.77,4.77,0,0,0,5.21-4.75V278.08a13.82,13.82,0,0,0-9.18-13l-7-2.48a170.29,170.29,0,0,0-7.31-20c1.86-.75,42.47-17.33,55.81-57.72,2.09-6.34,18.56-12.23,12.52-17.81-3.6-3.34-12.17,5.79-12.17,5.79-1.64-2.29-3.81-3.48-6.87-2.75,0,0,1.91-16.06-4.21-15.29S267,174.46,267,174.46c-2.58.14-4.94.78-5.6,2.06-1.3,2.5.7,5.78,1.73,7.13-1.1,5.47-10.77,16.49-16.54,22.77" fill="none" stroke="#45413c" stroke-linecap="round" stroke-linejoin="round" stroke-width="3"></path><path d="M233.310 314.010 A8.310 8.310 0 1 0 249.930 314.010 A8.310 8.310 0 1 0 233.310 314.010 Z" fill="#525252" stroke="#45413c" stroke-linecap="round" stroke-linejoin="round" stroke-width="3"></path><path d="M259.930 314.010 A8.310 8.310 0 1 0 276.550 314.010 A8.310 8.310 0 1 0 259.930 314.010 Z" fill="#525252" stroke="#45413c" stroke-linecap="round" stroke-linejoin="round" stroke-width="3"></path><path d="M125.010 160.350 A27.610 27.610 0 1 0 180.230 160.350 A27.610 27.610 0 1 0 125.010 160.350 Z" fill="#f0f0f0"></path><path d="M201.260 140.260 A27.610 27.610 0 1 0 256.480 140.260 A27.610 27.610 0 1 0 201.260 140.260 Z" fill="#f0f0f0"></path><path d="M140,127.93a27.92,27.92,0,1,0,27.12,8.31A54.66,54.66,0,0,1,140,127.93Z" fill="#ffffff" stroke="#45413c" stroke-linecap="round" stroke-linejoin="round" stroke-width="3"></path><path d="M176.74,135.74a54.89,54.89,0,0,1-45.08-14.21" fill="none" stroke="#45413c" stroke-linecap="round" stroke-linejoin="round" stroke-width="3"></path><path d="M146.540 154.760 A3.990 3.990 0 1 0 154.520 154.760 A3.990 3.990 0 1 0 146.540 154.760 Z" fill="#45413c"></path><path d="M223.59,105.62a27.94,27.94,0,1,1-19.37,20.72A54.71,54.71,0,0,0,223.59,105.62Z" fill="#ffffff" stroke="#45413c" stroke-linecap="round" stroke-linejoin="round" stroke-width="3"></path><path d="M195.66,130.69a54.88,54.88,0,0,0,32-34.79" fill="none" stroke="#45413c" stroke-linecap="round" stroke-linejoin="round" stroke-width="3"></path><path d="M218.960 136.270 A3.990 3.990 0 1 0 226.940 136.270 A3.990 3.990 0 1 0 218.960 136.270 Z" fill="#45413c"></path><path d="M49.62,128.37a8.26,8.26,0,0,1-6.85-4.16l-.4-.65,0-.1c-1.37-2.68-1.52-6.67-1.65-10.19,0-.93-.07-1.87-.13-2.67-2.64-.85-4.44-1.39-7.59-2.27l-1-.28c-4.63-1.33-9.87-2.84-13.57-6.56l-.07-.07-.18-.21A13,13,0,0,1,17,99.75c-1.18-1.8-2.63-5.47.9-9.69a22.4,22.4,0,0,1,3.45-3.26,13.19,13.19,0,0,1,7.84-3,9,9,0,0,1,2,.23,41.32,41.32,0,0,1,9.58,4.51l.57.33c.09-1.21.19-2.44.31-3.73.08-.75.12-1.52.16-2.29.27-4.74.61-10.64,7.89-14.91A11.74,11.74,0,0,1,55.57,66a6,6,0,0,1,5.66,3.79,16.49,16.49,0,0,1,1.4,7.53c0,3.43-.41,7.29-.72,10.39-.11,1.12-.22,2.17-.29,3.09-.4,3.92-.57,7-.75,10.21-.12,2.13-.24,4.35-.43,6.93-.08,1-.13,2-.18,3-.28,5.82-.57,11.83-6.24,15.92A7.48,7.48,0,0,1,49.62,128.37Z" fill="#45413c"></path><path d="M55.57,69a3,3,0,0,1,2.93,2,13.55,13.55,0,0,1,1.13,6.26c0,4.51-.71,9.79-1,13.27-.66,6.46-.7,10.6-1.18,17.17-.51,6.83.13,12.9-5.19,16.74a4.45,4.45,0,0,1-2.64.92,5.25,5.25,0,0,1-4.28-2.72l-.35-.56c-1.72-3.36-1-10.79-1.72-13.76-3.76-1.23-5.66-1.81-9.51-2.89-4.69-1.36-9.84-2.67-13.21-6.06a12.61,12.61,0,0,1-1-1.27c-1.29-2-1.12-4,.69-6.13a18.89,18.89,0,0,1,3-2.79,10.38,10.38,0,0,1,6-2.41,5.79,5.79,0,0,1,1.31.15c4.87,1.33,10,5.27,13.47,6.67.26-2.55.38-5.24.68-8.18.51-5.36-.36-10.85,6.58-14.92A9.25,9.25,0,0,1,55.57,69m0-6a14.65,14.65,0,0,0-7.36,2.34c-8.66,5.08-9.08,12.45-9.36,17.33,0,.44-.05.86-.08,1.27a32.18,32.18,0,0,0-6.67-2.79l-.09,0-.1,0a11.53,11.53,0,0,0-2.7-.31,16.15,16.15,0,0,0-9.66,3.64,25.1,25.1,0,0,0-3.91,3.69c-3.51,4.19-3.91,9-1.13,13.28a15.39,15.39,0,0,0,1.4,1.79l.11.14.13.15.15.14c4.24,4.27,9.88,5.89,14.86,7.33l.93.26h0c2.26.63,3.82,1.09,5.51,1.61,0,.19,0,.38,0,.55.15,3.83.31,8.17,2,11.44l.1.2.12.2.23.38.12.18a11.11,11.11,0,0,0,9.4,5.59,10.45,10.45,0,0,0,6.15-2.06c6.84-4.94,7.2-12.29,7.49-18.2.05-1,.1-2,.17-3,.19-2.63.32-4.85.44-7,.17-3.2.34-6.23.73-10V91c.07-.91.17-1.94.28-3,.32-3.16.71-7.1.74-10.66A19.46,19.46,0,0,0,64,68.55,9,9,0,0,0,55.57,63Z" fill="#45413c"></path><path d="M84.48,105.4c-9.06,0-17.11-6-21.55-16.12a27.88,27.88,0,0,1-.31-21.52A24.55,24.55,0,0,1,76.06,54,27.38,27.38,0,0,1,86.5,51.88a20,20,0,0,1,12.5,4c3.65,2.85,6.47,7.65,8.38,14.27,4.05,14-1.4,27.62-13.24,33A23.39,23.39,0,0,1,84.48,105.4Zm.18-34.71a4.91,4.91,0,0,0-1.86.48c-1.9.86-3.67,3.16-1.29,9.25,1,2.65,3.14,5.39,4.88,5.39h0a2.17,2.17,0,0,0,.88-.21c3.19-1.43,2.59-5.79,1.52-9.2C88,73.8,86.6,70.69,84.66,70.69Z" fill="#45413c"></path><path d="M86.5,54.88a17.13,17.13,0,0,1,10.65,3.41c3.78,3,6,8.05,7.35,12.74,3.25,11.3-.24,24.28-11.6,29.43a20.29,20.29,0,0,1-8.42,1.94c-8.3,0-15.09-5.88-18.8-14.33-5-11.41-.74-26.2,11.52-31.25a24.51,24.51,0,0,1,9.3-1.94m-.11,33.93a5.05,5.05,0,0,0,2.11-.47C93.71,86,93,79.83,91.65,75.5c-1.43-4.57-3.54-7.81-7-7.81a7.55,7.55,0,0,0-3.08.75c-5.27,2.36-4.78,8.17-2.86,13.08,1.24,3.18,4.08,7.29,7.67,7.29m.12-39.93h0a30.41,30.41,0,0,0-11.59,2.39A27.56,27.56,0,0,0,59.83,66.64a30.89,30.89,0,0,0,.36,23.84c4.93,11.22,14,17.92,24.29,17.92a26.37,26.37,0,0,0,10.9-2.48,27.19,27.19,0,0,0,14.45-15.86,34.07,34.07,0,0,0,.43-20.69c-2.08-7.24-5.25-12.56-9.42-15.81a23,23,0,0,0-14.33-4.68ZM86.4,82.61a9.18,9.18,0,0,1-2.09-3.28,10.32,10.32,0,0,1-.9-4.56c.07-.57.15-.65.62-.86l.32-.13a12.14,12.14,0,0,1,1.58,3.51,12.07,12.07,0,0,1,.66,4.61,1.89,1.89,0,0,1-.19.71Z" fill="#45413c"></path><path d="M125.28,91.53c-7.92,0-14.53-5.3-18.6-14.93a110.47,110.47,0,0,1-4.6-13.87,52,52,0,0,1-1.77-8.65c-.62-6.46,4.76-11,10-12.59.76-.22,1.67-.39,2.29-.5l.11,0h.11l.81,0c2.63,0,7.31,1.25,9.1,9.64.4,1.87.79,4.15,1.21,6.57.54,3.08,1.14,6.57,1.9,10.07a9.44,9.44,0,0,0,.68,2.09,20.74,20.74,0,0,0,0-4.91l0-.18c-.09-1.22-.37-3.15-.66-5.18-.55-3.91-1.13-8-1-10.31.24-3.44,1.33-8.18,8-9.5a9.76,9.76,0,0,1,1.91-.2c4.39,0,6.68,3.35,7.43,4.46,1.91,2.81,3.38,8.16,4.5,16.36a36.17,36.17,0,0,1-1.42,16c-2.06,5.65-6.35,12.85-15.09,15.06A20,20,0,0,1,125.28,91.53Z" fill="#45413c"></path><path d="M134.81,42c2.3,0,3.75,1.38,5,3.15,2.37,3.49,3.58,12,4,15.07a33.08,33.08,0,0,1-1.27,14.55C140.71,79.7,137,86.07,129.5,88a17.09,17.09,0,0,1-4.22.56c-8.06,0-13-6.51-15.84-13.09A111.77,111.77,0,0,1,105,61.94a49.33,49.33,0,0,1-1.67-8.14c-.44-4.57,3.53-8.16,7.87-9.43a18.27,18.27,0,0,1,2-.42l.53,0c3.63,0,5.37,3.55,6.16,7.26.89,4.15,1.75,10.33,3.12,16.65.73,3.41,2.22,5.2,3.63,5.2A1.52,1.52,0,0,0,127,73c3.26-.81,2.77-6.24,2.55-9-.27-3.58-1.85-11.82-1.62-15,.25-3.57,1.36-5.93,5.58-6.77a6.32,6.32,0,0,1,1.32-.14m0-6a13.58,13.58,0,0,0-2.5.25c-4.56.91-7.64,3.26-9.22,7a11,11,0,0,0-9.44-5.34,9.87,9.87,0,0,0-1.08,0l-.22,0-.22,0a25.26,25.26,0,0,0-2.64.58c-7.83,2.29-12.84,8.77-12.16,15.76a55.11,55.11,0,0,0,1.85,9.15,114.17,114.17,0,0,0,4.74,14.25c4.57,10.81,12.16,16.76,21.36,16.76a23.16,23.16,0,0,0,5.69-.74c7.81-2,13.91-8,17.17-16.94a38.9,38.9,0,0,0,1.57-17.42c-1.2-8.79-2.78-14.39-5-17.63-2.62-3.84-6-5.78-9.92-5.78Z" fill="#45413c"></path><path d="M164.4,85.38c-4.78,0-7.73-2.64-8.33-7.44-1.28-10.28-2-16.19-2.33-19.92-.15-1.64-.22-2.79-.28-3.69,0-.53-.07-1-.1-1.37l-.18-2v-.39c-.09-3.41-.2-7.28,2.89-12.07,3.71-5.75,11.15-7.22,16.73-7.44l1.61,0c12.75,0,20.5,6.44,20.73,17.22l0,1.18a15.6,15.6,0,0,1-8.33,13.85l.35.48c.73,1,1.6,2.13,2.44,3.19a42.81,42.81,0,0,1,3.35,4.59,12.27,12.27,0,0,1,1.78,6.27c-.09,3-2.19,6.21-7.79,6.35h-.39c-5-.09-8.9-4.16-12.14-8.17a12.39,12.39,0,0,1-1.17,5.07c-1.49,2.8-4.88,4-7.55,4.25C165.21,85.36,164.8,85.38,164.4,85.38Zm8.8-35.06c2.46-.4,2.44-1.68,2.43-2.34s-.93-1-1.7-1h-.08a7.21,7.21,0,0,0-.79.08Z" fill="#45413c"></path><path d="M174.4,34.05c11,0,17.53,5.07,17.73,14.29,0,.41,0,.61,0,1-.25,8.19-6.3,11.61-9.13,12.15-.42.13-1.11.21-1.1.41s.2.34.27.4,1.85,2.24,2.53,3.19c1.89,2.66,4.44,5.5,5.65,7.56a9.14,9.14,0,0,1,1.37,4.66c-.07,2.1-1.78,3.37-4.87,3.45h-.25c-6.49-.11-11.64-10.49-15.65-13.94a22.49,22.49,0,0,1,.44,4c.19,4.4,0,6.92-.81,8.45s-3,2.49-5.15,2.67c-.35,0-.68,0-1,0-3.15,0-4.93-1.4-5.35-4.81-1.32-10.59-2-16.25-2.32-19.82-.24-2.63-.29-4-.39-5.06-.06-.75-.1-1.13-.17-1.89-.09-3.39-.25-6.52,2.41-10.65,3.33-5.15,10.85-5.93,14.33-6.07l1.49,0M172,53.43h.28c3.69-.16,6.43-1.83,6.38-5.48,0-2.44-2.41-3.94-4.7-3.94h-.19A5.57,5.57,0,0,0,170,45.26c.14,3.19.21,4.79.34,8a10.57,10.57,0,0,0,1.65.19m2.43-25.38-1.73,0c-9,.36-15.64,3.41-19.13,8.81C150,42.46,150.07,47,150.17,50.67v.48l0,.19.08.95.09.94c0,.38.06.79.09,1.3.06.88.14,2.08.29,3.76.35,3.78,1.06,9.71,2.34,20,.79,6.31,5,10.07,11.31,10.07.48,0,1,0,1.49-.06,4.49-.37,8.21-2.55,10-5.83l.12-.23c2.88,2.74,6.29,4.85,10.5,4.92H187c5.19-.14,10.51-3.05,10.71-9.26a15.07,15.07,0,0,0-2.19-7.87,44.84,44.84,0,0,0-3.58-4.94l-.84-1.06a18.7,18.7,0,0,0,7-14.51l0-.5v-.83c-.27-12.44-9.36-20.16-23.73-20.16Z" fill="#45413c"></path><path d="M215.76,86.3a23,23,0,0,1-3.19-.23c-13.18-1.9-21.22-13.15-20.49-28.66.55-11.65,9.5-24.22,23-24.22a22.19,22.19,0,0,1,3.87.35c8.59,1.52,15.8,6.82,18.81,13.82,1.9,4.41,2.23,9.91,1,16.8C236.08,79.37,225,86.3,215.76,86.3Zm.34-34.37c-3,0-3.84,4.53-4.08,7.23-.28,3.12.42,7.66,2.86,8a3.56,3.56,0,0,0,.55,0c2.93,0,4-4.93,4.36-7.05.67-4.21.06-6.1-.56-6.94a3.36,3.36,0,0,0-2.5-1.23A4.7,4.7,0,0,0,216.1,51.93Z" fill="#45413c"></path><path d="M215.08,36.19a19.4,19.4,0,0,1,3.35.3c7.78,1.38,14,6.06,16.58,12,2,4.63,1.66,10.29.81,15.1C234,73.88,226.53,83.3,215.76,83.3a18.69,18.69,0,0,1-2.76-.2c-13.15-1.9-18.5-13.35-17.92-25.55.51-10.89,8.67-21.36,20-21.36m.35,34c4.78,0,6.65-5.34,7.33-9.58,1-6,0-10.82-5.61-11.61a7.77,7.77,0,0,0-1.05-.08c-4.77,0-6.62,5-7.07,10-.37,4.11.61,10.57,5.44,11.24a6.39,6.39,0,0,0,1,.07m-.35-40h0a24.59,24.59,0,0,0-18.55,8.62,30.47,30.47,0,0,0-7.45,18.46c-.8,17.16,8.25,29.63,23.06,31.77a26.15,26.15,0,0,0,3.62.26c12.72,0,23.4-10.12,26-24.61,1.32-7.49.93-13.55-1.21-18.52-3.41-7.92-11.47-13.89-21-15.59a25.33,25.33,0,0,0-4.4-.39Zm.41,33.72a10.48,10.48,0,0,1-.48-4.48,9.73,9.73,0,0,1,1.2-4.49h.1a3,3,0,0,1,.54.12c.13.32.47,1.53,0,4.61a11.52,11.52,0,0,1-1.34,4.23Z" fill="#45413c"></path><path d="M260.23,96.25A24.15,24.15,0,0,1,252.35,95C240.4,90.78,233.12,77,235.78,63.67c2.25-11.34,12.4-19.89,23.62-19.89a22.72,22.72,0,0,1,7.74,1.37c2.15.77,9.46,3.71,13.34,9.23,2.58,3.66,3.3,7,2.2,10.23a7.78,7.78,0,0,1-7.5,5.64,10.86,10.86,0,0,1-3.93-.8,15.87,15.87,0,0,1-3.7-2.2c-.5-.38-1-.79-1.49-1.2a12.72,12.72,0,0,0-3.83-2.49,8.67,8.67,0,0,0-2.82-.54c-3.52,0-4.86,3.37-5.35,5.38a7,7,0,0,0,4,8.16,8.68,8.68,0,0,0,3.12.61,14.76,14.76,0,0,0,3.4-.53,16.67,16.67,0,0,1,4-.61,9.2,9.2,0,0,1,3.55.69,10.39,10.39,0,0,1,1.79.86,7.32,7.32,0,0,1,3,8.61A12.08,12.08,0,0,1,275.58,89C272.68,93.58,267.07,96.25,260.23,96.25Z" fill="#45413c"></path><path d="M259.4,46.78A19.92,19.92,0,0,1,266.13,48c3.79,1.36,9.14,4.23,11.9,8.14,2,2.81,2.61,5.19,1.81,7.53a4.78,4.78,0,0,1-4.66,3.61,7.83,7.83,0,0,1-2.83-.6,12.62,12.62,0,0,1-3-1.79c-1.87-1.42-3.57-3.25-6.15-4.14a11.83,11.83,0,0,0-3.8-.7c-5,0-7.4,4.1-8.27,7.67-1,4.25.82,9.74,5.86,11.67a11.56,11.56,0,0,0,4.19.81c2.89,0,5.06-1.14,7.39-1.14a6.42,6.42,0,0,1,2.43.47,9.28,9.28,0,0,1,1.28.6,4.28,4.28,0,0,1,1.82,5.11,9,9,0,0,1-1,2.1c-2.7,4.28-7.89,5.94-12.86,5.94a21.45,21.45,0,0,1-6.89-1.11c-11.29-4-16.84-16.72-14.62-27.89,1.95-9.85,10.74-17.47,20.68-17.47m0-6h0c-12.62,0-24,9.59-26.57,22.31a32.27,32.27,0,0,0,2.76,20.48A28,28,0,0,0,251.36,97.8a27.18,27.18,0,0,0,8.87,1.45c7.86,0,14.38-3.16,17.89-8.67a15,15,0,0,0,1.66-3.41,10.26,10.26,0,0,0-4.19-12.08l0,0h0a12.86,12.86,0,0,0-2.29-1.12,12.5,12.5,0,0,0-4.68-.91,19.52,19.52,0,0,0-4.69.69,12.24,12.24,0,0,1-2.7.45,5.65,5.65,0,0,1-2-.41c-2.06-.79-2.52-3.24-2.17-4.65.28-1.15,1-3.09,2.43-3.09a6,6,0,0,1,1.84.37,10.32,10.32,0,0,1,2.9,2c.5.42,1,.85,1.59,1.28a18.28,18.28,0,0,0,4.42,2.6,13.7,13.7,0,0,0,5,1,10.78,10.78,0,0,0,10.34-7.68c1.41-4.13.54-8.48-2.59-12.92-4.39-6.23-12.42-9.48-14.77-10.33a26,26,0,0,0-8.76-1.54Z" fill="#45413c"></path><path d="M304.79,118.92a14.14,14.14,0,0,1-6.92-2.37,18.42,18.42,0,0,1-4.35-3.57c-3.21-3.69-3.38-8.32-3.24-12.91-2.13,4.17-4.43,7.55-8.07,7.55h0a5.48,5.48,0,0,1-2.47-.6c-8-4-7.38-10.35-5.93-15.45,1.92-6.79,4.21-13.58,6.42-20.15,1.51-4.5,3.08-9.15,4.51-13.74l0-.13a4.89,4.89,0,0,1,4.62-3.17,5.67,5.67,0,0,1,1.35.17,27.93,27.93,0,0,1,4.75,1.72c3.05,1.49,6.15,3.28,7.54,7.27a14.62,14.62,0,0,1,0,9.12c2-.61,4-1.23,5.9-1.63a22.32,22.32,0,0,1,4.6-.48,16.09,16.09,0,0,1,8.51,2.15c3.82,2.39,5.52,7.62,3.63,11.21-2.46,4.67-9.7,5.52-16.09,6.28l-2.94.36c.41,2.77,1.27,6.07,2.1,9.29.61,2.33,1.23,4.73,1.68,6.93l.09.3,0,.14c.57,2.84,1,6.09-.34,8.56a5.84,5.84,0,0,1-3.68,2.92A6.72,6.72,0,0,1,304.79,118.92Z" fill="#45413c"></path><path d="M289.4,57.38a2,2,0,0,1,.59.08A23.81,23.81,0,0,1,294.18,59c2.73,1.33,5,2.68,6,5.56,1.07,3.08.56,6.27-.84,9.58a30.76,30.76,0,0,1-1.58,3.14c3.66-.78,8.21-2.52,11.8-3.28a19.15,19.15,0,0,1,4-.42,13.25,13.25,0,0,1,6.92,1.7c2.57,1.6,3.71,5.1,2.57,7.26-2.47,4.67-14.91,4.27-19.6,5.62.13,5.33,2.84,13.18,4.09,19.37l.09.3c.38,1.88.89,4.81-.05,6.56a2.84,2.84,0,0,1-1.86,1.44,3.56,3.56,0,0,1-.94.12,11.28,11.28,0,0,1-5.35-1.92,15.8,15.8,0,0,1-3.62-3c-2.87-3.29-2.67-7.85-2.48-12.58,0-.39,0-.58,0-1,.15-2.78.25-6.42.19-8.47a.31.31,0,0,0-.21-.26.41.41,0,0,0-.19,0,.31.31,0,0,0-.2.07c-3.62,4.29-6.58,15.82-10.76,15.82a2.54,2.54,0,0,1-1.13-.28c-5.45-2.71-6-6.34-4.39-12,3.23-11.36,7.39-22.5,10.91-33.82a1.91,1.91,0,0,1,1.8-1.19m0-6A7.89,7.89,0,0,0,282,56.53l0,.13,0,.13c-1.42,4.55-3,9.19-4.48,13.67-2.23,6.6-4.52,13.43-6.47,20.29-.94,3.3-3.79,13.35,7.48,19a8.57,8.57,0,0,0,9.54-1.26,15.63,15.63,0,0,0,3.32,6.5,22,22,0,0,0,5,4.16,17.15,17.15,0,0,0,8.5,2.81,9.87,9.87,0,0,0,2.46-.31l.07,0,.07,0a8.84,8.84,0,0,0,5.5-4.39c1.76-3.3,1.31-7.19.63-10.56l0-.28-.08-.28v0c-.47-2.24-1.09-4.63-1.69-6.94-.53-2-1.06-4.06-1.47-6,6.72-.8,15-1.84,18.15-7.83,2.63-5,.47-11.93-4.71-15.15a19,19,0,0,0-10.09-2.61,24.89,24.89,0,0,0-5.22.55c-.52.11-1,.23-1.56.37a16.53,16.53,0,0,0-.92-5.92c-1.91-5.48-6.56-7.75-9.05-9a31.32,31.32,0,0,0-5.31-1.92,8.36,8.36,0,0,0-2.11-.27Z" fill="#45413c"></path><path d="M320.4,130.66a11.54,11.54,0,0,1-6.66-2.45c-2.94-2.16-4.79-6.81-2.65-10.55a7.53,7.53,0,0,1,6.46-3.84c-1.91-5.68,1.12-11.83,4.15-17.2.75-1.33,1.57-2.7,2.42-4.12s1.77-3,2.67-4.55l1.23-2.5,0-.07c.15-.27.36-.69.57-1.09s.47-.92.63-1.19l.32-.58a8.61,8.61,0,0,1,1.61-2.07l.25-.23.3-.18a5.74,5.74,0,0,1,2.88-.74,10.85,10.85,0,0,1,6.24,2.46,22.66,22.66,0,0,1,6,6.5,12.94,12.94,0,0,1,1.6,10.41,20.19,20.19,0,0,1-2.74,6c-4.36,6.67-12.16,12.72-15.83,14.12a12.72,12.72,0,0,1-2.89.78,7.54,7.54,0,0,1-.2,7.55A7.39,7.39,0,0,1,320.4,130.66Z" fill="#45413c"></path><path d="M334.62,82.3a8.29,8.29,0,0,1,4.47,1.88,19.74,19.74,0,0,1,5.19,5.62,9.84,9.84,0,0,1,1.27,8.13,17.26,17.26,0,0,1-2.34,5.06c-4,6.08-11.18,11.74-14.39,13a9.46,9.46,0,0,1-3.34.7,5.25,5.25,0,0,1-4.8-3.05c-1.92-4.3.2-9.43,3.64-15.51,1.52-2.69,3.33-5.58,5.12-8.74l1.23-2.5c.32-.57.91-1.76,1.2-2.28l.32-.57a5.53,5.53,0,0,1,1-1.35,2.76,2.76,0,0,1,1.39-.35m-16.78,34.51a6.57,6.57,0,0,1,1.51.19,7.29,7.29,0,0,1,2.73,1.29c2.37,1.77,3.69,4.8,2.18,7.18a4.38,4.38,0,0,1-3.86,2.19,8.63,8.63,0,0,1-4.88-1.86c-1.73-1.28-3.17-4.3-1.83-6.65a4.59,4.59,0,0,1,4.15-2.34M334.62,76.3h0a8.74,8.74,0,0,0-4.37,1.14l-.6.35-.51.47A11.21,11.21,0,0,0,327,81.05l-.16.28-.17.3c-.16.29-.42.78-.68,1.29l-.51,1-.09.15-.07.15-1.16,2.34c-.86,1.52-1.74,3-2.59,4.42s-1.68,2.82-2.45,4.18c-3,5.3-5.56,10.87-5.07,16.34a10.53,10.53,0,0,0-5.54,4.7A11.32,11.32,0,0,0,312,130.63a14.57,14.57,0,0,0,8.44,3,10.43,10.43,0,0,0,8.93-5,10.18,10.18,0,0,0,1.43-7.06l.21-.08c4.68-1.79,12.74-8.36,17.26-15.28a23,23,0,0,0,3.14-6.87,15.83,15.83,0,0,0-1.93-12.67,26.06,26.06,0,0,0-6.8-7.39,13.75,13.75,0,0,0-8-3Z" fill="#45413c"></path><path d="M49.62,125.87a7.25,7.25,0,0,1-6-3.68l-.38-.62,0-.07c-1.27-2.48-1.41-6.35-1.54-9.77-.05-1.25-.09-2.45-.19-3.38-3-1-4.86-1.53-8.26-2.48l-.95-.28c-4.51-1.29-9.63-2.76-13.14-6.3l-.21-.24a12.27,12.27,0,0,1-1.06-1.34c-1.26-1.93-2.14-5,.83-8.51A20.36,20.36,0,0,1,22,86.1a12.18,12.18,0,0,1,7.23-2.82,7.94,7.94,0,0,1,1.77.2,41.07,41.07,0,0,1,9.32,4.4c.67.39,1.32.77,2,1.12l.06-.86c.11-1.41.21-2.88.37-4.42.07-.77.12-1.55.16-2.33.27-4.74.58-10.11,7.4-14.11a10.85,10.85,0,0,1,5.33-1.79,5,5,0,0,1,4.75,3.2,15.44,15.44,0,0,1,1.31,7.11c0,3.38-.41,7.22-.72,10.3-.11,1.13-.21,2.18-.29,3.1-.4,3.93-.57,7-.75,10.25-.12,2.12-.24,4.33-.43,6.91-.08,1-.13,2.06-.17,3-.29,5.84-.56,11.35-5.84,15.16A6.44,6.44,0,0,1,49.62,125.87Z" fill="#ffcd21"></path><path d="M55.57,67.49a3,3,0,0,1,2.93,2,13.55,13.55,0,0,1,1.13,6.26c0,4.51-.71,9.79-1,13.27-.66,6.46-.7,10.6-1.18,17.17-.51,6.83.13,12.9-5.19,16.74a4.45,4.45,0,0,1-2.64.92,5.25,5.25,0,0,1-4.28-2.72l-.35-.56c-1.72-3.36-1-10.79-1.72-13.76-3.76-1.23-5.66-1.81-9.51-2.89-4.69-1.36-9.84-2.67-13.21-6.06a12.61,12.61,0,0,1-1-1.27c-1.29-2-1.12-4,.69-6.13a18.89,18.89,0,0,1,3-2.79,10.38,10.38,0,0,1,6-2.41,5.79,5.79,0,0,1,1.31.15c4.87,1.33,10,5.27,13.47,6.67.26-2.55.38-5.24.68-8.18.51-5.36-.36-10.85,6.58-14.92a9.25,9.25,0,0,1,4.32-1.51m0-4a12.76,12.76,0,0,0-6.34,2.06c-7.75,4.55-8.12,11-8.38,15.73-.05.78-.09,1.53-.16,2.26s-.14,1.44-.2,2.14a39.14,39.14,0,0,0-8.92-4.11l-.06,0h-.06a9.8,9.8,0,0,0-2.24-.26,14.18,14.18,0,0,0-8.44,3.23,22.49,22.49,0,0,0-3.6,3.39c-4,4.74-2.32,8.86-1,10.9a16.29,16.29,0,0,0,1.23,1.57l.12.13.09.1.09.1c3.88,3.9,9.26,5.45,14,6.81l.93.27c2.9.81,4.65,1.33,7,2.06,0,.63.06,1.32.08,2,.14,3.62.29,7.72,1.76,10.6l.07.14.08.12.23.39.11.18a9.29,9.29,0,0,0,7.7,4.63,8.48,8.48,0,0,0,5-1.68c6.06-4.37,6.38-10.91,6.66-16.68.05-1,.1-2,.18-3,.19-2.61.31-4.82.43-7,.18-3.23.34-6.27.74-10.12v-.07c.08-.91.18-2,.29-3.07.31-3.12.7-7,.73-10.48a17.58,17.58,0,0,0-1.48-7.95,7,7,0,0,0-6.58-4.38Z" fill="#45413c"></path><path d="M84.48,102.9c-8.65,0-16.36-5.81-20.63-15.53a26.92,26.92,0,0,1-.31-20.74,23.59,23.59,0,0,1,12.9-13.16A26.21,26.21,0,0,1,86.5,51.38a19.1,19.1,0,0,1,11.88,3.83c3.49,2.73,6.19,7.36,8,13.77C111,84.8,103,96.56,93.73,100.78A22.45,22.45,0,0,1,84.48,102.9Zm.18-34.71a5.68,5.68,0,0,0-2.27.57c-4.17,1.87-3.28,6.76-1.81,10.53,1.17,3,3.54,6,5.81,6h0a3.14,3.14,0,0,0,1.29-.3c3.86-1.73,3.25-6.62,2.06-10.41C87.74,68.19,85.42,68.19,84.66,68.19Z" fill="#ffcd21"></path><path d="M86.5,53.38a17.13,17.13,0,0,1,10.65,3.41c3.78,3,6,8.05,7.35,12.74,3.25,11.3-.24,24.28-11.6,29.43a20.29,20.29,0,0,1-8.42,1.94c-8.3,0-15.09-5.88-18.8-14.33-5-11.41-.74-26.2,11.52-31.25a24.51,24.51,0,0,1,9.3-1.94m-.11,33.93a5.05,5.05,0,0,0,2.11-.47C93.71,84.5,93,78.33,91.65,74c-1.43-4.57-3.54-7.81-7-7.81a7.55,7.55,0,0,0-3.08.75C76.31,69.3,76.8,75.11,78.72,80c1.24,3.18,4.08,7.29,7.67,7.29m.12-37.93h0a28.19,28.19,0,0,0-10.82,2.24,25.54,25.54,0,0,0-14,14.27A28.86,28.86,0,0,0,62,88.18c4.6,10.47,13,16.72,22.46,16.72a24.41,24.41,0,0,0,10.08-2.3A24.93,24.93,0,0,0,108,87.89a32,32,0,0,0,.39-19.47c-2-6.82-4.9-11.8-8.73-14.78a21,21,0,0,0-13.1-4.26Zm-.12,33.93c-1,0-2.88-2-4-4.75a12.12,12.12,0,0,1-1-5.54,2.72,2.72,0,0,1,1.79-2.43,3.66,3.66,0,0,1,1.45-.4c1,0,2.21,1.92,3.17,5,.78,2.47,1.68,6.8-1,8a1.2,1.2,0,0,1-.47.12Z" fill="#45413c"></path><path d="M125.28,89c-7.49,0-13.77-5.09-17.68-14.31A110.4,110.4,0,0,1,103,61a50.47,50.47,0,0,1-1.73-8.47c-.57-5.9,4.42-10.12,9.3-11.54a20.13,20.13,0,0,1,2.18-.47l.15,0,.71,0c2.33,0,6.48,1.15,8.12,8.84.39,1.86.79,4.13,1.21,6.54.53,3.09,1.14,6.6,1.9,10.11.54,2.51,1.41,3.43,1.69,3.6,1.46-.54,1.1-5.17,1-6.71v-.18c-.1-1.25-.37-3.19-.67-5.24a62.16,62.16,0,0,1-1-10.1c.24-3.38,1.27-7.41,7.19-8.59a8.5,8.5,0,0,1,1.71-.18c3.46,0,5.43,2.29,6.61,4,1.82,2.68,3.23,7.89,4.33,15.93A35.11,35.11,0,0,1,144.38,74c-2,5.42-6.08,12.32-14.39,14.43A19.12,19.12,0,0,1,125.28,89Z" fill="#ffcd21"></path><path d="M134.81,40.52c2.3,0,3.75,1.38,5,3.15,2.37,3.49,3.58,12,4,15.07a33.08,33.08,0,0,1-1.27,14.55c-1.79,4.91-5.51,11.28-13,13.18a17.09,17.09,0,0,1-4.22.56c-8.06,0-13-6.51-15.84-13.09A111.77,111.77,0,0,1,105,60.44a49.33,49.33,0,0,1-1.67-8.14c-.44-4.57,3.53-8.16,7.87-9.43a18.27,18.27,0,0,1,2-.42l.53,0c3.63,0,5.37,3.55,6.16,7.26.89,4.15,1.75,10.33,3.12,16.65.73,3.41,2.22,5.2,3.63,5.2a1.52,1.52,0,0,0,.42-.06c3.26-.81,2.77-6.24,2.55-9-.27-3.58-1.85-11.82-1.62-15,.25-3.57,1.36-5.93,5.58-6.77a6.32,6.32,0,0,1,1.32-.14m0-4a10.37,10.37,0,0,0-2.11.22c-8.16,1.62-8.63,8.24-8.78,10.41A20.38,20.38,0,0,0,124,50c-.08-.4-.16-.8-.24-1.17-1.94-9.08-7.14-10.43-10.08-10.43-.29,0-.6,0-.9,0h-.14l-.15,0a21.73,21.73,0,0,0-2.41.52c-8,2.35-11.21,8.72-10.73,13.65a53.29,53.29,0,0,0,1.79,8.81,111.9,111.9,0,0,0,4.65,14C110,85.51,116.93,91,125.28,91a21.17,21.17,0,0,0,5.2-.68c9.16-2.32,13.64-9.81,15.78-15.69a36.68,36.68,0,0,0,1.47-16.46c-1.15-8.47-2.63-13.8-4.65-16.78-.84-1.22-3.35-4.9-8.27-4.9Z" fill="#45413c"></path><path d="M164.4,82.88c-4.27,0-6.8-2.27-7.34-6.56-1.27-10.27-2-16.17-2.32-19.89-.15-1.63-.23-2.77-.29-3.67,0-.54-.06-1-.1-1.39l-.17-1.95v-.36c-.1-3.43-.19-7,2.73-11.5,3.48-5.39,10.58-6.77,15.93-7l1.57,0c12.32,0,19.51,5.92,19.73,16.25l0,1.12c-.23,7.61-4.93,11.93-8.89,13.5.43.55.85,1.09,1.09,1.44.75,1,1.63,2.16,2.48,3.23a42.78,42.78,0,0,1,3.27,4.48,11.11,11.11,0,0,1,1.64,5.73c-.08,2.52-1.91,5.25-6.82,5.38h-.34c-5.41-.09-9.66-5.56-13.08-10l0,0c.06,3.75-.27,5.86-1.11,7.43-1.29,2.44-4.33,3.52-6.74,3.72C165.16,82.86,164.77,82.88,164.4,82.88Zm7.85-33c4.43-.23,4.39-2.66,4.38-3.46,0-1.21-1.41-2-2.7-2h-.12a5.65,5.65,0,0,0-1.78.3Z" fill="#ffcd21"></path><path d="M174.4,32.55c11,0,17.53,5.07,17.73,14.29,0,.41,0,.61,0,1-.25,8.19-6.3,11.61-9.13,12.15-.42.13-1.11.21-1.1.41s.2.34.27.4S184,63.06,184.67,64c1.89,2.66,4.44,5.5,5.65,7.56a9.14,9.14,0,0,1,1.37,4.66c-.07,2.1-1.78,3.37-4.87,3.45h-.25c-6.49-.11-11.64-10.49-15.65-13.94a22.49,22.49,0,0,1,.44,4c.19,4.4,0,6.92-.81,8.45s-3,2.49-5.15,2.67c-.35,0-.68,0-1,0-3.15,0-4.93-1.4-5.35-4.81-1.32-10.59-2-16.25-2.32-19.82-.24-2.63-.29-4-.39-5.06-.06-.75-.1-1.13-.17-1.89-.09-3.39-.25-6.52,2.41-10.65,3.33-5.15,10.85-5.93,14.33-6.07l1.49,0M172,51.93h.28c3.69-.16,6.43-1.83,6.38-5.48,0-2.44-2.41-3.94-4.7-3.94h-.19A5.57,5.57,0,0,0,170,43.76c.14,3.19.21,4.79.34,8a10.57,10.57,0,0,0,1.65.19m2.43-23.38-1.65,0c-8.35.33-14.41,3.06-17.53,7.9-3.26,5.05-3.15,9.08-3.05,12.64v.54l.09,1,.08.94c0,.39.06.82.1,1.35.06.87.14,2.06.29,3.71.33,3.75,1.05,9.66,2.33,20,.66,5.28,4,8.31,9.32,8.31.42,0,.87,0,1.33-.06,3.81-.31,6.93-2.09,8.35-4.77a10.34,10.34,0,0,0,1-3.11c3.08,3.53,6.77,6.66,11.4,6.74h.43c6.3-.16,8.66-4.05,8.76-7.32a13.14,13.14,0,0,0-1.92-6.8,43.86,43.86,0,0,0-3.42-4.71c-.72-.91-1.46-1.84-2.11-2.73A16.68,16.68,0,0,0,196.1,48l0-.5v-.73c-.25-11.4-8.37-18.2-21.73-18.2Zm-.26,19,0-1a1.37,1.37,0,0,1,.53.17.89.89,0,0,1-.49.81Z" fill="#45413c"></path><path d="M215.76,83.8a21.06,21.06,0,0,1-3-.22c-10.05-1.45-20.48-9.47-19.63-27.62.53-11.19,9.09-23.27,22-23.27a21.2,21.2,0,0,1,3.7.33C227,34.49,234,39.56,236.84,46.25c1.83,4.23,2.13,9.54.95,16.24C235.19,77.13,224.55,83.8,215.76,83.8Zm.34-34.37c-3.78,0-4.8,5.1-5.08,8.14-.3,3.4.43,8.62,3.72,9.08a4.15,4.15,0,0,0,.69,0c3.57,0,4.88-5,5.35-7.9.58-3.65.33-6.24-.75-7.68a4.45,4.45,0,0,0-3.16-1.63A5.3,5.3,0,0,0,216.1,49.43Z" fill="#ffcd21"></path><path d="M215.08,34.69a19.4,19.4,0,0,1,3.35.3c7.78,1.38,14,6.06,16.58,12,2,4.63,1.66,10.29.81,15.1C234,72.38,226.53,81.8,215.76,81.8a18.69,18.69,0,0,1-2.76-.2c-13.15-1.9-18.5-13.35-17.92-25.55.51-10.89,8.67-21.36,20-21.36m.35,34c4.78,0,6.65-5.34,7.33-9.58,1-6,0-10.82-5.61-11.61a7.77,7.77,0,0,0-1.05-.08c-4.77,0-6.62,5-7.07,10-.37,4.11.61,10.57,5.44,11.24a6.39,6.39,0,0,0,1,.07m-.35-38h0a22.59,22.59,0,0,0-17.05,8,28.44,28.44,0,0,0-6.95,17.23c-.75,16.06,7.62,27.71,21.35,29.69a23.42,23.42,0,0,0,3.33.24,22,22,0,0,0,16.29-7.24,30.88,30.88,0,0,0,7.71-15.72c1.25-7.09.9-12.78-1.08-17.38-3.14-7.31-10.64-12.83-19.55-14.41a23.27,23.27,0,0,0-4-.36Zm.35,34-.41,0c-1.49-.2-2.28-3.82-2-6.92.13-1.48.75-6.32,3.08-6.32a4.4,4.4,0,0,1,.49,0c1.36.19,1.71.66,1.84.83.33.46,1,2,.37,6.19-.16,1-1.09,6.21-3.37,6.21Z" fill="#45413c"></path><path d="M260.23,93.75a23.25,23.25,0,0,1-7.55-1.22c-12.82-4.5-18.17-18.87-15.92-30.17,2.16-10.87,11.89-19.08,22.64-19.08a21.74,21.74,0,0,1,7.4,1.31c4.28,1.54,9.91,4.67,12.86,8.87,2.42,3.42,3.07,6.39,2.07,9.32a6.73,6.73,0,0,1-6.55,5,9.89,9.89,0,0,1-3.56-.73A14.36,14.36,0,0,1,268.16,65c-.49-.37-1-.76-1.46-1.17a13.47,13.47,0,0,0-4.14-2.67,9.86,9.86,0,0,0-3.15-.59c-4.36,0-5.87,4.3-6.32,6.14-.83,3.4.68,7.82,4.63,9.33a9.51,9.51,0,0,0,3.47.68,15.18,15.18,0,0,0,3.63-.56,15.64,15.64,0,0,1,3.76-.58,8.26,8.26,0,0,1,3.18.62,10.7,10.7,0,0,1,1.62.77A6.25,6.25,0,0,1,276,84.36a10.89,10.89,0,0,1-1.25,2.56C272,91.25,266.72,93.75,260.23,93.75Z" fill="#ffcd21"></path><path d="M259.4,45.28a19.92,19.92,0,0,1,6.73,1.19c3.79,1.36,9.14,4.23,11.9,8.14,2,2.81,2.61,5.19,1.81,7.53a4.78,4.78,0,0,1-4.66,3.61,7.83,7.83,0,0,1-2.83-.6,12.62,12.62,0,0,1-3-1.79c-1.87-1.42-3.57-3.25-6.15-4.14a11.83,11.83,0,0,0-3.8-.7c-5,0-7.4,4.1-8.27,7.67-1,4.25.82,9.74,5.86,11.67a11.56,11.56,0,0,0,4.19.81c2.89,0,5.06-1.14,7.39-1.14A6.42,6.42,0,0,1,271,78a9.28,9.28,0,0,1,1.28.6,4.28,4.28,0,0,1,1.82,5.11,9,9,0,0,1-1,2.1c-2.7,4.28-7.89,5.94-12.86,5.94a21.45,21.45,0,0,1-6.89-1.11c-11.29-4-16.84-16.72-14.62-27.89,1.95-9.85,10.74-17.47,20.68-17.47m0-4h0c-11.69,0-22.26,8.9-24.61,20.69a30.2,30.2,0,0,0,2.59,19.21A26,26,0,0,0,252,94.41a25.1,25.1,0,0,0,8.21,1.34c7.17,0,13.08-2.82,16.22-7.76a13.42,13.42,0,0,0,1.44-3,8.29,8.29,0,0,0-3.4-9.76,12.19,12.19,0,0,0-2-1,10.37,10.37,0,0,0-3.93-.76,18.1,18.1,0,0,0-4.22.63,13.14,13.14,0,0,1-3.17.51,7.41,7.41,0,0,1-2.76-.55c-3.22-1.23-3.92-4.83-3.4-7,.42-1.73,1.55-4.62,4.38-4.62a7.72,7.72,0,0,1,2.49.48,11.77,11.77,0,0,1,3.52,2.32c.49.4,1,.82,1.53,1.23a16.47,16.47,0,0,0,3.94,2.33,11.9,11.9,0,0,0,4.29.87,8.75,8.75,0,0,0,8.45-6.32c1.2-3.55.44-7.19-2.33-11.13-4.05-5.75-11.6-8.8-13.82-9.59a23.73,23.73,0,0,0-8.08-1.43Z" fill="#45413c"></path><path d="M304.79,116.42a13.48,13.48,0,0,1-6.4-2.22,17.65,17.65,0,0,1-4.1-3.36c-3.34-3.84-3.15-8.92-3-13.83l.05-1.08c0-.69.07-1.4.1-2.11-.22.44-.43.88-.64,1.33-2.46,5.13-4.78,10-8.63,10h0a4.45,4.45,0,0,1-2-.49c-7.32-3.64-6.85-9.27-5.42-14.29,1.92-6.76,4.2-13.54,6.41-20.1,1.51-4.51,3.08-9.16,4.51-13.76a3.91,3.91,0,0,1,3.71-2.6,4.67,4.67,0,0,1,1.1.14,26.56,26.56,0,0,1,4.56,1.65c2.87,1.4,5.77,3.07,7,6.7,1.08,3.11.88,6.49-.61,10.32l1.69-.51c2-.63,4.13-1.27,6-1.67a21.67,21.67,0,0,1,4.39-.46,15.09,15.09,0,0,1,8,2c3.41,2.12,4.94,6.75,3.28,9.89-2.22,4.21-9.18,5-15.33,5.75-1.42.17-2.8.33-3.93.53a78.3,78.3,0,0,0,2.25,10.37c.6,2.33,1.23,4.74,1.67,6.92l.09.3,0,.09c.54,2.68.93,5.71-.24,7.9a4.9,4.9,0,0,1-3.08,2.43A5.74,5.74,0,0,1,304.79,116.42Z" fill="#ffcd21"></path><path d="M289.4,55.88A2,2,0,0,1,290,56a23.81,23.81,0,0,1,4.19,1.51c2.73,1.33,5,2.68,6,5.56,1.07,3.08.56,6.27-.84,9.58a30.76,30.76,0,0,1-1.58,3.14c3.66-.78,8.21-2.52,11.8-3.28a19.15,19.15,0,0,1,4-.42,13.25,13.25,0,0,1,6.92,1.7c2.57,1.6,3.71,5.1,2.57,7.26-2.47,4.67-14.91,4.27-19.6,5.62.13,5.33,2.84,13.18,4.09,19.37l.09.3c.38,1.88.89,4.81-.05,6.56a2.84,2.84,0,0,1-1.86,1.44,3.56,3.56,0,0,1-.94.12,11.28,11.28,0,0,1-5.35-1.92,15.8,15.8,0,0,1-3.62-3c-2.87-3.29-2.67-7.85-2.48-12.58,0-.39,0-.58,0-1,.15-2.78.25-6.42.19-8.47a.31.31,0,0,0-.21-.26.41.41,0,0,0-.19,0,.31.31,0,0,0-.2.07c-3.62,4.29-6.58,15.82-10.76,15.82a2.54,2.54,0,0,1-1.13-.28c-5.45-2.71-6-6.34-4.39-12,3.23-11.36,7.39-22.5,10.91-33.82a1.91,1.91,0,0,1,1.8-1.19m0-4a5.89,5.89,0,0,0-5.56,3.83l0,.09,0,.08c-1.42,4.58-3,9.23-4.5,13.72-2.21,6.58-4.5,13.38-6.44,20.19-1.1,3.89-1.23,6.78-.41,9.36,1,3.08,3.21,5.45,6.86,7.27a6.47,6.47,0,0,0,2.92.7c3.06,0,5.25-2,7.08-4.81.18,3.46,1,6.92,3.49,9.84a19.55,19.55,0,0,0,4.56,3.76,15.22,15.22,0,0,0,7.45,2.51,7.72,7.72,0,0,0,1.95-.25h.1a6.88,6.88,0,0,0,4.28-3.41c1.47-2.75,1.05-6.21.44-9.23l0-.19-.06-.18,0-.12c-.46-2.21-1.08-4.61-1.69-6.93-.73-2.81-1.48-5.68-1.92-8.18l1.91-.23c6.63-.78,14.15-1.67,16.86-6.81,2.16-4.09.33-9.82-4-12.52a17.16,17.16,0,0,0-9-2.3,23.06,23.06,0,0,0-4.81.51c-1.37.29-2.83.7-4.3,1.14a15,15,0,0,0-.47-8c-1.52-4.34-4.95-6.32-8.05-7.84A29.52,29.52,0,0,0,291,52.09a6.36,6.36,0,0,0-1.61-.21Z" fill="#45413c"></path><path d="M320.4,128.16a10.59,10.59,0,0,1-6.07-2.25c-2.59-1.91-4.24-6-2.38-9.25a6.59,6.59,0,0,1,5.89-3.35,9.15,9.15,0,0,1,1.26.1c-.09-.16-.17-.33-.25-.51-2.46-5.52.63-11.82,3.72-17.29.75-1.32,1.56-2.68,2.41-4.1s1.78-3,2.69-4.59l1.26-2.55c.16-.28.38-.71.59-1.13s.46-.88.61-1.15l.32-.58a7.51,7.51,0,0,1,1.42-1.83l.17-.15.2-.12a4.79,4.79,0,0,1,2.38-.61,9.85,9.85,0,0,1,5.65,2.27A21.74,21.74,0,0,1,346,87.28a11.76,11.76,0,0,1,1.49,9.64,19.29,19.29,0,0,1-2.6,5.66c-4.25,6.5-11.81,12.38-15.36,13.74a11.41,11.41,0,0,1-4.06.83h-.2A6.84,6.84,0,0,1,326,125,6.4,6.4,0,0,1,320.4,128.16Z" fill="#ffcd21"></path><path d="M334.62,80.8a8.29,8.29,0,0,1,4.47,1.88,19.74,19.74,0,0,1,5.19,5.62,9.84,9.84,0,0,1,1.27,8.13,17.26,17.26,0,0,1-2.34,5.06c-4,6.08-11.18,11.74-14.39,13a9.46,9.46,0,0,1-3.34.7,5.25,5.25,0,0,1-4.8-3.05c-1.92-4.3.2-9.43,3.64-15.51,1.52-2.69,3.33-5.58,5.12-8.74l1.23-2.5c.32-.57.91-1.76,1.2-2.28l.32-.57a5.53,5.53,0,0,1,1-1.35,2.76,2.76,0,0,1,1.39-.35m-16.78,34.51a6.57,6.57,0,0,1,1.51.19,7.29,7.29,0,0,1,2.73,1.29c2.37,1.77,3.69,4.8,2.18,7.18a4.38,4.38,0,0,1-3.86,2.19,8.63,8.63,0,0,1-4.88-1.86c-1.73-1.28-3.17-4.3-1.83-6.65a4.59,4.59,0,0,1,4.15-2.34M334.62,76.8h0a6.73,6.73,0,0,0-3.38.88l-.4.23-.33.31a9.28,9.28,0,0,0-1.8,2.31l-.16.29-.17.29-.64,1.22-.55,1.06-.06.1-.05.1L325.9,86c-.88,1.55-1.78,3.06-2.64,4.51s-1.67,2.79-2.43,4.13c-2.93,5.2-5.86,11.12-4.56,16.82a8.45,8.45,0,0,0-6,4.23c-2.41,4.21-.36,9.43,2.93,11.85a12.56,12.56,0,0,0,7.25,2.64,8.51,8.51,0,0,0,8-11.39,15.13,15.13,0,0,0,1.85-.58c4.3-1.65,12.06-8,16.31-14.51a21.24,21.24,0,0,0,2.87-6.27,13.88,13.88,0,0,0-1.71-11.16,23.77,23.77,0,0,0-6.27-6.8,11.79,11.79,0,0,0-6.83-2.65Z" fill="#45413c"></path><path d="M320.21,208.19a2.86,2.86,0,0,0-4.28-3.59L286.06,236a2.87,2.87,0,0,0-1,2.92,2.83,2.83,0,0,0,2.22,2.14l15.33,3a2.85,2.85,0,0,1,2,4.15l-11,20.4a2.85,2.85,0,0,0,4.54,3.36l34.72-34.88a2.87,2.87,0,0,0-1.47-4.82l-17.9-3.53a2.87,2.87,0,0,1-2-1.58,2.82,2.82,0,0,1,.06-2.56Z" fill="#ffe500" stroke="#ebcb00" stroke-linejoin="round" stroke-width="5"></path><path d="M339.18,282.74a1.85,1.85,0,0,0-1.78-3.16L312,291.89a1.86,1.86,0,0,0-.43,3.35l8.64,5.34a1.86,1.86,0,0,1,.87,1.43,1.83,1.83,0,0,1-.63,1.55l-11.33,9.91a1.85,1.85,0,0,0,2,3.08l29.1-13.3a1.85,1.85,0,0,0,.21-3.26l-10.09-6.24a1.86,1.86,0,0,1-.25-3Z" fill="#ffe500" stroke="#ebcb00" stroke-linejoin="round" stroke-width="5"></path><path d="M118.11,273.8a2.08,2.08,0,0,1,2.18-3.44L148,285.65a2.07,2.07,0,0,1,1.35,1.8,2.1,2.1,0,0,1-1.07,2l-10,5.47a2.09,2.09,0,0,0-.45,3.32L149.91,310a2.08,2.08,0,0,1-2.42,3.34l-31.8-16.61a2.08,2.08,0,0,1,0-3.68l11.66-6.39a2.08,2.08,0,0,0,.46-3.31Z" fill="#ffe500" stroke="#ebcb00" stroke-linejoin="round" stroke-width="5"></path><path d="M118.080 230.090 A2.000 2.000 0 1 0 122.080 230.090 A2.000 2.000 0 1 0 118.080 230.090 Z" fill="#ffffff"></path></g></svg>